<?xml version="1.0" encoding="UTF-8"?>
<!DOCTYPE svg PUBLIC "-//W3C//DTD SVG 1.1//EN" "http://www.w3.org/Graphics/SVG/1.1/DTD/svg11.dtd">
<svg width="350mm" height="172mm" viewBox="0 0 35000 17200" version="1.1" xmlns="http://www.w3.org/2000/svg" xmlns:xlink="http://www.w3.org/1999/xlink" stroke-width="28.222" stroke-linejoin="round" xml:space="preserve">
 <path fill="rgb(255,255,255)" stroke="none" d="M 17513,17198 L 13,17198 13,13 35013,13 35013,17198 17513,17198 Z"/>
 <path fill="none" stroke="rgb(217,217,217)" stroke-width="26" stroke-linejoin="round" d="M 17513,17198 L 13,17198 13,13 35013,13 35013,17198 17513,17198 Z"/>
 <path fill="none" stroke="rgb(217,217,217)" stroke-width="26" stroke-linejoin="round" d="M 31164,13081 L 3320,13081"/>
 <path fill="none" stroke="rgb(217,217,217)" stroke-width="26" stroke-linejoin="round" d="M 31164,11690 L 3320,11690"/>
 <path fill="none" stroke="rgb(217,217,217)" stroke-width="26" stroke-linejoin="round" d="M 31164,10299 L 3320,10299"/>
 <path fill="none" stroke="rgb(217,217,217)" stroke-width="26" stroke-linejoin="round" d="M 31164,8908 L 3320,8908"/>
 <path fill="none" stroke="rgb(217,217,217)" stroke-width="26" stroke-linejoin="round" d="M 31164,7517 L 3320,7517"/>
 <path fill="none" stroke="rgb(217,217,217)" stroke-width="26" stroke-linejoin="round" d="M 31164,6125 L 3320,6125"/>
 <path fill="none" stroke="rgb(217,217,217)" stroke-width="26" stroke-linejoin="round" d="M 31164,4735 L 3320,4735"/>
 <path fill="none" stroke="rgb(217,217,217)" stroke-width="26" stroke-linejoin="round" d="M 31164,3344 L 3320,3344"/>
 <path fill="none" stroke="rgb(217,217,217)" stroke-width="26" stroke-linejoin="round" d="M 31164,1953 L 3320,1953"/>
 <path fill="none" stroke="rgb(217,217,217)" stroke-width="35" stroke-linejoin="round" d="M 3320,13081 L 31164,13081"/>
 <path fill="none" stroke="rgb(91,155,213)" stroke-width="97" stroke-linejoin="round" stroke-linecap="round" d="M 3527,13081 L 3943,13081 4359,13081 4774,13081 5190,13080 5606,13068 6021,13061 6437,13046 6853,13038 7268,13004 7683,12926 8099,12851 8514,12734 8930,12616 9346,12490 9761,12328 10177,12084 10593,11889 11009,11741 11423,11579 11839,11416 12255,11265 12670,11112 13086,10897 13502,10706 13917,10523 14333,10248 14749,10068 15164,9922 15579,9796 15995,9667 16410,9539 16826,9426 17242,9326 17657,9212 18073,9119 18489,9010 18904,8909 19319,8799 19735,8709 20150,8621 20566,8524 20982,8456 21398,8368 21813,8297 22229,8209 22645,8102 23060,7994 23475,7855 23891,7774 24306,7696 24722,7617 25138,7539 25553,7424 25969,7324 26385,7191 26800,7113 27215,7010 27631,6922 28046,6833 28462,6703 28878,6643 29293,6574 29709,6473 30125,6368 30540,6212 30956,6071"/>
 <path fill="none" stroke="rgb(255,192,0)" stroke-width="97" stroke-linejoin="round" stroke-linecap="round" d="M 3527,13060 L 3943,13001 4359,12960 4774,12954 5190,12948 5606,12929 6021,12884 6437,12859 6853,12821 7268,12790 7683,12765 8099,12730 8514,12705 8930,12679 9346,12636 9761,12571 10177,12548 10593,12534 11009,12507 11423,12472 11839,12426 12255,12368 12670,12313 13086,12269 13502,12217 13917,12141 14333,12098 14749,12061 15164,12025 15579,11979 15995,11941 16410,11895 16826,11847 17242,11821 17657,11794 18073,11769 18489,11737 18904,11714 19319,11677 19735,11628 20150,11591 20566,11551 20982,11519 21398,11473 21813,11433 22229,11410 22645,11381 23060,11338 23475,11309 23891,11274 24306,11249 24722,11216 25138,11166 25553,11138 25969,11108 26385,11089 26800,11058 27215,11013 27631,10983 28046,10967 28462,10950 28878,10923 29293,10885 29709,10850 30125,10814 30540,10784 30956,10727"/>
 <path fill="none" stroke="rgb(165,165,165)" stroke-width="97" stroke-linejoin="round" stroke-linecap="round" d="M 3527,13081 L 3943,13081 4359,13081 4774,13081 5190,13081 5606,13074 6021,12918 6437,12818 6853,12775 7268,12648 7683,12570 8099,12446 8514,12278 8930,12095 9346,11877 9761,11586 10177,11183 10593,10693 11009,10249 11423,9787 11839,9432 12255,9224 12670,9091 13086,9005 13502,8891 13917,8789 14333,8687 14749,8591 15164,8492 15579,8380 15995,8297 16410,8197 16826,8085 17242,7977 17657,7811 18073,7650 18489,7553 18904,7428 19319,7329 19735,7184 20150,7035 20566,6946 20982,6803 21398,6677 21813,6514 22229,6395 22645,6274 23060,6160 23475,6037 23891,5887 24306,5784 24722,5636 25138,5483 25553,5355 25969,5230 26385,5124 26800,4956 27215,4834 27631,4695 28046,4584 28462,4503 28878,4391 29293,4269 29709,4139 30125,4004 30540,3875 30956,3733"/>
 <path fill="none" stroke="rgb(237,125,49)" stroke-width="97" stroke-linejoin="round" stroke-linecap="round" d="M 3527,13081 L 3943,13081 4359,13081 4774,13081 5190,13081 5606,13080 6021,13080 6437,13080 6853,13080 7268,13080 7683,13080 8099,13080 8514,13080 8930,13079 9346,13075 9761,13059 10177,13017 10593,12938 11009,12794 11423,12633 11839,12449 12255,12265 12670,12100 13086,11925 13502,11754 13917,11598 14333,11437 14749,11298 15164,11164 15579,11042 15995,10938 16410,10839 16826,10751 17242,10649 17657,10554 18073,10461 18489,10346 18904,10243 19319,10124 19735,10019 20150,9897 20566,9776 20982,9654 21398,9504 21813,9370 22229,9202 22645,9041 23060,8882 23475,8696 23891,8530 24306,8325 24722,8134 25138,7928 25553,7681 25969,7467 26385,7204 26800,6945 27215,6654 27631,6337 28046,6030 28462,5650 28878,5297 29293,4894 29709,4450 30125,4026 30540,3526 30956,3034"/>
 <text class="SVGTextShape" transform="rotate(-59.9 2990 14536)"><tspan class="TextParagraph" font-family="Calibri, sans-serif" font-size="563px" font-weight="400"><tspan class="TextPosition" x="2990" y="14536"><tspan fill="rgb(89,89,89)" stroke="none">1-100</tspan></tspan></tspan></text>
 <text class="SVGTextShape" transform="rotate(-59.9 3531 15039)"><tspan class="TextParagraph" font-family="Calibri, sans-serif" font-size="563px" font-weight="400"><tspan class="TextPosition" x="3531" y="15039"><tspan fill="rgb(89,89,89)" stroke="none">201-300</tspan></tspan></tspan></text>
 <text class="SVGTextShape" transform="rotate(-59.9 4362 15039)"><tspan class="TextParagraph" font-family="Calibri, sans-serif" font-size="563px" font-weight="400"><tspan class="TextPosition" x="4362" y="15039"><tspan fill="rgb(89,89,89)" stroke="none">401-500</tspan></tspan></tspan></text>
 <text class="SVGTextShape" transform="rotate(-59.9 5194 15039)"><tspan class="TextParagraph" font-family="Calibri, sans-serif" font-size="563px" font-weight="400"><tspan class="TextPosition" x="5194" y="15039"><tspan fill="rgb(89,89,89)" stroke="none">601-700</tspan></tspan></tspan></text>
 <text class="SVGTextShape" transform="rotate(-59.9 6025 15039)"><tspan class="TextParagraph" font-family="Calibri, sans-serif" font-size="563px" font-weight="400"><tspan class="TextPosition" x="6025" y="15039"><tspan fill="rgb(89,89,89)" stroke="none">801-900</tspan></tspan></tspan></text>
 <text class="SVGTextShape" transform="rotate(-59.9 6565 15543)"><tspan class="TextParagraph" font-family="Calibri, sans-serif" font-size="563px" font-weight="400"><tspan class="TextPosition" x="6565" y="15543"><tspan fill="rgb(89,89,89)" stroke="none">1001-1100</tspan></tspan></tspan></text>
 <text class="SVGTextShape" transform="rotate(-59.9 7396 15543)"><tspan class="TextParagraph" font-family="Calibri, sans-serif" font-size="563px" font-weight="400"><tspan class="TextPosition" x="7396" y="15543"><tspan fill="rgb(89,89,89)" stroke="none">1201-1300</tspan></tspan></tspan></text>
 <text class="SVGTextShape" transform="rotate(-59.9 8227 15543)"><tspan class="TextParagraph" font-family="Calibri, sans-serif" font-size="563px" font-weight="400"><tspan class="TextPosition" x="8227" y="15543"><tspan fill="rgb(89,89,89)" stroke="none">1401-1500</tspan></tspan></tspan></text>
 <text class="SVGTextShape" transform="rotate(-59.9 9059 15543)"><tspan class="TextParagraph" font-family="Calibri, sans-serif" font-size="563px" font-weight="400"><tspan class="TextPosition" x="9059" y="15543"><tspan fill="rgb(89,89,89)" stroke="none">1601-1700</tspan></tspan></tspan></text>
 <text class="SVGTextShape" transform="rotate(-59.9 9890 15543)"><tspan class="TextParagraph" font-family="Calibri, sans-serif" font-size="563px" font-weight="400"><tspan class="TextPosition" x="9890" y="15543"><tspan fill="rgb(89,89,89)" stroke="none">1801-1900</tspan></tspan></tspan></text>
 <text class="SVGTextShape" transform="rotate(-59.9 10720 15543)"><tspan class="TextParagraph" font-family="Calibri, sans-serif" font-size="563px" font-weight="400"><tspan class="TextPosition" x="10720" y="15543"><tspan fill="rgb(89,89,89)" stroke="none">2001-2100</tspan></tspan></tspan></text>
 <text class="SVGTextShape" transform="rotate(-59.9 11552 15543)"><tspan class="TextParagraph" font-family="Calibri, sans-serif" font-size="563px" font-weight="400"><tspan class="TextPosition" x="11552" y="15543"><tspan fill="rgb(89,89,89)" stroke="none">2201-2300</tspan></tspan></tspan></text>
 <text class="SVGTextShape" transform="rotate(-59.9 12383 15543)"><tspan class="TextParagraph" font-family="Calibri, sans-serif" font-size="563px" font-weight="400"><tspan class="TextPosition" x="12383" y="15543"><tspan fill="rgb(89,89,89)" stroke="none">2401-2500</tspan></tspan></tspan></text>
 <text class="SVGTextShape" transform="rotate(-59.9 13214 15543)"><tspan class="TextParagraph" font-family="Calibri, sans-serif" font-size="563px" font-weight="400"><tspan class="TextPosition" x="13214" y="15543"><tspan fill="rgb(89,89,89)" stroke="none">2601-2700</tspan></tspan></tspan></text>
 <text class="SVGTextShape" transform="rotate(-59.9 14046 15543)"><tspan class="TextParagraph" font-family="Calibri, sans-serif" font-size="563px" font-weight="400"><tspan class="TextPosition" x="14046" y="15543"><tspan fill="rgb(89,89,89)" stroke="none">2801-2900</tspan></tspan></tspan></text>
 <text class="SVGTextShape" transform="rotate(-59.9 14876 15543)"><tspan class="TextParagraph" font-family="Calibri, sans-serif" font-size="563px" font-weight="400"><tspan class="TextPosition" x="14876" y="15543"><tspan fill="rgb(89,89,89)" stroke="none">3001-3100</tspan></tspan></tspan></text>
 <text class="SVGTextShape" transform="rotate(-59.9 15707 15543)"><tspan class="TextParagraph" font-family="Calibri, sans-serif" font-size="563px" font-weight="400"><tspan class="TextPosition" x="15707" y="15543"><tspan fill="rgb(89,89,89)" stroke="none">3201-3300</tspan></tspan></tspan></text>
 <text class="SVGTextShape" transform="rotate(-59.9 16539 15543)"><tspan class="TextParagraph" font-family="Calibri, sans-serif" font-size="563px" font-weight="400"><tspan class="TextPosition" x="16539" y="15543"><tspan fill="rgb(89,89,89)" stroke="none">3401-3500</tspan></tspan></tspan></text>
 <text class="SVGTextShape" transform="rotate(-59.9 17370 15543)"><tspan class="TextParagraph" font-family="Calibri, sans-serif" font-size="563px" font-weight="400"><tspan class="TextPosition" x="17370" y="15543"><tspan fill="rgb(89,89,89)" stroke="none">3601-3700</tspan></tspan></tspan></text>
 <text class="SVGTextShape" transform="rotate(-59.9 18201 15543)"><tspan class="TextParagraph" font-family="Calibri, sans-serif" font-size="563px" font-weight="400"><tspan class="TextPosition" x="18201" y="15543"><tspan fill="rgb(89,89,89)" stroke="none">3801-3900</tspan></tspan></tspan></text>
 <text class="SVGTextShape" transform="rotate(-59.9 19032 15543)"><tspan class="TextParagraph" font-family="Calibri, sans-serif" font-size="563px" font-weight="400"><tspan class="TextPosition" x="19032" y="15543"><tspan fill="rgb(89,89,89)" stroke="none">4001-4100</tspan></tspan></tspan></text>
 <text class="SVGTextShape" transform="rotate(-59.9 19863 15543)"><tspan class="TextParagraph" font-family="Calibri, sans-serif" font-size="563px" font-weight="400"><tspan class="TextPosition" x="19863" y="15543"><tspan fill="rgb(89,89,89)" stroke="none">4201-4300</tspan></tspan></tspan></text>
 <text class="SVGTextShape" transform="rotate(-59.9 20695 15543)"><tspan class="TextParagraph" font-family="Calibri, sans-serif" font-size="563px" font-weight="400"><tspan class="TextPosition" x="20695" y="15543"><tspan fill="rgb(89,89,89)" stroke="none">4401-4500</tspan></tspan></tspan></text>
 <text class="SVGTextShape" transform="rotate(-59.9 21526 15543)"><tspan class="TextParagraph" font-family="Calibri, sans-serif" font-size="563px" font-weight="400"><tspan class="TextPosition" x="21526" y="15543"><tspan fill="rgb(89,89,89)" stroke="none">4601-4700</tspan></tspan></tspan></text>
 <text class="SVGTextShape" transform="rotate(-59.9 22356 15543)"><tspan class="TextParagraph" font-family="Calibri, sans-serif" font-size="563px" font-weight="400"><tspan class="TextPosition" x="22356" y="15543"><tspan fill="rgb(89,89,89)" stroke="none">4801-4900</tspan></tspan></tspan></text>
 <text class="SVGTextShape" transform="rotate(-59.9 23188 15543)"><tspan class="TextParagraph" font-family="Calibri, sans-serif" font-size="563px" font-weight="400"><tspan class="TextPosition" x="23188" y="15543"><tspan fill="rgb(89,89,89)" stroke="none">5001-5100</tspan></tspan></tspan></text>
 <text class="SVGTextShape" transform="rotate(-59.9 24019 15543)"><tspan class="TextParagraph" font-family="Calibri, sans-serif" font-size="563px" font-weight="400"><tspan class="TextPosition" x="24019" y="15543"><tspan fill="rgb(89,89,89)" stroke="none">5201-5300</tspan></tspan></tspan></text>
 <text class="SVGTextShape" transform="rotate(-59.9 24850 15543)"><tspan class="TextParagraph" font-family="Calibri, sans-serif" font-size="563px" font-weight="400"><tspan class="TextPosition" x="24850" y="15543"><tspan fill="rgb(89,89,89)" stroke="none">5401-5500</tspan></tspan></tspan></text>
 <text class="SVGTextShape" transform="rotate(-59.9 25682 15543)"><tspan class="TextParagraph" font-family="Calibri, sans-serif" font-size="563px" font-weight="400"><tspan class="TextPosition" x="25682" y="15543"><tspan fill="rgb(89,89,89)" stroke="none">5601-5700</tspan></tspan></tspan></text>
 <text class="SVGTextShape" transform="rotate(-59.9 26512 15543)"><tspan class="TextParagraph" font-family="Calibri, sans-serif" font-size="563px" font-weight="400"><tspan class="TextPosition" x="26512" y="15543"><tspan fill="rgb(89,89,89)" stroke="none">5801-5900</tspan></tspan></tspan></text>
 <text class="SVGTextShape" transform="rotate(-59.9 27344 15543)"><tspan class="TextParagraph" font-family="Calibri, sans-serif" font-size="563px" font-weight="400"><tspan class="TextPosition" x="27344" y="15543"><tspan fill="rgb(89,89,89)" stroke="none">6001-6100</tspan></tspan></tspan></text>
 <text class="SVGTextShape" transform="rotate(-59.9 28175 15543)"><tspan class="TextParagraph" font-family="Calibri, sans-serif" font-size="563px" font-weight="400"><tspan class="TextPosition" x="28175" y="15543"><tspan fill="rgb(89,89,89)" stroke="none">6201-6300</tspan></tspan></tspan></text>
 <text class="SVGTextShape" transform="rotate(-59.9 29006 15543)"><tspan class="TextParagraph" font-family="Calibri, sans-serif" font-size="563px" font-weight="400"><tspan class="TextPosition" x="29006" y="15543"><tspan fill="rgb(89,89,89)" stroke="none">6401-6500</tspan></tspan></tspan></text>
 <text class="SVGTextShape" transform="rotate(-59.9 29838 15543)"><tspan class="TextParagraph" font-family="Calibri, sans-serif" font-size="563px" font-weight="400"><tspan class="TextPosition" x="29838" y="15543"><tspan fill="rgb(89,89,89)" stroke="none">6601-6700</tspan></tspan></tspan></text>
 <text class="SVGTextShape"><tspan class="TextParagraph" font-family="Calibri, sans-serif" font-size="563px" font-weight="400"><tspan class="TextPosition" x="2930" y="13227"><tspan fill="rgb(89,89,89)" stroke="none">0</tspan></tspan></tspan></text>
 <text class="SVGTextShape"><tspan class="TextParagraph" font-family="Calibri, sans-serif" font-size="563px" font-weight="400"><tspan class="TextPosition" x="2348" y="11835"><tspan fill="rgb(89,89,89)" stroke="none">500</tspan></tspan></tspan></text>
 <text class="SVGTextShape"><tspan class="TextParagraph" font-family="Calibri, sans-serif" font-size="563px" font-weight="400"><tspan class="TextPosition" x="2057" y="10444"><tspan fill="rgb(89,89,89)" stroke="none">1000</tspan></tspan></tspan></text>
 <text class="SVGTextShape"><tspan class="TextParagraph" font-family="Calibri, sans-serif" font-size="563px" font-weight="400"><tspan class="TextPosition" x="2057" y="9053"><tspan fill="rgb(89,89,89)" stroke="none">1500</tspan></tspan></tspan></text>
 <text class="SVGTextShape"><tspan class="TextParagraph" font-family="Calibri, sans-serif" font-size="563px" font-weight="400"><tspan class="TextPosition" x="2057" y="7662"><tspan fill="rgb(89,89,89)" stroke="none">2000</tspan></tspan></tspan></text>
 <text class="SVGTextShape"><tspan class="TextParagraph" font-family="Calibri, sans-serif" font-size="563px" font-weight="400"><tspan class="TextPosition" x="2057" y="6271"><tspan fill="rgb(89,89,89)" stroke="none">2500</tspan></tspan></tspan></text>
 <text class="SVGTextShape"><tspan class="TextParagraph" font-family="Calibri, sans-serif" font-size="563px" font-weight="400"><tspan class="TextPosition" x="2057" y="4880"><tspan fill="rgb(89,89,89)" stroke="none">3000</tspan></tspan></tspan></text>
 <text class="SVGTextShape"><tspan class="TextParagraph" font-family="Calibri, sans-serif" font-size="563px" font-weight="400"><tspan class="TextPosition" x="2057" y="3489"><tspan fill="rgb(89,89,89)" stroke="none">3500</tspan></tspan></tspan></text>
 <text class="SVGTextShape"><tspan class="TextParagraph" font-family="Calibri, sans-serif" font-size="563px" font-weight="400"><tspan class="TextPosition" x="2057" y="2098"><tspan fill="rgb(89,89,89)" stroke="none">4000</tspan></tspan></tspan></text>
 <text class="SVGTextShape"><tspan class="TextParagraph" font-family="Calibri, sans-serif" font-size="563px" font-weight="400"><tspan class="TextPosition" x="31264" y="13227"><tspan fill="rgb(89,89,89)" stroke="none">0</tspan></tspan></tspan></text>
 <text class="SVGTextShape"><tspan class="TextParagraph" font-family="Calibri, sans-serif" font-size="563px" font-weight="400"><tspan class="TextPosition" x="31264" y="11990"><tspan fill="rgb(89,89,89)" stroke="none">5000</tspan></tspan></tspan></text>
 <text class="SVGTextShape"><tspan class="TextParagraph" font-family="Calibri, sans-serif" font-size="563px" font-weight="400"><tspan class="TextPosition" x="31264" y="10754"><tspan fill="rgb(89,89,89)" stroke="none">10000</tspan></tspan></tspan></text>
 <text class="SVGTextShape"><tspan class="TextParagraph" font-family="Calibri, sans-serif" font-size="563px" font-weight="400"><tspan class="TextPosition" x="31264" y="9517"><tspan fill="rgb(89,89,89)" stroke="none">15000</tspan></tspan></tspan></text>
 <text class="SVGTextShape"><tspan class="TextParagraph" font-family="Calibri, sans-serif" font-size="563px" font-weight="400"><tspan class="TextPosition" x="31264" y="8281"><tspan fill="rgb(89,89,89)" stroke="none">20000</tspan></tspan></tspan></text>
 <text class="SVGTextShape"><tspan class="TextParagraph" font-family="Calibri, sans-serif" font-size="563px" font-weight="400"><tspan class="TextPosition" x="31264" y="7043"><tspan fill="rgb(89,89,89)" stroke="none">25000</tspan></tspan></tspan></text>
 <text class="SVGTextShape"><tspan class="TextParagraph" font-family="Calibri, sans-serif" font-size="563px" font-weight="400"><tspan class="TextPosition" x="31264" y="5807"><tspan fill="rgb(89,89,89)" stroke="none">30000</tspan></tspan></tspan></text>
 <text class="SVGTextShape"><tspan class="TextParagraph" font-family="Calibri, sans-serif" font-size="563px" font-weight="400"><tspan class="TextPosition" x="31264" y="4570"><tspan fill="rgb(89,89,89)" stroke="none">35000</tspan></tspan></tspan></text>
 <text class="SVGTextShape"><tspan class="TextParagraph" font-family="Calibri, sans-serif" font-size="563px" font-weight="400"><tspan class="TextPosition" x="31264" y="3334"><tspan fill="rgb(89,89,89)" stroke="none">40000</tspan></tspan></tspan></text>
 <text class="SVGTextShape"><tspan class="TextParagraph" font-family="Calibri, sans-serif" font-size="563px" font-weight="400"><tspan class="TextPosition" x="31264" y="2098"><tspan fill="rgb(89,89,89)" stroke="none">45000</tspan></tspan></tspan></text>
 <text class="SVGTextShape"><tspan class="TextParagraph" font-family="Calibri, sans-serif" font-size="676px" font-weight="700"><tspan class="TextPosition" x="14235" y="1223"><tspan fill="rgb(89,89,89)" stroke="none">Chicken cause of death</tspan></tspan></tspan></text>
 <path fill="none" stroke="rgb(91,155,213)" stroke-width="97" stroke-linejoin="round" stroke-linecap="round" d="M 12249,16807 L 13048,16807"/>
 <path fill="none" stroke="rgb(255,192,0)" stroke-width="97" stroke-linejoin="round" stroke-linecap="round" d="M 14815,16807 L 15614,16807"/>
 <path fill="none" stroke="rgb(165,165,165)" stroke-width="97" stroke-linejoin="round" stroke-linecap="round" d="M 18068,16807 L 18867,16807"/>
 <path fill="none" stroke="rgb(237,125,49)" stroke-width="97" stroke-linejoin="round" stroke-linecap="round" d="M 20211,16807 L 21011,16807"/>
 <text class="SVGTextShape"><tspan class="TextParagraph" font-family="Calibri, sans-serif" font-size="563px" font-weight="400"><tspan class="TextPosition" x="13172" y="16951"><tspan fill="rgb(89,89,89)" stroke="none">Thirst</tspan></tspan></tspan></text>
 <text class="SVGTextShape"><tspan class="TextParagraph" font-family="Calibri, sans-serif" font-size="563px" font-weight="400"><tspan class="TextPosition" x="15738" y="16951"><tspan fill="rgb(89,89,89)" stroke="none">Predator</tspan></tspan></tspan></text>
 <text class="SVGTextShape"><tspan class="TextParagraph" font-family="Calibri, sans-serif" font-size="563px" font-weight="400"><tspan class="TextPosition" x="18991" y="16951"><tspan fill="rgb(89,89,89)" stroke="none">Age</tspan></tspan></tspan></text>
 <text class="SVGTextShape"><tspan class="TextParagraph" font-family="Calibri, sans-serif" font-size="563px" font-weight="400"><tspan class="TextPosition" x="21135" y="16951"><tspan fill="rgb(89,89,89)" stroke="none">Hunger</tspan></tspan></tspan></text>
 <text class="SVGTextShape" transform="rotate(-90 1056 11432)"><tspan class="TextParagraph" font-family="Calibri, sans-serif" font-size="564px" font-weight="400"><tspan class="TextPosition" x="1056" y="11432"><tspan fill="rgb(89,89,89)" stroke="none">Thirst / Predator / Age</tspan></tspan></tspan></text>
 <text class="SVGTextShape" transform="rotate(-90 34011 9740)"><tspan class="TextParagraph" font-family="Calibri, sans-serif" font-size="564px" font-weight="400"><tspan class="TextPosition" x="34011" y="9740"><tspan fill="rgb(89,89,89)" stroke="none">Hunger</tspan></tspan></tspan></text>
</svg>