<?xml version="1.0" encoding="UTF-8"?>
<!DOCTYPE svg PUBLIC "-//W3C//DTD SVG 1.1//EN" "http://www.w3.org/Graphics/SVG/1.1/DTD/svg11.dtd">
<svg width="350mm" height="172mm" viewBox="0 0 35000 17200" version="1.1" xmlns="http://www.w3.org/2000/svg" xmlns:xlink="http://www.w3.org/1999/xlink" stroke-width="28.222" stroke-linejoin="round" xml:space="preserve">
 <path fill="rgb(255,255,255)" stroke="none" d="M 17513,17203 L 13,17203 13,13 35013,13 35013,17203 17513,17203 Z"/>
 <path fill="none" stroke="rgb(217,217,217)" stroke-width="26" stroke-linejoin="round" d="M 17513,17203 L 13,17203 13,13 35013,13 35013,17203 17513,17203 Z"/>
 <path fill="none" stroke="rgb(217,217,217)" stroke-width="26" stroke-linejoin="round" d="M 31746,13087 L 2744,13087"/>
 <path fill="none" stroke="rgb(217,217,217)" stroke-width="26" stroke-linejoin="round" d="M 31746,11973 L 2744,11973"/>
 <path fill="none" stroke="rgb(217,217,217)" stroke-width="26" stroke-linejoin="round" d="M 31746,10860 L 2744,10860"/>
 <path fill="none" stroke="rgb(217,217,217)" stroke-width="26" stroke-linejoin="round" d="M 31746,9747 L 2744,9747"/>
 <path fill="none" stroke="rgb(217,217,217)" stroke-width="26" stroke-linejoin="round" d="M 31746,8633 L 2744,8633"/>
 <path fill="none" stroke="rgb(217,217,217)" stroke-width="26" stroke-linejoin="round" d="M 31746,7520 L 2744,7520"/>
 <path fill="none" stroke="rgb(217,217,217)" stroke-width="26" stroke-linejoin="round" d="M 31746,6406 L 2744,6406"/>
 <path fill="none" stroke="rgb(217,217,217)" stroke-width="26" stroke-linejoin="round" d="M 31746,5293 L 2744,5293"/>
 <path fill="none" stroke="rgb(217,217,217)" stroke-width="26" stroke-linejoin="round" d="M 31746,4179 L 2744,4179"/>
 <path fill="none" stroke="rgb(217,217,217)" stroke-width="26" stroke-linejoin="round" d="M 31746,3066 L 2744,3066"/>
 <path fill="none" stroke="rgb(217,217,217)" stroke-width="26" stroke-linejoin="round" d="M 31746,1953 L 2744,1953"/>
 <path fill="none" stroke="rgb(217,217,217)" stroke-width="35" stroke-linejoin="round" d="M 2744,13087 L 31746,13087"/>
 <path fill="none" stroke="rgb(91,155,213)" stroke-width="97" stroke-linejoin="round" stroke-linecap="round" d="M 2960,13087 L 3392,13087 3825,13087 4259,13087 4691,13087 5124,13087 5557,13087 5989,13087 6423,13087 6856,13087 7288,13087 7721,13087 8154,13087 8587,13087 9020,13087 9453,13087 9885,13087 10318,13087 10752,13087 11184,12823 11617,12641 12050,12641 12482,12641 12916,12573 13349,12260 13781,12196 14214,11997 14647,11751 15080,11605 15513,11314 15946,11305 16378,10924 16811,10860 17245,10823 17677,10637 18110,10637 18543,10637 18975,10637 19408,10465 19842,9596 20274,9524 20707,9363 21140,8674 21572,8479 22006,8411 22439,8356 22871,8064 23304,7176 23737,6851 24170,6671 24603,6406 25036,6214 25468,5961 25901,5635 26335,5170 26767,5070 27200,5070 27633,4984 28065,4847 28499,4191 28932,3726 29364,3511 29797,3511 30230,3511 30663,3129 31096,3066 31529,2795"/>
 <path fill="none" stroke="rgb(237,125,49)" stroke-width="97" stroke-linejoin="round" stroke-linecap="round" d="M 2960,13087 L 3392,13087 3825,13087 4259,13087 4691,13087 5124,13087 5557,13087 5989,13087 6423,13087 6856,13087 7288,13087 7721,13087 8154,13087 8587,13087 9020,13087 9453,13087 9885,13087 10318,13087 10752,13087 11184,13087 11617,13087 12050,13087 12482,13087 12916,13087 13349,12880 13781,12864 14214,12864 14647,12793 15080,12607 15513,12419 15946,12196 16378,12196 16811,12196 17245,12196 17677,12196 18110,12196 18543,12073 18975,11973 19408,11973 19842,11764 20274,11486 20707,11305 21140,11305 21572,11219 22006,10693 22439,10637 22871,10637 23304,10637 23737,10533 24170,10150 24603,9969 25036,9969 25468,9969 25901,9969 26335,9969 26767,9766 27200,9747 27633,9747 28065,9546 28499,9318 28932,8919 29364,8856 29797,8563 30230,8091 30663,7883 31096,7411 31529,7297"/>
 <path fill="none" stroke="rgb(255,192,0)" stroke-width="97" stroke-linejoin="round" stroke-linecap="round" d="M 2960,13087 L 3392,13087 3825,13087 4259,13087 4691,13087 5124,13087 5557,13087 5989,13087 6423,13087 6856,13087 7288,13087 7721,13087 8154,13087 8587,13087 9020,13087 9453,13087 9885,13087 10318,13087 10752,13087 11184,13087 11617,13087 12050,13087 12482,13087 12916,13087 13349,13087 13781,13087 14214,13087 14647,13087 15080,13087 15513,13087 15946,13087 16378,13087 16811,13087 17245,13087 17677,13087 18110,13087 18543,13087 18975,13087 19408,13087 19842,13087 20274,13087 20707,13087 21140,13087 21572,13087 22006,13087 22439,13087 22871,13087 23304,13087 23737,13087 24170,13087 24603,13087 25036,13087 25468,13087 25901,13087 26335,13087 26767,13087 27200,13087 27633,13087 28065,13087 28499,13087 28932,13087 29364,13087 29797,13087 30230,13087 30663,13087 31096,13087 31529,13087"/>
 <path fill="none" stroke="rgb(165,165,165)" stroke-width="97" stroke-linejoin="round" stroke-linecap="round" d="M 2960,13087 L 3392,13087 3825,13087 4259,13087 4691,13087 5124,13087 5557,13087 5989,13087 6423,13087 6856,13087 7288,12967 7721,12694 8154,12669 8587,12669 9020,12669 9453,12669 9885,12669 10318,12632 10752,12468 11184,12294 11617,12098 12050,12001 12482,12001 12916,12001 13349,11999 13781,11930 14214,11786 14647,11620 15080,11261 15513,11032 15946,10946 16378,10907 16811,10819 17245,10654 17677,10599 18110,10514 18543,10319 18975,10077 19408,9758 19842,9518 20274,9296 20707,9198 21140,9159 21572,9094 22006,9003 22439,8765 22871,8362 23304,8114 23737,7808 24170,7614 24603,7540 25036,7470 25468,7213 25901,6795 26335,6600 26767,6281 27200,5956 27633,5723 28065,5573 28499,5311 28932,5110 29364,4976 29797,4757 30230,4426 30663,4208 31096,4034 31529,3805"/>
 <text class="SVGTextShape" transform="rotate(-59.9 2423 14542)"><tspan class="TextParagraph" font-family="Calibri, sans-serif" font-size="563px" font-weight="400"><tspan class="TextPosition" x="2423" y="14542"><tspan fill="rgb(89,89,89)" stroke="none">1-100</tspan></tspan></tspan></text>
 <text class="SVGTextShape" transform="rotate(-59.9 2997 15045)"><tspan class="TextParagraph" font-family="Calibri, sans-serif" font-size="563px" font-weight="400"><tspan class="TextPosition" x="2997" y="15045"><tspan fill="rgb(89,89,89)" stroke="none">201-300</tspan></tspan></tspan></text>
 <text class="SVGTextShape" transform="rotate(-59.9 3864 15045)"><tspan class="TextParagraph" font-family="Calibri, sans-serif" font-size="563px" font-weight="400"><tspan class="TextPosition" x="3864" y="15045"><tspan fill="rgb(89,89,89)" stroke="none">401-500</tspan></tspan></tspan></text>
 <text class="SVGTextShape" transform="rotate(-59.9 4729 15045)"><tspan class="TextParagraph" font-family="Calibri, sans-serif" font-size="563px" font-weight="400"><tspan class="TextPosition" x="4729" y="15045"><tspan fill="rgb(89,89,89)" stroke="none">601-700</tspan></tspan></tspan></text>
 <text class="SVGTextShape" transform="rotate(-59.9 5595 15045)"><tspan class="TextParagraph" font-family="Calibri, sans-serif" font-size="563px" font-weight="400"><tspan class="TextPosition" x="5595" y="15045"><tspan fill="rgb(89,89,89)" stroke="none">801-900</tspan></tspan></tspan></text>
 <text class="SVGTextShape" transform="rotate(-59.9 6170 15549)"><tspan class="TextParagraph" font-family="Calibri, sans-serif" font-size="563px" font-weight="400"><tspan class="TextPosition" x="6170" y="15549"><tspan fill="rgb(89,89,89)" stroke="none">1001-1100</tspan></tspan></tspan></text>
 <text class="SVGTextShape" transform="rotate(-59.9 7035 15549)"><tspan class="TextParagraph" font-family="Calibri, sans-serif" font-size="563px" font-weight="400"><tspan class="TextPosition" x="7035" y="15549"><tspan fill="rgb(89,89,89)" stroke="none">1201-1300</tspan></tspan></tspan></text>
 <text class="SVGTextShape" transform="rotate(-59.9 7901 15549)"><tspan class="TextParagraph" font-family="Calibri, sans-serif" font-size="563px" font-weight="400"><tspan class="TextPosition" x="7901" y="15549"><tspan fill="rgb(89,89,89)" stroke="none">1401-1500</tspan></tspan></tspan></text>
 <text class="SVGTextShape" transform="rotate(-59.9 8767 15549)"><tspan class="TextParagraph" font-family="Calibri, sans-serif" font-size="563px" font-weight="400"><tspan class="TextPosition" x="8767" y="15549"><tspan fill="rgb(89,89,89)" stroke="none">1601-1700</tspan></tspan></tspan></text>
 <text class="SVGTextShape" transform="rotate(-59.9 9633 15549)"><tspan class="TextParagraph" font-family="Calibri, sans-serif" font-size="563px" font-weight="400"><tspan class="TextPosition" x="9633" y="15549"><tspan fill="rgb(89,89,89)" stroke="none">1801-1900</tspan></tspan></tspan></text>
 <text class="SVGTextShape" transform="rotate(-59.9 10498 15549)"><tspan class="TextParagraph" font-family="Calibri, sans-serif" font-size="563px" font-weight="400"><tspan class="TextPosition" x="10498" y="15549"><tspan fill="rgb(89,89,89)" stroke="none">2001-2100</tspan></tspan></tspan></text>
 <text class="SVGTextShape" transform="rotate(-59.9 11364 15549)"><tspan class="TextParagraph" font-family="Calibri, sans-serif" font-size="563px" font-weight="400"><tspan class="TextPosition" x="11364" y="15549"><tspan fill="rgb(89,89,89)" stroke="none">2201-2300</tspan></tspan></tspan></text>
 <text class="SVGTextShape" transform="rotate(-59.9 12230 15549)"><tspan class="TextParagraph" font-family="Calibri, sans-serif" font-size="563px" font-weight="400"><tspan class="TextPosition" x="12230" y="15549"><tspan fill="rgb(89,89,89)" stroke="none">2401-2500</tspan></tspan></tspan></text>
 <text class="SVGTextShape" transform="rotate(-59.9 13095 15549)"><tspan class="TextParagraph" font-family="Calibri, sans-serif" font-size="563px" font-weight="400"><tspan class="TextPosition" x="13095" y="15549"><tspan fill="rgb(89,89,89)" stroke="none">2601-2700</tspan></tspan></tspan></text>
 <text class="SVGTextShape" transform="rotate(-59.9 13962 15549)"><tspan class="TextParagraph" font-family="Calibri, sans-serif" font-size="563px" font-weight="400"><tspan class="TextPosition" x="13962" y="15549"><tspan fill="rgb(89,89,89)" stroke="none">2801-2900</tspan></tspan></tspan></text>
 <text class="SVGTextShape" transform="rotate(-59.9 14827 15549)"><tspan class="TextParagraph" font-family="Calibri, sans-serif" font-size="563px" font-weight="400"><tspan class="TextPosition" x="14827" y="15549"><tspan fill="rgb(89,89,89)" stroke="none">3001-3100</tspan></tspan></tspan></text>
 <text class="SVGTextShape" transform="rotate(-59.9 15692 15549)"><tspan class="TextParagraph" font-family="Calibri, sans-serif" font-size="563px" font-weight="400"><tspan class="TextPosition" x="15692" y="15549"><tspan fill="rgb(89,89,89)" stroke="none">3201-3300</tspan></tspan></tspan></text>
 <text class="SVGTextShape" transform="rotate(-59.9 16559 15549)"><tspan class="TextParagraph" font-family="Calibri, sans-serif" font-size="563px" font-weight="400"><tspan class="TextPosition" x="16559" y="15549"><tspan fill="rgb(89,89,89)" stroke="none">3401-3500</tspan></tspan></tspan></text>
 <text class="SVGTextShape" transform="rotate(-59.9 17424 15549)"><tspan class="TextParagraph" font-family="Calibri, sans-serif" font-size="563px" font-weight="400"><tspan class="TextPosition" x="17424" y="15549"><tspan fill="rgb(89,89,89)" stroke="none">3601-3700</tspan></tspan></tspan></text>
 <text class="SVGTextShape" transform="rotate(-59.9 18289 15549)"><tspan class="TextParagraph" font-family="Calibri, sans-serif" font-size="563px" font-weight="400"><tspan class="TextPosition" x="18289" y="15549"><tspan fill="rgb(89,89,89)" stroke="none">3801-3900</tspan></tspan></tspan></text>
 <text class="SVGTextShape" transform="rotate(-59.9 19156 15549)"><tspan class="TextParagraph" font-family="Calibri, sans-serif" font-size="563px" font-weight="400"><tspan class="TextPosition" x="19156" y="15549"><tspan fill="rgb(89,89,89)" stroke="none">4001-4100</tspan></tspan></tspan></text>
 <text class="SVGTextShape" transform="rotate(-59.9 20021 15549)"><tspan class="TextParagraph" font-family="Calibri, sans-serif" font-size="563px" font-weight="400"><tspan class="TextPosition" x="20021" y="15549"><tspan fill="rgb(89,89,89)" stroke="none">4201-4300</tspan></tspan></tspan></text>
 <text class="SVGTextShape" transform="rotate(-59.9 20887 15549)"><tspan class="TextParagraph" font-family="Calibri, sans-serif" font-size="563px" font-weight="400"><tspan class="TextPosition" x="20887" y="15549"><tspan fill="rgb(89,89,89)" stroke="none">4401-4500</tspan></tspan></tspan></text>
 <text class="SVGTextShape" transform="rotate(-59.9 21753 15549)"><tspan class="TextParagraph" font-family="Calibri, sans-serif" font-size="563px" font-weight="400"><tspan class="TextPosition" x="21753" y="15549"><tspan fill="rgb(89,89,89)" stroke="none">4601-4700</tspan></tspan></tspan></text>
 <text class="SVGTextShape" transform="rotate(-59.9 22618 15549)"><tspan class="TextParagraph" font-family="Calibri, sans-serif" font-size="563px" font-weight="400"><tspan class="TextPosition" x="22618" y="15549"><tspan fill="rgb(89,89,89)" stroke="none">4801-4900</tspan></tspan></tspan></text>
 <text class="SVGTextShape" transform="rotate(-59.9 23484 15549)"><tspan class="TextParagraph" font-family="Calibri, sans-serif" font-size="563px" font-weight="400"><tspan class="TextPosition" x="23484" y="15549"><tspan fill="rgb(89,89,89)" stroke="none">5001-5100</tspan></tspan></tspan></text>
 <text class="SVGTextShape" transform="rotate(-59.9 24350 15549)"><tspan class="TextParagraph" font-family="Calibri, sans-serif" font-size="563px" font-weight="400"><tspan class="TextPosition" x="24350" y="15549"><tspan fill="rgb(89,89,89)" stroke="none">5201-5300</tspan></tspan></tspan></text>
 <text class="SVGTextShape" transform="rotate(-59.9 25216 15549)"><tspan class="TextParagraph" font-family="Calibri, sans-serif" font-size="563px" font-weight="400"><tspan class="TextPosition" x="25216" y="15549"><tspan fill="rgb(89,89,89)" stroke="none">5401-5500</tspan></tspan></tspan></text>
 <text class="SVGTextShape" transform="rotate(-59.9 26081 15549)"><tspan class="TextParagraph" font-family="Calibri, sans-serif" font-size="563px" font-weight="400"><tspan class="TextPosition" x="26081" y="15549"><tspan fill="rgb(89,89,89)" stroke="none">5601-5700</tspan></tspan></tspan></text>
 <text class="SVGTextShape" transform="rotate(-59.9 26947 15549)"><tspan class="TextParagraph" font-family="Calibri, sans-serif" font-size="563px" font-weight="400"><tspan class="TextPosition" x="26947" y="15549"><tspan fill="rgb(89,89,89)" stroke="none">5801-5900</tspan></tspan></tspan></text>
 <text class="SVGTextShape" transform="rotate(-59.9 27813 15549)"><tspan class="TextParagraph" font-family="Calibri, sans-serif" font-size="563px" font-weight="400"><tspan class="TextPosition" x="27813" y="15549"><tspan fill="rgb(89,89,89)" stroke="none">6001-6100</tspan></tspan></tspan></text>
 <text class="SVGTextShape" transform="rotate(-59.9 28678 15549)"><tspan class="TextParagraph" font-family="Calibri, sans-serif" font-size="563px" font-weight="400"><tspan class="TextPosition" x="28678" y="15549"><tspan fill="rgb(89,89,89)" stroke="none">6201-6300</tspan></tspan></tspan></text>
 <text class="SVGTextShape" transform="rotate(-59.9 29545 15549)"><tspan class="TextParagraph" font-family="Calibri, sans-serif" font-size="563px" font-weight="400"><tspan class="TextPosition" x="29545" y="15549"><tspan fill="rgb(89,89,89)" stroke="none">6401-6500</tspan></tspan></tspan></text>
 <text class="SVGTextShape" transform="rotate(-59.9 30410 15549)"><tspan class="TextParagraph" font-family="Calibri, sans-serif" font-size="563px" font-weight="400"><tspan class="TextPosition" x="30410" y="15549"><tspan fill="rgb(89,89,89)" stroke="none">6601-6700</tspan></tspan></tspan></text>
 <text class="SVGTextShape"><tspan class="TextParagraph" font-family="Calibri, sans-serif" font-size="563px" font-weight="400"><tspan class="TextPosition" x="2353" y="13233"><tspan fill="rgb(89,89,89)" stroke="none">0</tspan></tspan></tspan></text>
 <text class="SVGTextShape"><tspan class="TextParagraph" font-family="Calibri, sans-serif" font-size="563px" font-weight="400"><tspan class="TextPosition" x="2353" y="12118"><tspan fill="rgb(89,89,89)" stroke="none">5</tspan></tspan></tspan></text>
 <text class="SVGTextShape"><tspan class="TextParagraph" font-family="Calibri, sans-serif" font-size="563px" font-weight="400"><tspan class="TextPosition" x="2062" y="11005"><tspan fill="rgb(89,89,89)" stroke="none">10</tspan></tspan></tspan></text>
 <text class="SVGTextShape"><tspan class="TextParagraph" font-family="Calibri, sans-serif" font-size="563px" font-weight="400"><tspan class="TextPosition" x="2062" y="9892"><tspan fill="rgb(89,89,89)" stroke="none">15</tspan></tspan></tspan></text>
 <text class="SVGTextShape"><tspan class="TextParagraph" font-family="Calibri, sans-serif" font-size="563px" font-weight="400"><tspan class="TextPosition" x="2062" y="8779"><tspan fill="rgb(89,89,89)" stroke="none">20</tspan></tspan></tspan></text>
 <text class="SVGTextShape"><tspan class="TextParagraph" font-family="Calibri, sans-serif" font-size="563px" font-weight="400"><tspan class="TextPosition" x="2062" y="7665"><tspan fill="rgb(89,89,89)" stroke="none">25</tspan></tspan></tspan></text>
 <text class="SVGTextShape"><tspan class="TextParagraph" font-family="Calibri, sans-serif" font-size="563px" font-weight="400"><tspan class="TextPosition" x="2062" y="6551"><tspan fill="rgb(89,89,89)" stroke="none">30</tspan></tspan></tspan></text>
 <text class="SVGTextShape"><tspan class="TextParagraph" font-family="Calibri, sans-serif" font-size="563px" font-weight="400"><tspan class="TextPosition" x="2062" y="5438"><tspan fill="rgb(89,89,89)" stroke="none">35</tspan></tspan></tspan></text>
 <text class="SVGTextShape"><tspan class="TextParagraph" font-family="Calibri, sans-serif" font-size="563px" font-weight="400"><tspan class="TextPosition" x="2062" y="4325"><tspan fill="rgb(89,89,89)" stroke="none">40</tspan></tspan></tspan></text>
 <text class="SVGTextShape"><tspan class="TextParagraph" font-family="Calibri, sans-serif" font-size="563px" font-weight="400"><tspan class="TextPosition" x="2062" y="3211"><tspan fill="rgb(89,89,89)" stroke="none">45</tspan></tspan></tspan></text>
 <text class="SVGTextShape"><tspan class="TextParagraph" font-family="Calibri, sans-serif" font-size="563px" font-weight="400"><tspan class="TextPosition" x="2062" y="2098"><tspan fill="rgb(89,89,89)" stroke="none">50</tspan></tspan></tspan></text>
 <text class="SVGTextShape"><tspan class="TextParagraph" font-family="Calibri, sans-serif" font-size="563px" font-weight="400"><tspan class="TextPosition" x="31845" y="13233"><tspan fill="rgb(89,89,89)" stroke="none">0</tspan></tspan></tspan></text>
 <text class="SVGTextShape"><tspan class="TextParagraph" font-family="Calibri, sans-serif" font-size="563px" font-weight="400"><tspan class="TextPosition" x="31845" y="11841"><tspan fill="rgb(89,89,89)" stroke="none">50</tspan></tspan></tspan></text>
 <text class="SVGTextShape"><tspan class="TextParagraph" font-family="Calibri, sans-serif" font-size="563px" font-weight="400"><tspan class="TextPosition" x="31845" y="10449"><tspan fill="rgb(89,89,89)" stroke="none">100</tspan></tspan></tspan></text>
 <text class="SVGTextShape"><tspan class="TextParagraph" font-family="Calibri, sans-serif" font-size="563px" font-weight="400"><tspan class="TextPosition" x="31845" y="9057"><tspan fill="rgb(89,89,89)" stroke="none">150</tspan></tspan></tspan></text>
 <text class="SVGTextShape"><tspan class="TextParagraph" font-family="Calibri, sans-serif" font-size="563px" font-weight="400"><tspan class="TextPosition" x="31845" y="7665"><tspan fill="rgb(89,89,89)" stroke="none">200</tspan></tspan></tspan></text>
 <text class="SVGTextShape"><tspan class="TextParagraph" font-family="Calibri, sans-serif" font-size="563px" font-weight="400"><tspan class="TextPosition" x="31845" y="6274"><tspan fill="rgb(89,89,89)" stroke="none">250</tspan></tspan></tspan></text>
 <text class="SVGTextShape"><tspan class="TextParagraph" font-family="Calibri, sans-serif" font-size="563px" font-weight="400"><tspan class="TextPosition" x="31845" y="4882"><tspan fill="rgb(89,89,89)" stroke="none">300</tspan></tspan></tspan></text>
 <text class="SVGTextShape"><tspan class="TextParagraph" font-family="Calibri, sans-serif" font-size="563px" font-weight="400"><tspan class="TextPosition" x="31845" y="3490"><tspan fill="rgb(89,89,89)" stroke="none">350</tspan></tspan></tspan></text>
 <text class="SVGTextShape"><tspan class="TextParagraph" font-family="Calibri, sans-serif" font-size="563px" font-weight="400"><tspan class="TextPosition" x="31845" y="2098"><tspan fill="rgb(89,89,89)" stroke="none">400</tspan></tspan></tspan></text>
 <text class="SVGTextShape"><tspan class="TextParagraph" font-family="Calibri, sans-serif" font-size="676px" font-weight="700"><tspan class="TextPosition" x="14750" y="1223"><tspan fill="rgb(89,89,89)" stroke="none">Lion cause of death</tspan></tspan></tspan></text>
 <path fill="none" stroke="rgb(91,155,213)" stroke-width="97" stroke-linejoin="round" stroke-linecap="round" d="M 12249,16812 L 13048,16812"/>
 <path fill="none" stroke="rgb(237,125,49)" stroke-width="97" stroke-linejoin="round" stroke-linecap="round" d="M 14815,16812 L 15614,16812"/>
 <path fill="none" stroke="rgb(255,192,0)" stroke-width="97" stroke-linejoin="round" stroke-linecap="round" d="M 17750,16812 L 18550,16812"/>
 <path fill="none" stroke="rgb(165,165,165)" stroke-width="97" stroke-linejoin="round" stroke-linecap="round" d="M 21004,16812 L 21803,16812"/>
 <text class="SVGTextShape"><tspan class="TextParagraph" font-family="Calibri, sans-serif" font-size="563px" font-weight="400"><tspan class="TextPosition" x="13172" y="16956"><tspan fill="rgb(89,89,89)" stroke="none">Thirst</tspan></tspan></tspan></text>
 <text class="SVGTextShape"><tspan class="TextParagraph" font-family="Calibri, sans-serif" font-size="563px" font-weight="400"><tspan class="TextPosition" x="15738" y="16956"><tspan fill="rgb(89,89,89)" stroke="none">Hunger</tspan></tspan></tspan></text>
 <text class="SVGTextShape"><tspan class="TextParagraph" font-family="Calibri, sans-serif" font-size="563px" font-weight="400"><tspan class="TextPosition" x="18674" y="16956"><tspan fill="rgb(89,89,89)" stroke="none">Predator</tspan></tspan></tspan></text>
 <text class="SVGTextShape"><tspan class="TextParagraph" font-family="Calibri, sans-serif" font-size="563px" font-weight="400"><tspan class="TextPosition" x="21927" y="16956"><tspan fill="rgb(89,89,89)" stroke="none">Age</tspan></tspan></tspan></text>
 <text class="SVGTextShape" transform="rotate(-90 1056 11830)"><tspan class="TextParagraph" font-family="Calibri, sans-serif" font-size="564px" font-weight="400"><tspan class="TextPosition" x="1056" y="11830"><tspan fill="rgb(89,89,89)" stroke="none">Thirst / Hunger / Predator</tspan></tspan></tspan></text>
 <text class="SVGTextShape" transform="rotate(-90 34011 9347)"><tspan class="TextParagraph" font-family="Calibri, sans-serif" font-size="564px" font-weight="400"><tspan class="TextPosition" x="34011" y="9347"><tspan fill="rgb(89,89,89)" stroke="none">Age</tspan></tspan></tspan></text>
</svg>