<?xml version="1.0" encoding="UTF-8"?>
<!DOCTYPE svg PUBLIC "-//W3C//DTD SVG 1.1//EN" "http://www.w3.org/Graphics/SVG/1.1/DTD/svg11.dtd">
<svg width="350mm" height="172mm" viewBox="0 0 35000 17200" version="1.1" xmlns="http://www.w3.org/2000/svg" xmlns:xlink="http://www.w3.org/1999/xlink" stroke-width="28.222" stroke-linejoin="round" xml:space="preserve">
 <path fill="rgb(255,255,255)" stroke="none" d="M 17513,17197 L 13,17197 13,13 35013,13 35013,17197 17513,17197 Z"/>
 <path fill="none" stroke="rgb(217,217,217)" stroke-width="26" stroke-linejoin="round" d="M 17513,17197 L 13,17197 13,13 35013,13 35013,17197 17513,17197 Z"/>
 <path fill="none" stroke="rgb(217,217,217)" stroke-width="26" stroke-linejoin="round" d="M 31455,13081 L 3030,13081"/>
 <path fill="none" stroke="rgb(217,217,217)" stroke-width="26" stroke-linejoin="round" d="M 31455,11491 L 3030,11491"/>
 <path fill="none" stroke="rgb(217,217,217)" stroke-width="26" stroke-linejoin="round" d="M 31455,9901 L 3030,9901"/>
 <path fill="none" stroke="rgb(217,217,217)" stroke-width="26" stroke-linejoin="round" d="M 31455,8312 L 3030,8312"/>
 <path fill="none" stroke="rgb(217,217,217)" stroke-width="26" stroke-linejoin="round" d="M 31455,6721 L 3030,6721"/>
 <path fill="none" stroke="rgb(217,217,217)" stroke-width="26" stroke-linejoin="round" d="M 31455,5132 L 3030,5132"/>
 <path fill="none" stroke="rgb(217,217,217)" stroke-width="26" stroke-linejoin="round" d="M 31455,3542 L 3030,3542"/>
 <path fill="none" stroke="rgb(217,217,217)" stroke-width="26" stroke-linejoin="round" d="M 31455,1953 L 3030,1953"/>
 <path fill="none" stroke="rgb(217,217,217)" stroke-width="35" stroke-linejoin="round" d="M 3030,13081 L 31455,13081"/>
 <path fill="none" stroke="rgb(255,192,0)" stroke-width="97" stroke-linejoin="round" stroke-linecap="round" d="M 3242,11515 L 3665,11571 4090,11587 4515,11587 4938,11587 5363,11277 5787,10777 6211,10506 6635,10372 7060,9888 7484,10059 7908,10469 8333,10198 8756,9995 9181,9512 9606,8865 10029,8899 10454,8768 10878,8452 11302,8545 11726,8467 12151,8613 12575,8694 12999,8659 13424,8648 13847,8946 14272,9179 14697,9386 15120,9912 15545,10188 15969,10470 16393,10657 16817,10801 17242,11177 17666,11257 18090,11424 18515,11514 18938,11517 19363,11766 19787,12032 20211,12104 20636,12181 21060,12367 21484,12286 21908,12404 22333,12612 22757,12578 23181,12578 23606,12657 24029,12686 24454,12755 24878,12928 25302,12986 25727,12997 26151,13050 26576,13050 26999,13050 27424,13050 27849,13081 28272,13081 28697,13081 29121,13081 29545,13081 29969,13081 30394,13081 30818,13081 31242,13081"/>
 <path fill="none" stroke="rgb(68,114,196)" stroke-width="97" stroke-linejoin="round" stroke-linecap="round" d="M 3242,6865 L 3665,5848 4090,4916 4515,4528 4938,3680 5363,3317 5787,3066 6211,3034 6635,3006 7060,3440 7484,4387 7908,5727 8333,7083 8756,8975 9181,11064 9606,12203 10029,12481 10454,12594 10878,12535 11302,12553 11726,12528 12151,12459 12575,12480 12999,12433 13424,12352 13847,12424 14272,12277 14697,12198 15120,12074 15545,12188 15969,12312 16393,12432 16817,12387 17242,12357 17666,12336 18090,12257 18515,12226 18938,12230 19363,12293 19787,12316 20211,12292 20636,12363 21060,12299 21484,12222 21908,12075 22333,12125 22757,12142 23181,12178 23606,12222 24029,12201 24454,12005 24878,12072 25302,12155 25727,12190 26151,12234 26576,12126 26999,12024 27424,11986 27849,11909 28272,11902 28697,11872 29121,11759 29545,11866 29969,11720 30394,11597 30818,11578 31242,11626"/>
 <path fill="none" stroke="rgb(112,173,71)" stroke-width="97" stroke-linejoin="round" stroke-linecap="round" d="M 3242,12604 L 3665,12604 4090,12604 4515,12604 4938,12604 5363,12604 5787,12604 6211,12461 6635,12247 7060,11957 7484,11979 7908,12290 8333,12318 8756,12318 9181,12191 9606,12108 10029,11858 10454,11581 10878,11417 11302,11557 11726,11644 12151,11666 12575,11475 12999,11298 13424,11248 13847,11080 14272,11120 14697,10749 15120,10897 15545,11073 15969,10969 16393,10998 16817,11061 17242,11175 17666,11015 18090,10520 18515,10465 18938,10278 19363,10334 19787,10592 20211,10704 20636,10667 21060,10277 21484,9974 21908,9757 22333,9571 22757,9773 23181,10056 23606,10085 24029,10131 24454,10027 24878,9810 25302,9774 25727,10126 26151,10202 26576,10100 26999,10046 27424,10025 27849,10007 28272,10035 28697,9969 29121,9866 29545,9586 29969,9498 30394,9241 30818,8983 31242,8772"/>
 <path fill="none" stroke="rgb(237,125,49)" stroke-width="97" stroke-linejoin="round" stroke-linecap="round" d="M 3242,12883 L 3665,12913 4090,12884 4515,12808 4938,12759 5363,12676 5787,12677 6211,12599 6635,12466 7060,12344 7484,12140 7908,11894 8333,11663 8756,11205 9181,10732 9606,10176 10029,9692 10454,9315 10878,9240 11302,9389 11726,9588 12151,9640 12575,9699 12999,9681 13424,9886 13847,10015 14272,10273 14697,10531 15120,10664 15545,10852 15969,10908 16393,10870 16817,10902 17242,10755 17666,10792 18090,10681 18515,10688 18938,10621 19363,10469 19787,10517 20211,10292 20636,10259 21060,10045 21484,9877 21908,9897 22333,9651 22757,9689 23181,9465 23606,9374 24029,9263 24454,8878 24878,8862 25302,8475 25727,8415 26151,8123 26576,7728 26999,7605 27424,7007 27849,6830 28272,6370 28697,5877 29121,5589 29545,4930 29969,4563 30394,3841 30818,3180 31242,3007"/>
 <text class="SVGTextShape" transform="rotate(-59.9 2704 14536)"><tspan class="TextParagraph" font-family="Calibri, sans-serif" font-size="563px" font-weight="400"><tspan class="TextPosition" x="2704" y="14536"><tspan fill="rgb(89,89,89)" stroke="none">1-100</tspan></tspan></tspan></text>
 <text class="SVGTextShape" transform="rotate(-59.9 3262 15039)"><tspan class="TextParagraph" font-family="Calibri, sans-serif" font-size="563px" font-weight="400"><tspan class="TextPosition" x="3262" y="15039"><tspan fill="rgb(89,89,89)" stroke="none">201-300</tspan></tspan></tspan></text>
 <text class="SVGTextShape" transform="rotate(-59.9 4110 15039)"><tspan class="TextParagraph" font-family="Calibri, sans-serif" font-size="563px" font-weight="400"><tspan class="TextPosition" x="4110" y="15039"><tspan fill="rgb(89,89,89)" stroke="none">401-500</tspan></tspan></tspan></text>
 <text class="SVGTextShape" transform="rotate(-59.9 4959 15039)"><tspan class="TextParagraph" font-family="Calibri, sans-serif" font-size="563px" font-weight="400"><tspan class="TextPosition" x="4959" y="15039"><tspan fill="rgb(89,89,89)" stroke="none">601-700</tspan></tspan></tspan></text>
 <text class="SVGTextShape" transform="rotate(-59.9 5807 15039)"><tspan class="TextParagraph" font-family="Calibri, sans-serif" font-size="563px" font-weight="400"><tspan class="TextPosition" x="5807" y="15039"><tspan fill="rgb(89,89,89)" stroke="none">801-900</tspan></tspan></tspan></text>
 <text class="SVGTextShape" transform="rotate(-59.9 6366 15543)"><tspan class="TextParagraph" font-family="Calibri, sans-serif" font-size="563px" font-weight="400"><tspan class="TextPosition" x="6366" y="15543"><tspan fill="rgb(89,89,89)" stroke="none">1001-1100</tspan></tspan></tspan></text>
 <text class="SVGTextShape" transform="rotate(-59.9 7214 15543)"><tspan class="TextParagraph" font-family="Calibri, sans-serif" font-size="563px" font-weight="400"><tspan class="TextPosition" x="7214" y="15543"><tspan fill="rgb(89,89,89)" stroke="none">1201-1300</tspan></tspan></tspan></text>
 <text class="SVGTextShape" transform="rotate(-59.9 8062 15543)"><tspan class="TextParagraph" font-family="Calibri, sans-serif" font-size="563px" font-weight="400"><tspan class="TextPosition" x="8062" y="15543"><tspan fill="rgb(89,89,89)" stroke="none">1401-1500</tspan></tspan></tspan></text>
 <text class="SVGTextShape" transform="rotate(-59.9 8911 15543)"><tspan class="TextParagraph" font-family="Calibri, sans-serif" font-size="563px" font-weight="400"><tspan class="TextPosition" x="8911" y="15543"><tspan fill="rgb(89,89,89)" stroke="none">1601-1700</tspan></tspan></tspan></text>
 <text class="SVGTextShape" transform="rotate(-59.9 9759 15543)"><tspan class="TextParagraph" font-family="Calibri, sans-serif" font-size="563px" font-weight="400"><tspan class="TextPosition" x="9759" y="15543"><tspan fill="rgb(89,89,89)" stroke="none">1801-1900</tspan></tspan></tspan></text>
 <text class="SVGTextShape" transform="rotate(-59.9 10607 15543)"><tspan class="TextParagraph" font-family="Calibri, sans-serif" font-size="563px" font-weight="400"><tspan class="TextPosition" x="10607" y="15543"><tspan fill="rgb(89,89,89)" stroke="none">2001-2100</tspan></tspan></tspan></text>
 <text class="SVGTextShape" transform="rotate(-59.9 11457 15543)"><tspan class="TextParagraph" font-family="Calibri, sans-serif" font-size="563px" font-weight="400"><tspan class="TextPosition" x="11457" y="15543"><tspan fill="rgb(89,89,89)" stroke="none">2201-2300</tspan></tspan></tspan></text>
 <text class="SVGTextShape" transform="rotate(-59.9 12305 15543)"><tspan class="TextParagraph" font-family="Calibri, sans-serif" font-size="563px" font-weight="400"><tspan class="TextPosition" x="12305" y="15543"><tspan fill="rgb(89,89,89)" stroke="none">2401-2500</tspan></tspan></tspan></text>
 <text class="SVGTextShape" transform="rotate(-59.9 13153 15543)"><tspan class="TextParagraph" font-family="Calibri, sans-serif" font-size="563px" font-weight="400"><tspan class="TextPosition" x="13153" y="15543"><tspan fill="rgb(89,89,89)" stroke="none">2601-2700</tspan></tspan></tspan></text>
 <text class="SVGTextShape" transform="rotate(-59.9 14002 15543)"><tspan class="TextParagraph" font-family="Calibri, sans-serif" font-size="563px" font-weight="400"><tspan class="TextPosition" x="14002" y="15543"><tspan fill="rgb(89,89,89)" stroke="none">2801-2900</tspan></tspan></tspan></text>
 <text class="SVGTextShape" transform="rotate(-59.9 14850 15543)"><tspan class="TextParagraph" font-family="Calibri, sans-serif" font-size="563px" font-weight="400"><tspan class="TextPosition" x="14850" y="15543"><tspan fill="rgb(89,89,89)" stroke="none">3001-3100</tspan></tspan></tspan></text>
 <text class="SVGTextShape" transform="rotate(-59.9 15698 15543)"><tspan class="TextParagraph" font-family="Calibri, sans-serif" font-size="563px" font-weight="400"><tspan class="TextPosition" x="15698" y="15543"><tspan fill="rgb(89,89,89)" stroke="none">3201-3300</tspan></tspan></tspan></text>
 <text class="SVGTextShape" transform="rotate(-59.9 16548 15543)"><tspan class="TextParagraph" font-family="Calibri, sans-serif" font-size="563px" font-weight="400"><tspan class="TextPosition" x="16548" y="15543"><tspan fill="rgb(89,89,89)" stroke="none">3401-3500</tspan></tspan></tspan></text>
 <text class="SVGTextShape" transform="rotate(-59.9 17396 15543)"><tspan class="TextParagraph" font-family="Calibri, sans-serif" font-size="563px" font-weight="400"><tspan class="TextPosition" x="17396" y="15543"><tspan fill="rgb(89,89,89)" stroke="none">3601-3700</tspan></tspan></tspan></text>
 <text class="SVGTextShape" transform="rotate(-59.9 18245 15543)"><tspan class="TextParagraph" font-family="Calibri, sans-serif" font-size="563px" font-weight="400"><tspan class="TextPosition" x="18245" y="15543"><tspan fill="rgb(89,89,89)" stroke="none">3801-3900</tspan></tspan></tspan></text>
 <text class="SVGTextShape" transform="rotate(-59.9 19093 15543)"><tspan class="TextParagraph" font-family="Calibri, sans-serif" font-size="563px" font-weight="400"><tspan class="TextPosition" x="19093" y="15543"><tspan fill="rgb(89,89,89)" stroke="none">4001-4100</tspan></tspan></tspan></text>
 <text class="SVGTextShape" transform="rotate(-59.9 19941 15543)"><tspan class="TextParagraph" font-family="Calibri, sans-serif" font-size="563px" font-weight="400"><tspan class="TextPosition" x="19941" y="15543"><tspan fill="rgb(89,89,89)" stroke="none">4201-4300</tspan></tspan></tspan></text>
 <text class="SVGTextShape" transform="rotate(-59.9 20790 15543)"><tspan class="TextParagraph" font-family="Calibri, sans-serif" font-size="563px" font-weight="400"><tspan class="TextPosition" x="20790" y="15543"><tspan fill="rgb(89,89,89)" stroke="none">4401-4500</tspan></tspan></tspan></text>
 <text class="SVGTextShape" transform="rotate(-59.9 21639 15543)"><tspan class="TextParagraph" font-family="Calibri, sans-serif" font-size="563px" font-weight="400"><tspan class="TextPosition" x="21639" y="15543"><tspan fill="rgb(89,89,89)" stroke="none">4601-4700</tspan></tspan></tspan></text>
 <text class="SVGTextShape" transform="rotate(-59.9 22487 15543)"><tspan class="TextParagraph" font-family="Calibri, sans-serif" font-size="563px" font-weight="400"><tspan class="TextPosition" x="22487" y="15543"><tspan fill="rgb(89,89,89)" stroke="none">4801-4900</tspan></tspan></tspan></text>
 <text class="SVGTextShape" transform="rotate(-59.9 23336 15543)"><tspan class="TextParagraph" font-family="Calibri, sans-serif" font-size="563px" font-weight="400"><tspan class="TextPosition" x="23336" y="15543"><tspan fill="rgb(89,89,89)" stroke="none">5001-5100</tspan></tspan></tspan></text>
 <text class="SVGTextShape" transform="rotate(-59.9 24184 15543)"><tspan class="TextParagraph" font-family="Calibri, sans-serif" font-size="563px" font-weight="400"><tspan class="TextPosition" x="24184" y="15543"><tspan fill="rgb(89,89,89)" stroke="none">5201-5300</tspan></tspan></tspan></text>
 <text class="SVGTextShape" transform="rotate(-59.9 25032 15543)"><tspan class="TextParagraph" font-family="Calibri, sans-serif" font-size="563px" font-weight="400"><tspan class="TextPosition" x="25032" y="15543"><tspan fill="rgb(89,89,89)" stroke="none">5401-5500</tspan></tspan></tspan></text>
 <text class="SVGTextShape" transform="rotate(-59.9 25881 15543)"><tspan class="TextParagraph" font-family="Calibri, sans-serif" font-size="563px" font-weight="400"><tspan class="TextPosition" x="25881" y="15543"><tspan fill="rgb(89,89,89)" stroke="none">5601-5700</tspan></tspan></tspan></text>
 <text class="SVGTextShape" transform="rotate(-59.9 26730 15543)"><tspan class="TextParagraph" font-family="Calibri, sans-serif" font-size="563px" font-weight="400"><tspan class="TextPosition" x="26730" y="15543"><tspan fill="rgb(89,89,89)" stroke="none">5801-5900</tspan></tspan></tspan></text>
 <text class="SVGTextShape" transform="rotate(-59.9 27578 15543)"><tspan class="TextParagraph" font-family="Calibri, sans-serif" font-size="563px" font-weight="400"><tspan class="TextPosition" x="27578" y="15543"><tspan fill="rgb(89,89,89)" stroke="none">6001-6100</tspan></tspan></tspan></text>
 <text class="SVGTextShape" transform="rotate(-59.9 28427 15543)"><tspan class="TextParagraph" font-family="Calibri, sans-serif" font-size="563px" font-weight="400"><tspan class="TextPosition" x="28427" y="15543"><tspan fill="rgb(89,89,89)" stroke="none">6201-6300</tspan></tspan></tspan></text>
 <text class="SVGTextShape" transform="rotate(-59.9 29275 15543)"><tspan class="TextParagraph" font-family="Calibri, sans-serif" font-size="563px" font-weight="400"><tspan class="TextPosition" x="29275" y="15543"><tspan fill="rgb(89,89,89)" stroke="none">6401-6500</tspan></tspan></tspan></text>
 <text class="SVGTextShape" transform="rotate(-59.9 30123 15543)"><tspan class="TextParagraph" font-family="Calibri, sans-serif" font-size="563px" font-weight="400"><tspan class="TextPosition" x="30123" y="15543"><tspan fill="rgb(89,89,89)" stroke="none">6601-6700</tspan></tspan></tspan></text>
 <text class="SVGTextShape"><tspan class="TextParagraph" font-family="Calibri, sans-serif" font-size="563px" font-weight="400"><tspan class="TextPosition" x="2639" y="13227"><tspan fill="rgb(89,89,89)" stroke="none">0</tspan></tspan></tspan></text>
 <text class="SVGTextShape"><tspan class="TextParagraph" font-family="Calibri, sans-serif" font-size="563px" font-weight="400"><tspan class="TextPosition" x="2348" y="11636"><tspan fill="rgb(89,89,89)" stroke="none">50</tspan></tspan></tspan></text>
 <text class="SVGTextShape"><tspan class="TextParagraph" font-family="Calibri, sans-serif" font-size="563px" font-weight="400"><tspan class="TextPosition" x="2057" y="10047"><tspan fill="rgb(89,89,89)" stroke="none">100</tspan></tspan></tspan></text>
 <text class="SVGTextShape"><tspan class="TextParagraph" font-family="Calibri, sans-serif" font-size="563px" font-weight="400"><tspan class="TextPosition" x="2057" y="8457"><tspan fill="rgb(89,89,89)" stroke="none">150</tspan></tspan></tspan></text>
 <text class="SVGTextShape"><tspan class="TextParagraph" font-family="Calibri, sans-serif" font-size="563px" font-weight="400"><tspan class="TextPosition" x="2057" y="6867"><tspan fill="rgb(89,89,89)" stroke="none">200</tspan></tspan></tspan></text>
 <text class="SVGTextShape"><tspan class="TextParagraph" font-family="Calibri, sans-serif" font-size="563px" font-weight="400"><tspan class="TextPosition" x="2057" y="5277"><tspan fill="rgb(89,89,89)" stroke="none">250</tspan></tspan></tspan></text>
 <text class="SVGTextShape"><tspan class="TextParagraph" font-family="Calibri, sans-serif" font-size="563px" font-weight="400"><tspan class="TextPosition" x="2057" y="3688"><tspan fill="rgb(89,89,89)" stroke="none">300</tspan></tspan></tspan></text>
 <text class="SVGTextShape"><tspan class="TextParagraph" font-family="Calibri, sans-serif" font-size="563px" font-weight="400"><tspan class="TextPosition" x="2057" y="2098"><tspan fill="rgb(89,89,89)" stroke="none">350</tspan></tspan></tspan></text>
 <text class="SVGTextShape"><tspan class="TextParagraph" font-family="Calibri, sans-serif" font-size="563px" font-weight="400"><tspan class="TextPosition" x="31555" y="13227"><tspan fill="rgb(89,89,89)" stroke="none">0</tspan></tspan></tspan></text>
 <text class="SVGTextShape"><tspan class="TextParagraph" font-family="Calibri, sans-serif" font-size="563px" font-weight="400"><tspan class="TextPosition" x="31555" y="11835"><tspan fill="rgb(89,89,89)" stroke="none">1000</tspan></tspan></tspan></text>
 <text class="SVGTextShape"><tspan class="TextParagraph" font-family="Calibri, sans-serif" font-size="563px" font-weight="400"><tspan class="TextPosition" x="31555" y="10444"><tspan fill="rgb(89,89,89)" stroke="none">2000</tspan></tspan></tspan></text>
 <text class="SVGTextShape"><tspan class="TextParagraph" font-family="Calibri, sans-serif" font-size="563px" font-weight="400"><tspan class="TextPosition" x="31555" y="9053"><tspan fill="rgb(89,89,89)" stroke="none">3000</tspan></tspan></tspan></text>
 <text class="SVGTextShape"><tspan class="TextParagraph" font-family="Calibri, sans-serif" font-size="563px" font-weight="400"><tspan class="TextPosition" x="31555" y="7662"><tspan fill="rgb(89,89,89)" stroke="none">4000</tspan></tspan></tspan></text>
 <text class="SVGTextShape"><tspan class="TextParagraph" font-family="Calibri, sans-serif" font-size="563px" font-weight="400"><tspan class="TextPosition" x="31555" y="6271"><tspan fill="rgb(89,89,89)" stroke="none">5000</tspan></tspan></tspan></text>
 <text class="SVGTextShape"><tspan class="TextParagraph" font-family="Calibri, sans-serif" font-size="563px" font-weight="400"><tspan class="TextPosition" x="31555" y="4880"><tspan fill="rgb(89,89,89)" stroke="none">6000</tspan></tspan></tspan></text>
 <text class="SVGTextShape"><tspan class="TextParagraph" font-family="Calibri, sans-serif" font-size="563px" font-weight="400"><tspan class="TextPosition" x="31555" y="3489"><tspan fill="rgb(89,89,89)" stroke="none">7000</tspan></tspan></tspan></text>
 <text class="SVGTextShape"><tspan class="TextParagraph" font-family="Calibri, sans-serif" font-size="563px" font-weight="400"><tspan class="TextPosition" x="31555" y="2098"><tspan fill="rgb(89,89,89)" stroke="none">8000</tspan></tspan></tspan></text>
 <text class="SVGTextShape"><tspan class="TextParagraph" font-family="Calibri, sans-serif" font-size="676px" font-weight="700"><tspan class="TextPosition" x="15953" y="1223"><tspan fill="rgb(89,89,89)" stroke="none">Population</tspan></tspan></tspan></text>
 <path fill="none" stroke="rgb(255,192,0)" stroke-width="97" stroke-linejoin="round" stroke-linecap="round" d="M 12684,16806 L 13484,16806"/>
 <path fill="none" stroke="rgb(68,114,196)" stroke-width="97" stroke-linejoin="round" stroke-linecap="round" d="M 14881,16806 L 15680,16806"/>
 <path fill="none" stroke="rgb(112,173,71)" stroke-width="97" stroke-linejoin="round" stroke-linecap="round" d="M 17394,16806 L 18193,16806"/>
 <path fill="none" stroke="rgb(237,125,49)" stroke-width="97" stroke-linejoin="round" stroke-linecap="round" d="M 19643,16806 L 20442,16806"/>
 <text class="SVGTextShape"><tspan class="TextParagraph" font-family="Calibri, sans-serif" font-size="563px" font-weight="400"><tspan class="TextPosition" x="13608" y="16950"><tspan fill="rgb(89,89,89)" stroke="none">Dog</tspan></tspan></tspan></text>
 <text class="SVGTextShape"><tspan class="TextParagraph" font-family="Calibri, sans-serif" font-size="563px" font-weight="400"><tspan class="TextPosition" x="15804" y="16950"><tspan fill="rgb(89,89,89)" stroke="none">Grain</tspan></tspan></tspan></text>
 <text class="SVGTextShape"><tspan class="TextParagraph" font-family="Calibri, sans-serif" font-size="563px" font-weight="400"><tspan class="TextPosition" x="18317" y="16950"><tspan fill="rgb(89,89,89)" stroke="none">Lion</tspan></tspan></tspan></text>
 <text class="SVGTextShape"><tspan class="TextParagraph" font-family="Calibri, sans-serif" font-size="563px" font-weight="400"><tspan class="TextPosition" x="20566" y="16950"><tspan fill="rgb(89,89,89)" stroke="none">Chicken</tspan></tspan></tspan></text>
 <text class="SVGTextShape" transform="rotate(-90 1056 10928)"><tspan class="TextParagraph" font-family="Calibri, sans-serif" font-size="564px" font-weight="400"><tspan class="TextPosition" x="1056" y="10928"><tspan fill="rgb(89,89,89)" stroke="none">Dog / Lion / Grain</tspan></tspan></tspan></text>
 <text class="SVGTextShape" transform="rotate(-90 34011 9806)"><tspan class="TextParagraph" font-family="Calibri, sans-serif" font-size="564px" font-weight="400"><tspan class="TextPosition" x="34011" y="9806"><tspan fill="rgb(89,89,89)" stroke="none">Chicken</tspan></tspan></tspan></text>
</svg>