<?xml version="1.0" encoding="UTF-8"?>
<!DOCTYPE svg PUBLIC "-//W3C//DTD SVG 1.1//EN" "http://www.w3.org/Graphics/SVG/1.1/DTD/svg11.dtd">
<svg width="393mm" height="142mm" viewBox="0 0 39300 14200" version="1.1" xmlns="http://www.w3.org/2000/svg" xmlns:xlink="http://www.w3.org/1999/xlink" stroke-width="28.222" stroke-linejoin="round" xml:space="preserve">
 <path fill="rgb(255,255,255)" stroke="none" d="M 19650,14214 L 13,14214 13,13 39287,13 39287,14214 19650,14214 Z"/>
 <path fill="none" stroke="rgb(217,217,217)" stroke-width="26" stroke-linejoin="round" d="M 19650,14214 L 13,14214 13,13 39287,13 39287,14214 19650,14214 Z"/>
 <path fill="none" stroke="rgb(217,217,217)" stroke-width="26" stroke-linejoin="round" d="M 38502,12188 L 1984,12188"/>
 <path fill="none" stroke="rgb(217,217,217)" stroke-width="26" stroke-linejoin="round" d="M 38502,11048 L 1984,11048"/>
 <path fill="none" stroke="rgb(217,217,217)" stroke-width="26" stroke-linejoin="round" d="M 38502,9908 L 1984,9908"/>
 <path fill="none" stroke="rgb(217,217,217)" stroke-width="26" stroke-linejoin="round" d="M 38502,8768 L 1984,8768"/>
 <path fill="none" stroke="rgb(217,217,217)" stroke-width="26" stroke-linejoin="round" d="M 38502,7629 L 1984,7629"/>
 <path fill="none" stroke="rgb(217,217,217)" stroke-width="26" stroke-linejoin="round" d="M 38502,6489 L 1984,6489"/>
 <path fill="none" stroke="rgb(217,217,217)" stroke-width="26" stroke-linejoin="round" d="M 38502,5349 L 1984,5349"/>
 <path fill="none" stroke="rgb(217,217,217)" stroke-width="26" stroke-linejoin="round" d="M 38502,4209 L 1984,4209"/>
 <path fill="none" stroke="rgb(217,217,217)" stroke-width="26" stroke-linejoin="round" d="M 38502,3069 L 1984,3069"/>
 <path fill="none" stroke="rgb(217,217,217)" stroke-width="26" stroke-linejoin="round" d="M 38502,1929 L 1984,1929"/>
 <path fill="none" stroke="rgb(217,217,217)" stroke-width="26" stroke-linejoin="round" d="M 1984,3069 L 38502,3069"/>
 <path fill="none" stroke="rgb(237,125,49)" stroke-width="79" stroke-linejoin="round" stroke-linecap="round" d="M 3288,3845 L 5896,4164 8504,4228 11112,4221 13721,4406 16330,4698 18938,4841 21546,4913 24154,5095 26764,4673 29372,4956 31980,4676 34588,4587 37196,3122"/>
 <path fill="none" stroke="rgb(112,173,71)" stroke-width="79" stroke-linejoin="round" stroke-linecap="round" d="M 3288,3794 L 5896,4133 8504,4278 11112,4231 13721,4406 16330,4641 18938,4792 21546,4879 24154,5060 26764,4634 29372,5028 31980,4779 34588,4387 37196,2980"/>
 <path fill="none" stroke="rgb(67,104,43)" stroke-width="79" stroke-linejoin="round" stroke-linecap="round" d="M 3288,3788 L 5896,3866 8504,4007 11112,3915 13721,3937 16330,4401 18938,4458 21546,4444 24154,4509 26764,4342 29372,4167 31980,3983 34588,4051 37196,3560"/>
 <path fill="none" stroke="rgb(255,205,51)" stroke-width="79" stroke-linejoin="round" stroke-linecap="round" d="M 3288,3811 L 5896,3889 8504,3987 11112,3891 13721,3959 16330,4429 18938,4480 21546,4467 24154,4522 26764,4333 29372,4132 31980,4034 34588,3999 37196,3627"/>
 <path fill="none" stroke="rgb(204,154,0)" stroke-width="79" stroke-linejoin="round" stroke-linecap="round" d="M 3288,5125 L 5896,6282 8504,7451 11112,7482 13721,7632 16330,8373 18938,9510 21546,9681 24154,10799 26764,9837 29372,9878 31980,10894 34588,11418 37196,10539"/>
 <path fill="none" stroke="rgb(244,177,131)" stroke-width="79" stroke-linejoin="round" stroke-linecap="round" d="M 3288,5057 L 5896,6351 8504,7448 11112,7587 13721,7616 16330,8535 18938,9457 21546,9673 24154,10817 26764,9996 29372,10091 31980,11281 34588,11409 37196,10351"/>
 <text class="SVGTextShape"><tspan class="TextParagraph" font-family="Calibri, sans-serif" font-size="493px" font-weight="400"><tspan class="TextPosition" x="2944" y="3538"><tspan fill="rgb(89,89,89)" stroke="none">1-2</tspan></tspan></tspan></text>
 <text class="SVGTextShape"><tspan class="TextParagraph" font-family="Calibri, sans-serif" font-size="493px" font-weight="400"><tspan class="TextPosition" x="5553" y="3538"><tspan fill="rgb(89,89,89)" stroke="none">2-3</tspan></tspan></tspan></text>
 <text class="SVGTextShape"><tspan class="TextParagraph" font-family="Calibri, sans-serif" font-size="493px" font-weight="400"><tspan class="TextPosition" x="8161" y="3538"><tspan fill="rgb(89,89,89)" stroke="none">3-4</tspan></tspan></tspan></text>
 <text class="SVGTextShape"><tspan class="TextParagraph" font-family="Calibri, sans-serif" font-size="493px" font-weight="400"><tspan class="TextPosition" x="10769" y="3538"><tspan fill="rgb(89,89,89)" stroke="none">4-5</tspan></tspan></tspan></text>
 <text class="SVGTextShape"><tspan class="TextParagraph" font-family="Calibri, sans-serif" font-size="493px" font-weight="400"><tspan class="TextPosition" x="13377" y="3538"><tspan fill="rgb(89,89,89)" stroke="none">5-6</tspan></tspan></tspan></text>
 <text class="SVGTextShape"><tspan class="TextParagraph" font-family="Calibri, sans-serif" font-size="493px" font-weight="400"><tspan class="TextPosition" x="15987" y="3538"><tspan fill="rgb(89,89,89)" stroke="none">6-7</tspan></tspan></tspan></text>
 <text class="SVGTextShape"><tspan class="TextParagraph" font-family="Calibri, sans-serif" font-size="493px" font-weight="400"><tspan class="TextPosition" x="18595" y="3538"><tspan fill="rgb(89,89,89)" stroke="none">7-8</tspan></tspan></tspan></text>
 <text class="SVGTextShape"><tspan class="TextParagraph" font-family="Calibri, sans-serif" font-size="493px" font-weight="400"><tspan class="TextPosition" x="21203" y="3538"><tspan fill="rgb(89,89,89)" stroke="none">8-9</tspan></tspan></tspan></text>
 <text class="SVGTextShape"><tspan class="TextParagraph" font-family="Calibri, sans-serif" font-size="493px" font-weight="400"><tspan class="TextPosition" x="23678" y="3538"><tspan fill="rgb(89,89,89)" stroke="none">9-10</tspan></tspan></tspan></text>
 <text class="SVGTextShape"><tspan class="TextParagraph" font-family="Calibri, sans-serif" font-size="493px" font-weight="400"><tspan class="TextPosition" x="26156" y="3538"><tspan fill="rgb(89,89,89)" stroke="none">10-11</tspan></tspan></tspan></text>
 <text class="SVGTextShape"><tspan class="TextParagraph" font-family="Calibri, sans-serif" font-size="493px" font-weight="400"><tspan class="TextPosition" x="28764" y="3538"><tspan fill="rgb(89,89,89)" stroke="none">11-12</tspan></tspan></tspan></text>
 <text class="SVGTextShape"><tspan class="TextParagraph" font-family="Calibri, sans-serif" font-size="493px" font-weight="400"><tspan class="TextPosition" x="31372" y="3538"><tspan fill="rgb(89,89,89)" stroke="none">12-13</tspan></tspan></tspan></text>
 <text class="SVGTextShape"><tspan class="TextParagraph" font-family="Calibri, sans-serif" font-size="493px" font-weight="400"><tspan class="TextPosition" x="33980" y="3538"><tspan fill="rgb(89,89,89)" stroke="none">13-14</tspan></tspan></tspan></text>
 <text class="SVGTextShape"><tspan class="TextParagraph" font-family="Calibri, sans-serif" font-size="493px" font-weight="400"><tspan class="TextPosition" x="36588" y="3538"><tspan fill="rgb(89,89,89)" stroke="none">14-15</tspan></tspan></tspan></text>
 <text class="SVGTextShape"><tspan class="TextParagraph" font-family="Calibri, sans-serif" font-size="493px" font-weight="400"><tspan class="TextPosition" x="1064" y="12307"><tspan fill="rgb(89,89,89)" stroke="none">-0.4</tspan></tspan></tspan></text>
 <text class="SVGTextShape"><tspan class="TextParagraph" font-family="Calibri, sans-serif" font-size="493px" font-weight="400"><tspan class="TextPosition" x="799" y="11167"><tspan fill="rgb(89,89,89)" stroke="none">-0.35</tspan></tspan></tspan></text>
 <text class="SVGTextShape"><tspan class="TextParagraph" font-family="Calibri, sans-serif" font-size="493px" font-weight="400"><tspan class="TextPosition" x="1064" y="10027"><tspan fill="rgb(89,89,89)" stroke="none">-0.3</tspan></tspan></tspan></text>
 <text class="SVGTextShape"><tspan class="TextParagraph" font-family="Calibri, sans-serif" font-size="493px" font-weight="400"><tspan class="TextPosition" x="799" y="8888"><tspan fill="rgb(89,89,89)" stroke="none">-0.25</tspan></tspan></tspan></text>
 <text class="SVGTextShape"><tspan class="TextParagraph" font-family="Calibri, sans-serif" font-size="493px" font-weight="400"><tspan class="TextPosition" x="1064" y="7748"><tspan fill="rgb(89,89,89)" stroke="none">-0.2</tspan></tspan></tspan></text>
 <text class="SVGTextShape"><tspan class="TextParagraph" font-family="Calibri, sans-serif" font-size="493px" font-weight="400"><tspan class="TextPosition" x="799" y="6608"><tspan fill="rgb(89,89,89)" stroke="none">-0.15</tspan></tspan></tspan></text>
 <text class="SVGTextShape"><tspan class="TextParagraph" font-family="Calibri, sans-serif" font-size="493px" font-weight="400"><tspan class="TextPosition" x="1064" y="5467"><tspan fill="rgb(89,89,89)" stroke="none">-0.1</tspan></tspan></tspan></text>
 <text class="SVGTextShape"><tspan class="TextParagraph" font-family="Calibri, sans-serif" font-size="493px" font-weight="400"><tspan class="TextPosition" x="799" y="4327"><tspan fill="rgb(89,89,89)" stroke="none">-0.05</tspan></tspan></tspan></text>
 <text class="SVGTextShape"><tspan class="TextParagraph" font-family="Calibri, sans-serif" font-size="493px" font-weight="400"><tspan class="TextPosition" x="1619" y="3188"><tspan fill="rgb(89,89,89)" stroke="none">0</tspan></tspan></tspan></text>
 <text class="SVGTextShape"><tspan class="TextParagraph" font-family="Calibri, sans-serif" font-size="493px" font-weight="400"><tspan class="TextPosition" x="958" y="2049"><tspan fill="rgb(89,89,89)" stroke="none">0.05</tspan></tspan></tspan></text>
 <text class="SVGTextShape"><tspan class="TextParagraph" font-family="Calibri, sans-serif" font-size="592px" font-weight="400"><tspan class="TextPosition" x="17547" y="1059"><tspan fill="rgb(89,89,89)" stroke="none">Chicken recessive</tspan></tspan></tspan></text>
 <path fill="none" stroke="rgb(237,125,49)" stroke-width="79" stroke-linejoin="round" stroke-linecap="round" d="M 9130,13259 L 9929,13259"/>
 <path fill="none" stroke="rgb(112,173,71)" stroke-width="79" stroke-linejoin="round" stroke-linecap="round" d="M 15361,13259 L 16161,13259"/>
 <path fill="none" stroke="rgb(67,104,43)" stroke-width="79" stroke-linejoin="round" stroke-linecap="round" d="M 23126,13259 L 23926,13259"/>
 <path fill="none" stroke="rgb(255,205,51)" stroke-width="79" stroke-linejoin="round" stroke-linecap="round" d="M 9130,13862 L 9929,13862"/>
 <path fill="none" stroke="rgb(204,154,0)" stroke-width="79" stroke-linejoin="round" stroke-linecap="round" d="M 15361,13862 L 16161,13862"/>
 <path fill="none" stroke="rgb(244,177,131)" stroke-width="79" stroke-linejoin="round" stroke-linecap="round" d="M 23126,13862 L 23926,13862"/>
 <text class="SVGTextShape"><tspan class="TextParagraph" font-family="Calibri, sans-serif" font-size="493px" font-weight="400"><tspan class="TextPosition" x="10037" y="13377"><tspan fill="rgb(89,89,89)" stroke="none">SpeedInheritedRecessive</tspan></tspan></tspan></text>
 <text class="SVGTextShape"><tspan class="TextParagraph" font-family="Calibri, sans-serif" font-size="493px" font-weight="400"><tspan class="TextPosition" x="16269" y="13377"><tspan fill="rgb(89,89,89)" stroke="none">SpeedRecessive</tspan></tspan></tspan></text>
 <text class="SVGTextShape"><tspan class="TextParagraph" font-family="Calibri, sans-serif" font-size="493px" font-weight="400"><tspan class="TextPosition" x="24033" y="13377"><tspan fill="rgb(89,89,89)" stroke="none">MetabolismInheritedRecessive</tspan></tspan></tspan></text>
 <text class="SVGTextShape"><tspan class="TextParagraph" font-family="Calibri, sans-serif" font-size="493px" font-weight="400"><tspan class="TextPosition" x="10037" y="13979"><tspan fill="rgb(89,89,89)" stroke="none">MetabolismRecessive</tspan></tspan></tspan></text>
 <text class="SVGTextShape"><tspan class="TextParagraph" font-family="Calibri, sans-serif" font-size="493px" font-weight="400"><tspan class="TextPosition" x="16269" y="13979"><tspan fill="rgb(89,89,89)" stroke="none">ReproductionInheritedRecessive</tspan></tspan></tspan></text>
 <text class="SVGTextShape"><tspan class="TextParagraph" font-family="Calibri, sans-serif" font-size="493px" font-weight="400"><tspan class="TextPosition" x="24033" y="13979"><tspan fill="rgb(89,89,89)" stroke="none">ReproductionRecessive</tspan></tspan></tspan></text>
</svg>