<?xml version="1.0" standalone="no"?>
<!DOCTYPE svg PUBLIC "-//W3C//DTD SVG 20010904//EN"
 "http://www.w3.org/TR/2001/REC-SVG-20010904/DTD/svg10.dtd">
<svg version="1.0" xmlns="http://www.w3.org/2000/svg"
 width="1630.000000pt" height="626.000000pt" viewBox="0 0 1630.000000 626.000000"
 preserveAspectRatio="xMidYMid meet">

<g transform="translate(0.000000,626.000000) scale(0.100000,-0.100000)"
fill="#000000" stroke="none">
<path d="M6858 6034 c-11 -11 -10 -182 1 -189 6 -3 11 15 13 41 3 50 22 72 52
61 12 -5 16 -19 16 -57 0 -27 5 -50 10 -50 6 0 10 22 10 49 0 67 -30 97 -70
71 -12 -8 -16 -1 -20 36 -3 25 -8 42 -12 38z"/>
<path d="M7200 5940 c0 -60 4 -100 10 -100 6 0 10 17 10 37 l0 38 31 -38 c38
-47 61 -49 25 -3 -32 42 -32 49 -3 69 12 8 19 18 14 23 -4 4 -21 -5 -37 -21
l-30 -29 0 62 c0 35 -4 62 -10 62 -6 0 -10 -40 -10 -100z"/>
<path d="M9130 5940 c0 -65 4 -99 10 -95 6 3 10 46 10 95 0 49 -4 92 -10 95
-6 4 -10 -30 -10 -95z"/>
<path d="M6715 5995 c-67 -66 5 -188 86 -145 30 17 22 29 -11 17 -53 -20 -95
31 -74 89 13 39 37 51 74 37 33 -12 41 0 11 17 -32 16 -60 12 -86 -15z"/>
<path d="M7010 6006 c0 -9 5 -16 10 -16 6 0 10 4 10 9 0 6 -4 13 -10 16 -5 3
-10 -1 -10 -9z"/>
<path d="M8415 6009 c-10 -15 3 -25 16 -12 7 7 7 13 1 17 -6 3 -14 1 -17 -5z"/>
<path d="M8090 5988 c0 -9 -6 -19 -12 -22 -10 -5 -10 -7 0 -12 7 -3 12 -25 12
-54 0 -34 4 -50 16 -54 23 -9 34 -7 34 4 0 6 -7 10 -15 10 -11 0 -15 12 -15
45 0 33 4 45 15 45 8 0 15 5 15 10 0 6 -5 10 -11 10 -7 0 -18 8 -25 18 -12 15
-13 15 -14 0z"/>
<path d="M8320 5986 c0 -8 -6 -17 -12 -20 -10 -5 -10 -7 0 -12 7 -3 12 -25 12
-54 0 -41 3 -50 21 -55 12 -4 26 -2 32 4 8 8 5 11 -11 11 -19 0 -22 5 -22 45
0 33 4 45 15 45 8 0 15 5 15 10 0 6 -7 10 -15 10 -8 0 -15 7 -15 15 0 8 -4 15
-10 15 -5 0 -10 -6 -10 -14z"/>
<path d="M7010 5905 c0 -37 4 -65 10 -65 6 0 10 28 10 65 0 37 -4 65 -10 65
-6 0 -10 -28 -10 -65z"/>
<path d="M7092 5954 c-39 -27 -22 -114 23 -114 19 0 45 11 45 19 0 3 -15 6
-32 6 -32 0 -33 2 -33 40 0 38 1 40 33 40 34 0 42 9 16 19 -22 9 -27 8 -52
-10z"/>
<path d="M7343 5962 c-18 -11 -30 -52 -25 -79 6 -30 41 -48 76 -39 38 9 32 21
-11 21 -28 0 -38 5 -41 18 -3 14 4 17 42 17 52 0 60 16 26 50 -21 21 -46 25
-67 12z m65 -29 c2 -9 -8 -13 -32 -13 -34 0 -44 8 -29 24 11 11 56 2 61 -11z"/>
<path d="M7470 5905 c0 -37 4 -65 10 -65 6 0 10 19 10 43 0 46 13 67 41 67 21
0 29 -20 29 -71 0 -21 5 -39 10 -39 17 0 12 97 -6 114 -18 19 -28 20 -55 6
-13 -7 -19 -7 -19 0 0 5 -4 10 -10 10 -6 0 -10 -28 -10 -65z"/>
<path d="M7690 5905 c0 -37 4 -65 10 -65 6 0 10 20 10 44 0 46 19 72 45 62 10
-4 15 -19 15 -50 0 -25 5 -48 10 -51 6 -4 10 11 10 37 0 46 13 68 41 68 21 0
29 -20 29 -71 0 -21 5 -39 10 -39 11 0 13 62 4 97 -8 28 -36 38 -64 23 -16 -9
-25 -8 -36 1 -11 9 -21 9 -39 1 -15 -7 -25 -8 -25 -2 0 6 -4 10 -10 10 -6 0
-10 -28 -10 -65z"/>
<path d="M7924 5955 c-9 -24 3 -86 20 -104 12 -12 20 -12 41 -3 15 7 25 8 25
2 0 -6 5 -10 10 -10 6 0 10 28 10 65 0 37 -4 65 -10 65 -5 0 -10 -22 -10 -49
0 -41 -4 -51 -20 -56 -30 -10 -40 2 -40 50 0 45 -15 69 -26 40z"/>
<path d="M8187 5958 c-15 -11 -13 -13 19 -13 50 0 54 -19 7 -31 -31 -7 -39
-14 -41 -36 -3 -29 9 -35 71 -36 26 0 27 2 27 48 0 70 -38 100 -83 68z m61
-75 c-4 -22 -58 -31 -58 -10 0 20 10 27 37 27 18 0 24 -5 21 -17z"/>
<path d="M8410 5905 c0 -37 4 -65 10 -65 6 0 10 28 10 65 0 37 -4 65 -10 65
-6 0 -10 -28 -10 -65z"/>
<path d="M8497 5958 c-28 -22 -32 -73 -8 -97 28 -28 56 -27 87 5 20 19 24 31
19 52 -7 32 -31 52 -60 52 -12 0 -29 -6 -38 -12z m68 -53 c0 -36 -3 -40 -27
-43 -21 -3 -30 2 -39 21 -16 36 4 69 39 65 24 -3 27 -7 27 -43z"/>
<path d="M8641 5906 c-1 -77 16 -82 21 -6 3 40 6 45 28 45 23 0 25 -4 28 -52
4 -69 22 -68 22 1 0 66 -17 85 -60 69 -21 -8 -30 -8 -34 1 -2 6 -5 -20 -5 -58z"/>
<path d="M8863 5908 c13 -34 30 -63 37 -63 8 0 24 27 37 60 26 68 26 65 14 65
-5 0 -17 -22 -27 -50 -10 -27 -21 -50 -24 -50 -4 0 -13 21 -21 47 -8 25 -20
48 -27 51 -8 2 -4 -18 11 -60z"/>
<path d="M8997 5958 c-15 -11 -13 -13 19 -13 50 0 54 -19 7 -31 -31 -7 -39
-14 -41 -36 -3 -29 9 -35 71 -36 26 0 27 2 27 48 0 70 -38 100 -83 68z m61
-75 c-4 -22 -58 -31 -58 -10 0 20 10 27 37 27 18 0 24 -5 21 -17z"/>
<path d="M9190 5921 c0 -68 26 -94 71 -71 13 7 19 7 19 0 0 -5 5 -10 10 -10 6
0 10 28 10 65 0 37 -4 65 -10 65 -5 0 -10 -19 -10 -43 0 -46 -13 -67 -41 -67
-21 0 -29 20 -29 71 0 21 -4 39 -10 39 -5 0 -10 -22 -10 -49z"/>
<path d="M9360 5950 c-51 -51 5 -130 74 -104 27 10 18 21 -14 16 -29 -4 -60
11 -60 29 0 5 20 9 45 9 41 0 45 2 45 25 0 43 -56 59 -90 25z m68 -17 c2 -9
-8 -13 -32 -13 -28 0 -34 3 -29 16 7 18 54 16 61 -3z"/>
<path d="M9500 5955 c-16 -20 -6 -43 25 -55 37 -14 33 -44 -5 -38 -31 5 -41
-8 -14 -19 23 -9 64 14 64 36 0 11 -12 23 -30 31 -40 17 -41 44 0 38 24 -4 27
-2 19 9 -15 17 -44 17 -59 -2z"/>
<path d="M296 5648 c-21 -29 -21 -102 0 -122 39 -40 84 -4 84 67 0 71 -50 104
-84 55z m65 -25 c16 -42 0 -88 -31 -88 -22 0 -25 5 -28 44 -4 55 2 71 28 71
13 0 24 -10 31 -27z"/>
<path d="M486 5648 c-21 -29 -21 -102 0 -122 39 -40 84 -4 84 67 0 71 -50 104
-84 55z m65 -25 c16 -42 0 -88 -31 -88 -22 0 -25 5 -28 44 -4 55 2 71 28 71
13 0 24 -10 31 -27z"/>
<path d="M611 5661 c-11 -7 -7 -10 15 -13 43 -5 43 -38 0 -86 -20 -21 -33 -42
-29 -46 11 -10 95 -7 88 4 -3 6 -20 10 -37 10 l-30 0 31 35 c17 20 31 46 31
58 0 40 -35 59 -69 38z"/>
<path d="M410 5525 c0 -8 5 -15 10 -15 6 0 10 7 10 15 0 8 -4 15 -10 15 -5 0
-10 -7 -10 -15z"/>
<path d="M174 5026 c-27 -20 -27 -112 0 -132 40 -29 75 -6 83 54 10 72 -34
113 -83 78z m60 -22 c8 -20 8 -68 0 -88 -3 -9 -16 -16 -29 -16 -25 0 -35 17
-35 60 0 43 10 60 35 60 13 0 26 -7 29 -16z"/>
<path d="M364 5026 c-27 -20 -27 -112 0 -132 40 -29 75 -6 83 54 10 72 -34
113 -83 78z m60 -22 c3 -9 6 -28 6 -44 0 -43 -10 -60 -35 -60 -25 0 -35 17
-35 60 0 43 10 60 35 60 13 0 26 -7 29 -16z"/>
<path d="M498 5026 c-10 -7 -18 -17 -18 -21 0 -4 7 -2 15 5 13 11 15 5 15 -49
0 -48 -3 -61 -15 -61 -8 0 -15 -4 -15 -10 0 -5 18 -10 40 -10 22 0 40 5 40 10
0 6 -7 10 -15 10 -12 0 -15 14 -15 70 0 73 -3 78 -32 56z"/>
<path d="M607 5033 c-4 -3 -7 -21 -7 -39 0 -30 3 -33 33 -36 27 -2 32 -7 32
-28 0 -21 -6 -26 -35 -31 -29 -5 -32 -7 -16 -14 10 -4 30 -4 45 1 21 8 26 16
26 44 0 30 -4 35 -32 44 -44 12 -46 46 -3 46 17 0 30 5 30 10 0 11 -63 14 -73
3z"/>
<path d="M286 4901 c-4 -5 -2 -12 3 -15 5 -4 12 -2 15 3 4 5 2 12 -3 15 -5 4
-12 2 -15 -3z"/>
<path d="M15025 3868 c-297 -545 -553 -1006 -568 -1024 l-29 -34 -17 22 c-14
16 -24 19 -44 14 -37 -9 -34 -24 4 -18 28 4 30 2 27 -19 -2 -16 -11 -25 -25
-27 -25 -4 -32 -22 -8 -22 8 0 15 -4 15 -8 0 -15 -36 -43 -44 -35 -4 5 -6 1
-4 -8 2 -9 -190 -252 -461 -582 -356 -436 -468 -567 -485 -566 -11 0 -256 46
-543 102 l-522 102 -480 615 c-265 338 -508 649 -540 690 l-59 75 -519 28
c-285 15 -541 28 -568 27 -28 0 -274 -27 -548 -60 -273 -33 -508 -60 -522 -60
-14 0 -267 113 -562 250 -295 138 -541 249 -547 247 -6 -3 -245 -533 -530
-1178 -285 -646 -527 -1189 -536 -1208 l-17 -34 -541 781 c-404 581 -548 781
-566 786 -13 3 -26 15 -29 26 -3 12 -19 26 -36 33 -38 14 -43 47 -7 47 14 0
28 5 31 10 4 6 -10 10 -34 10 l-41 0 0 -40 c0 -38 2 -40 29 -40 28 0 49 -15
38 -26 -2 -3 -227 67 -499 156 -272 88 -500 160 -507 160 -7 0 -257 -165 -554
-367 l-542 -368 -505 -57 c-278 -31 -523 -57 -545 -57 -35 0 -100 37 -499 282
-253 155 -464 291 -469 302 -6 11 -13 27 -17 35 -5 10 -22 15 -51 16 -24 0
-52 4 -61 8 -41 18 -14 -12 37 -42 30 -18 55 -37 55 -41 0 -4 -11 -18 -25 -31
-38 -36 -32 -50 20 -50 25 0 45 5 45 10 0 6 -17 10 -37 10 l-36 0 23 25 c13
14 27 25 32 25 4 0 221 -130 481 -288 l472 -289 545 62 545 61 533 362 c293
200 538 365 545 368 13 5 993 -309 1006 -322 3 -3 -11 -5 -31 -2 -41 4 -51 -6
-17 -17 11 -4 33 -2 48 4 17 7 36 9 50 3 16 -5 207 -272 565 -787 297 -428
546 -780 552 -782 9 -3 236 503 930 2074 78 177 146 328 151 337 9 16 26 8
838 -373 l250 -118 535 65 535 65 530 -27 c292 -15 539 -29 550 -31 12 -3 66
-62 128 -141 104 -133 107 -138 90 -157 -17 -19 -17 -20 5 -8 22 12 22 11 22
-49 0 -46 -3 -60 -14 -60 -8 0 -18 -4 -21 -10 -4 -6 12 -10 39 -10 25 0 46 5
46 10 0 6 -7 10 -15 10 -11 0 -15 12 -15 47 0 41 2 45 14 33 7 -8 195 -247
416 -530 l402 -515 377 -73 c207 -40 454 -87 549 -106 l173 -33 472 578 c341
417 478 578 493 579 34 0 58 24 51 51 -5 18 4 36 36 79 24 30 143 237 264 460
121 223 363 665 537 983 174 318 316 583 316 588 0 5 -3 9 -7 9 -5 0 -251
-447 -548 -992z m-13435 -1053 c0 -13 -4 -14 -20 -5 -11 6 -20 13 -20 15 0 3
9 5 20 5 11 0 20 -7 20 -15z m12818 -87 c-2 -6 -10 -14 -16 -16 -7 -2 -10 2
-6 12 7 18 28 22 22 4z"/>
<path d="M296 4398 c-21 -29 -21 -102 0 -122 39 -40 84 -4 84 67 0 71 -50 104
-84 55z m65 -25 c16 -42 0 -88 -31 -88 -22 0 -25 5 -28 44 -4 55 2 71 28 71
13 0 24 -10 31 -27z"/>
<path d="M486 4398 c-21 -29 -21 -102 0 -122 39 -40 84 -4 84 67 0 71 -50 104
-84 55z m65 -25 c16 -42 0 -88 -31 -88 -22 0 -25 5 -28 44 -4 55 2 71 28 71
13 0 24 -10 31 -27z"/>
<path d="M619 4399 c-24 -20 -24 -20 -1 -9 22 10 22 10 22 -50 0 -46 -3 -60
-14 -60 -8 0 -18 -4 -21 -10 -4 -6 12 -10 39 -10 25 0 46 5 46 10 0 6 -7 10
-15 10 -12 0 -15 14 -15 70 0 39 -4 70 -9 70 -5 0 -19 -9 -32 -21z"/>
<path d="M410 4275 c0 -8 5 -15 10 -15 6 0 10 7 10 15 0 8 -4 15 -10 15 -5 0
-10 -7 -10 -15z"/>
<path d="M174 3786 c-27 -20 -27 -112 0 -132 40 -29 75 -6 83 54 10 72 -34
113 -83 78z m60 -22 c8 -20 8 -68 0 -88 -3 -9 -16 -16 -29 -16 -25 0 -35 17
-35 60 0 43 10 60 35 60 13 0 26 -7 29 -16z"/>
<path d="M364 3786 c-27 -20 -27 -112 0 -132 40 -29 75 -6 83 54 10 72 -34
113 -83 78z m60 -22 c3 -9 6 -28 6 -44 0 -43 -10 -60 -35 -60 -25 0 -35 17
-35 60 0 43 10 60 35 60 13 0 26 -7 29 -16z"/>
<path d="M484 3786 c-27 -20 -27 -112 0 -132 40 -29 75 -6 83 54 10 72 -34
113 -83 78z m60 -22 c3 -9 6 -28 6 -44 0 -43 -10 -60 -35 -60 -25 0 -35 17
-35 60 0 43 10 60 35 60 13 0 26 -7 29 -16z"/>
<path d="M607 3793 c-4 -3 -7 -21 -7 -39 0 -30 3 -33 33 -36 27 -2 32 -7 32
-28 0 -21 -6 -26 -35 -31 -29 -5 -32 -7 -16 -14 10 -4 30 -4 45 1 21 8 26 16
26 44 0 30 -4 35 -32 44 -44 12 -46 46 -3 46 17 0 30 5 30 10 0 11 -63 14 -73
3z"/>
<path d="M286 3661 c-4 -5 -2 -12 3 -15 5 -4 12 -2 15 3 4 5 2 12 -3 15 -5 4
-12 2 -15 -3z"/>
<path d="M606 3148 c-21 -29 -21 -102 0 -122 39 -40 84 -4 84 67 0 71 -50 104
-84 55z m65 -25 c16 -42 0 -88 -31 -88 -22 0 -25 5 -28 44 -4 55 2 71 28 71
13 0 24 -10 31 -27z"/>
<path d="M1349 2830 c-13 -10 -19 -19 -13 -20 5 0 15 5 22 12 9 9 12 -2 12
-50 0 -48 -3 -62 -15 -62 -8 0 -15 -4 -15 -10 0 -5 18 -10 40 -10 22 0 40 5
40 10 0 6 -7 10 -15 10 -12 0 -15 14 -15 70 0 39 -4 70 -9 70 -5 0 -19 -9 -32
-20z"/>
<path d="M2431 2841 c-11 -7 -7 -10 15 -13 42 -5 42 -35 -1 -85 -19 -23 -35
-44 -35 -47 0 -3 20 -6 45 -6 25 0 45 5 45 10 0 6 -14 10 -31 10 l-31 0 26 31
c36 43 44 79 21 96 -22 15 -35 16 -54 4z"/>
<path d="M2631 2841 c-11 -7 -7 -10 15 -13 37 -4 42 -41 7 -46 -13 -2 -23 -7
-23 -12 0 -5 10 -10 23 -12 14 -2 23 -11 25 -27 3 -21 1 -23 -32 -19 -39 4
-49 -7 -16 -17 27 -9 58 2 70 26 8 15 6 22 -9 35 -17 15 -17 19 -5 31 18 18
18 28 -2 47 -17 18 -32 20 -53 7z"/>
<path d="M3513 2844 c-25 -10 -13 -20 18 -16 28 4 30 2 27 -19 -2 -16 -11 -25
-25 -27 -32 -5 -29 -20 5 -24 19 -2 27 -9 27 -23 0 -16 -7 -20 -37 -20 -28 0
-34 -3 -26 -12 22 -27 88 -7 88 26 0 10 -7 24 -15 31 -11 9 -12 16 -2 31 21
34 -19 70 -60 53z"/>
<path d="M3721 2803 c-40 -62 -39 -73 3 -73 28 0 35 -4 39 -22 l4 -23 8 23 c4
12 12 22 17 22 7 0 7 5 0 13 -6 7 -12 32 -14 56 -2 25 -8 46 -15 48 -7 3 -26
-17 -42 -44z m39 -13 c0 -36 -2 -40 -25 -40 -14 0 -25 2 -25 4 0 8 42 76 46
76 2 0 4 -18 4 -40z"/>
<path d="M4601 2799 c-17 -28 -31 -55 -31 -60 0 -5 16 -9 35 -9 28 0 35 -4 35
-20 0 -11 5 -20 10 -20 6 0 10 9 10 19 0 11 6 22 13 25 10 5 10 7 0 12 -8 3
-13 25 -13 55 0 65 -18 64 -59 -2z m39 -9 c0 -36 -2 -40 -26 -40 l-25 0 22 40
c13 22 24 40 26 40 2 0 3 -18 3 -40z"/>
<path d="M4787 2843 c-4 -3 -7 -21 -7 -39 0 -30 3 -33 33 -36 27 -2 32 -7 32
-28 0 -21 -6 -26 -35 -31 -29 -5 -32 -7 -16 -14 10 -4 30 -4 45 1 21 8 26 16
26 44 0 30 -4 35 -32 44 -44 12 -46 46 -3 46 17 0 30 5 30 10 0 11 -63 14 -73
3z"/>
<path d="M5890 2832 c-31 -25 -38 -90 -12 -122 17 -21 24 -23 48 -15 56 20 39
103 -18 91 -19 -4 -28 -1 -28 7 0 21 22 37 53 37 16 0 26 4 22 10 -10 15 -41
12 -65 -8z m50 -93 c0 -27 -3 -30 -27 -27 -22 2 -29 9 -31 31 -3 24 0 27 27
27 28 0 31 -3 31 -31z"/>
<path d="M6770 2830 c-14 -14 -20 -33 -20 -64 0 -69 39 -97 80 -56 11 11 20
26 20 34 0 25 -31 48 -57 43 -20 -4 -24 -1 -21 17 2 16 11 22 36 24 18 2 30 8
27 13 -10 16 -44 10 -65 -11z m55 -90 c0 -20 -5 -25 -25 -25 -20 0 -26 6 -28
28 -3 26 -1 28 25 25 22 -2 28 -8 28 -28z"/>
<path d="M6950 2840 c0 -5 16 -10 35 -10 19 0 35 -4 35 -9 0 -5 -12 -34 -26
-65 -14 -32 -23 -60 -20 -63 8 -8 8 -8 39 65 37 87 36 92 -18 92 -25 0 -45 -4
-45 -10z"/>
<path d="M7835 2840 c3 -5 22 -10 41 -10 l34 0 -15 -35 c-8 -19 -22 -51 -31
-71 -10 -23 -11 -35 -4 -32 11 3 70 129 70 149 0 5 -23 9 -51 9 -31 0 -48 -4
-44 -10z"/>
<path d="M8045 2834 c-14 -15 -14 -19 -1 -39 13 -20 13 -25 1 -35 -23 -19 -18
-49 10 -62 50 -23 100 28 60 62 -12 10 -12 15 1 35 13 20 13 24 -1 39 -9 9
-25 16 -35 16 -10 0 -26 -7 -35 -16z m61 -15 c3 -6 -1 -18 -10 -27 -15 -15
-17 -15 -32 0 -19 19 -11 38 16 38 10 0 22 -5 26 -11z m2 -86 c3 -20 -1 -23
-27 -23 -23 0 -31 5 -31 18 0 25 10 33 35 30 12 -2 21 -12 23 -25z"/>
<path d="M8938 2839 c-22 -12 -24 -48 -3 -55 13 -5 12 -10 -5 -31 -22 -29 -17
-51 15 -59 77 -19 98 56 25 86 -39 16 -42 50 -4 50 23 0 26 -3 21 -25 -3 -16
0 -24 7 -22 16 5 20 36 6 52 -14 17 -38 19 -62 4z m51 -88 c21 -13 5 -41 -23
-41 -30 0 -42 16 -26 35 14 17 29 19 49 6z"/>
<path d="M9129 2829 c-14 -14 -18 -27 -13 -42 9 -30 24 -38 57 -33 30 6 32 3
17 -25 -7 -13 -21 -19 -42 -19 -24 0 -29 -3 -21 -11 16 -16 60 -3 74 23 17 32
13 100 -7 115 -25 18 -41 16 -65 -8z m64 -21 c8 -29 1 -38 -29 -38 -26 0 -40
20 -30 45 9 24 53 19 59 -7z"/>
<path d="M9958 2839 c-22 -12 -24 -62 -3 -79 8 -7 25 -10 40 -6 18 5 25 2 25
-8 0 -19 -20 -34 -55 -38 -26 -4 -27 -5 -11 -13 30 -13 69 15 80 56 16 66 -28
117 -76 88z m56 -25 c13 -33 6 -44 -24 -44 -27 0 -30 3 -30 30 0 25 4 30 24
30 13 0 27 -7 30 -16z"/>
<path d="M10168 2836 c-24 -18 -23 -29 2 -16 19 10 20 8 20 -50 0 -53 -2 -60
-20 -60 -11 0 -20 -4 -20 -10 0 -5 21 -10 46 -10 27 0 43 4 39 10 -3 6 -13 10
-21 10 -11 0 -14 16 -14 70 0 73 -3 78 -32 56z"/>
<path d="M10275 2834 c-12 -12 -15 -31 -13 -72 3 -52 5 -57 32 -67 24 -8 31
-6 47 14 24 29 26 103 3 125 -20 21 -48 20 -69 0z m60 -64 c0 -52 -1 -55 -25
-55 -19 0 -26 7 -34 33 -12 44 6 85 37 80 20 -3 22 -9 22 -58z"/>
<path d="M10989 2829 c-24 -20 -24 -20 -1 -9 22 10 22 10 22 -50 0 -46 -3 -60
-14 -60 -8 0 -18 -4 -21 -10 -4 -6 12 -10 39 -10 25 0 46 5 46 10 0 6 -7 10
-15 10 -12 0 -15 14 -15 70 0 39 -4 70 -9 70 -5 0 -19 -9 -32 -21z"/>
<path d="M11096 2828 c-21 -29 -21 -102 0 -122 39 -40 84 -4 84 67 0 71 -50
104 -84 55z m65 -25 c16 -42 0 -88 -31 -88 -22 0 -25 5 -28 44 -4 55 2 71 28
71 13 0 24 -10 31 -27z"/>
<path d="M11309 2829 c-24 -20 -24 -20 -1 -9 22 10 22 10 22 -50 0 -46 -3 -60
-14 -60 -8 0 -18 -4 -21 -10 -4 -6 12 -10 39 -10 25 0 46 5 46 10 0 6 -7 10
-15 10 -12 0 -15 14 -15 70 0 39 -4 70 -9 70 -5 0 -19 -9 -32 -21z"/>
<path d="M12078 2836 c-10 -7 -18 -17 -18 -21 0 -4 7 -2 15 5 13 11 15 5 15
-49 0 -48 -3 -61 -15 -61 -8 0 -15 -4 -15 -10 0 -5 18 -10 40 -10 22 0 40 5
40 10 0 6 -7 10 -15 10 -12 0 -15 14 -15 70 0 73 -3 78 -32 56z"/>
<path d="M12198 2836 c-10 -7 -18 -17 -18 -21 0 -4 7 -2 15 5 13 11 15 5 15
-49 0 -48 -3 -61 -15 -61 -8 0 -15 -4 -15 -10 0 -5 18 -10 40 -10 22 0 40 5
40 10 0 6 -7 10 -15 10 -12 0 -15 14 -15 70 0 73 -3 78 -32 56z"/>
<path d="M12398 2836 c-10 -7 -18 -17 -18 -21 0 -4 7 -2 15 5 13 11 15 5 15
-49 0 -48 -3 -61 -15 -61 -8 0 -15 -4 -15 -10 0 -5 18 -10 40 -10 22 0 40 5
40 10 0 6 -7 10 -15 10 -12 0 -15 14 -15 70 0 73 -3 78 -32 56z"/>
<path d="M12513 2843 c-23 -9 -13 -18 19 -18 45 0 46 -23 3 -74 -19 -24 -35
-47 -35 -52 0 -5 20 -9 45 -9 25 0 45 5 45 10 0 6 -14 10 -31 10 l-31 0 24 33
c35 46 42 72 23 91 -16 16 -38 19 -62 9z"/>
<path d="M13158 2836 c-24 -18 -23 -29 2 -16 19 10 20 8 20 -50 0 -53 -2 -60
-20 -60 -11 0 -20 -4 -20 -10 0 -5 21 -10 46 -10 27 0 43 4 39 10 -3 6 -13 10
-21 10 -11 0 -14 16 -14 70 0 73 -3 78 -32 56z"/>
<path d="M13271 2841 c-11 -7 -7 -10 15 -13 42 -5 42 -35 -1 -85 -19 -23 -35
-44 -35 -47 0 -3 20 -6 45 -6 25 0 45 5 45 10 0 6 -14 10 -31 10 l-31 0 26 31
c36 43 44 79 21 96 -22 15 -35 16 -54 4z"/>
<path d="M13478 2836 c-24 -18 -23 -29 2 -16 19 10 20 8 20 -50 0 -53 -2 -60
-20 -60 -11 0 -20 -4 -20 -10 0 -5 21 -10 46 -10 27 0 43 4 39 10 -3 6 -13 10
-21 10 -11 0 -14 16 -14 70 0 73 -3 78 -32 56z"/>
<path d="M13600 2840 c-12 -8 -9 -10 12 -10 15 0 29 -4 32 -9 10 -16 -5 -41
-25 -41 -27 0 -24 -18 4 -22 14 -2 23 -11 25 -27 3 -21 1 -23 -32 -19 -36 4
-49 -8 -21 -18 45 -18 99 30 69 61 -13 12 -14 19 -5 28 17 17 13 45 -8 57 -24
12 -32 12 -51 0z"/>
<path d="M14239 2830 c-13 -10 -19 -19 -13 -20 5 0 15 5 22 12 9 9 12 -2 12
-50 0 -48 -3 -62 -15 -62 -8 0 -15 -4 -15 -10 0 -5 18 -10 40 -10 22 0 40 5
40 10 0 6 -7 10 -15 10 -12 0 -15 14 -15 70 0 39 -4 70 -9 70 -5 0 -19 -9 -32
-20z"/>
<path d="M14559 2830 c-13 -10 -19 -19 -13 -20 5 0 15 5 22 12 9 9 12 -2 12
-50 0 -48 -3 -62 -15 -62 -8 0 -15 -4 -15 -10 0 -5 18 -10 40 -10 22 0 40 5
40 10 0 6 -7 10 -15 10 -12 0 -15 14 -15 70 0 39 -4 70 -9 70 -5 0 -19 -9 -32
-20z"/>
<path d="M14691 2803 c-40 -62 -39 -73 3 -73 28 0 35 -4 39 -22 l4 -23 8 23
c4 12 12 22 17 22 7 0 7 5 0 13 -6 7 -12 32 -14 56 -2 25 -8 46 -15 48 -7 3
-26 -17 -42 -44z m39 -13 c0 -36 -2 -40 -25 -40 -14 0 -25 2 -25 4 0 8 42 76
46 76 2 0 4 -18 4 -40z"/>
<path d="M15328 2836 c-24 -18 -23 -29 2 -16 19 10 20 8 20 -50 0 -53 -2 -60
-20 -60 -11 0 -20 -4 -20 -10 0 -5 21 -10 46 -10 27 0 43 4 39 10 -3 6 -13 10
-21 10 -11 0 -14 16 -14 70 0 73 -3 78 -32 56z"/>
<path d="M15442 2796 c-17 -30 -32 -57 -32 -60 0 -3 16 -6 35 -6 28 0 35 -4
35 -20 0 -11 5 -20 10 -20 6 0 10 9 10 19 0 11 6 22 13 25 10 5 10 7 0 12 -8
3 -13 25 -13 55 0 65 -17 64 -58 -5z m35 -43 c-3 -2 -15 -3 -26 -1 -20 3 -20
3 2 38 l22 35 3 -33 c2 -19 1 -36 -1 -39z"/>
<path d="M15648 2836 c-24 -18 -23 -29 2 -16 19 10 20 8 20 -50 0 -53 -2 -60
-20 -60 -11 0 -20 -4 -20 -10 0 -5 21 -10 46 -10 27 0 43 4 39 10 -3 6 -13 10
-21 10 -11 0 -14 16 -14 70 0 73 -3 78 -32 56z"/>
<path d="M15760 2810 c0 -35 3 -40 24 -40 29 0 49 -22 40 -45 -5 -12 -15 -16
-40 -13 -37 4 -46 -7 -14 -17 29 -9 60 3 69 28 12 30 -3 54 -39 62 -42 9 -42
45 0 45 17 0 30 5 30 10 0 6 -16 10 -35 10 -34 0 -35 -1 -35 -40z"/>
<path d="M1440 2750 c0 -5 14 -10 30 -10 17 0 30 5 30 10 0 6 -13 10 -30 10
-16 0 -30 -4 -30 -10z"/>
<path d="M2530 2750 c0 -5 11 -10 25 -10 14 0 25 5 25 10 0 6 -11 10 -25 10
-14 0 -25 -4 -25 -10z"/>
<path d="M3610 2750 c0 -5 14 -10 31 -10 17 0 28 4 24 10 -3 6 -17 10 -31 10
-13 0 -24 -4 -24 -10z"/>
<path d="M4695 2750 c-4 -6 7 -10 24 -10 17 0 31 5 31 10 0 6 -11 10 -24 10
-14 0 -28 -4 -31 -10z"/>
<path d="M5780 2750 c0 -5 11 -10 25 -10 14 0 25 5 25 10 0 6 -11 10 -25 10
-14 0 -25 -4 -25 -10z"/>
<path d="M6865 2750 c-4 -6 7 -10 24 -10 17 0 31 5 31 10 0 6 -11 10 -24 10
-14 0 -28 -4 -31 -10z"/>
<path d="M7950 2750 c0 -5 11 -10 25 -10 14 0 25 5 25 10 0 6 -11 10 -25 10
-14 0 -25 -4 -25 -10z"/>
<path d="M9035 2750 c-4 -6 7 -10 24 -10 17 0 31 5 31 10 0 6 -11 10 -24 10
-14 0 -28 -4 -31 -10z"/>
<path d="M10060 2750 c0 -5 11 -10 25 -10 14 0 25 5 25 10 0 6 -11 10 -25 10
-14 0 -25 -4 -25 -10z"/>
<path d="M11210 2750 c0 -5 11 -10 25 -10 14 0 25 5 25 10 0 6 -11 10 -25 10
-14 0 -25 -4 -25 -10z"/>
<path d="M12295 2750 c-4 -6 7 -10 24 -10 17 0 31 5 31 10 0 6 -11 10 -24 10
-14 0 -28 -4 -31 -10z"/>
<path d="M13380 2750 c0 -5 11 -10 25 -10 14 0 25 5 25 10 0 6 -11 10 -25 10
-14 0 -25 -4 -25 -10z"/>
<path d="M14460 2750 c0 -5 14 -10 31 -10 17 0 28 4 24 10 -3 6 -17 10 -31 10
-13 0 -24 -4 -24 -10z"/>
<path d="M15550 2750 c0 -5 11 -10 25 -10 14 0 25 5 25 10 0 6 -11 10 -25 10
-14 0 -25 -4 -25 -10z"/>
<path d="M176 2528 c-21 -29 -21 -102 0 -122 39 -40 84 -4 84 67 0 71 -50 104
-84 55z m65 -25 c16 -42 0 -88 -31 -88 -22 0 -25 5 -28 44 -4 55 2 71 28 71
13 0 24 -10 31 -27z"/>
<path d="M356 2528 c-21 -29 -21 -102 0 -122 39 -40 84 -4 84 67 0 71 -50 104
-84 55z m65 -25 c16 -42 0 -88 -31 -88 -22 0 -25 5 -28 44 -4 55 2 71 28 71
13 0 24 -10 31 -27z"/>
<path d="M486 2528 c-21 -29 -21 -102 0 -122 39 -40 84 -4 84 67 0 71 -50 104
-84 55z m65 -25 c16 -42 0 -88 -31 -88 -22 0 -25 5 -28 44 -4 55 2 71 28 71
13 0 24 -10 31 -27z"/>
<path d="M600 2511 c0 -37 2 -40 33 -43 27 -2 32 -7 32 -28 0 -22 -4 -25 -38
-25 -42 0 -49 -12 -13 -21 55 -13 97 45 56 78 -12 10 -28 18 -36 18 -8 0 -14
9 -14 20 0 15 7 20 24 20 14 0 28 5 31 10 4 6 -10 10 -34 10 -41 0 -41 0 -41
-39z"/>
<path d="M80 2450 c0 -5 11 -10 25 -10 14 0 25 5 25 10 0 6 -11 10 -25 10 -14
0 -25 -4 -25 -10z"/>
<path d="M290 2405 c0 -8 5 -15 10 -15 6 0 10 7 10 15 0 8 -4 15 -10 15 -5 0
-10 -7 -10 -15z"/>
<path d="M304 1916 c-27 -20 -27 -112 0 -132 40 -29 75 -6 83 54 10 72 -34
113 -83 78z m60 -22 c3 -9 6 -28 6 -44 0 -43 -10 -60 -35 -60 -25 0 -35 17
-35 60 0 43 10 60 35 60 13 0 26 -7 29 -16z"/>
<path d="M484 1916 c-27 -20 -27 -112 0 -132 40 -29 75 -6 83 54 10 72 -34
113 -83 78z m60 -22 c3 -9 6 -28 6 -44 0 -43 -10 -60 -35 -60 -25 0 -35 17
-35 60 0 43 10 60 35 60 13 0 26 -7 29 -16z"/>
<path d="M628 1916 c-10 -7 -18 -17 -18 -21 0 -4 7 -2 15 5 13 11 15 5 15 -49
0 -48 -3 -61 -15 -61 -8 0 -15 -4 -15 -10 0 -5 18 -10 40 -10 22 0 40 5 40 10
0 6 -7 10 -15 10 -12 0 -15 14 -15 70 0 73 -3 78 -32 56z"/>
<path d="M205 1830 c-4 -6 7 -10 24 -10 17 0 31 5 31 10 0 6 -11 10 -24 10
-14 0 -28 -4 -31 -10z"/>
<path d="M416 1791 c-4 -5 -2 -12 3 -15 5 -4 12 -2 15 3 4 5 2 12 -3 15 -5 4
-12 2 -15 -3z"/>
<path d="M176 1278 c-21 -29 -21 -102 0 -122 39 -40 84 -4 84 67 0 71 -50 104
-84 55z m65 -25 c16 -42 0 -88 -31 -88 -22 0 -25 5 -28 44 -4 55 2 71 28 71
13 0 24 -10 31 -27z"/>
<path d="M356 1278 c-21 -29 -21 -102 0 -122 39 -40 84 -4 84 67 0 71 -50 104
-84 55z m65 -25 c16 -42 0 -88 -31 -88 -22 0 -25 5 -28 44 -4 55 2 71 28 71
13 0 24 -10 31 -27z"/>
<path d="M499 1279 c-24 -20 -24 -20 -1 -9 22 10 22 10 22 -50 0 -46 -3 -60
-14 -60 -8 0 -18 -4 -21 -10 -4 -6 12 -10 39 -10 25 0 46 5 46 10 0 6 -7 10
-15 10 -12 0 -15 14 -15 70 0 39 -4 70 -9 70 -5 0 -19 -9 -32 -21z"/>
<path d="M600 1261 c0 -37 2 -40 33 -43 27 -2 32 -7 32 -28 0 -22 -4 -25 -38
-25 -42 0 -49 -12 -13 -21 55 -13 97 45 56 78 -12 10 -28 18 -36 18 -8 0 -14
9 -14 20 0 15 7 20 24 20 14 0 28 5 31 10 4 6 -10 10 -34 10 -41 0 -41 0 -41
-39z"/>
<path d="M80 1200 c0 -5 11 -10 25 -10 14 0 25 5 25 10 0 6 -11 10 -25 10 -14
0 -25 -4 -25 -10z"/>
<path d="M290 1155 c0 -8 5 -15 10 -15 6 0 10 7 10 15 0 8 -4 15 -10 15 -5 0
-10 -7 -10 -15z"/>
<path d="M304 666 c-27 -20 -27 -112 0 -132 40 -29 75 -6 83 54 10 72 -34 113
-83 78z m60 -22 c3 -9 6 -28 6 -44 0 -43 -10 -60 -35 -60 -13 0 -26 7 -29 16
-8 20 -8 68 0 88 8 21 50 21 58 0z"/>
<path d="M484 666 c-27 -20 -27 -112 0 -132 40 -29 75 -6 83 54 10 72 -34 113
-83 78z m60 -22 c3 -9 6 -28 6 -44 0 -43 -10 -60 -35 -60 -25 0 -35 17 -35 60
0 43 10 60 35 60 13 0 26 -7 29 -16z"/>
<path d="M613 673 c-23 -9 -13 -18 19 -18 45 0 46 -22 3 -76 -19 -24 -35 -47
-35 -51 0 -5 20 -8 45 -8 25 0 45 5 45 10 0 6 -14 10 -31 10 l-31 0 24 33 c35
46 42 72 23 91 -16 16 -38 19 -62 9z"/>
<path d="M205 580 c-4 -6 7 -10 24 -10 17 0 31 5 31 10 0 6 -11 10 -24 10 -14
0 -28 -4 -31 -10z"/>
<path d="M416 541 c-4 -5 -2 -12 3 -15 5 -4 12 -2 15 3 4 5 2 12 -3 15 -5 4
-12 2 -15 -3z"/>
<path d="M7880 390 c0 -27 -3 -30 -24 -24 -32 8 -56 -19 -56 -62 0 -27 5 -37
25 -46 19 -8 28 -8 40 2 10 8 15 9 15 1 0 -6 5 -11 10 -11 6 0 10 33 10 79 0
44 -4 83 -10 86 -6 4 -10 -7 -10 -25z m-5 -80 c0 -31 -3 -35 -25 -35 -19 0
-26 6 -28 23 -5 36 5 54 30 50 19 -2 23 -9 23 -38z"/>
<path d="M9127 413 c-11 -10 -8 -151 3 -158 6 -4 10 25 10 79 0 86 -1 92 -13
79z"/>
<path d="M10481 333 c0 -48 3 -83 5 -76 4 9 11 9 30 1 32 -15 57 8 57 51 0 40
-20 64 -50 56 -19 -4 -23 -2 -23 19 0 14 -4 28 -10 31 -6 4 -10 -26 -9 -82z
m74 -3 c10 -33 -4 -62 -28 -58 -22 3 -34 35 -23 64 8 21 44 17 51 -6z"/>
<path d="M10740 335 c0 -55 4 -84 10 -80 6 3 10 39 10 80 0 41 -4 77 -10 80
-6 4 -10 -25 -10 -80z"/>
<path d="M12340 335 c0 -55 4 -84 10 -80 6 3 10 39 10 80 0 41 -4 77 -10 80
-6 4 -10 -25 -10 -80z"/>
<path d="M13837 413 c-4 -3 -7 -17 -7 -30 0 -20 -4 -22 -24 -17 -18 4 -28 0
-40 -17 -21 -31 -20 -52 3 -80 16 -20 22 -22 44 -12 20 9 27 9 31 0 2 -7 5 27
5 76 1 87 0 93 -12 80z m-12 -103 c0 -31 -3 -35 -25 -35 -19 0 -26 6 -28 23
-5 36 5 54 30 50 19 -2 23 -9 23 -38z"/>
<path d="M15710 335 c0 -50 4 -85 10 -85 6 0 10 35 10 85 0 50 -4 85 -10 85
-6 0 -10 -35 -10 -85z"/>
<path d="M7328 399 c-29 -17 -21 -48 17 -71 45 -26 43 -51 -5 -58 -31 -5 -33
-7 -12 -14 69 -24 99 56 31 84 -18 8 -29 20 -29 32 0 17 5 20 30 16 32 -5 41
6 14 16 -21 8 -26 7 -46 -5z"/>
<path d="M7930 329 c0 -51 4 -78 10 -74 6 3 10 34 11 68 l0 62 26 -67 c14 -38
29 -68 33 -68 5 0 21 33 37 73 l28 72 5 -75 c7 -91 22 -72 18 21 -4 86 -23 85
-59 -1 -26 -61 -28 -63 -37 -40 -34 88 -46 110 -58 110 -11 0 -14 -18 -14 -81z"/>
<path d="M8555 400 c3 -5 8 -10 11 -10 2 0 4 5 4 10 0 6 -5 10 -11 10 -5 0 -7
-4 -4 -10z"/>
<path d="M8878 330 c14 -44 31 -80 37 -80 6 0 22 30 35 68 13 37 25 73 28 80
2 6 0 12 -5 12 -6 0 -18 -27 -28 -60 -10 -34 -22 -63 -26 -66 -4 -2 -17 25
-29 61 -12 36 -25 65 -30 65 -4 0 4 -36 18 -80z"/>
<path d="M9950 331 c0 -98 18 -109 22 -13 l3 67 25 -68 c14 -37 29 -66 34 -64
5 2 21 34 37 72 l28 70 0 -72 c1 -42 5 -73 11 -73 6 0 10 33 10 80 0 65 -3 80
-15 80 -9 0 -19 -10 -24 -22 -5 -13 -18 -43 -28 -67 l-19 -45 -26 65 c-15 36
-33 65 -42 67 -14 3 -16 -8 -16 -77z"/>
<path d="M10800 399 c0 -5 5 -7 10 -4 6 3 10 8 10 11 0 2 -4 4 -10 4 -5 0 -10
-5 -10 -11z"/>
<path d="M11140 331 c0 -98 18 -109 22 -13 l3 67 25 -68 c14 -37 29 -66 34
-64 5 2 21 34 37 72 l28 70 0 -72 c1 -42 5 -73 11 -73 6 0 10 33 10 80 0 65
-3 80 -15 80 -9 0 -19 -10 -24 -22 -5 -13 -18 -43 -28 -67 l-19 -45 -26 65
c-15 36 -33 65 -42 67 -14 3 -16 -8 -16 -77z"/>
<path d="M11760 399 c0 -5 5 -7 10 -4 6 3 10 8 10 11 0 2 -4 4 -10 4 -5 0 -10
-5 -10 -11z"/>
<path d="M12089 334 c16 -43 33 -80 38 -81 9 -3 63 128 63 150 0 24 -19 -10
-35 -63 -10 -33 -21 -60 -25 -60 -3 0 -15 28 -26 62 -11 34 -25 63 -31 65 -7
3 0 -28 16 -73z"/>
<path d="M13160 330 c0 -47 4 -80 10 -80 6 0 10 16 10 35 0 50 34 49 56 -2 9
-21 18 -33 21 -26 2 6 -2 24 -10 40 -13 24 -13 31 -2 47 25 34 0 66 -52 66
l-33 0 0 -80z m74 51 c11 -18 -6 -41 -30 -41 -19 0 -24 5 -24 25 0 20 5 25 24
25 14 0 27 -4 30 -9z"/>
<path d="M14200 400 c0 -5 5 -10 10 -10 6 0 10 5 10 10 0 6 -4 10 -10 10 -5 0
-10 -4 -10 -10z"/>
<path d="M14520 331 c0 -98 18 -109 22 -13 l3 67 26 -63 c14 -35 30 -64 35
-64 5 0 20 29 34 63 l25 64 3 -60 c5 -94 22 -92 22 3 0 103 -15 108 -56 15
l-29 -67 -26 64 c-15 40 -31 66 -42 68 -15 3 -17 -6 -17 -77z"/>
<path d="M15140 400 c0 -5 5 -10 10 -10 6 0 10 5 10 10 0 6 -4 10 -10 10 -5 0
-10 -4 -10 -10z"/>
<path d="M15440 403 c0 -27 53 -154 63 -150 12 4 59 136 54 152 -2 5 -14 -20
-26 -58 -13 -37 -26 -65 -31 -62 -5 3 -16 29 -25 58 -17 52 -35 82 -35 60z"/>
<path d="M4975 375 c-61 -60 0 -159 79 -129 11 4 16 19 16 45 0 35 -3 39 -25
39 -14 0 -25 -4 -25 -10 0 -5 7 -10 15 -10 9 0 15 -9 15 -25 0 -21 -5 -25 -28
-25 -37 0 -52 17 -52 60 0 46 15 60 65 60 29 0 36 3 25 10 -26 17 -60 11 -85
-15z"/>
<path d="M5760 390 c0 -5 5 -10 10 -10 6 0 10 5 10 10 0 6 -4 10 -10 10 -5 0
-10 -4 -10 -10z"/>
<path d="M8270 386 c0 -8 -6 -17 -12 -20 -10 -5 -10 -7 0 -12 7 -3 12 -24 12
-49 0 -44 22 -67 44 -45 7 7 5 10 -7 10 -13 0 -17 9 -17 40 0 29 4 40 15 40 8
0 15 5 15 10 0 6 -7 10 -15 10 -8 0 -15 7 -15 15 0 8 -4 15 -10 15 -5 0 -10
-6 -10 -14z"/>
<path d="M8470 386 c0 -8 -6 -17 -12 -20 -10 -5 -10 -7 0 -12 7 -3 12 -24 12
-49 0 -44 22 -67 44 -45 7 7 5 10 -7 10 -13 0 -17 9 -17 40 0 29 4 40 15 40 8
0 15 5 15 10 0 6 -7 10 -15 10 -8 0 -15 7 -15 15 0 8 -4 15 -10 15 -5 0 -10
-6 -10 -14z"/>
<path d="M10280 385 c0 -8 -5 -15 -12 -15 -9 0 -9 -3 0 -12 7 -7 12 -28 12
-48 0 -20 5 -41 12 -48 15 -15 38 -16 38 -2 0 6 -7 10 -15 10 -11 0 -15 11
-15 40 0 29 4 40 15 40 8 0 15 5 15 10 0 6 -7 10 -15 10 -8 0 -15 7 -15 15 0
8 -4 15 -10 15 -5 0 -10 -7 -10 -15z"/>
<path d="M11480 385 c0 -8 -5 -15 -12 -15 -9 0 -9 -3 0 -12 7 -7 12 -28 12
-48 0 -20 5 -41 12 -48 15 -15 38 -16 38 -2 0 6 -7 10 -15 10 -11 0 -15 11
-15 40 0 29 4 40 15 40 8 0 15 5 15 10 0 6 -7 10 -15 10 -8 0 -15 7 -15 15 0
8 -4 15 -10 15 -5 0 -10 -7 -10 -15z"/>
<path d="M11680 385 c0 -8 -5 -15 -12 -15 -9 0 -9 -3 0 -12 7 -7 12 -28 12
-48 0 -20 5 -41 12 -48 15 -15 38 -16 38 -2 0 6 -7 10 -15 10 -11 0 -15 11
-15 40 0 29 4 40 15 40 8 0 15 5 15 10 0 6 -7 10 -15 10 -8 0 -15 7 -15 15 0
8 -4 15 -10 15 -5 0 -10 -7 -10 -15z"/>
<path d="M14123 385 c-11 -20 -4 -99 11 -123 9 -14 36 -16 36 -2 0 6 -7 10
-15 10 -11 0 -15 11 -15 40 0 29 4 40 15 40 8 0 15 5 15 10 0 6 -6 10 -14 10
-8 0 -16 8 -18 18 -4 15 -5 15 -15 -3z"/>
<path d="M14863 385 c-11 -20 -4 -99 11 -123 9 -14 36 -16 36 -2 0 6 -7 10
-15 10 -11 0 -15 11 -15 40 0 29 4 40 15 40 8 0 15 5 15 10 0 6 -6 10 -14 10
-8 0 -16 8 -18 18 -4 15 -5 15 -15 -3z"/>
<path d="M15063 385 c-11 -20 -4 -99 11 -123 9 -14 36 -16 36 -2 0 6 -7 10
-15 10 -11 0 -15 11 -15 40 0 29 4 40 15 40 8 0 15 5 15 10 0 6 -6 10 -14 10
-8 0 -16 8 -18 18 -4 15 -5 15 -15 -3z"/>
<path d="M5683 375 c-11 -20 -4 -99 11 -123 9 -14 36 -16 36 -2 0 6 -7 10 -15
10 -11 0 -15 11 -15 40 0 29 4 40 15 40 8 0 15 5 15 10 0 6 -6 10 -14 10 -8 0
-16 8 -18 18 -4 15 -5 15 -15 -3z"/>
<path d="M7427 364 c-11 -11 -8 -142 3 -149 6 -4 10 5 10 20 0 22 4 25 20 20
35 -11 60 12 60 54 0 49 -21 68 -55 53 -16 -7 -25 -8 -27 -1 -2 6 -7 7 -11 3z
m73 -55 c0 -38 -1 -40 -27 -37 -47 5 -45 78 2 78 23 0 25 -4 25 -41z"/>
<path d="M7566 354 c-31 -31 -11 -104 29 -104 7 0 22 3 32 7 14 6 10 9 -17 13
-23 3 -36 11 -38 23 -3 13 4 17 32 17 42 0 50 10 30 38 -18 26 -46 28 -68 6z
m52 -6 c19 -19 14 -28 -18 -28 -41 0 -40 33 1 39 3 1 10 -4 17 -11z"/>
<path d="M7686 354 c-31 -31 -11 -104 29 -104 7 0 22 3 32 7 14 6 10 9 -17 13
-23 3 -36 11 -38 23 -3 13 4 17 32 17 42 0 50 10 30 38 -18 26 -46 28 -68 6z
m52 -6 c19 -19 14 -28 -18 -28 -41 0 -40 33 1 39 3 1 10 -4 17 -11z"/>
<path d="M8138 364 c-9 -9 -10 -50 -2 -81 7 -27 40 -39 59 -23 12 10 15 10 15
1 0 -7 5 -9 10 -6 13 8 13 102 1 110 -6 3 -11 -16 -13 -42 -3 -44 -5 -48 -28
-48 -23 0 -25 5 -30 48 -3 27 -8 45 -12 41z"/>
<path d="M8367 357 c-16 -11 -14 -12 15 -12 23 0 34 -5 36 -17 2 -12 -5 -17
-30 -20 -25 -2 -34 -8 -36 -25 -3 -23 16 -33 58 -29 23 3 25 7 24 50 -1 61
-28 82 -67 53z m53 -66 c0 -14 -28 -33 -40 -26 -20 12 -10 35 15 35 14 0 25
-4 25 -9z"/>
<path d="M8557 363 c-11 -10 -8 -101 3 -108 6 -4 10 17 10 54 0 62 -1 66 -13
54z"/>
<path d="M8616 354 c-32 -31 -11 -104 30 -104 36 0 54 20 54 60 0 29 -5 42
-19 50 -27 14 -47 13 -65 -6z m70 -29 c8 -31 -12 -57 -40 -53 -13 2 -22 12
-24 26 -5 36 5 52 32 52 19 0 27 -7 32 -25z"/>
<path d="M8737 363 c-11 -10 -8 -101 2 -108 6 -3 11 16 13 42 3 44 5 48 28 48
23 0 25 -4 28 -47 2 -27 7 -48 13 -48 16 0 10 87 -7 104 -18 18 -23 19 -44 6
-9 -5 -17 -5 -20 1 -4 5 -9 6 -13 2z"/>
<path d="M9017 357 c-16 -11 -14 -12 15 -12 23 0 34 -5 36 -17 2 -12 -5 -17
-30 -20 -25 -2 -34 -8 -36 -25 -3 -23 16 -33 58 -29 23 3 25 7 24 50 -1 61
-28 82 -67 53z m53 -66 c0 -14 -28 -33 -40 -26 -20 12 -10 35 15 35 14 0 25
-4 25 -9z"/>
<path d="M9178 364 c-9 -9 -10 -50 -2 -81 7 -27 40 -39 59 -23 12 10 15 10 15
1 0 -7 5 -9 10 -6 13 8 13 102 1 110 -6 3 -11 -16 -13 -42 -3 -44 -5 -48 -28
-48 -23 0 -25 5 -30 48 -3 27 -8 45 -12 41z"/>
<path d="M9316 354 c-31 -31 -11 -104 29 -104 7 0 22 3 32 7 14 6 10 9 -17 13
-23 3 -36 11 -38 23 -3 13 4 17 32 17 42 0 50 10 30 38 -18 26 -46 28 -68 6z
m52 -6 c19 -19 14 -28 -18 -28 -41 0 -40 33 1 39 3 1 10 -4 17 -11z"/>
<path d="M10166 348 c-35 -49 -2 -108 51 -92 l28 8 -35 5 c-22 4 -36 12 -38
24 -3 14 4 17 37 17 45 0 54 16 25 44 -22 22 -50 20 -68 -6z m48 6 c28 -11 18
-34 -14 -34 -32 0 -37 9 -18 28 14 14 12 14 32 6z"/>
<path d="M10370 360 c-11 -7 -7 -10 18 -10 25 0 32 -4 32 -20 0 -16 -7 -20
-30 -20 -34 0 -49 -22 -31 -44 7 -8 27 -14 46 -13 34 1 35 2 35 43 0 60 -32
89 -70 64z m50 -74 c0 -16 -27 -29 -41 -20 -19 11 -9 34 16 34 15 0 25 -6 25
-14z"/>
<path d="M10620 350 c-50 -50 7 -130 63 -88 28 22 32 63 8 87 -26 26 -45 27
-71 1z m65 -20 c11 -36 -4 -62 -33 -58 -28 3 -40 32 -28 64 8 22 54 18 61 -6z"/>
<path d="M10800 310 c0 -38 4 -59 10 -55 6 3 10 28 10 55 0 27 -4 52 -10 55
-6 4 -10 -17 -10 -55z"/>
<path d="M10852 358 c-20 -20 -14 -37 18 -53 35 -18 30 -39 -6 -32 -28 5 -32
-9 -5 -18 50 -16 69 30 24 63 -29 21 -24 47 8 39 11 -3 17 -1 13 4 -8 13 -38
11 -52 -3z"/>
<path d="M10951 311 c-1 -71 15 -75 21 -6 2 32 7 40 23 40 17 0 21 -9 26 -50
5 -53 16 -45 21 15 2 28 8 36 26 38 20 3 22 0 22 -47 0 -28 5 -51 10 -51 15 0
12 83 -4 105 -12 16 -18 17 -39 8 -18 -8 -28 -8 -36 0 -7 7 -17 7 -35 -1 -19
-8 -26 -8 -30 1 -2 7 -5 -17 -5 -52z"/>
<path d="M11351 324 c-1 -59 9 -71 57 -71 l32 0 0 59 c0 69 -18 78 -22 11 -3
-41 -6 -48 -25 -51 -23 -3 -28 6 -36 73 -2 18 -5 9 -6 -21z"/>
<path d="M11580 360 c-11 -7 -7 -10 18 -10 25 0 32 -4 32 -20 0 -16 -7 -20
-30 -20 -34 0 -49 -22 -31 -44 7 -8 27 -14 46 -13 34 1 35 2 35 43 0 60 -32
89 -70 64z m50 -74 c0 -16 -27 -29 -41 -20 -19 11 -9 34 16 34 15 0 25 -6 25
-14z"/>
<path d="M11760 310 c0 -38 4 -59 10 -55 6 3 10 28 10 55 0 27 -4 52 -10 55
-6 4 -10 -17 -10 -55z"/>
<path d="M11830 350 c-50 -50 7 -130 63 -88 28 22 32 63 8 87 -26 26 -45 27
-71 1z m65 -20 c11 -36 -4 -62 -33 -58 -28 3 -40 32 -28 64 8 22 54 18 61 -6z"/>
<path d="M11951 311 c-1 -71 15 -75 21 -6 2 33 7 41 26 43 20 3 22 0 22 -47 0
-28 5 -51 10 -51 6 0 10 22 10 49 0 59 -18 80 -55 63 -18 -8 -25 -8 -29 1 -2
7 -5 -17 -5 -52z"/>
<path d="M12230 360 c-11 -7 -7 -10 18 -10 25 0 32 -4 32 -20 0 -16 -7 -20
-30 -20 -34 0 -49 -22 -31 -44 7 -8 27 -14 46 -13 34 1 35 2 35 43 0 60 -32
89 -70 64z m50 -74 c0 -16 -27 -29 -41 -20 -19 11 -9 34 16 34 15 0 25 -6 25
-14z"/>
<path d="M12391 324 c-1 -59 9 -71 57 -71 l32 0 0 59 c0 69 -18 78 -22 11 -3
-41 -6 -48 -25 -51 -23 -3 -28 6 -36 73 -2 18 -5 9 -6 -21z"/>
<path d="M12526 348 c-35 -49 -2 -108 51 -92 l28 8 -35 5 c-22 4 -36 12 -38
24 -3 14 4 17 37 17 45 0 54 16 25 44 -22 22 -50 20 -68 -6z m48 6 c28 -11 18
-34 -14 -34 -32 0 -37 9 -18 28 14 14 12 14 32 6z"/>
<path d="M13300 350 c-11 -11 -20 -29 -20 -40 0 -40 67 -79 85 -50 4 6 -6 10
-23 10 -25 0 -42 14 -42 36 0 2 18 4 40 4 33 0 40 3 40 20 0 18 -26 40 -49 40
-6 0 -20 -9 -31 -20z m58 -13 c3 -13 -3 -17 -27 -17 -33 0 -39 8 -19 28 17 17
42 11 46 -11z"/>
<path d="M13420 288 c0 -46 4 -78 10 -78 6 0 10 11 10 25 0 22 3 25 24 19 33
-8 61 32 51 76 -7 31 -9 32 -62 34 l-33 1 0 -77z m75 22 c0 -31 -3 -35 -25
-35 -19 0 -26 6 -28 23 -5 36 5 54 30 50 19 -2 23 -9 23 -38z"/>
<path d="M13540 308 c0 -32 4 -58 10 -58 6 0 10 21 10 46 0 37 4 47 20 51 31
8 24 22 -10 20 -30 -2 -30 -3 -30 -59z"/>
<path d="M13640 350 c-11 -11 -20 -29 -20 -40 0 -23 33 -60 55 -60 23 0 55 37
55 63 0 27 -28 57 -53 57 -9 0 -26 -9 -37 -20z m65 -40 c0 -31 -3 -35 -28 -38
-31 -4 -43 14 -33 54 5 20 12 25 34 22 24 -3 27 -7 27 -38z"/>
<path d="M13890 321 c0 -59 18 -80 55 -63 18 8 25 8 29 -1 2 -7 5 17 5 52 1
71 -15 75 -21 6 -2 -33 -7 -41 -25 -43 -21 -3 -23 0 -23 47 0 28 -4 51 -10 51
-5 0 -10 -22 -10 -49z"/>
<path d="M14030 350 c-25 -25 -25 -51 -2 -80 15 -19 24 -22 48 -15 l29 9 -35
5 c-32 6 -35 9 -35 41 0 32 3 35 35 40 27 4 31 7 17 13 -28 11 -35 9 -57 -13z"/>
<path d="M14200 310 c0 -33 4 -60 10 -60 6 0 10 27 10 60 0 33 -4 60 -10 60
-6 0 -10 -27 -10 -60z"/>
<path d="M14270 350 c-11 -11 -20 -29 -20 -40 0 -23 33 -60 55 -60 23 0 55 37
55 63 0 27 -28 57 -53 57 -9 0 -26 -9 -37 -20z m65 -40 c0 -31 -3 -35 -28 -38
-31 -4 -43 14 -33 54 5 20 12 25 34 22 24 -3 27 -7 27 -38z"/>
<path d="M14390 308 c0 -70 18 -78 22 -10 3 40 6 47 26 50 20 3 22 -1 22 -42
0 -25 5 -48 10 -51 15 -9 13 92 -2 102 -7 4 -28 8 -45 8 l-33 0 0 -57z"/>
<path d="M14730 321 c0 -59 18 -80 55 -63 18 8 25 8 29 -1 2 -7 5 17 5 52 1
71 -15 75 -21 6 -2 -33 -7 -41 -25 -43 -21 -3 -23 0 -23 47 0 28 -4 51 -10 51
-5 0 -10 -22 -10 -49z"/>
<path d="M14953 363 c-24 -9 -13 -20 17 -15 25 4 30 1 30 -17 0 -15 -6 -21
-24 -21 -13 0 -29 -7 -36 -15 -19 -22 2 -40 46 -40 34 0 34 0 34 46 0 60 -22
81 -67 62z m47 -77 c0 -18 -30 -30 -43 -17 -5 5 -6 14 -3 20 10 16 46 13 46
-3z"/>
<path d="M15140 310 c0 -33 4 -60 10 -60 6 0 10 27 10 60 0 33 -4 60 -10 60
-6 0 -10 -27 -10 -60z"/>
<path d="M15200 350 c-11 -11 -20 -29 -20 -40 0 -23 33 -60 55 -60 23 0 55 37
55 63 0 27 -28 57 -53 57 -9 0 -26 -9 -37 -20z m65 -40 c0 -31 -3 -35 -28 -38
-31 -4 -43 14 -33 54 5 20 12 25 34 22 24 -3 27 -7 27 -38z"/>
<path d="M15320 308 c0 -70 18 -78 22 -10 3 40 6 47 26 50 20 3 22 -1 22 -42
0 -25 5 -48 10 -51 15 -9 13 92 -2 102 -7 4 -28 8 -45 8 l-33 0 0 -57z"/>
<path d="M15603 363 c-24 -9 -13 -20 17 -15 25 4 30 1 30 -17 0 -15 -6 -21
-24 -21 -13 0 -29 -7 -36 -15 -19 -22 2 -40 46 -40 34 0 34 0 34 46 0 60 -22
81 -67 62z m47 -77 c0 -18 -30 -30 -43 -17 -5 5 -6 14 -3 20 10 16 46 13 46
-3z"/>
<path d="M15770 321 c0 -59 18 -80 55 -63 18 8 25 8 29 -1 2 -7 5 17 5 52 1
71 -15 75 -21 6 -2 -33 -7 -41 -25 -43 -21 -3 -23 0 -23 47 0 28 -4 51 -10 51
-5 0 -10 -22 -10 -49z"/>
<path d="M15900 350 c-11 -11 -20 -29 -20 -40 0 -40 67 -79 85 -50 4 6 -6 10
-23 10 -25 0 -42 14 -42 36 0 2 18 4 40 4 33 0 40 3 40 20 0 18 -26 40 -49 40
-6 0 -20 -9 -31 -20z m58 -13 c3 -13 -3 -17 -27 -17 -33 0 -39 8 -19 28 17 17
42 11 46 -11z"/>
<path d="M5120 340 c-11 -11 -20 -29 -20 -40 0 -40 67 -79 85 -50 4 6 -6 10
-23 10 -25 0 -42 14 -42 36 0 2 18 4 40 4 33 0 40 3 40 20 0 18 -26 40 -49 40
-6 0 -20 -9 -31 -20z m58 -13 c3 -13 -3 -17 -27 -17 -33 0 -39 8 -19 28 17 17
42 11 46 -11z"/>
<path d="M5230 300 c0 -71 18 -81 22 -12 3 43 5 47 28 47 23 0 26 -5 31 -50
l6 -50 1 57 c2 49 -1 58 -18 63 -12 4 -27 1 -35 -5 -11 -9 -15 -9 -15 -1 0 6
-4 11 -10 11 -6 0 -10 -27 -10 -60z"/>
<path d="M5370 340 c-11 -11 -20 -29 -20 -40 0 -40 67 -79 85 -50 4 6 -6 10
-23 10 -25 0 -42 14 -42 36 0 2 18 4 40 4 33 0 40 3 40 20 0 18 -26 40 -49 40
-6 0 -20 -9 -31 -20z m58 -13 c3 -13 -3 -17 -27 -17 -33 0 -39 8 -19 28 17 17
42 11 46 -11z"/>
<path d="M5480 300 c0 -33 4 -60 10 -60 6 0 10 21 10 46 0 37 4 47 20 51 11 3
20 9 20 14 0 13 -14 11 -28 -3 -9 -9 -12 -9 -12 0 0 7 -4 12 -10 12 -6 0 -10
-27 -10 -60z"/>
<path d="M5577 347 c-16 -11 -14 -12 15 -12 23 0 34 -5 36 -17 2 -12 -5 -17
-30 -20 -25 -2 -34 -8 -36 -25 -3 -23 16 -33 58 -29 23 3 25 7 24 50 -1 61
-28 82 -67 53z m53 -66 c0 -14 -28 -33 -40 -26 -20 12 -10 35 15 35 14 0 25
-4 25 -9z"/>
<path d="M5760 300 c0 -33 4 -60 10 -60 6 0 10 27 10 60 0 33 -4 60 -10 60 -6
0 -10 -27 -10 -60z"/>
<path d="M5830 340 c-50 -50 7 -130 63 -88 28 22 32 63 8 87 -26 26 -45 27
-71 1z m65 -20 c11 -36 -4 -62 -33 -58 -28 3 -40 32 -28 64 8 22 54 18 61 -6z"/>
<path d="M5951 301 c-1 -71 15 -75 21 -6 2 33 7 41 26 43 20 3 22 0 22 -47 0
-28 5 -51 10 -51 6 0 10 22 10 49 0 59 -18 80 -55 63 -18 -8 -25 -8 -29 1 -2
7 -5 -17 -5 -52z"/>
<path d="M6082 348 c-19 -19 -14 -37 13 -50 33 -15 32 -36 -2 -40 -25 -4 -26
-5 -9 -13 22 -10 50 5 54 28 2 10 -7 22 -23 29 -28 13 -30 44 -2 42 9 -1 17 2
17 7 0 13 -34 11 -48 -3z"/>
<path d="M12817 324 c-18 -18 17 -24 149 -24 112 0 145 3 142 13 -3 9 -44 13
-144 15 -77 1 -143 0 -147 -4z"/>
</g>
</svg>
