<?xml version="1.0" standalone="no"?>
<!DOCTYPE svg PUBLIC "-//W3C//DTD SVG 20010904//EN"
 "http://www.w3.org/TR/2001/REC-SVG-20010904/DTD/svg10.dtd">
<svg version="1.0" xmlns="http://www.w3.org/2000/svg"
 width="1626.000000pt" height="625.000000pt" viewBox="0 0 1626.000000 625.000000"
 preserveAspectRatio="xMidYMid meet">

<g transform="translate(0.000000,625.000000) scale(0.100000,-0.100000)"
fill="#000000" stroke="none">
<path d="M6960 5940 c0 -60 4 -100 10 -100 6 0 10 22 10 49 0 42 3 51 21 56
29 9 37 -2 41 -55 4 -57 23 -50 22 8 0 56 -23 80 -59 64 -25 -11 -25 -11 -25
33 0 25 -4 45 -10 45 -6 0 -10 -40 -10 -100z"/>
<path d="M7310 5940 c0 -65 4 -99 10 -95 6 3 10 20 10 37 l0 31 28 -36 c15
-20 33 -36 40 -37 8 0 1 15 -17 39 l-30 38 24 23 c14 13 23 26 20 28 -3 3 -19
-7 -35 -23 l-30 -29 0 57 c0 30 -4 59 -10 62 -6 4 -10 -30 -10 -95z"/>
<path d="M6827 6000 c-76 -60 -10 -195 72 -150 30 16 26 20 -15 13 -29 -5 -40
-2 -50 12 -19 25 -18 90 2 109 18 19 55 21 72 4 9 -9 12 -9 12 0 0 13 -31 32
-53 32 -8 0 -26 -9 -40 -20z"/>
<path d="M7115 6009 c-10 -15 3 -25 16 -12 7 7 7 13 1 17 -6 3 -14 1 -17 -5z"/>
<path d="M8500 5988 c0 -9 -6 -19 -12 -22 -10 -5 -10 -7 0 -12 7 -3 12 -25 12
-54 0 -34 4 -50 16 -54 23 -9 34 -7 34 4 0 6 -7 10 -15 10 -11 0 -15 12 -15
45 0 33 4 45 15 45 8 0 15 5 15 10 0 6 -5 10 -11 10 -7 0 -18 8 -25 18 -12 15
-13 15 -14 0z"/>
<path d="M7110 5905 c0 -37 4 -65 10 -65 6 0 10 28 10 65 0 37 -4 65 -10 65
-6 0 -10 -28 -10 -65z"/>
<path d="M7190 5950 c-11 -11 -20 -31 -20 -45 0 -25 31 -65 51 -65 17 0 49 20
49 30 0 6 -9 5 -20 -2 -28 -18 -55 1 -55 37 0 36 27 55 55 37 22 -13 27 -3 8
16 -18 18 -45 15 -68 -8z"/>
<path d="M7440 5950 c-51 -51 5 -130 74 -104 27 10 18 21 -14 16 -29 -4 -60
11 -60 29 0 5 20 9 45 9 41 0 45 2 45 25 0 43 -56 59 -90 25z m68 -17 c2 -9
-8 -13 -32 -13 -28 0 -34 3 -29 16 7 18 54 16 61 -3z"/>
<path d="M7581 5906 c-1 -77 16 -82 21 -6 3 40 6 45 28 45 23 0 25 -4 28 -52
4 -69 22 -68 22 1 0 66 -17 85 -60 69 -21 -8 -30 -8 -34 1 -2 6 -5 -20 -5 -58z"/>
<path d="M7800 5881 c0 -54 4 -91 10 -91 6 0 10 17 10 37 0 29 3 34 12 25 31
-31 78 3 78 56 0 48 -35 74 -70 52 -9 -5 -19 -5 -27 2 -10 8 -13 -8 -13 -81z
m88 34 c3 -42 -10 -59 -42 -51 -22 5 -26 12 -26 40 0 36 11 46 45 43 14 -1 21
-10 23 -32z"/>
<path d="M7963 5963 c-26 -10 -12 -19 22 -15 46 5 48 -21 4 -34 -69 -20 -61
-68 11 -69 l40 -1 0 51 c0 28 -5 56 -12 63 -12 12 -43 15 -65 5z m55 -80 c-4
-20 -35 -30 -50 -15 -15 15 0 32 28 32 19 0 25 -5 22 -17z"/>
<path d="M8090 5905 c0 -75 17 -89 22 -17 2 38 7 49 26 57 12 5 22 13 22 17 0
12 -25 9 -38 -4 -9 -9 -12 -9 -12 0 0 7 -4 12 -10 12 -6 0 -10 -28 -10 -65z"/>
<path d="M8207 5958 c-9 -7 -20 -27 -23 -44 -10 -51 39 -88 90 -68 27 10 18
21 -14 16 -29 -4 -60 11 -60 29 0 4 21 9 47 11 53 3 63 18 34 47 -24 24 -50
27 -74 9z m67 -23 c4 -12 -3 -15 -36 -15 -35 0 -39 2 -28 15 7 8 23 15 35 15
13 0 25 -7 29 -15z"/>
<path d="M8340 5907 c0 -38 4 -67 10 -67 6 0 10 22 10 49 0 42 3 51 21 56 29
9 37 -2 41 -55 4 -57 23 -50 22 8 0 55 -23 80 -57 65 -18 -9 -28 -8 -36 0 -8
8 -11 -6 -11 -56z"/>
<path d="M8595 5956 c-23 -17 -14 -43 20 -56 37 -14 33 -44 -5 -38 -16 3 -30
1 -30 -4 0 -14 28 -21 55 -14 38 10 35 54 -5 67 -16 6 -30 18 -30 26 0 11 8
14 30 11 32 -5 41 6 14 16 -22 9 -28 8 -49 -8z"/>
<path d="M8781 5961 c-10 -6 -15 -33 -17 -85 -3 -74 -2 -76 23 -82 35 -9 77 7
81 31 5 24 -23 45 -60 45 -17 0 -28 5 -28 14 0 9 7 12 19 9 29 -7 64 15 58 38
-3 10 -1 19 4 19 5 0 9 5 9 10 0 12 -70 13 -89 1z m59 -31 c0 -15 -7 -20 -24
-20 -14 0 -28 5 -31 10 -10 16 4 30 31 30 17 0 24 -5 24 -20z m10 -100 c0 -16
-7 -20 -35 -20 -28 0 -35 4 -35 20 0 16 7 20 35 20 28 0 35 -4 35 -20z"/>
<path d="M8922 5954 c-32 -22 -30 -78 3 -100 18 -11 33 -14 52 -8 27 7 27 8
-12 13 -27 4 -41 12 -43 24 -3 14 4 17 42 17 39 0 46 3 46 19 0 24 -26 51 -48
51 -10 0 -28 -7 -40 -16z m66 -21 c2 -9 -8 -13 -32 -13 -34 0 -44 8 -29 24 11
11 56 2 61 -11z"/>
<path d="M9050 5905 c0 -74 17 -89 22 -19 3 50 22 72 52 61 12 -5 16 -19 16
-57 0 -27 5 -50 10 -50 17 0 12 97 -6 114 -18 19 -28 20 -55 6 -13 -7 -19 -7
-19 0 0 5 -4 10 -10 10 -6 0 -10 -28 -10 -65z"/>
<path d="M9220 5950 c-51 -51 5 -130 74 -104 27 10 18 21 -14 16 -29 -4 -60
11 -60 29 0 5 20 9 45 9 41 0 45 2 45 25 0 43 -56 59 -90 25z m68 -17 c2 -9
-8 -13 -32 -13 -28 0 -34 3 -29 16 7 18 54 16 61 -3z"/>
<path d="M9363 5963 c-26 -10 -14 -50 17 -63 43 -18 40 -43 -5 -38 -40 5 -48
-8 -11 -18 29 -7 66 11 66 32 0 8 -13 23 -30 32 -37 21 -39 42 -4 42 14 0 23
4 19 10 -6 10 -31 12 -52 3z"/>
<path d="M265 5644 c-12 -12 -15 -31 -13 -72 3 -52 5 -57 32 -67 24 -8 31 -6
47 14 24 29 26 103 3 125 -20 21 -48 20 -69 0z m60 -64 c0 -52 -1 -55 -25 -55
-19 0 -26 7 -34 33 -12 44 6 85 37 80 20 -3 22 -9 22 -58z"/>
<path d="M462 5606 c-17 -30 -32 -57 -32 -60 0 -3 16 -6 35 -6 28 0 35 -4 35
-20 0 -11 5 -20 10 -20 6 0 10 9 10 19 0 11 6 22 13 25 10 5 10 7 0 12 -8 3
-13 25 -13 55 0 65 -17 64 -58 -5z m35 -43 c-3 -2 -15 -3 -26 -1 -20 3 -20 3
2 38 l22 35 3 -33 c2 -19 1 -36 -1 -39z"/>
<path d="M377 5524 c-8 -8 1 -24 14 -24 5 0 9 7 9 15 0 15 -12 20 -23 9z"/>
<path d="M140 5070 c-26 -26 -27 -89 -1 -121 16 -20 23 -22 47 -14 64 23 51
155 -15 155 -6 0 -20 -9 -31 -20z m64 -16 c9 -23 7 -77 -3 -92 -4 -8 -19 -12
-32 -10 -19 2 -25 10 -27 37 -5 55 5 81 32 81 13 0 27 -7 30 -16z"/>
<path d="M333 5084 c-25 -10 -13 -20 18 -16 28 4 30 2 27 -19 -2 -16 -11 -25
-25 -27 -32 -5 -29 -20 5 -24 19 -2 27 -9 27 -23 0 -16 -7 -20 -37 -20 -28 0
-34 -3 -26 -12 22 -27 88 -7 88 26 0 10 -7 24 -15 31 -11 9 -12 16 -2 31 21
34 -19 70 -60 53z"/>
<path d="M440 5051 c0 -37 2 -40 33 -43 27 -2 32 -7 32 -28 0 -22 -6 -26 -40
-31 -39 -5 -39 -6 -12 -13 19 -6 34 -3 52 8 40 26 31 69 -18 81 -39 10 -37 45
3 45 17 0 30 5 30 10 0 6 -18 10 -40 10 -40 0 -40 0 -40 -39z"/>
<path d="M250 4945 c0 -8 5 -15 10 -15 6 0 10 7 10 15 0 8 -4 15 -10 15 -5 0
-10 -7 -10 -15z"/>
<path d="M265 4494 c-12 -12 -15 -31 -13 -72 3 -52 5 -57 32 -67 24 -8 31 -6
47 14 24 29 26 103 3 125 -20 21 -48 20 -69 0z m60 -64 c0 -52 -1 -55 -25 -55
-19 0 -26 7 -34 33 -12 44 6 85 37 80 20 -3 22 -9 22 -58z"/>
<path d="M461 4501 c-11 -7 -7 -10 15 -13 37 -4 42 -41 7 -46 -13 -2 -23 -7
-23 -12 0 -5 10 -10 23 -12 14 -2 23 -11 25 -27 3 -21 1 -23 -32 -19 -39 4
-49 -7 -16 -17 27 -9 58 2 70 26 8 15 6 22 -9 35 -17 15 -17 19 -5 31 18 18
18 28 -2 47 -17 18 -32 20 -53 7z"/>
<path d="M377 4374 c-8 -8 1 -24 14 -24 5 0 9 7 9 15 0 15 -12 20 -23 9z"/>
<path d="M140 3910 c-26 -26 -27 -89 -1 -121 16 -20 23 -22 47 -14 64 23 51
155 -15 155 -6 0 -20 -9 -31 -20z m64 -16 c9 -23 7 -77 -3 -92 -4 -8 -19 -12
-32 -10 -19 2 -25 10 -27 37 -5 55 5 81 32 81 13 0 27 -7 30 -16z"/>
<path d="M333 3923 c-24 -9 -13 -20 17 -15 27 4 30 1 30 -22 0 -14 -13 -40
-30 -59 -41 -47 -38 -57 15 -57 25 0 45 5 45 10 0 6 -17 10 -37 10 l-37 0 32
33 c56 58 32 127 -35 100z"/>
<path d="M440 3891 c0 -37 2 -40 33 -43 27 -2 32 -7 32 -28 0 -22 -6 -26 -40
-31 -39 -5 -39 -6 -12 -13 19 -6 34 -3 52 8 40 26 31 69 -18 81 -39 10 -37 45
3 45 17 0 30 5 30 10 0 6 -18 10 -40 10 -40 0 -40 0 -40 -39z"/>
<path d="M250 3785 c0 -8 5 -15 10 -15 6 0 10 7 10 15 0 8 -4 15 -10 15 -5 0
-10 -7 -10 -15z"/>
<path d="M265 3344 c-12 -12 -15 -31 -13 -72 3 -52 5 -57 32 -67 24 -8 31 -6
47 14 24 29 26 103 3 125 -20 21 -48 20 -69 0z m60 -64 c0 -52 -1 -55 -25 -55
-19 0 -26 7 -34 33 -12 44 6 85 37 80 20 -3 22 -9 22 -58z"/>
<path d="M461 3351 c-11 -7 -7 -10 15 -13 42 -5 42 -35 -1 -85 -19 -23 -35
-44 -35 -47 0 -3 20 -6 45 -6 25 0 45 5 45 10 0 6 -14 10 -31 10 l-31 0 26 31
c36 43 44 79 21 96 -22 15 -35 16 -54 4z"/>
<path d="M377 3224 c-8 -8 1 -24 14 -24 5 0 9 7 9 15 0 15 -12 20 -23 9z"/>
<path d="M14960 2885 l-535 -182 -560 -97 c-308 -53 -595 -103 -638 -110 -66
-12 -143 -11 -531 2 l-455 16 -558 -122 -558 -121 -560 -50 c-308 -28 -783
-64 -1055 -81 -272 -17 -739 -53 -1037 -80 l-542 -50 -559 0 -559 0 -544 -85
c-342 -54 -762 -112 -1129 -155 -658 -79 -1344 -177 -2155 -310 l-550 -91
-562 -187 c-310 -103 -563 -190 -563 -194 0 -5 6 -8 14 -8 8 0 254 81 548 180
l533 181 570 94 c792 131 1566 243 2185 315 316 37 740 95 1065 146 l540 84
538 0 537 0 543 50 c298 28 787 66 1087 85 300 19 799 58 1110 86 l565 50 550
121 550 121 388 -13 c213 -8 384 -16 380 -20 -5 -4 -152 -33 -328 -64 -176
-32 -599 -114 -940 -182 l-620 -123 -560 -60 c-509 -55 -605 -62 -1050 -81
-562 -24 -1287 -80 -2185 -169 -584 -58 -604 -60 -1075 -71 -364 -8 -619 -20
-1055 -51 l-575 -40 -575 -109 c-546 -104 -601 -112 -1095 -170 l-520 -60
-530 -163 c-331 -101 -519 -163 -500 -165 17 -1 239 63 515 148 l485 151 570
69 c540 66 597 74 1085 170 l515 100 525 40 c418 32 640 43 1090 56 554 15
576 17 1110 70 901 90 1558 142 2170 169 511 24 599 30 1115 86 l560 60 542
109 c299 60 753 148 1010 196 407 75 478 85 548 81 71 -4 138 7 600 97 l520
100 583 6 c375 3 583 9 585 15 1 7 -183 12 -529 15 l-532 5 529 180 c291 99
529 183 529 187 0 5 -8 8 -17 7 -10 0 -259 -83 -553 -184z m-1003 -291 c-3 -3
-12 -4 -19 -1 -8 3 -5 6 6 6 11 1 17 -2 13 -5z m-54 -11 c-7 -2 -19 -2 -25 0
-7 3 -2 5 12 5 14 0 19 -2 13 -5z m-50 -10 c-7 -2 -21 -2 -30 0 -10 3 -4 5 12
5 17 0 24 -2 18 -5z m-268 -49 c-121 -24 -238 -43 -260 -42 -25 2 46 18 195
44 308 54 341 53 65 -2z"/>
<path d="M140 2760 c-26 -26 -27 -89 -1 -121 16 -20 23 -22 47 -14 64 23 51
155 -15 155 -6 0 -20 -9 -31 -20z m64 -16 c9 -23 7 -77 -3 -92 -4 -8 -19 -12
-32 -10 -19 2 -25 10 -27 37 -5 55 5 81 32 81 13 0 27 -7 30 -16z"/>
<path d="M339 2760 c-13 -10 -19 -19 -13 -20 5 0 15 5 22 12 9 9 12 -2 12 -50
0 -48 -3 -62 -15 -62 -8 0 -15 -4 -15 -10 0 -5 18 -10 40 -10 22 0 40 5 40 10
0 6 -7 10 -15 10 -12 0 -15 14 -15 70 0 39 -4 70 -9 70 -5 0 -19 -9 -32 -20z"/>
<path d="M440 2741 c0 -37 2 -40 33 -43 27 -2 32 -7 32 -28 0 -22 -6 -26 -40
-31 -39 -5 -39 -6 -12 -13 19 -6 34 -3 52 8 40 26 31 69 -18 81 -39 10 -37 45
3 45 17 0 30 5 30 10 0 6 -18 10 -40 10 -40 0 -40 0 -40 -39z"/>
<path d="M250 2635 c0 -8 5 -15 10 -15 6 0 10 7 10 15 0 8 -4 15 -10 15 -5 0
-10 -7 -10 -15z"/>
<path d="M265 2184 c-12 -12 -15 -31 -13 -72 3 -52 5 -57 32 -67 24 -8 31 -6
47 14 24 29 26 103 3 125 -20 21 -48 20 -69 0z m60 -64 c0 -52 -1 -55 -25 -55
-19 0 -26 7 -34 33 -12 44 6 85 37 80 20 -3 22 -9 22 -58z"/>
<path d="M468 2186 c-24 -18 -23 -29 2 -16 19 10 20 8 20 -50 0 -53 -2 -60
-20 -60 -11 0 -20 -4 -20 -10 0 -5 21 -10 46 -10 27 0 43 4 39 10 -3 6 -13 10
-21 10 -11 0 -14 16 -14 70 0 73 -3 78 -32 56z"/>
<path d="M377 2064 c-8 -8 1 -24 14 -24 5 0 9 7 9 15 0 15 -12 20 -23 9z"/>
<path d="M140 1610 c-26 -26 -27 -89 -1 -121 16 -20 23 -22 47 -14 64 23 51
155 -15 155 -6 0 -20 -9 -31 -20z m64 -16 c9 -23 7 -77 -3 -92 -4 -8 -19 -12
-32 -10 -19 2 -25 10 -27 37 -5 55 5 81 32 81 13 0 27 -7 30 -16z"/>
<path d="M330 1610 c-26 -26 -27 -89 -1 -121 16 -20 23 -22 47 -14 64 23 51
155 -15 155 -6 0 -20 -9 -31 -20z m64 -16 c9 -23 7 -77 -3 -92 -4 -8 -19 -12
-32 -10 -19 2 -25 10 -27 37 -5 55 5 81 32 81 13 0 27 -7 30 -16z"/>
<path d="M440 1591 c0 -37 2 -40 33 -43 27 -2 32 -7 32 -28 0 -22 -6 -26 -40
-31 -39 -5 -39 -6 -12 -13 19 -6 34 -3 52 8 40 26 31 69 -18 81 -39 10 -37 45
3 45 17 0 30 5 30 10 0 6 -18 10 -40 10 -40 0 -40 0 -40 -39z"/>
<path d="M250 1485 c0 -8 5 -15 10 -15 6 0 10 7 10 15 0 8 -4 15 -10 15 -5 0
-10 -7 -10 -15z"/>
<path d="M450 1030 c-26 -26 -27 -89 -1 -121 16 -20 23 -22 47 -14 64 23 51
155 -15 155 -6 0 -20 -9 -31 -20z m64 -16 c9 -23 7 -77 -3 -92 -4 -8 -19 -12
-32 -10 -19 2 -25 10 -27 37 -5 55 5 81 32 81 13 0 27 -7 30 -16z"/>
<path d="M1199 709 c-24 -20 -24 -20 -1 -9 22 10 22 10 22 -50 0 -46 -3 -60
-14 -60 -8 0 -18 -4 -21 -10 -4 -6 12 -10 39 -10 25 0 46 5 46 10 0 6 -7 10
-15 10 -12 0 -15 14 -15 70 0 39 -4 70 -9 70 -5 0 -19 -9 -32 -21z"/>
<path d="M1391 721 c-11 -7 -7 -10 15 -13 43 -5 43 -38 0 -86 -20 -21 -33 -42
-29 -46 11 -10 95 -7 88 4 -3 6 -20 10 -37 10 l-30 0 31 35 c17 20 31 46 31
58 0 40 -35 59 -69 38z"/>
<path d="M2283 723 c-24 -9 -13 -20 17 -15 27 4 30 1 30 -22 0 -14 -13 -40
-30 -59 -41 -47 -38 -57 15 -57 25 0 45 5 45 10 0 6 -17 10 -37 10 l-37 0 32
33 c56 58 32 127 -35 100z"/>
<path d="M2483 724 c-25 -10 -13 -20 18 -16 28 4 30 2 27 -19 -2 -16 -11 -25
-25 -27 -32 -5 -29 -20 5 -24 19 -2 27 -9 27 -23 0 -16 -7 -20 -37 -20 -28 0
-34 -3 -26 -12 22 -27 88 -7 88 26 0 10 -7 24 -15 31 -11 9 -12 16 -2 31 21
34 -19 70 -60 53z"/>
<path d="M3373 723 c-23 -9 -13 -18 20 -18 27 0 32 -3 30 -22 -2 -13 2 -23 7
-23 6 0 10 13 10 29 0 35 -29 50 -67 34z"/>
<path d="M3581 679 c-17 -28 -31 -55 -31 -60 0 -5 16 -9 35 -9 28 0 35 -4 35
-20 0 -11 5 -20 10 -20 6 0 10 9 10 19 0 11 6 22 13 25 10 5 10 7 0 12 -8 3
-13 25 -13 55 0 65 -18 64 -59 -2z m39 -9 c0 -36 -2 -40 -26 -40 l-25 0 22 40
c13 22 24 40 26 40 2 0 3 -18 3 -40z"/>
<path d="M4472 676 c-17 -30 -32 -57 -32 -60 0 -3 16 -6 35 -6 28 0 35 -4 35
-20 0 -11 5 -20 10 -20 6 0 10 9 10 19 0 11 6 22 13 25 10 5 10 7 0 12 -8 3
-13 25 -13 55 0 65 -17 64 -58 -5z m35 -43 c-3 -2 -15 -3 -26 -1 -20 3 -20 3
2 38 l22 35 3 -33 c2 -19 1 -36 -1 -39z"/>
<path d="M4660 690 c0 -35 3 -40 24 -40 29 0 49 -22 40 -45 -5 -12 -15 -16
-40 -13 -37 4 -46 -7 -14 -17 29 -9 60 3 69 28 12 30 -3 54 -39 62 -42 9 -42
45 0 45 17 0 30 5 30 10 0 6 -16 10 -35 10 -34 0 -35 -1 -35 -40z"/>
<path d="M5550 691 c0 -37 2 -40 33 -43 27 -2 32 -7 32 -28 0 -22 -4 -25 -38
-25 -42 0 -49 -12 -13 -21 55 -13 97 45 56 78 -12 10 -28 18 -36 18 -8 0 -14
9 -14 20 0 15 7 20 24 20 14 0 28 5 31 10 4 6 -10 10 -34 10 -41 0 -41 0 -41
-39z"/>
<path d="M5770 712 c-31 -25 -38 -90 -12 -122 17 -21 24 -23 48 -15 56 20 39
103 -18 91 -19 -4 -28 -1 -28 7 0 21 22 37 53 37 16 0 26 4 22 10 -10 15 -41
12 -65 -8z m50 -93 c0 -27 -3 -30 -27 -27 -22 2 -29 9 -31 31 -3 24 0 27 27
27 28 0 31 -3 31 -31z"/>
<path d="M6660 710 c-39 -39 -20 -140 26 -140 18 0 54 36 54 54 0 25 -31 48
-57 43 -20 -4 -24 -1 -21 17 2 16 11 22 36 24 18 2 30 8 27 13 -10 16 -44 10
-65 -11z m55 -90 c0 -20 -5 -25 -25 -25 -20 0 -26 6 -28 28 -3 26 -1 28 25 25
22 -2 28 -8 28 -28z"/>
<path d="M6840 720 c0 -5 16 -10 35 -10 19 0 35 -4 35 -9 0 -5 -12 -34 -26
-65 -14 -32 -23 -60 -20 -63 8 -8 8 -8 39 65 37 87 36 92 -18 92 -25 0 -45 -4
-45 -10z"/>
<path d="M7730 720 c0 -5 18 -10 40 -10 l39 0 -29 -66 c-33 -73 -34 -74 -21
-74 7 0 71 139 71 155 0 3 -22 5 -50 5 -27 0 -50 -4 -50 -10z"/>
<path d="M7946 714 c-20 -19 -20 -29 -1 -47 13 -13 13 -17 -1 -28 -37 -30 4
-80 53 -63 33 11 41 39 18 64 -11 12 -13 20 -6 25 17 10 13 52 -5 59 -25 10
-42 7 -58 -10z m60 -15 c3 -6 -1 -18 -9 -27 -13 -13 -19 -13 -31 -2 -9 7 -16
19 -16 26 0 17 46 19 56 3z m2 -86 c3 -20 -1 -23 -27 -23 -23 0 -31 5 -31 18
0 25 10 33 35 30 12 -2 21 -12 23 -25z"/>
<path d="M8835 714 c-14 -15 -14 -19 -1 -39 13 -20 13 -25 1 -35 -23 -19 -18
-49 10 -62 50 -23 100 28 60 62 -12 10 -12 15 1 35 13 20 13 24 -1 39 -9 9
-25 16 -35 16 -10 0 -26 -7 -35 -16z m61 -15 c3 -6 -1 -18 -10 -27 -15 -15
-17 -15 -32 0 -19 19 -11 38 16 38 10 0 22 -5 26 -11z m2 -86 c3 -20 -1 -23
-27 -23 -23 0 -31 5 -31 18 0 25 10 33 35 30 12 -2 21 -12 23 -25z"/>
<path d="M9036 714 c-36 -36 -4 -94 44 -79 13 4 20 2 20 -7 0 -23 -22 -38 -54
-38 -22 0 -27 -3 -19 -11 18 -18 69 -1 82 27 34 76 -22 159 -73 108z m62 -36
c3 -25 0 -28 -27 -28 -26 0 -31 4 -31 23 0 30 9 39 35 35 13 -2 21 -12 23 -30z"/>
<path d="M9866 714 c-36 -36 -4 -94 44 -79 13 4 20 2 20 -7 0 -23 -22 -38 -54
-38 -22 0 -27 -3 -19 -11 18 -18 69 -1 82 27 34 76 -22 159 -73 108z m62 -36
c3 -25 0 -28 -27 -28 -26 0 -31 4 -31 23 0 30 9 39 35 35 13 -2 21 -12 23 -30z"/>
<path d="M10079 709 c-24 -20 -24 -20 -1 -9 22 10 22 10 22 -50 0 -46 -3 -60
-14 -60 -8 0 -18 -4 -21 -10 -4 -6 12 -10 39 -10 25 0 46 5 46 10 0 6 -7 10
-15 10 -12 0 -15 14 -15 70 0 39 -4 70 -9 70 -5 0 -19 -9 -32 -21z"/>
<path d="M10186 708 c-21 -29 -21 -102 0 -122 39 -40 84 -4 84 67 0 71 -50
104 -84 55z m65 -25 c16 -42 0 -88 -31 -88 -22 0 -25 5 -28 44 -4 55 2 71 28
71 13 0 24 -10 31 -27z"/>
<path d="M10909 709 c-24 -20 -24 -20 -1 -9 22 10 22 10 22 -50 0 -46 -3 -60
-14 -60 -8 0 -18 -4 -21 -10 -4 -6 12 -10 39 -10 25 0 46 5 46 10 0 6 -7 10
-15 10 -12 0 -15 14 -15 70 0 39 -4 70 -9 70 -5 0 -19 -9 -32 -21z"/>
<path d="M11016 708 c-21 -29 -21 -102 0 -122 39 -40 84 -4 84 67 0 71 -50
104 -84 55z m65 -25 c16 -42 0 -88 -31 -88 -22 0 -25 5 -28 44 -4 55 2 71 28
71 13 0 24 -10 31 -27z"/>
<path d="M11229 709 c-24 -20 -24 -20 -1 -9 22 10 22 10 22 -50 0 -46 -3 -60
-14 -60 -8 0 -18 -4 -21 -10 -4 -6 12 -10 39 -10 25 0 46 5 46 10 0 6 -7 10
-15 10 -12 0 -15 14 -15 70 0 39 -4 70 -9 70 -5 0 -19 -9 -32 -21z"/>
<path d="M11359 709 c-24 -20 -24 -20 -1 -9 22 10 22 10 22 -50 0 -46 -3 -60
-14 -60 -8 0 -18 -4 -21 -10 -4 -6 12 -10 39 -10 25 0 46 5 46 10 0 6 -7 10
-15 10 -12 0 -15 14 -15 70 0 39 -4 70 -9 70 -5 0 -19 -9 -32 -21z"/>
<path d="M12008 716 c-10 -7 -18 -17 -18 -21 0 -4 7 -2 15 5 13 11 15 5 15
-49 0 -48 -3 -61 -15 -61 -8 0 -15 -4 -15 -10 0 -5 18 -10 40 -10 22 0 40 5
40 10 0 6 -7 10 -15 10 -12 0 -15 14 -15 70 0 73 -3 78 -32 56z"/>
<path d="M12128 716 c-10 -7 -18 -17 -18 -21 0 -4 7 -2 15 5 13 11 15 5 15
-49 0 -48 -3 -61 -15 -61 -8 0 -15 -4 -15 -10 0 -5 18 -10 40 -10 22 0 40 5
40 10 0 6 -7 10 -15 10 -12 0 -15 14 -15 70 0 73 -3 78 -32 56z"/>
<path d="M12328 716 c-10 -7 -18 -17 -18 -21 0 -4 7 -2 15 5 13 11 15 5 15
-49 0 -48 -3 -61 -15 -61 -8 0 -15 -4 -15 -10 0 -5 18 -10 40 -10 22 0 40 5
40 10 0 6 -7 10 -15 10 -12 0 -15 14 -15 70 0 73 -3 78 -32 56z"/>
<path d="M12443 723 c-23 -9 -13 -18 19 -18 45 0 46 -22 3 -76 -19 -24 -35
-47 -35 -51 0 -5 20 -8 45 -8 25 0 45 5 45 10 0 6 -14 10 -31 10 l-31 0 24 33
c35 46 42 72 23 91 -16 16 -38 19 -62 9z"/>
<path d="M13098 716 c-24 -18 -23 -29 2 -16 19 10 20 8 20 -50 0 -53 -2 -60
-20 -60 -11 0 -20 -4 -20 -10 0 -5 21 -10 46 -10 27 0 43 4 39 10 -3 6 -13 10
-21 10 -11 0 -14 16 -14 70 0 73 -3 78 -32 56z"/>
<path d="M13211 721 c-11 -7 -7 -10 15 -13 42 -5 42 -35 -1 -85 -19 -23 -35
-44 -35 -47 0 -3 20 -6 45 -6 25 0 45 5 45 10 0 6 -14 10 -31 10 l-31 0 26 31
c36 43 44 79 21 96 -22 15 -35 16 -54 4z"/>
<path d="M13418 716 c-24 -18 -23 -29 2 -16 19 10 20 8 20 -50 0 -53 -2 -60
-20 -60 -11 0 -20 -4 -20 -10 0 -5 21 -10 46 -10 27 0 43 4 39 10 -3 6 -13 10
-21 10 -11 0 -14 16 -14 70 0 73 -3 78 -32 56z"/>
<path d="M13541 721 c-11 -7 -7 -10 15 -13 37 -4 42 -41 7 -46 -13 -2 -23 -7
-23 -12 0 -5 10 -10 23 -12 14 -2 23 -11 25 -27 3 -21 1 -23 -32 -19 -39 4
-49 -7 -16 -17 27 -9 58 2 70 26 8 15 6 22 -9 35 -17 15 -17 19 -5 31 18 18
18 28 -2 47 -17 18 -32 20 -53 7z"/>
<path d="M14189 709 c-24 -20 -24 -20 -1 -9 22 10 22 10 22 -50 0 -46 -3 -60
-14 -60 -8 0 -18 -4 -21 -10 -4 -6 12 -10 39 -10 25 0 46 5 46 10 0 6 -7 10
-15 10 -12 0 -15 14 -15 70 0 39 -4 70 -9 70 -5 0 -19 -9 -32 -21z"/>
<path d="M14300 720 c-11 -7 -7 -10 18 -10 29 0 33 -3 30 -22 -2 -15 -11 -24
-25 -26 -28 -4 -31 -22 -4 -22 23 0 45 -25 36 -41 -4 -6 -22 -9 -41 -7 -39 5
-46 -9 -9 -18 16 -4 34 0 50 10 29 19 30 25 11 51 -10 15 -11 23 -2 37 22 35
-27 73 -64 48z"/>
<path d="M14509 709 c-24 -20 -24 -20 -1 -9 22 10 22 10 22 -50 0 -46 -3 -60
-14 -60 -8 0 -18 -4 -21 -10 -4 -6 12 -10 39 -10 25 0 46 5 46 10 0 6 -7 10
-15 10 -12 0 -15 14 -15 70 0 39 -4 70 -9 70 -5 0 -19 -9 -32 -21z"/>
<path d="M14640 683 c-39 -61 -38 -73 5 -73 29 0 35 -4 36 -22 1 -21 2 -21 6
-3 3 11 10 24 17 28 8 6 8 10 -1 14 -8 3 -13 24 -13 54 0 27 -5 49 -10 49 -6
0 -24 -21 -40 -47z m40 -13 c0 -36 -2 -40 -25 -40 -14 0 -25 3 -25 6 0 9 41
74 46 74 2 0 4 -18 4 -40z"/>
<path d="M15279 710 c-13 -10 -19 -19 -13 -20 5 0 15 5 22 12 9 9 12 -2 12
-50 0 -48 -3 -62 -15 -62 -8 0 -15 -4 -15 -10 0 -5 18 -10 40 -10 22 0 40 5
40 10 0 6 -7 10 -15 10 -12 0 -15 14 -15 70 0 39 -4 70 -9 70 -5 0 -19 -9 -32
-20z"/>
<path d="M15401 683 c-40 -62 -39 -73 3 -73 28 0 35 -4 39 -22 l4 -23 8 23 c4
12 12 22 17 22 7 0 7 5 0 13 -6 7 -12 32 -14 56 -2 25 -8 46 -15 48 -7 3 -26
-17 -42 -44z m39 -13 c0 -36 -2 -40 -25 -40 -14 0 -25 2 -25 4 0 8 42 76 46
76 2 0 4 -18 4 -40z"/>
<path d="M15599 710 c-13 -10 -19 -19 -13 -20 5 0 15 5 22 12 9 9 12 -2 12
-50 0 -48 -3 -62 -15 -62 -8 0 -15 -4 -15 -10 0 -5 18 -10 40 -10 22 0 40 5
40 10 0 6 -7 10 -15 10 -12 0 -15 14 -15 70 0 39 -4 70 -9 70 -5 0 -19 -9 -32
-20z"/>
<path d="M15710 691 c0 -37 2 -40 33 -43 27 -2 32 -7 32 -28 0 -22 -6 -26 -40
-31 -39 -5 -39 -6 -12 -13 19 -6 34 -3 52 8 40 26 31 69 -18 81 -39 10 -37 45
3 45 17 0 30 5 30 10 0 6 -18 10 -40 10 -40 0 -40 0 -40 -39z"/>
<path d="M3375 651 c-3 -5 7 -11 22 -13 20 -2 28 -9 28 -23 0 -15 -9 -21 -35
-26 -35 -5 -35 -6 -8 -13 54 -16 93 38 51 70 -21 16 -49 18 -58 5z"/>
<path d="M1290 630 c0 -5 11 -10 25 -10 14 0 25 5 25 10 0 6 -11 10 -25 10
-14 0 -25 -4 -25 -10z"/>
<path d="M2380 630 c0 -5 14 -10 31 -10 17 0 28 4 24 10 -3 6 -17 10 -31 10
-13 0 -24 -4 -24 -10z"/>
<path d="M3475 630 c-4 -6 7 -10 24 -10 17 0 31 5 31 10 0 6 -11 10 -24 10
-14 0 -28 -4 -31 -10z"/>
<path d="M4570 630 c0 -5 11 -10 25 -10 14 0 25 5 25 10 0 6 -11 10 -25 10
-14 0 -25 -4 -25 -10z"/>
<path d="M5660 630 c0 -5 11 -10 25 -10 14 0 25 5 25 10 0 6 -11 10 -25 10
-14 0 -25 -4 -25 -10z"/>
<path d="M6755 630 c-4 -6 7 -10 24 -10 17 0 31 5 31 10 0 6 -11 10 -24 10
-14 0 -28 -4 -31 -10z"/>
<path d="M7850 630 c0 -5 11 -10 25 -10 14 0 25 5 25 10 0 6 -11 10 -25 10
-14 0 -25 -4 -25 -10z"/>
<path d="M8940 630 c0 -5 11 -10 25 -10 14 0 25 5 25 10 0 6 -11 10 -25 10
-14 0 -25 -4 -25 -10z"/>
<path d="M9970 630 c0 -5 11 -10 25 -10 14 0 25 5 25 10 0 6 -11 10 -25 10
-14 0 -25 -4 -25 -10z"/>
<path d="M11130 630 c0 -5 11 -10 25 -10 14 0 25 5 25 10 0 6 -11 10 -25 10
-14 0 -25 -4 -25 -10z"/>
<path d="M12225 630 c-4 -6 7 -10 24 -10 17 0 31 5 31 10 0 6 -11 10 -24 10
-14 0 -28 -4 -31 -10z"/>
<path d="M13320 630 c0 -5 11 -10 25 -10 14 0 25 5 25 10 0 6 -11 10 -25 10
-14 0 -25 -4 -25 -10z"/>
<path d="M14410 630 c0 -5 11 -10 25 -10 14 0 25 5 25 10 0 6 -11 10 -25 10
-14 0 -25 -4 -25 -10z"/>
<path d="M15500 630 c0 -5 14 -10 31 -10 17 0 28 4 24 10 -3 6 -17 10 -31 10
-13 0 -24 -4 -24 -10z"/>
<path d="M7836 369 c-28 -22 -36 -73 -16 -109 11 -21 51 -33 85 -24 21 5 25
12 25 45 0 37 -2 39 -31 39 -17 0 -28 -4 -24 -10 3 -5 13 -10 21 -10 8 0 14
-10 14 -26 0 -23 -3 -25 -32 -22 -44 4 -66 45 -46 86 11 22 21 28 58 32 33 4
40 7 27 13 -30 12 -53 8 -81 -14z"/>
<path d="M8620 380 c0 -5 5 -10 10 -10 6 0 10 5 10 10 0 6 -4 10 -10 10 -5 0
-10 -4 -10 -10z"/>
<path d="M11220 360 c0 -27 -3 -30 -24 -24 -30 7 -56 -18 -56 -56 0 -44 47
-79 65 -50 5 8 11 7 21 -1 12 -10 14 2 14 75 0 51 -4 86 -10 86 -5 0 -10 -14
-10 -30z m-5 -80 c0 -31 -3 -35 -25 -35 -19 0 -26 6 -28 23 -5 36 5 54 30 50
19 -2 23 -9 23 -38z"/>
<path d="M12490 308 l0 -83 35 -2 c44 -2 70 30 60 76 -7 32 -27 45 -56 36 -16
-5 -19 -1 -19 24 0 17 -4 31 -10 31 -6 0 -10 -34 -10 -82z m75 -28 c0 -31 -3
-35 -25 -35 -19 0 -26 6 -28 23 -5 36 5 54 30 50 19 -2 23 -9 23 -38z"/>
<path d="M12750 305 c0 -50 4 -85 10 -85 6 0 10 35 10 85 0 50 -4 85 -10 85
-6 0 -10 -35 -10 -85z"/>
<path d="M14520 359 c0 -26 -3 -29 -20 -24 -35 11 -60 -12 -60 -54 0 -49 21
-68 55 -53 18 8 25 8 29 -1 2 -7 5 27 5 76 1 48 -1 87 -4 87 -3 0 -5 -14 -5
-31z m-4 -64 c7 -29 -10 -55 -37 -55 -21 0 -33 31 -24 60 10 30 53 27 61 -5z"/>
<path d="M8540 365 c0 -8 -5 -15 -12 -15 -9 0 -9 -3 0 -12 7 -7 12 -28 12 -48
0 -20 5 -41 12 -48 15 -15 38 -16 38 -2 0 6 -7 10 -15 10 -11 0 -15 11 -15 40
0 29 4 40 15 40 8 0 15 5 15 10 0 6 -7 10 -15 10 -8 0 -15 7 -15 15 0 8 -4 15
-10 15 -5 0 -10 -7 -10 -15z"/>
<path d="M10666 364 c-25 -24 -19 -43 19 -65 22 -13 35 -29 35 -41 0 -17 -5
-20 -35 -16 -40 5 -48 -8 -11 -18 66 -16 90 50 31 85 -45 26 -46 51 -2 51 24
0 28 3 17 10 -21 14 -36 12 -54 -6z"/>
<path d="M11960 301 c0 -98 18 -109 22 -13 l3 67 26 -63 c14 -35 30 -64 35
-64 5 0 20 29 34 63 l25 64 3 -60 c5 -94 22 -92 22 3 0 103 -15 108 -56 15
l-29 -67 -26 64 c-15 40 -31 66 -42 68 -15 3 -17 -6 -17 -77z"/>
<path d="M12810 370 c0 -5 5 -10 10 -10 6 0 10 5 10 10 0 6 -4 10 -10 10 -5 0
-10 -4 -10 -10z"/>
<path d="M13847 373 c-11 -10 -8 -141 3 -148 6 -4 10 8 10 29 0 30 4 36 21 36
13 0 25 -11 35 -35 18 -43 37 -47 22 -5 -5 17 -14 33 -19 36 -5 3 -2 15 6 27
19 27 19 32 -1 51 -15 16 -65 22 -77 9z m68 -38 c0 -14 -8 -21 -27 -23 -24 -3
-28 0 -28 23 0 23 4 26 28 23 19 -2 27 -9 27 -23z"/>
<path d="M14880 370 c0 -5 5 -10 10 -10 6 0 10 5 10 10 0 6 -4 10 -10 10 -5 0
-10 -4 -10 -10z"/>
<path d="M12293 355 c-11 -20 -4 -99 11 -123 9 -14 36 -16 36 -2 0 6 -7 10
-15 10 -11 0 -15 11 -15 40 0 29 4 40 15 40 8 0 15 5 15 10 0 6 -6 10 -14 10
-8 0 -16 8 -18 18 -4 15 -5 15 -15 -3z"/>
<path d="M14811 358 c0 -9 -7 -19 -13 -22 -10 -5 -10 -7 0 -12 7 -3 12 -24 12
-50 0 -45 16 -64 41 -48 9 5 6 10 -9 15 -32 12 -31 74 1 84 l22 8 -22 4 c-12
2 -24 12 -26 21 -4 16 -5 16 -6 0z"/>
<path d="M7976 328 c-35 -49 -2 -108 51 -92 l28 8 -35 5 c-22 4 -36 12 -38 24
-3 14 4 17 37 17 45 0 54 16 25 44 -22 22 -50 20 -68 -6z m48 6 c28 -11 18
-34 -14 -34 -32 0 -37 9 -18 28 14 14 12 14 32 6z"/>
<path d="M8090 288 c0 -70 18 -78 22 -10 3 40 6 47 26 50 20 3 22 -1 22 -42 0
-25 5 -48 10 -51 15 -9 13 92 -2 102 -7 4 -28 8 -45 8 l-33 0 0 -57z"/>
<path d="M8230 330 c-11 -11 -20 -29 -20 -40 0 -40 67 -79 85 -50 4 6 -6 10
-23 10 -25 0 -42 14 -42 36 0 2 18 4 40 4 33 0 40 3 40 20 0 18 -26 40 -49 40
-6 0 -20 -9 -31 -20z m58 -13 c3 -13 -3 -17 -27 -17 -33 0 -39 8 -19 28 17 17
42 11 46 -11z"/>
<path d="M8340 290 c0 -33 4 -60 10 -60 6 0 10 21 10 46 0 37 4 47 20 51 11 3
20 9 20 14 0 13 -14 11 -28 -3 -9 -9 -12 -9 -12 0 0 7 -4 12 -10 12 -6 0 -10
-27 -10 -60z"/>
<path d="M8433 343 c-24 -9 -13 -20 17 -15 18 3 30 0 30 -7 0 -6 1 -14 2 -18
1 -5 -11 -10 -28 -13 -20 -4 -30 -12 -32 -28 -3 -22 0 -24 51 -26 26 -2 27 0
27 50 0 59 -20 76 -67 57z m55 -75 c-7 -21 -36 -34 -49 -21 -6 6 -8 16 -5 22
10 15 59 14 54 -1z"/>
<path d="M8620 290 c0 -33 4 -60 10 -60 6 0 10 27 10 60 0 33 -4 60 -10 60 -6
0 -10 -27 -10 -60z"/>
<path d="M8686 334 c-32 -31 -11 -104 30 -104 36 0 54 20 54 60 0 29 -5 42
-19 50 -27 14 -47 13 -65 -6z m70 -29 c8 -31 -12 -57 -40 -53 -13 2 -22 12
-24 26 -5 36 5 52 32 52 19 0 27 -7 32 -25z"/>
<path d="M8807 343 c-11 -10 -8 -101 2 -108 6 -3 11 16 13 42 3 44 5 48 28 48
23 0 25 -4 28 -47 2 -27 7 -48 13 -48 16 0 10 87 -7 104 -18 18 -23 19 -44 6
-9 -5 -17 -5 -20 1 -4 5 -9 6 -13 2z"/>
<path d="M8942 338 c-19 -19 -14 -37 13 -50 33 -15 32 -36 -2 -40 -25 -4 -26
-5 -9 -13 22 -10 50 5 54 28 2 10 -7 22 -23 29 -28 13 -30 44 -2 42 9 -1 17 2
17 7 0 13 -34 11 -48 -3z"/>
<path d="M10771 262 c-1 -53 3 -81 9 -77 6 3 10 15 10 26 0 15 5 18 23 14 30
-8 50 16 50 56 0 43 -25 66 -57 51 -19 -8 -26 -8 -30 1 -2 7 -5 -25 -5 -71z
m74 38 c10 -33 -4 -62 -28 -58 -22 3 -34 35 -23 64 8 21 44 17 51 -6z"/>
<path d="M10906 318 c-35 -49 -2 -108 51 -92 l28 8 -35 5 c-22 4 -36 12 -38
24 -3 14 4 17 37 17 45 0 54 16 25 44 -22 22 -50 20 -68 -6z m48 6 c28 -11 18
-34 -14 -34 -32 0 -37 9 -18 28 14 14 12 14 32 6z"/>
<path d="M11026 318 c-35 -49 -2 -108 51 -92 l28 8 -35 5 c-22 4 -36 12 -38
24 -3 14 4 17 37 17 45 0 54 16 25 44 -22 22 -50 20 -68 -6z m48 6 c28 -11 18
-34 -14 -34 -32 0 -37 9 -18 28 14 14 12 14 32 6z"/>
<path d="M12180 320 c-11 -11 -20 -29 -20 -40 0 -40 67 -79 85 -50 4 6 -6 10
-23 10 -25 0 -42 14 -42 36 0 2 18 4 40 4 33 0 40 3 40 20 0 18 -26 40 -49 40
-6 0 -20 -9 -31 -20z m58 -13 c3 -13 -3 -17 -27 -17 -33 0 -39 8 -19 28 17 17
42 11 46 -11z"/>
<path d="M12383 333 c-24 -9 -13 -20 17 -15 25 4 30 1 30 -17 0 -15 -6 -21
-24 -21 -13 0 -29 -7 -36 -15 -19 -22 2 -40 46 -40 34 0 34 0 34 46 0 60 -22
81 -67 62z m47 -77 c0 -18 -30 -30 -43 -17 -5 5 -6 14 -3 20 10 16 46 13 46
-3z"/>
<path d="M12630 320 c-11 -11 -20 -29 -20 -40 0 -23 33 -60 55 -60 23 0 55 37
55 63 0 27 -28 57 -53 57 -9 0 -26 -9 -37 -20z m65 -40 c0 -31 -3 -35 -28 -38
-31 -4 -43 14 -33 54 5 20 12 25 34 22 24 -3 27 -7 27 -38z"/>
<path d="M12810 280 c0 -33 4 -60 10 -60 6 0 10 27 10 60 0 33 -4 60 -10 60
-6 0 -10 -27 -10 -60z"/>
<path d="M12865 323 c-16 -16 -15 -18 14 -42 39 -33 39 -45 1 -39 -33 5 -41
-7 -11 -17 23 -7 48 2 55 21 5 14 -2 23 -38 48 -23 16 -12 40 15 33 11 -3 17
-1 13 4 -8 14 -31 11 -49 -8z"/>
<path d="M12960 278 c0 -70 18 -78 22 -10 3 40 6 47 26 50 20 3 22 0 22 -47 0
-64 18 -67 22 -3 3 40 6 47 26 50 20 3 22 0 22 -47 0 -28 5 -51 10 -51 6 0 10
22 10 49 0 59 -18 80 -54 63 -13 -6 -27 -8 -31 -4 -4 4 -22 7 -41 7 l-34 0 0
-57z"/>
<path d="M13988 329 c-13 -7 -18 -22 -18 -50 0 -32 4 -41 25 -51 18 -8 31 -8
47 0 21 10 20 11 -13 11 -24 1 -39 7 -43 17 -9 24 -9 24 34 24 33 0 40 3 40
20 0 10 -9 24 -19 30 -24 12 -31 12 -53 -1z m51 -12 c13 -17 5 -27 -24 -27
-29 0 -37 10 -24 27 15 17 33 17 48 0z"/>
<path d="M14100 260 c0 -47 4 -80 10 -80 6 0 10 11 10 25 0 22 3 25 24 19 30
-7 56 18 56 56 0 47 -41 75 -68 48 -9 -9 -12 -9 -12 0 0 7 -4 12 -10 12 -6 0
-10 -33 -10 -80z m75 20 c0 -31 -3 -35 -25 -35 -19 0 -26 6 -28 23 -5 36 5 54
30 50 19 -2 23 -9 23 -38z"/>
<path d="M14220 280 c0 -33 4 -60 10 -60 6 0 10 21 10 46 0 37 4 47 20 51 11
3 20 9 20 14 0 13 -14 11 -28 -3 -9 -9 -12 -9 -12 0 0 7 -4 12 -10 12 -6 0
-10 -27 -10 -60z"/>
<path d="M14326 327 c-24 -18 -25 -76 -1 -93 26 -19 49 -17 68 4 48 53 -11
130 -67 89z m59 -47 c0 -30 -3 -35 -27 -38 -19 -2 -28 2 -33 17 -11 36 3 63
33 59 24 -3 27 -8 27 -38z"/>
<path d="M14570 297 c0 -24 6 -52 14 -62 12 -16 18 -17 39 -8 20 9 27 9 31 0
2 -7 4 17 3 53 0 53 -1 56 -4 18 -3 -36 -9 -48 -23 -53 -31 -10 -40 2 -40 51
0 24 -4 44 -10 44 -5 0 -10 -19 -10 -43z"/>
<path d="M14718 328 c-16 -13 -22 -33 -19 -71 1 -25 43 -42 67 -28 17 9 15 10
-13 11 -35 0 -50 24 -38 60 5 14 15 20 38 20 24 0 28 3 17 10 -20 13 -33 12
-52 -2z"/>
<path d="M14880 280 c0 -33 4 -60 10 -60 6 0 10 27 10 60 0 33 -4 60 -10 60
-6 0 -10 -27 -10 -60z"/>
<path d="M14956 327 c-24 -18 -25 -76 -1 -93 26 -19 49 -17 68 4 48 53 -11
130 -67 89z m59 -47 c0 -30 -3 -35 -27 -38 -19 -2 -28 2 -33 17 -11 36 3 63
33 59 24 -3 27 -8 27 -38z"/>
<path d="M15070 280 c0 -71 18 -81 22 -12 3 43 5 47 28 47 23 0 26 -5 31 -50
l6 -50 1 57 c2 49 -1 58 -18 63 -12 4 -27 1 -35 -5 -11 -9 -15 -9 -15 -1 0 6
-4 11 -10 11 -6 0 -10 -27 -10 -60z"/>
<path d="M10317 294 c-20 -20 5 -24 144 -24 116 0 150 3 147 13 -3 9 -44 13
-144 15 -77 1 -143 -1 -147 -4z"/>
<path d="M11617 294 c-20 -20 5 -24 144 -24 116 0 150 3 147 13 -3 9 -44 13
-144 15 -77 1 -143 -1 -147 -4z"/>
</g>
</svg>
