<?xml version="1.0" standalone="no"?>
<!DOCTYPE svg PUBLIC "-//W3C//DTD SVG 20010904//EN"
 "http://www.w3.org/TR/2001/REC-SVG-20010904/DTD/svg10.dtd">
<svg version="1.0" xmlns="http://www.w3.org/2000/svg"
 width="1629.000000pt" height="628.000000pt" viewBox="0 0 1629.000000 628.000000"
 preserveAspectRatio="xMidYMid meet">

<g transform="translate(0.000000,628.000000) scale(0.100000,-0.100000)"
fill="#000000" stroke="none">
<path d="M6890 5950 c0 -60 4 -100 10 -100 6 0 10 22 10 49 0 42 3 51 21 56
29 9 37 -2 41 -55 4 -57 23 -50 22 8 0 56 -23 80 -59 64 -25 -11 -25 -11 -25
33 0 25 -4 45 -10 45 -6 0 -10 -40 -10 -100z"/>
<path d="M7240 5950 c0 -65 4 -99 10 -95 6 3 10 20 10 37 l0 31 28 -36 c15
-20 33 -36 40 -37 8 0 1 15 -17 39 l-30 38 24 23 c14 13 23 26 20 28 -3 3 -19
-7 -35 -23 l-30 -29 0 57 c0 30 -4 59 -10 62 -6 4 -10 -30 -10 -95z"/>
<path d="M8241 5948 c0 -57 3 -98 5 -91 4 9 11 9 28 1 49 -22 92 35 67 88 -14
31 -38 41 -62 25 -17 -10 -19 -8 -19 28 0 22 -4 43 -10 46 -6 4 -10 -31 -9
-97z m79 -2 c26 -32 -7 -87 -44 -73 -16 6 -23 66 -9 80 11 12 40 8 53 -7z"/>
<path d="M6757 6010 c-76 -60 -10 -195 72 -150 30 16 26 20 -15 13 -29 -5 -40
-2 -50 12 -19 25 -18 90 2 109 18 19 55 21 72 4 9 -9 12 -9 12 0 0 13 -31 32
-53 32 -8 0 -26 -9 -40 -20z"/>
<path d="M7045 6019 c-10 -15 3 -25 16 -12 7 7 7 13 1 17 -6 3 -14 1 -17 -5z"/>
<path d="M7040 5915 c0 -37 4 -65 10 -65 6 0 10 28 10 65 0 37 -4 65 -10 65
-6 0 -10 -28 -10 -65z"/>
<path d="M7120 5960 c-11 -11 -20 -31 -20 -45 0 -25 31 -65 51 -65 17 0 49 20
49 30 0 6 -9 5 -20 -2 -28 -18 -55 1 -55 37 0 36 27 55 55 37 22 -13 27 -3 8
16 -18 18 -45 15 -68 -8z"/>
<path d="M7370 5960 c-51 -51 5 -130 74 -104 27 10 18 21 -14 16 -29 -4 -60
11 -60 29 0 5 20 9 45 9 41 0 45 2 45 25 0 43 -56 59 -90 25z m68 -17 c2 -9
-8 -13 -32 -13 -28 0 -34 3 -29 16 7 18 54 16 61 -3z"/>
<path d="M7511 5916 c-1 -77 16 -82 21 -6 3 40 6 45 28 45 23 0 25 -4 28 -52
4 -69 22 -68 22 1 0 66 -17 85 -60 69 -21 -8 -30 -8 -34 1 -2 6 -5 -20 -5 -58z"/>
<path d="M7731 5916 c-1 -77 16 -82 21 -6 3 40 6 45 28 45 23 0 25 -4 28 -52
4 -69 22 -68 22 1 0 66 -17 85 -60 69 -21 -8 -30 -8 -34 1 -2 6 -5 -20 -5 -58z"/>
<path d="M7897 5968 c-9 -7 -20 -27 -23 -44 -10 -51 39 -88 90 -68 27 10 18
21 -14 16 -29 -4 -60 11 -60 29 0 4 21 9 47 11 53 3 63 18 34 47 -24 24 -50
27 -74 9z m67 -23 c4 -12 -3 -15 -36 -15 -35 0 -39 2 -28 15 7 8 23 15 35 15
13 0 25 -7 29 -15z"/>
<path d="M8012 5974 c3 -5 13 -35 22 -66 9 -32 22 -58 30 -58 7 0 19 21 28 48
l15 47 14 -47 c7 -27 19 -48 25 -48 7 0 20 24 30 53 9 28 19 58 22 65 2 6 -1
12 -7 12 -6 0 -16 -20 -22 -45 -6 -25 -15 -45 -20 -45 -5 0 -14 20 -20 45 -6
25 -17 44 -23 42 -6 -2 -17 -25 -24 -51 -8 -26 -16 -46 -18 -43 -2 2 -10 24
-17 47 -7 24 -19 46 -26 48 -8 3 -11 1 -9 -4z"/>
<path d="M8407 5968 c-28 -22 -32 -73 -8 -97 28 -28 56 -27 87 5 20 19 24 31
19 52 -7 32 -31 52 -60 52 -12 0 -29 -6 -38 -12z m68 -53 c0 -36 -3 -40 -27
-43 -21 -3 -30 2 -39 21 -16 36 4 69 39 65 24 -3 27 -7 27 -43z"/>
<path d="M8551 5916 c-1 -77 16 -82 21 -6 3 38 7 45 28 50 16 4 21 8 13 13 -7
5 -21 3 -32 -2 -14 -8 -21 -8 -24 2 -3 6 -6 -19 -6 -57z"/>
<path d="M8650 5915 c0 -37 4 -65 10 -65 6 0 10 19 10 43 0 46 13 67 41 67 21
0 29 -20 29 -71 0 -21 5 -39 10 -39 17 0 12 97 -6 114 -18 19 -28 20 -55 6
-13 -7 -19 -7 -19 0 0 5 -4 10 -10 10 -6 0 -10 -28 -10 -65z"/>
<path d="M8881 5971 c-10 -6 -15 -33 -17 -85 -3 -74 -2 -76 23 -82 35 -9 77 7
81 31 5 24 -23 45 -60 45 -17 0 -28 5 -28 14 0 9 7 12 19 9 29 -7 64 15 58 38
-3 10 -1 19 4 19 5 0 9 5 9 10 0 12 -70 13 -89 1z m59 -31 c0 -15 -7 -20 -24
-20 -14 0 -28 5 -31 10 -10 16 4 30 31 30 17 0 24 -5 24 -20z m10 -100 c0 -16
-7 -20 -35 -20 -28 0 -35 4 -35 20 0 16 7 20 35 20 28 0 35 -4 35 -20z"/>
<path d="M9022 5964 c-32 -22 -30 -78 3 -100 18 -11 33 -14 52 -8 27 7 27 8
-12 13 -27 4 -41 12 -43 24 -3 14 4 17 42 17 39 0 46 3 46 19 0 24 -26 51 -48
51 -10 0 -28 -7 -40 -16z m66 -21 c2 -9 -8 -13 -32 -13 -34 0 -44 8 -29 24 11
11 56 2 61 -11z"/>
<path d="M9150 5915 c0 -74 17 -89 22 -19 3 50 22 72 52 61 12 -5 16 -19 16
-57 0 -27 5 -50 10 -50 17 0 12 97 -6 114 -18 19 -28 20 -55 6 -13 -7 -19 -7
-19 0 0 5 -4 10 -10 10 -6 0 -10 -28 -10 -65z"/>
<path d="M9320 5960 c-51 -51 5 -130 74 -104 27 10 18 21 -14 16 -29 -4 -60
11 -60 29 0 5 20 9 45 9 41 0 45 2 45 25 0 43 -56 59 -90 25z m68 -17 c2 -9
-8 -13 -32 -13 -28 0 -34 3 -29 16 7 18 54 16 61 -3z"/>
<path d="M9460 5965 c-16 -20 -6 -43 25 -55 37 -14 33 -44 -5 -38 -31 5 -41
-8 -14 -19 23 -9 64 14 64 36 0 11 -12 23 -30 31 -40 17 -41 44 0 38 24 -4 27
-2 19 9 -15 17 -44 17 -59 -2z"/>
<path d="M285 5604 c-12 -12 -15 -31 -13 -72 3 -52 5 -57 32 -67 24 -8 31 -6
47 14 24 29 26 103 3 125 -20 21 -48 20 -69 0z m60 -64 c0 -52 -1 -55 -25 -55
-19 0 -26 7 -34 33 -12 44 6 85 37 80 20 -3 22 -9 22 -58z"/>
<path d="M482 5566 c-17 -30 -32 -57 -32 -60 0 -3 16 -6 35 -6 28 0 35 -4 35
-20 0 -11 5 -20 10 -20 6 0 10 9 10 19 0 11 6 22 13 25 10 5 10 7 0 12 -8 3
-13 25 -13 55 0 65 -17 64 -58 -5z m35 -43 c-3 -2 -15 -3 -26 -1 -20 3 -20 3
2 38 l22 35 3 -33 c2 -19 1 -36 -1 -39z"/>
<path d="M397 5484 c-8 -8 1 -24 14 -24 5 0 9 7 9 15 0 15 -12 20 -23 9z"/>
<path d="M160 5030 c-26 -26 -27 -89 -1 -121 16 -20 23 -22 47 -14 64 23 51
155 -15 155 -6 0 -20 -9 -31 -20z m64 -16 c9 -23 7 -77 -3 -92 -4 -8 -19 -12
-32 -10 -19 2 -25 10 -27 37 -5 55 5 81 32 81 13 0 27 -7 30 -16z"/>
<path d="M353 5044 c-25 -10 -13 -20 18 -16 28 4 30 2 27 -19 -2 -16 -11 -25
-25 -27 -32 -5 -29 -20 5 -24 19 -2 27 -9 27 -23 0 -16 -7 -20 -37 -20 -28 0
-34 -3 -26 -12 22 -27 88 -7 88 26 0 10 -7 24 -15 31 -11 9 -12 16 -2 31 21
34 -19 70 -60 53z"/>
<path d="M460 5011 c0 -37 2 -40 33 -43 27 -2 32 -7 32 -28 0 -22 -6 -26 -40
-31 -39 -5 -39 -6 -12 -13 19 -6 34 -3 52 8 40 26 31 69 -18 81 -39 10 -37 45
3 45 17 0 30 5 30 10 0 6 -18 10 -40 10 -40 0 -40 0 -40 -39z"/>
<path d="M270 4905 c0 -8 5 -15 10 -15 6 0 10 7 10 15 0 8 -4 15 -10 15 -5 0
-10 -7 -10 -15z"/>
<path d="M285 4474 c-12 -12 -15 -31 -13 -72 3 -52 5 -57 32 -67 24 -8 31 -6
47 14 24 29 26 103 3 125 -20 21 -48 20 -69 0z m60 -64 c0 -52 -1 -55 -25 -55
-19 0 -26 7 -34 33 -12 44 6 85 37 80 20 -3 22 -9 22 -58z"/>
<path d="M481 4481 c-11 -7 -7 -10 15 -13 37 -4 42 -41 7 -46 -13 -2 -23 -7
-23 -12 0 -5 10 -10 23 -12 14 -2 23 -11 25 -27 3 -21 1 -23 -32 -19 -39 4
-49 -7 -16 -17 27 -9 58 2 70 26 8 15 6 22 -9 35 -17 15 -17 19 -5 31 18 18
18 28 -2 47 -17 18 -32 20 -53 7z"/>
<path d="M397 4354 c-8 -8 1 -24 14 -24 5 0 9 7 9 15 0 15 -12 20 -23 9z"/>
<path d="M160 3910 c-26 -26 -27 -89 -1 -121 16 -20 23 -22 47 -14 64 23 51
155 -15 155 -6 0 -20 -9 -31 -20z m64 -16 c9 -23 7 -77 -3 -92 -4 -8 -19 -12
-32 -10 -19 2 -25 10 -27 37 -5 55 5 81 32 81 13 0 27 -7 30 -16z"/>
<path d="M353 3923 c-24 -9 -13 -20 17 -15 27 4 30 1 30 -22 0 -14 -13 -40
-30 -59 -41 -47 -38 -57 15 -57 25 0 45 5 45 10 0 6 -17 10 -37 10 l-37 0 32
33 c56 58 32 127 -35 100z"/>
<path d="M460 3891 c0 -37 2 -40 33 -43 27 -2 32 -7 32 -28 0 -22 -6 -26 -40
-31 -39 -5 -39 -6 -12 -13 19 -6 34 -3 52 8 40 26 31 69 -18 81 -39 10 -37 45
3 45 17 0 30 5 30 10 0 6 -18 10 -40 10 -40 0 -40 0 -40 -39z"/>
<path d="M270 3785 c0 -8 5 -15 10 -15 6 0 10 7 10 15 0 8 -4 15 -10 15 -5 0
-10 -7 -10 -15z"/>
<path d="M285 3344 c-12 -12 -15 -31 -13 -72 3 -52 5 -57 32 -67 24 -8 31 -6
47 14 24 29 26 103 3 125 -20 21 -48 20 -69 0z m60 -64 c0 -52 -1 -55 -25 -55
-19 0 -26 7 -34 33 -12 44 6 85 37 80 20 -3 22 -9 22 -58z"/>
<path d="M481 3351 c-11 -7 -7 -10 15 -13 42 -5 42 -35 -1 -85 -19 -23 -35
-44 -35 -47 0 -3 20 -6 45 -6 25 0 45 5 45 10 0 6 -14 10 -31 10 l-31 0 26 31
c36 43 44 79 21 96 -22 15 -35 16 -54 4z"/>
<path d="M397 3224 c-8 -8 1 -24 14 -24 5 0 9 7 9 15 0 15 -12 20 -23 9z"/>
<path d="M160 2780 c-26 -26 -27 -89 -1 -121 16 -20 23 -22 47 -14 64 23 51
155 -15 155 -6 0 -20 -9 -31 -20z m64 -16 c9 -23 7 -77 -3 -92 -4 -8 -19 -12
-32 -10 -19 2 -25 10 -27 37 -5 55 5 81 32 81 13 0 27 -7 30 -16z"/>
<path d="M359 2780 c-13 -10 -19 -19 -13 -20 5 0 15 5 22 12 9 9 12 -2 12 -50
0 -48 -3 -62 -15 -62 -8 0 -15 -4 -15 -10 0 -5 18 -10 40 -10 22 0 40 5 40 10
0 6 -7 10 -15 10 -12 0 -15 14 -15 70 0 39 -4 70 -9 70 -5 0 -19 -9 -32 -20z"/>
<path d="M460 2761 c0 -37 2 -40 33 -43 27 -2 32 -7 32 -28 0 -22 -6 -26 -40
-31 -39 -5 -39 -6 -12 -13 19 -6 34 -3 52 8 40 26 31 69 -18 81 -39 10 -37 45
3 45 17 0 30 5 30 10 0 6 -18 10 -40 10 -40 0 -40 0 -40 -39z"/>
<path d="M270 2655 c0 -8 5 -15 10 -15 6 0 10 7 10 15 0 8 -4 15 -10 15 -5 0
-10 -7 -10 -15z"/>
<path d="M11710 2544 l-555 -42 -530 -137 -530 -136 -510 -39 c-403 -31 -603
-42 -955 -49 -245 -6 -746 -18 -1115 -27 l-670 -16 -595 -58 c-327 -33 -824
-75 -1105 -95 l-510 -37 -570 -113 -570 -114 -510 -35 -510 -36 -567 -97
c-372 -64 -568 -102 -568 -109 0 -7 8 -10 18 -8 9 2 253 45 542 95 l525 91
570 43 570 43 520 107 520 106 585 45 c322 24 808 66 1080 94 455 47 532 52
960 65 256 8 742 19 1080 25 550 10 676 15 1185 51 l570 41 570 143 570 143
535 37 535 38 370 -30 c234 -19 387 -28 415 -23 43 7 44 8 10 9 -19 1 -208 17
-420 34 l-385 32 -555 -41z"/>
<path d="M13218 2488 c10 -10 163 -14 665 -19 l652 -6 505 -80 c284 -46 509
-77 514 -72 6 5 4 10 -5 13 -8 3 -265 43 -571 90 l-557 86 -607 0 c-486 0
-606 -3 -596 -12z"/>
<path d="M285 2224 c-12 -12 -15 -31 -13 -72 3 -52 5 -57 32 -67 24 -8 31 -6
47 14 24 29 26 103 3 125 -20 21 -48 20 -69 0z m60 -64 c0 -52 -1 -55 -25 -55
-19 0 -26 7 -34 33 -12 44 6 85 37 80 20 -3 22 -9 22 -58z"/>
<path d="M488 2226 c-24 -18 -23 -29 2 -16 19 10 20 8 20 -50 0 -53 -2 -60
-20 -60 -11 0 -20 -4 -20 -10 0 -5 21 -10 46 -10 27 0 43 4 39 10 -3 6 -13 10
-21 10 -11 0 -14 16 -14 70 0 73 -3 78 -32 56z"/>
<path d="M397 2104 c-8 -8 1 -24 14 -24 5 0 9 7 9 15 0 15 -12 20 -23 9z"/>
<path d="M160 1650 c-26 -26 -27 -89 -1 -121 16 -20 23 -22 47 -14 64 23 51
155 -15 155 -6 0 -20 -9 -31 -20z m64 -16 c9 -23 7 -77 -3 -92 -4 -8 -19 -12
-32 -10 -19 2 -25 10 -27 37 -5 55 5 81 32 81 13 0 27 -7 30 -16z"/>
<path d="M350 1650 c-26 -26 -27 -89 -1 -121 16 -20 23 -22 47 -14 64 23 51
155 -15 155 -6 0 -20 -9 -31 -20z m64 -16 c9 -23 7 -77 -3 -92 -4 -8 -19 -12
-32 -10 -19 2 -25 10 -27 37 -5 55 5 81 32 81 13 0 27 -7 30 -16z"/>
<path d="M460 1631 c0 -37 2 -40 33 -43 27 -2 32 -7 32 -28 0 -22 -6 -26 -40
-31 -39 -5 -39 -6 -12 -13 19 -6 34 -3 52 8 40 26 31 69 -18 81 -39 10 -37 45
3 45 17 0 30 5 30 10 0 6 -18 10 -40 10 -40 0 -40 0 -40 -39z"/>
<path d="M270 1525 c0 -8 5 -15 10 -15 6 0 10 7 10 15 0 8 -4 15 -10 15 -5 0
-10 -7 -10 -15z"/>
<path d="M474 1096 c-27 -20 -27 -112 0 -132 40 -29 75 -6 83 54 10 72 -34
113 -83 78z m60 -22 c3 -9 6 -28 6 -44 0 -43 -10 -60 -35 -60 -25 0 -35 17
-35 60 0 43 10 60 35 60 13 0 26 -7 29 -16z"/>
<path d="M1219 769 c-24 -20 -24 -20 -1 -9 22 10 22 10 22 -50 0 -46 -3 -60
-14 -60 -8 0 -18 -4 -21 -10 -4 -6 12 -10 39 -10 25 0 46 5 46 10 0 6 -7 10
-15 10 -12 0 -15 14 -15 70 0 39 -4 70 -9 70 -5 0 -19 -9 -32 -21z"/>
<path d="M1411 781 c-11 -7 -7 -10 15 -13 43 -5 43 -38 0 -86 -20 -21 -33 -42
-29 -46 11 -10 95 -7 88 4 -3 6 -20 10 -37 10 l-30 0 31 35 c17 20 31 46 31
58 0 40 -35 59 -69 38z"/>
<path d="M2303 783 c-24 -9 -13 -20 17 -15 27 4 30 1 30 -22 0 -14 -13 -40
-30 -59 -41 -47 -38 -57 15 -57 25 0 45 5 45 10 0 6 -17 10 -37 10 l-37 0 32
33 c56 58 32 127 -35 100z"/>
<path d="M2503 784 c-25 -10 -13 -20 18 -16 28 4 30 2 27 -19 -2 -16 -11 -25
-25 -27 -32 -5 -29 -20 5 -24 19 -2 27 -9 27 -23 0 -16 -7 -20 -37 -20 -28 0
-34 -3 -26 -12 22 -27 88 -7 88 26 0 10 -7 24 -15 31 -11 9 -12 16 -2 31 21
34 -19 70 -60 53z"/>
<path d="M3393 783 c-23 -9 -13 -18 20 -18 27 0 32 -3 30 -22 -2 -13 2 -23 7
-23 6 0 10 13 10 29 0 35 -29 50 -67 34z"/>
<path d="M3601 739 c-17 -28 -31 -55 -31 -60 0 -5 16 -9 35 -9 28 0 35 -4 35
-20 0 -11 5 -20 10 -20 6 0 10 9 10 19 0 11 6 22 13 25 10 5 10 7 0 12 -8 3
-13 25 -13 55 0 65 -18 64 -59 -2z m39 -9 c0 -36 -2 -40 -26 -40 l-25 0 22 40
c13 22 24 40 26 40 2 0 3 -18 3 -40z"/>
<path d="M4492 736 c-17 -30 -32 -57 -32 -60 0 -3 16 -6 35 -6 28 0 35 -4 35
-20 0 -11 5 -20 10 -20 6 0 10 9 10 19 0 11 6 22 13 25 10 5 10 7 0 12 -8 3
-13 25 -13 55 0 65 -17 64 -58 -5z m35 -43 c-3 -2 -15 -3 -26 -1 -20 3 -20 3
2 38 l22 35 3 -33 c2 -19 1 -36 -1 -39z"/>
<path d="M4680 750 c0 -35 3 -40 24 -40 29 0 49 -22 40 -45 -5 -12 -15 -16
-40 -13 -37 4 -46 -7 -14 -17 29 -9 60 3 69 28 12 30 -3 54 -39 62 -42 9 -42
45 0 45 17 0 30 5 30 10 0 6 -16 10 -35 10 -34 0 -35 -1 -35 -40z"/>
<path d="M5570 751 c0 -37 2 -40 33 -43 27 -2 32 -7 32 -28 0 -22 -4 -25 -38
-25 -42 0 -49 -12 -13 -21 55 -13 97 45 56 78 -12 10 -28 18 -36 18 -8 0 -14
9 -14 20 0 15 7 20 24 20 14 0 28 5 31 10 4 6 -10 10 -34 10 -41 0 -41 0 -41
-39z"/>
<path d="M5790 772 c-31 -25 -38 -90 -12 -122 17 -21 24 -23 48 -15 56 20 39
103 -18 91 -19 -4 -28 -1 -28 7 0 21 22 37 53 37 16 0 26 4 22 10 -10 15 -41
12 -65 -8z m50 -93 c0 -27 -3 -30 -27 -27 -22 2 -29 9 -31 31 -3 24 0 27 27
27 28 0 31 -3 31 -31z"/>
<path d="M6679 772 c-44 -36 -25 -142 26 -142 23 0 48 28 48 54 0 34 -19 48
-55 42 -31 -6 -33 -3 -18 25 7 12 21 19 41 19 18 0 28 4 24 10 -10 16 -41 12
-66 -8z m56 -72 c12 -20 -6 -50 -30 -50 -15 0 -26 7 -30 20 -9 27 1 40 30 40
13 0 27 -5 30 -10z"/>
<path d="M6860 780 c0 -5 16 -10 35 -10 19 0 35 -2 35 -4 0 -2 -11 -29 -25
-61 -14 -32 -24 -63 -22 -69 4 -11 53 89 63 131 6 22 3 23 -40 23 -25 0 -46
-4 -46 -10z"/>
<path d="M7750 780 c0 -5 18 -10 40 -10 l39 0 -29 -66 c-33 -73 -34 -74 -21
-74 7 0 71 139 71 155 0 3 -22 5 -50 5 -27 0 -50 -4 -50 -10z"/>
<path d="M7966 774 c-20 -19 -20 -29 -1 -47 13 -13 13 -17 -1 -28 -37 -30 4
-80 53 -63 33 11 41 39 18 64 -11 12 -13 20 -6 25 17 10 13 52 -5 59 -25 10
-42 7 -58 -10z m60 -15 c3 -6 -1 -18 -9 -27 -13 -13 -19 -13 -31 -2 -9 7 -16
19 -16 26 0 17 46 19 56 3z m2 -86 c3 -20 -1 -23 -27 -23 -23 0 -31 5 -31 18
0 25 10 33 35 30 12 -2 21 -12 23 -25z"/>
<path d="M8855 774 c-14 -15 -14 -19 -1 -39 13 -20 13 -25 1 -35 -23 -19 -18
-49 10 -62 50 -23 100 28 60 62 -12 10 -12 15 1 35 13 20 13 24 -1 39 -9 9
-25 16 -35 16 -10 0 -26 -7 -35 -16z m61 -15 c3 -6 -1 -18 -10 -27 -15 -15
-17 -15 -32 0 -19 19 -11 38 16 38 10 0 22 -5 26 -11z m2 -86 c3 -20 -1 -23
-27 -23 -23 0 -31 5 -31 18 0 25 10 33 35 30 12 -2 21 -12 23 -25z"/>
<path d="M9056 774 c-36 -36 -4 -94 44 -79 13 4 20 2 20 -7 0 -23 -22 -38 -54
-38 -22 0 -27 -3 -19 -11 18 -18 69 -1 82 27 34 76 -22 159 -73 108z m62 -36
c3 -25 0 -28 -27 -28 -26 0 -31 4 -31 23 0 30 9 39 35 35 13 -2 21 -12 23 -30z"/>
<path d="M9886 774 c-36 -36 -4 -94 44 -79 13 4 20 2 20 -7 0 -23 -22 -38 -54
-38 -22 0 -27 -3 -19 -11 18 -18 69 -1 82 27 34 76 -22 159 -73 108z m62 -36
c3 -25 0 -28 -27 -28 -26 0 -31 4 -31 23 0 30 9 39 35 35 13 -2 21 -12 23 -30z"/>
<path d="M10099 769 c-24 -20 -24 -20 -1 -9 22 10 22 10 22 -50 0 -46 -3 -60
-14 -60 -8 0 -18 -4 -21 -10 -4 -6 12 -10 39 -10 25 0 46 5 46 10 0 6 -7 10
-15 10 -12 0 -15 14 -15 70 0 39 -4 70 -9 70 -5 0 -19 -9 -32 -21z"/>
<path d="M10206 768 c-21 -29 -21 -102 0 -122 39 -40 84 -4 84 67 0 71 -50
104 -84 55z m65 -25 c16 -42 0 -88 -31 -88 -22 0 -25 5 -28 44 -4 55 2 71 28
71 13 0 24 -10 31 -27z"/>
<path d="M10929 769 c-24 -20 -24 -20 -1 -9 22 10 22 10 22 -50 0 -46 -3 -60
-14 -60 -8 0 -18 -4 -21 -10 -4 -6 12 -10 39 -10 25 0 46 5 46 10 0 6 -7 10
-15 10 -12 0 -15 14 -15 70 0 39 -4 70 -9 70 -5 0 -19 -9 -32 -21z"/>
<path d="M11036 768 c-21 -29 -21 -102 0 -122 39 -40 84 -4 84 67 0 71 -50
104 -84 55z m65 -25 c16 -42 0 -88 -31 -88 -22 0 -25 5 -28 44 -4 55 2 71 28
71 13 0 24 -10 31 -27z"/>
<path d="M11249 769 c-24 -20 -24 -20 -1 -9 22 10 22 10 22 -50 0 -46 -3 -60
-14 -60 -8 0 -18 -4 -21 -10 -4 -6 12 -10 39 -10 25 0 46 5 46 10 0 6 -7 10
-15 10 -12 0 -15 14 -15 70 0 39 -4 70 -9 70 -5 0 -19 -9 -32 -21z"/>
<path d="M11379 769 c-24 -20 -24 -20 -1 -9 22 10 22 10 22 -50 0 -46 -3 -60
-14 -60 -8 0 -18 -4 -21 -10 -4 -6 12 -10 39 -10 25 0 46 5 46 10 0 6 -7 10
-15 10 -12 0 -15 14 -15 70 0 39 -4 70 -9 70 -5 0 -19 -9 -32 -21z"/>
<path d="M12019 770 c-13 -10 -19 -19 -13 -20 5 0 15 5 22 12 9 9 12 -2 12
-50 0 -48 -3 -62 -15 -62 -8 0 -15 -4 -15 -10 0 -5 18 -10 40 -10 22 0 40 5
40 10 0 6 -7 10 -15 10 -12 0 -15 14 -15 70 0 39 -4 70 -9 70 -5 0 -19 -9 -32
-20z"/>
<path d="M12139 770 c-13 -10 -19 -19 -13 -20 5 0 15 5 22 12 9 9 12 -2 12
-50 0 -48 -3 -62 -15 -62 -8 0 -15 -4 -15 -10 0 -5 18 -10 40 -10 22 0 40 5
40 10 0 6 -7 10 -15 10 -12 0 -15 14 -15 70 0 39 -4 70 -9 70 -5 0 -19 -9 -32
-20z"/>
<path d="M12339 770 c-13 -10 -19 -19 -13 -20 5 0 15 5 22 12 9 9 12 -2 12
-50 0 -48 -3 -62 -15 -62 -8 0 -15 -4 -15 -10 0 -5 18 -10 40 -10 22 0 40 5
40 10 0 6 -7 10 -15 10 -12 0 -15 14 -15 70 0 39 -4 70 -9 70 -5 0 -19 -9 -32
-20z"/>
<path d="M12463 783 c-24 -9 -13 -20 17 -15 27 4 30 1 30 -22 0 -14 -13 -40
-30 -59 -41 -47 -38 -57 15 -57 25 0 45 5 45 10 0 6 -17 10 -37 10 l-37 0 32
33 c56 58 32 127 -35 100z"/>
<path d="M13118 776 c-10 -7 -18 -17 -18 -21 0 -4 7 -2 15 5 13 11 15 5 15
-49 0 -48 -3 -61 -15 -61 -8 0 -15 -4 -15 -10 0 -5 18 -10 40 -10 22 0 40 5
40 10 0 6 -7 10 -15 10 -12 0 -15 14 -15 70 0 73 -3 78 -32 56z"/>
<path d="M13223 783 c-23 -9 -13 -18 19 -18 45 0 46 -22 3 -76 -19 -24 -35
-47 -35 -51 0 -5 20 -8 45 -8 25 0 45 5 45 10 0 6 -14 10 -31 10 l-31 0 24 33
c35 46 42 72 23 91 -16 16 -38 19 -62 9z"/>
<path d="M13438 776 c-10 -7 -18 -17 -18 -21 0 -4 7 -2 15 5 13 11 15 5 15
-49 0 -48 -3 -61 -15 -61 -8 0 -15 -4 -15 -10 0 -5 18 -10 40 -10 22 0 40 5
40 10 0 6 -7 10 -15 10 -12 0 -15 14 -15 70 0 73 -3 78 -32 56z"/>
<path d="M13553 783 c-23 -9 -13 -18 20 -18 27 0 32 -3 30 -22 -2 -13 2 -23 7
-23 6 0 10 13 10 29 0 35 -29 50 -67 34z"/>
<path d="M14208 776 c-24 -18 -23 -29 2 -16 19 10 20 8 20 -50 0 -53 -2 -60
-20 -60 -11 0 -20 -4 -20 -10 0 -5 21 -10 46 -10 27 0 43 4 39 10 -3 6 -13 10
-21 10 -11 0 -14 16 -14 70 0 73 -3 78 -32 56z"/>
<path d="M14321 781 c-11 -7 -7 -10 15 -13 37 -4 42 -41 7 -46 -13 -2 -23 -7
-23 -12 0 -5 10 -10 23 -12 14 -2 23 -11 25 -27 3 -21 1 -23 -32 -19 -39 4
-49 -7 -16 -17 27 -9 58 2 70 26 8 15 6 22 -9 35 -17 15 -17 19 -5 31 18 18
18 28 -2 47 -17 18 -32 20 -53 7z"/>
<path d="M14528 776 c-24 -18 -23 -29 2 -16 19 10 20 8 20 -50 0 -53 -2 -60
-20 -60 -11 0 -20 -4 -20 -10 0 -5 21 -10 46 -10 27 0 43 4 39 10 -3 6 -13 10
-21 10 -11 0 -14 16 -14 70 0 73 -3 78 -32 56z"/>
<path d="M14652 736 c-17 -30 -32 -57 -32 -60 0 -3 16 -6 35 -6 28 0 35 -4 35
-20 0 -11 5 -20 10 -20 6 0 10 9 10 19 0 11 6 22 13 25 10 5 10 7 0 12 -8 3
-13 25 -13 55 0 65 -17 64 -58 -5z m35 -43 c-3 -2 -15 -3 -26 -1 -20 3 -20 3
2 38 l22 35 3 -33 c2 -19 1 -36 -1 -39z"/>
<path d="M15299 769 c-24 -20 -24 -20 -1 -9 22 10 22 10 22 -50 0 -46 -3 -60
-14 -60 -8 0 -18 -4 -21 -10 -4 -6 12 -10 39 -10 25 0 46 5 46 10 0 6 -7 10
-15 10 -12 0 -15 14 -15 70 0 39 -4 70 -9 70 -5 0 -19 -9 -32 -21z"/>
<path d="M15420 743 c-39 -61 -38 -73 5 -73 29 0 35 -4 36 -22 1 -21 2 -21 6
-3 3 11 10 24 17 28 8 6 8 10 -1 14 -8 3 -13 24 -13 54 0 27 -5 49 -10 49 -6
0 -24 -21 -40 -47z m40 -13 c0 -36 -2 -40 -25 -40 -14 0 -25 3 -25 6 0 9 41
74 46 74 2 0 4 -18 4 -40z"/>
<path d="M15619 769 c-24 -20 -24 -20 -1 -9 22 10 22 10 22 -50 0 -46 -3 -60
-14 -60 -8 0 -18 -4 -21 -10 -4 -6 12 -10 39 -10 25 0 46 5 46 10 0 6 -7 10
-15 10 -12 0 -15 14 -15 70 0 39 -4 70 -9 70 -5 0 -19 -9 -32 -21z"/>
<path d="M15730 751 c0 -37 2 -40 33 -43 27 -2 32 -7 32 -28 0 -22 -4 -25 -38
-25 -42 0 -49 -12 -13 -21 55 -13 97 45 56 78 -12 10 -28 18 -36 18 -8 0 -14
9 -14 20 0 15 7 20 24 20 14 0 28 5 31 10 4 6 -10 10 -34 10 -41 0 -41 0 -41
-39z"/>
<path d="M3395 711 c-3 -5 7 -11 22 -13 20 -2 28 -9 28 -23 0 -15 -9 -21 -35
-26 -35 -5 -35 -6 -8 -13 54 -16 93 38 51 70 -21 16 -49 18 -58 5z"/>
<path d="M13555 711 c-3 -5 7 -11 22 -13 20 -2 28 -9 28 -23 0 -15 -9 -21 -35
-26 -35 -5 -35 -6 -8 -13 54 -16 93 38 51 70 -21 16 -49 18 -58 5z"/>
<path d="M1310 690 c0 -5 11 -10 25 -10 14 0 25 5 25 10 0 6 -11 10 -25 10
-14 0 -25 -4 -25 -10z"/>
<path d="M2400 690 c0 -5 14 -10 31 -10 17 0 28 4 24 10 -3 6 -17 10 -31 10
-13 0 -24 -4 -24 -10z"/>
<path d="M3495 690 c-4 -6 7 -10 24 -10 17 0 31 5 31 10 0 6 -11 10 -24 10
-14 0 -28 -4 -31 -10z"/>
<path d="M4590 690 c0 -5 11 -10 25 -10 14 0 25 5 25 10 0 6 -11 10 -25 10
-14 0 -25 -4 -25 -10z"/>
<path d="M5680 690 c0 -5 11 -10 25 -10 14 0 25 5 25 10 0 6 -11 10 -25 10
-14 0 -25 -4 -25 -10z"/>
<path d="M6770 690 c0 -5 14 -10 31 -10 17 0 28 4 24 10 -3 6 -17 10 -31 10
-13 0 -24 -4 -24 -10z"/>
<path d="M7870 690 c0 -5 11 -10 25 -10 14 0 25 5 25 10 0 6 -11 10 -25 10
-14 0 -25 -4 -25 -10z"/>
<path d="M8960 690 c0 -5 11 -10 25 -10 14 0 25 5 25 10 0 6 -11 10 -25 10
-14 0 -25 -4 -25 -10z"/>
<path d="M9990 690 c0 -5 11 -10 25 -10 14 0 25 5 25 10 0 6 -11 10 -25 10
-14 0 -25 -4 -25 -10z"/>
<path d="M11150 690 c0 -5 11 -10 25 -10 14 0 25 5 25 10 0 6 -11 10 -25 10
-14 0 -25 -4 -25 -10z"/>
<path d="M12240 690 c0 -5 14 -10 31 -10 17 0 28 4 24 10 -3 6 -17 10 -31 10
-13 0 -24 -4 -24 -10z"/>
<path d="M13335 690 c-4 -6 7 -10 24 -10 17 0 31 5 31 10 0 6 -11 10 -24 10
-14 0 -28 -4 -31 -10z"/>
<path d="M14430 690 c0 -5 11 -10 25 -10 14 0 25 5 25 10 0 6 -11 10 -25 10
-14 0 -25 -4 -25 -10z"/>
<path d="M15520 690 c0 -5 11 -10 25 -10 14 0 25 5 25 10 0 6 -11 10 -25 10
-14 0 -25 -4 -25 -10z"/>
<path d="M7856 419 c-28 -22 -36 -73 -16 -109 11 -21 51 -33 85 -24 21 5 25
12 25 45 0 37 -2 39 -31 39 -17 0 -28 -4 -24 -10 3 -5 13 -10 21 -10 8 0 14
-10 14 -26 0 -23 -3 -25 -32 -22 -44 4 -66 45 -46 86 11 22 21 28 58 32 33 4
40 7 27 13 -30 12 -53 8 -81 -14z"/>
<path d="M8640 429 c0 -5 5 -7 10 -4 6 3 10 8 10 11 0 2 -4 4 -10 4 -5 0 -10
-5 -10 -11z"/>
<path d="M8560 415 c0 -8 -5 -15 -12 -15 -9 0 -9 -3 0 -12 7 -7 12 -28 12 -48
0 -20 5 -41 12 -48 15 -15 38 -16 38 -2 0 6 -7 10 -15 10 -11 0 -15 11 -15 40
0 29 4 40 15 40 8 0 15 5 15 10 0 6 -7 10 -15 10 -8 0 -15 7 -15 15 0 8 -4 15
-10 15 -5 0 -10 -7 -10 -15z"/>
<path d="M11707 413 c-4 -3 -7 -17 -7 -30 0 -20 -4 -22 -24 -17 -18 4 -28 0
-40 -17 -21 -31 -20 -52 3 -80 16 -20 22 -22 44 -12 20 9 27 9 31 0 2 -7 5 27
5 76 1 87 0 93 -12 80z m-12 -103 c0 -31 -3 -35 -25 -35 -19 0 -26 6 -28 23
-5 36 5 54 30 50 19 -2 23 -9 23 -38z"/>
<path d="M12868 414 c-12 -11 -10 -152 2 -159 6 -3 10 -1 10 6 0 8 4 8 15 -1
12 -10 21 -10 40 -2 20 9 25 19 25 51 0 45 -18 64 -53 56 -23 -6 -26 -4 -29
25 -2 18 -6 28 -10 24z m72 -105 c0 -38 -1 -40 -27 -37 -47 5 -45 78 2 78 23
0 25 -4 25 -41z"/>
<path d="M13127 413 c-11 -10 -8 -151 3 -158 6 -4 10 25 10 79 0 86 -1 92 -13
79z"/>
<path d="M14787 413 c-4 -3 -7 -17 -7 -30 0 -20 -4 -22 -24 -17 -18 4 -28 0
-40 -17 -21 -31 -20 -52 3 -80 16 -20 22 -22 44 -12 20 9 27 9 31 0 2 -7 5 27
5 76 1 87 0 93 -12 80z m-12 -103 c0 -31 -3 -35 -25 -35 -19 0 -26 6 -28 23
-5 36 5 54 30 50 19 -2 23 -9 23 -38z"/>
<path d="M11146 394 c-9 -8 -16 -19 -16 -23 0 -12 23 -36 52 -54 38 -24 27
-50 -18 -45 -39 5 -46 -9 -10 -18 66 -16 90 50 30 85 -40 24 -41 44 -1 49 15
2 25 8 22 13 -9 14 -42 11 -59 -7z"/>
<path d="M12340 329 c0 -51 4 -78 10 -74 6 3 10 34 11 68 l0 62 26 -67 c14
-38 29 -68 33 -68 5 0 21 33 37 73 l28 72 5 -75 c7 -91 22 -72 18 21 -4 86
-23 85 -59 -1 -26 -61 -28 -63 -37 -40 -34 88 -46 110 -58 110 -11 0 -14 -18
-14 -81z"/>
<path d="M13185 400 c3 -5 8 -10 11 -10 2 0 4 5 4 10 0 6 -5 10 -11 10 -5 0
-7 -4 -4 -10z"/>
<path d="M14110 330 c0 -47 4 -80 10 -80 6 0 10 16 10 35 0 50 34 49 56 -2 9
-21 18 -33 21 -26 2 6 -2 24 -10 40 -13 24 -13 31 -2 47 25 34 0 66 -52 66
l-33 0 0 -80z m74 51 c11 -18 -6 -41 -30 -41 -19 0 -24 5 -24 25 0 20 5 25 24
25 14 0 27 -4 30 -9z"/>
<path d="M15150 400 c0 -5 5 -10 10 -10 6 0 10 5 10 10 0 6 -4 10 -10 10 -5 0
-10 -4 -10 -10z"/>
<path d="M7996 378 c-35 -49 -2 -108 51 -92 l28 8 -35 5 c-22 4 -36 12 -38 24
-3 14 4 17 37 17 45 0 54 16 25 44 -22 22 -50 20 -68 -6z m48 6 c28 -11 18
-34 -14 -34 -32 0 -37 9 -18 28 14 14 12 14 32 6z"/>
<path d="M8110 338 c0 -70 18 -78 22 -10 3 40 6 47 26 50 20 3 22 -1 22 -42 0
-25 5 -48 10 -51 15 -9 13 92 -2 102 -7 4 -28 8 -45 8 l-33 0 0 -57z"/>
<path d="M8246 378 c-35 -49 -2 -108 51 -92 l28 8 -35 5 c-22 4 -36 12 -38 24
-3 14 4 17 37 17 45 0 54 16 25 44 -22 22 -50 20 -68 -6z m48 6 c28 -11 18
-34 -14 -34 -32 0 -37 9 -18 28 14 14 12 14 32 6z"/>
<path d="M8360 338 c0 -32 4 -58 10 -58 6 0 10 21 10 46 0 37 4 47 20 51 31 8
24 22 -10 20 -30 -2 -30 -3 -30 -59z"/>
<path d="M8453 393 c-24 -9 -13 -20 17 -15 25 4 30 1 30 -17 0 -15 -6 -21 -24
-21 -13 0 -29 -7 -36 -15 -19 -22 2 -40 46 -40 34 0 34 0 34 46 0 60 -22 81
-67 62z m47 -77 c0 -18 -30 -30 -43 -17 -5 5 -6 14 -3 20 10 16 46 13 46 -3z"/>
<path d="M8640 340 c0 -38 4 -59 10 -55 6 3 10 28 10 55 0 27 -4 52 -10 55 -6
4 -10 -17 -10 -55z"/>
<path d="M8706 384 c-32 -31 -11 -104 30 -104 36 0 54 20 54 60 0 29 -5 42
-19 50 -27 14 -47 13 -65 -6z m70 -29 c8 -31 -12 -57 -40 -53 -13 2 -22 12
-24 26 -5 36 5 52 32 52 19 0 27 -7 32 -25z"/>
<path d="M8827 393 c-11 -10 -8 -101 2 -108 6 -3 11 16 13 42 3 44 5 48 28 48
23 0 25 -4 28 -47 2 -27 7 -48 13 -48 16 0 10 87 -7 104 -18 18 -23 19 -44 6
-9 -5 -17 -5 -20 1 -4 5 -9 6 -13 2z"/>
<path d="M8963 393 c-22 -8 -14 -43 12 -55 37 -17 33 -41 -5 -36 -28 4 -29 3
-16 -10 12 -13 20 -13 41 -4 34 16 32 38 -6 57 -34 18 -34 40 0 39 11 0 21 3
21 8 0 9 -27 10 -47 1z"/>
<path d="M12670 386 c0 -8 -6 -17 -12 -20 -10 -5 -10 -7 0 -12 7 -3 12 -24 12
-49 0 -44 22 -67 44 -45 7 7 5 10 -7 10 -13 0 -17 9 -17 40 0 29 4 40 15 40 8
0 15 5 15 10 0 6 -7 10 -15 10 -8 0 -15 7 -15 15 0 8 -4 15 -10 15 -5 0 -10
-6 -10 -14z"/>
<path d="M15073 385 c-11 -20 -4 -99 11 -123 9 -14 36 -16 36 -2 0 6 -7 10
-15 10 -11 0 -15 11 -15 40 0 29 4 40 15 40 8 0 15 5 15 10 0 6 -6 10 -14 10
-8 0 -16 8 -18 18 -4 15 -5 15 -15 -3z"/>
<path d="M11250 288 c0 -46 4 -78 10 -78 6 0 10 11 10 25 0 22 3 25 24 19 33
-8 61 32 51 76 -7 31 -9 32 -62 34 l-33 1 0 -77z m75 22 c0 -31 -3 -35 -25
-35 -19 0 -26 6 -28 23 -5 36 5 54 30 50 19 -2 23 -9 23 -38z"/>
<path d="M11390 350 c-11 -11 -20 -29 -20 -40 0 -40 67 -79 85 -50 4 6 -6 10
-23 10 -25 0 -42 14 -42 36 0 2 18 4 40 4 33 0 40 3 40 20 0 18 -26 40 -49 40
-6 0 -20 -9 -31 -20z m58 -13 c3 -13 -3 -17 -27 -17 -33 0 -39 8 -19 28 17 17
42 11 46 -11z"/>
<path d="M11510 350 c-11 -11 -20 -29 -20 -40 0 -40 67 -79 85 -50 4 6 -6 10
-23 10 -25 0 -42 14 -42 36 0 2 18 4 40 4 33 0 40 3 40 20 0 18 -26 40 -49 40
-6 0 -20 -9 -31 -20z m58 -13 c3 -13 -3 -17 -27 -17 -33 0 -39 8 -19 28 17 17
42 11 46 -11z"/>
<path d="M12556 354 c-31 -31 -11 -104 29 -104 7 0 22 3 32 7 14 6 10 9 -17
13 -23 3 -36 11 -38 23 -3 13 4 17 32 17 42 0 50 10 30 38 -18 26 -46 28 -68
6z m52 -6 c19 -19 14 -28 -18 -28 -41 0 -40 33 1 39 3 1 10 -4 17 -11z"/>
<path d="M12757 357 c-16 -11 -14 -12 15 -12 23 0 34 -5 36 -17 2 -12 -5 -17
-30 -20 -25 -2 -34 -8 -36 -25 -3 -23 16 -33 58 -29 23 3 25 7 24 50 -1 61
-28 82 -67 53z m53 -66 c0 -14 -28 -33 -40 -26 -20 12 -10 35 15 35 14 0 25
-4 25 -9z"/>
<path d="M13006 354 c-32 -31 -11 -104 30 -104 36 0 54 20 54 60 0 29 -5 42
-19 50 -27 14 -47 13 -65 -6z m70 -29 c8 -31 -12 -57 -40 -53 -13 2 -22 12
-24 26 -5 36 5 52 32 52 19 0 27 -7 32 -25z"/>
<path d="M13187 363 c-11 -10 -8 -101 3 -108 6 -4 10 17 10 54 0 62 -1 66 -13
54z"/>
<path d="M13242 358 c-19 -19 -14 -37 13 -50 33 -15 32 -36 -2 -40 -25 -4 -26
-5 -9 -13 22 -10 50 5 54 28 2 10 -7 22 -23 29 -28 13 -30 44 -2 42 9 -1 17 2
17 7 0 13 -34 11 -48 -3z"/>
<path d="M13337 364 c-10 -11 -9 -102 2 -109 6 -3 11 16 13 42 3 44 5 48 28
48 23 0 26 -5 31 -50 6 -50 6 -50 7 -9 3 80 62 88 62 9 0 -28 4 -44 10 -40 6
3 10 18 10 33 0 63 -24 92 -58 73 -9 -5 -25 -5 -39 2 -16 7 -26 7 -37 -2 -10
-8 -15 -9 -18 -1 -2 6 -7 8 -11 4z"/>
<path d="M14250 350 c-11 -11 -20 -29 -20 -40 0 -40 67 -79 85 -50 4 6 -6 10
-23 10 -25 0 -42 14 -42 36 0 2 18 4 40 4 33 0 40 3 40 20 0 18 -26 40 -49 40
-6 0 -20 -9 -31 -20z m58 -13 c3 -13 -3 -17 -27 -17 -33 0 -39 8 -19 28 17 17
42 11 46 -11z"/>
<path d="M14370 288 c0 -46 4 -78 10 -78 6 0 10 11 10 25 0 22 3 25 24 19 33
-8 61 32 51 76 -7 31 -9 32 -62 34 l-33 1 0 -77z m75 22 c0 -31 -3 -35 -25
-35 -19 0 -26 6 -28 23 -5 36 5 54 30 50 19 -2 23 -9 23 -38z"/>
<path d="M14490 308 c0 -32 4 -58 10 -58 6 0 10 21 10 46 0 37 4 47 20 51 31
8 24 22 -10 20 -30 -2 -30 -3 -30 -59z"/>
<path d="M14590 350 c-11 -11 -20 -29 -20 -40 0 -23 33 -60 55 -60 23 0 55 37
55 63 0 27 -28 57 -53 57 -9 0 -26 -9 -37 -20z m65 -40 c0 -31 -3 -35 -28 -38
-31 -4 -43 14 -33 54 5 20 12 25 34 22 24 -3 27 -7 27 -38z"/>
<path d="M14840 321 c0 -59 18 -80 55 -63 18 8 25 8 29 -1 2 -7 5 17 5 52 1
71 -15 75 -21 6 -2 -33 -7 -41 -25 -43 -21 -3 -23 0 -23 47 0 28 -4 51 -10 51
-5 0 -10 -22 -10 -49z"/>
<path d="M14980 350 c-25 -25 -25 -51 -2 -80 15 -19 24 -22 48 -15 l29 9 -35
5 c-32 6 -35 9 -35 41 0 32 3 35 35 40 27 4 31 7 17 13 -28 11 -35 9 -57 -13z"/>
<path d="M15150 310 c0 -33 4 -60 10 -60 6 0 10 27 10 60 0 33 -4 60 -10 60
-6 0 -10 -27 -10 -60z"/>
<path d="M15220 350 c-11 -11 -20 -29 -20 -40 0 -23 33 -60 55 -60 23 0 55 37
55 63 0 27 -28 57 -53 57 -9 0 -26 -9 -37 -20z m65 -40 c0 -31 -3 -35 -28 -38
-31 -4 -43 14 -33 54 5 20 12 25 34 22 24 -3 27 -7 27 -38z"/>
<path d="M15340 308 c0 -70 18 -78 22 -10 3 40 6 47 26 50 20 3 22 -1 22 -42
0 -25 5 -48 10 -51 15 -9 13 92 -2 102 -7 4 -28 8 -45 8 l-33 0 0 -57z"/>
<path d="M10785 320 c-3 -5 0 -12 7 -15 26 -10 303 0 301 10 -4 14 -299 19
-308 5z"/>
</g>
</svg>
