<?xml version="1.0" standalone="no"?>
<!DOCTYPE svg PUBLIC "-//W3C//DTD SVG 20010904//EN"
 "http://www.w3.org/TR/2001/REC-SVG-20010904/DTD/svg10.dtd">
<svg version="1.0" xmlns="http://www.w3.org/2000/svg"
 width="1398.000000pt" height="675.000000pt" viewBox="0 0 1398.000000 675.000000"
 preserveAspectRatio="xMidYMid meet">

<g transform="translate(0.000000,675.000000) scale(0.100000,-0.100000)"
fill="#000000" stroke="none">
<path d="M5720 6465 c0 -63 4 -105 10 -105 6 0 10 22 10 50 0 40 4 51 21 60
36 20 49 6 49 -55 0 -30 5 -55 10 -55 6 0 10 26 10 59 0 71 -16 91 -61 74
l-29 -11 0 44 c0 24 -4 44 -10 44 -6 0 -10 -42 -10 -105z"/>
<path d="M6080 6465 c0 -63 4 -105 10 -105 6 0 10 17 10 38 l1 37 34 -39 c42
-47 67 -44 26 4 l-29 35 26 27 c38 41 18 47 -23 8 l-35 -34 0 67 c0 38 -4 67
-10 67 -6 0 -10 -42 -10 -105z"/>
<path d="M7542 6558 c-7 -7 -12 -22 -12 -34 0 -12 -6 -25 -12 -28 -10 -5 -10
-7 0 -12 7 -4 12 -27 12 -65 0 -33 4 -59 10 -59 6 0 10 27 10 60 0 53 2 60 20
60 11 0 20 5 20 10 0 6 -9 10 -20 10 -11 0 -20 4 -20 9 0 23 14 41 32 41 10 0
16 5 13 10 -8 14 -38 13 -53 -2z"/>
<path d="M7780 6523 c0 -37 -3 -44 -12 -35 -35 35 -88 -2 -88 -61 0 -56 35
-81 81 -57 13 7 19 7 19 0 0 -5 5 -10 10 -10 6 0 10 42 10 105 0 63 -4 105
-10 105 -5 0 -10 -21 -10 -47z m-19 -53 c30 -16 26 -67 -7 -82 -22 -11 -28
-10 -40 7 -17 22 -18 40 -4 66 12 22 23 24 51 9z"/>
<path d="M8240 6465 c0 -85 3 -105 14 -105 11 0 16 15 18 51 6 96 68 89 68 -8
0 -24 5 -43 10 -43 17 0 12 107 -6 124 -18 19 -45 21 -62 4 -9 -9 -12 -2 -12
35 0 35 -4 47 -15 47 -12 0 -15 -18 -15 -105z"/>
<path d="M5594 6548 c-49 -23 -61 -122 -19 -163 27 -28 71 -33 101 -11 27 20
14 28 -24 14 -29 -11 -34 -10 -54 10 -30 30 -29 95 1 125 19 19 25 20 53 9 38
-14 51 -6 24 14 -23 16 -52 17 -82 2z"/>
<path d="M5880 6545 c0 -8 5 -15 10 -15 6 0 10 7 10 15 0 8 -4 15 -10 15 -5 0
-10 -7 -10 -15z"/>
<path d="M8150 6520 c0 -11 -7 -20 -15 -20 -8 0 -15 -4 -15 -10 0 -5 7 -10 15
-10 10 0 15 -15 17 -57 3 -55 4 -58 31 -61 18 -2 27 1 27 11 0 8 -8 14 -17 13
-15 -1 -19 8 -21 47 -3 42 -1 47 17 47 12 0 21 5 21 10 0 6 -9 10 -20 10 -13
0 -20 7 -20 20 0 11 -4 20 -10 20 -5 0 -10 -9 -10 -20z"/>
<path d="M5880 6430 c0 -40 4 -70 10 -70 6 0 10 30 10 70 0 40 -4 70 -10 70
-6 0 -10 -30 -10 -70z"/>
<path d="M5960 6480 c-38 -38 -16 -120 32 -120 28 0 48 12 48 27 0 12 -3 13
-15 3 -32 -26 -74 15 -60 59 8 25 41 36 60 21 12 -10 15 -9 15 3 0 31 -51 36
-80 7z"/>
<path d="M6220 6480 c-56 -56 8 -143 84 -114 29 11 17 21 -25 20 -34 -1 -43 3
-50 22 -8 21 -6 22 41 22 46 0 50 2 50 25 0 44 -64 61 -100 25z m78 -17 c2 -9
-8 -13 -32 -13 -34 0 -44 8 -29 24 11 11 56 2 61 -11z"/>
<path d="M6360 6430 c0 -40 4 -70 10 -70 6 0 10 22 10 50 0 40 4 51 21 60 36
20 49 6 49 -55 0 -30 5 -55 10 -55 6 0 10 26 10 59 0 71 -16 91 -61 74 -16 -6
-29 -7 -29 -2 0 5 -4 9 -10 9 -6 0 -10 -30 -10 -70z"/>
<path d="M6600 6480 c-38 -38 -16 -120 32 -120 28 0 48 12 48 27 0 12 -3 13
-15 3 -32 -26 -74 15 -60 59 8 25 41 36 60 21 12 -10 15 -9 15 3 0 31 -51 36
-80 7z"/>
<path d="M6723 6493 c-25 -10 -12 -20 24 -19 28 1 38 -3 41 -16 2 -13 -3 -18
-18 -18 -32 0 -60 -18 -60 -39 0 -28 22 -40 68 -38 l42 1 0 52 c0 34 -5 58
-16 68 -15 15 -55 20 -81 9z m65 -90 c-4 -20 -35 -30 -50 -15 -15 15 0 32 28
32 19 0 25 -5 22 -17z"/>
<path d="M6860 6446 c0 -75 30 -103 81 -76 13 7 19 7 19 0 0 -5 5 -10 10 -10
6 0 10 30 10 70 0 54 -3 70 -14 70 -11 0 -16 -15 -18 -51 -6 -96 -68 -89 -68
8 0 24 -4 43 -10 43 -5 0 -10 -24 -10 -54z"/>
<path d="M7026 6485 c-23 -24 -20 -33 19 -57 42 -24 40 -44 -4 -41 -20 0 -31
-3 -28 -10 5 -15 32 -20 63 -13 35 9 30 56 -8 74 -39 18 -37 46 2 40 19 -3 29
-1 27 6 -6 18 -53 18 -71 1z"/>
<path d="M7156 6484 c-22 -22 -29 -55 -17 -87 11 -29 46 -43 86 -33 36 9 31
27 -5 20 -32 -7 -60 8 -60 32 0 8 16 14 48 16 41 3 47 6 44 23 -7 42 -66 60
-96 29z m72 -21 c2 -9 -8 -13 -32 -13 -34 0 -44 8 -29 24 11 11 56 2 61 -11z"/>
<path d="M7387 6489 c-38 -22 -41 -98 -4 -121 22 -14 67 -8 87 12 57 57 -13
149 -83 109z m62 -23 c31 -37 -9 -103 -46 -80 -37 23 -24 94 17 94 10 0 23 -6
29 -14z"/>
<path d="M7862 6484 c-32 -22 -31 -88 2 -109 27 -18 77 -17 83 1 2 7 -8 9 -28
6 -24 -3 -36 0 -46 14 -21 29 -16 34 37 34 43 0 50 3 50 19 0 45 -55 65 -98
35z m72 -19 c4 -12 -3 -15 -36 -15 -35 0 -39 2 -28 15 7 8 23 15 35 15 13 0
25 -7 29 -15z"/>
<path d="M8007 6493 c-15 -14 -6 -19 24 -15 20 3 34 0 40 -9 14 -23 10 -29
-17 -29 -36 0 -64 -17 -64 -39 0 -28 22 -40 68 -38 l42 1 0 56 c0 31 -5 61
-12 68 -13 13 -70 17 -81 5z m73 -81 c0 -14 -23 -32 -41 -32 -21 0 -33 16 -24
30 7 12 65 14 65 2z"/>
<path d="M118 6126 c-24 -18 -23 -25 2 -19 18 5 20 0 20 -51 0 -49 -2 -56 -20
-56 -11 0 -20 -4 -20 -10 0 -5 21 -10 46 -10 27 0 43 4 39 10 -3 6 -13 10 -21
10 -11 0 -14 16 -14 70 0 73 -3 78 -32 56z"/>
<path d="M241 6086 c-17 -29 -31 -56 -31 -60 0 -3 16 -6 35 -6 28 0 35 -4 35
-20 0 -11 5 -20 10 -20 6 0 10 9 10 19 0 11 6 22 13 25 10 5 10 7 0 12 -8 3
-13 25 -13 55 0 66 -20 64 -59 -5z m39 -11 c0 -31 -3 -35 -25 -35 l-24 0 20
35 c12 19 23 35 25 35 2 0 4 -16 4 -35z"/>
<path d="M366 6124 c-19 -19 -22 -114 -4 -132 18 -18 53 -15 71 6 22 24 23
105 1 126 -8 9 -24 16 -34 16 -10 0 -26 -7 -34 -16z m59 -64 c0 -52 -1 -55
-25 -55 -18 0 -26 7 -33 30 -12 44 6 87 36 83 20 -3 22 -9 22 -58z"/>
<path d="M496 6124 c-19 -19 -22 -114 -4 -132 18 -18 53 -15 71 6 22 24 23
105 1 126 -8 9 -24 16 -34 16 -10 0 -26 -7 -34 -16z m59 -64 c0 -52 -1 -55
-25 -55 -18 0 -26 7 -33 30 -12 44 6 87 36 83 20 -3 22 -9 22 -58z"/>
<path d="M626 6124 c-19 -19 -22 -114 -4 -132 18 -18 53 -15 71 6 22 24 23
105 1 126 -8 9 -24 16 -34 16 -10 0 -26 -7 -34 -16z m59 -64 c0 -52 -1 -55
-25 -55 -18 0 -26 7 -33 30 -12 44 6 87 36 83 20 -3 22 -9 22 -58z"/>
<path d="M118 5506 c-24 -18 -23 -25 2 -19 18 5 20 0 20 -51 0 -49 -2 -56 -20
-56 -11 0 -20 -4 -20 -10 0 -5 21 -10 46 -10 27 0 43 4 39 10 -3 6 -13 10 -21
10 -11 0 -14 16 -14 70 0 73 -3 78 -32 56z"/>
<path d="M233 5513 c-23 -9 -13 -18 19 -18 45 0 46 -22 3 -77 -19 -26 -35 -49
-35 -52 0 -3 23 -6 51 -6 31 0 48 4 44 10 -3 6 -20 10 -36 10 l-30 0 30 37
c33 39 39 71 19 91 -12 12 -43 15 -65 5z"/>
<path d="M366 5504 c-19 -19 -22 -114 -4 -132 18 -18 53 -15 71 6 22 24 23
105 1 126 -8 9 -24 16 -34 16 -10 0 -26 -7 -34 -16z m59 -64 c0 -52 -1 -55
-25 -55 -18 0 -26 7 -33 30 -12 44 6 87 36 83 20 -3 22 -9 22 -58z"/>
<path d="M496 5504 c-19 -19 -22 -114 -4 -132 18 -18 53 -15 71 6 22 24 23
105 1 126 -8 9 -24 16 -34 16 -10 0 -26 -7 -34 -16z m59 -64 c0 -52 -1 -55
-25 -55 -18 0 -26 7 -33 30 -12 44 6 87 36 83 20 -3 22 -9 22 -58z"/>
<path d="M626 5504 c-19 -19 -22 -114 -4 -132 18 -18 53 -15 71 6 22 24 23
105 1 126 -8 9 -24 16 -34 16 -10 0 -26 -7 -34 -16z m59 -64 c0 -52 -1 -55
-25 -55 -18 0 -26 7 -33 30 -12 44 6 87 36 83 20 -3 22 -9 22 -58z"/>
<path d="M118 4876 c-24 -18 -23 -25 2 -19 18 5 20 0 20 -51 0 -49 -2 -56 -20
-56 -11 0 -20 -4 -20 -10 0 -5 21 -10 46 -10 27 0 43 4 39 10 -3 6 -13 10 -21
10 -11 0 -14 16 -14 70 0 73 -3 78 -32 56z"/>
<path d="M236 4874 c-19 -19 -22 -114 -4 -132 18 -18 53 -15 71 6 22 24 23
105 1 126 -8 9 -24 16 -34 16 -10 0 -26 -7 -34 -16z m59 -64 c0 -52 -1 -55
-25 -55 -18 0 -26 7 -33 30 -12 44 6 87 36 83 20 -3 22 -9 22 -58z"/>
<path d="M366 4874 c-19 -19 -22 -114 -4 -132 18 -18 53 -15 71 6 22 24 23
105 1 126 -8 9 -24 16 -34 16 -10 0 -26 -7 -34 -16z m59 -64 c0 -52 -1 -55
-25 -55 -18 0 -26 7 -33 30 -12 44 6 87 36 83 20 -3 22 -9 22 -58z"/>
<path d="M496 4874 c-19 -19 -22 -114 -4 -132 18 -18 53 -15 71 6 22 24 23
105 1 126 -8 9 -24 16 -34 16 -10 0 -26 -7 -34 -16z m59 -64 c0 -52 -1 -55
-25 -55 -18 0 -26 7 -33 30 -12 44 6 87 36 83 20 -3 22 -9 22 -58z"/>
<path d="M626 4874 c-19 -19 -22 -114 -4 -132 18 -18 53 -15 71 6 22 24 23
105 1 126 -8 9 -24 16 -34 16 -10 0 -26 -7 -34 -16z m59 -64 c0 -52 -1 -55
-25 -55 -18 0 -26 7 -33 30 -12 44 6 87 36 83 20 -3 22 -9 22 -58z"/>
<path d="M230 4255 c-13 -16 -5 -55 12 -55 6 0 4 -8 -5 -18 -26 -28 -22 -60 9
-68 54 -14 97 34 59 66 -11 9 -13 16 -5 24 15 15 12 53 -6 60 -26 10 -51 7
-64 -9z m66 -16 c3 -6 -1 -18 -10 -27 -15 -15 -17 -15 -32 0 -19 19 -11 38 16
38 10 0 22 -5 26 -11z m-7 -68 c21 -13 5 -41 -24 -41 -18 0 -25 5 -25 18 0 31
21 41 49 23z"/>
<path d="M366 4254 c-19 -19 -22 -114 -4 -132 18 -18 53 -15 71 6 22 24 23
105 1 126 -8 9 -24 16 -34 16 -10 0 -26 -7 -34 -16z m59 -64 c0 -52 -1 -55
-25 -55 -18 0 -26 7 -33 30 -12 44 6 87 36 83 20 -3 22 -9 22 -58z"/>
<path d="M496 4254 c-19 -19 -22 -114 -4 -132 18 -18 53 -15 71 6 22 24 23
105 1 126 -8 9 -24 16 -34 16 -10 0 -26 -7 -34 -16z m59 -64 c0 -52 -1 -55
-25 -55 -18 0 -26 7 -33 30 -12 44 6 87 36 83 20 -3 22 -9 22 -58z"/>
<path d="M626 4254 c-19 -19 -22 -114 -4 -132 18 -18 53 -15 71 6 22 24 23
105 1 126 -8 9 -24 16 -34 16 -10 0 -26 -7 -34 -16z m59 -64 c0 -52 -1 -55
-25 -55 -18 0 -26 7 -33 30 -12 44 6 87 36 83 20 -3 22 -9 22 -58z"/>
<path d="M240 3630 c-25 -25 -28 -101 -4 -124 32 -32 84 -8 84 38 0 31 -24 50
-55 44 -15 -3 -25 -1 -25 6 0 19 22 36 47 36 13 0 23 5 23 10 0 18 -49 11 -70
-10z m55 -90 c0 -20 -5 -25 -25 -25 -20 0 -26 6 -28 28 -3 26 -1 28 25 25 22
-2 28 -8 28 -28z"/>
<path d="M366 3634 c-19 -19 -22 -114 -4 -132 18 -18 53 -15 71 6 22 24 23
105 1 126 -8 9 -24 16 -34 16 -10 0 -26 -7 -34 -16z m59 -64 c0 -52 -1 -55
-25 -55 -18 0 -26 7 -33 30 -12 44 6 87 36 83 20 -3 22 -9 22 -58z"/>
<path d="M496 3634 c-19 -19 -22 -114 -4 -132 18 -18 53 -15 71 6 22 24 23
105 1 126 -8 9 -24 16 -34 16 -10 0 -26 -7 -34 -16z m59 -64 c0 -52 -1 -55
-25 -55 -18 0 -26 7 -33 30 -12 44 6 87 36 83 20 -3 22 -9 22 -58z"/>
<path d="M626 3634 c-19 -19 -22 -114 -4 -132 18 -18 53 -15 71 6 22 24 23
105 1 126 -8 9 -24 16 -34 16 -10 0 -26 -7 -34 -16z m59 -64 c0 -52 -1 -55
-25 -55 -18 0 -26 7 -33 30 -12 44 6 87 36 83 20 -3 22 -9 22 -58z"/>
<path d="M241 2966 c-17 -29 -31 -56 -31 -60 0 -3 16 -6 35 -6 28 0 35 -4 35
-20 0 -11 5 -20 10 -20 6 0 10 9 10 19 0 11 6 22 13 25 10 5 10 7 0 12 -8 3
-13 25 -13 55 0 66 -20 64 -59 -5z m39 -11 c0 -31 -3 -35 -25 -35 l-24 0 20
35 c12 19 23 35 25 35 2 0 4 -16 4 -35z"/>
<path d="M366 3004 c-19 -19 -22 -114 -4 -132 18 -18 53 -15 71 6 22 24 23
105 1 126 -8 9 -24 16 -34 16 -10 0 -26 -7 -34 -16z m59 -64 c0 -52 -1 -55
-25 -55 -18 0 -26 7 -33 30 -12 44 6 87 36 83 20 -3 22 -9 22 -58z"/>
<path d="M496 3004 c-19 -19 -22 -114 -4 -132 18 -18 53 -15 71 6 22 24 23
105 1 126 -8 9 -24 16 -34 16 -10 0 -26 -7 -34 -16z m59 -64 c0 -52 -1 -55
-25 -55 -18 0 -26 7 -33 30 -12 44 6 87 36 83 20 -3 22 -9 22 -58z"/>
<path d="M626 3004 c-19 -19 -22 -114 -4 -132 18 -18 53 -15 71 6 22 24 23
105 1 126 -8 9 -24 16 -34 16 -10 0 -26 -7 -34 -16z m59 -64 c0 -52 -1 -55
-25 -55 -18 0 -26 7 -33 30 -12 44 6 87 36 83 20 -3 22 -9 22 -58z"/>
<path d="M233 2393 c-23 -9 -13 -18 19 -18 45 0 46 -22 3 -77 -19 -26 -35 -49
-35 -52 0 -3 23 -6 51 -6 31 0 48 4 44 10 -3 6 -20 10 -36 10 l-30 0 30 37
c33 39 39 71 19 91 -12 12 -43 15 -65 5z"/>
<path d="M366 2384 c-19 -19 -22 -114 -4 -132 18 -18 53 -15 71 6 22 24 23
105 1 126 -8 9 -24 16 -34 16 -10 0 -26 -7 -34 -16z m59 -64 c0 -52 -1 -55
-25 -55 -18 0 -26 7 -33 30 -12 44 6 87 36 83 20 -3 22 -9 22 -58z"/>
<path d="M496 2384 c-19 -19 -22 -114 -4 -132 18 -18 53 -15 71 6 22 24 23
105 1 126 -8 9 -24 16 -34 16 -10 0 -26 -7 -34 -16z m59 -64 c0 -52 -1 -55
-25 -55 -18 0 -26 7 -33 30 -12 44 6 87 36 83 20 -3 22 -9 22 -58z"/>
<path d="M626 2384 c-19 -19 -22 -114 -4 -132 18 -18 53 -15 71 6 22 24 23
105 1 126 -8 9 -24 16 -34 16 -10 0 -26 -7 -34 -16z m59 -64 c0 -52 -1 -55
-25 -55 -18 0 -26 7 -33 30 -12 44 6 87 36 83 20 -3 22 -9 22 -58z"/>
<path d="M616 1748 c-23 -32 -21 -101 3 -122 26 -23 62 -17 79 14 14 28 10 93
-8 115 -18 22 -57 18 -74 -7z m68 -30 c18 -52 -29 -118 -55 -76 -10 15 -12 69
-3 93 10 25 47 14 58 -17z"/>
<path d="M4067 1422 c-26 -29 -20 -61 17 -98 37 -37 66 -43 90 -18 26 25 19
54 -23 95 -43 43 -60 48 -84 21z m72 -36 c53 -55 20 -106 -36 -54 -37 34 -47
57 -32 74 18 21 32 17 68 -20z"/>
<path d="M4677 1422 c-26 -29 -20 -61 17 -98 37 -37 66 -43 90 -18 26 25 19
54 -23 95 -43 43 -60 48 -84 21z m72 -36 c53 -55 20 -106 -36 -54 -37 34 -47
57 -32 74 18 21 32 17 68 -20z"/>
<path d="M5292 1424 c-32 -22 -28 -58 13 -99 37 -37 54 -42 86 -25 39 21 14
97 -42 126 -34 17 -30 17 -57 -2z m75 -39 c36 -36 38 -51 11 -69 -32 -20 -99
50 -85 88 10 25 36 19 74 -19z"/>
<path d="M5902 1424 c-32 -22 -28 -58 13 -99 37 -37 54 -42 86 -25 39 21 14
97 -42 126 -34 17 -30 17 -57 -2z m75 -39 c36 -36 38 -51 11 -69 -32 -20 -99
50 -85 88 10 25 36 19 74 -19z"/>
<path d="M6512 1424 c-32 -22 -28 -58 13 -99 37 -37 54 -42 86 -25 39 21 14
97 -42 126 -34 17 -30 17 -57 -2z m75 -39 c36 -36 38 -51 11 -69 -32 -20 -99
50 -85 88 10 25 36 19 74 -19z"/>
<path d="M7120 1420 c-28 -28 -25 -44 16 -90 42 -47 76 -52 99 -16 15 22 15
27 0 56 -14 27 -67 70 -87 70 -5 0 -17 -9 -28 -20z m77 -35 c37 -37 41 -67 9
-73 -19 -4 -86 53 -86 73 0 13 20 35 33 35 5 0 25 -16 44 -35z"/>
<path d="M7730 1420 c-28 -28 -25 -44 16 -90 42 -47 76 -52 99 -16 15 22 15
27 0 56 -14 27 -67 70 -87 70 -5 0 -17 -9 -28 -20z m77 -35 c37 -37 41 -67 9
-73 -19 -4 -86 53 -86 73 0 13 20 35 33 35 5 0 25 -16 44 -35z"/>
<path d="M8340 1420 c-28 -28 -25 -44 16 -90 42 -47 76 -52 99 -16 15 22 15
27 0 56 -14 27 -67 70 -87 70 -5 0 -17 -9 -28 -20z m77 -35 c37 -37 41 -67 9
-73 -19 -4 -86 53 -86 73 0 13 20 35 33 35 5 0 25 -16 44 -35z"/>
<path d="M8950 1420 c-28 -28 -25 -44 16 -90 42 -47 76 -52 99 -16 15 22 15
27 0 56 -14 27 -67 70 -87 70 -5 0 -17 -9 -28 -20z m77 -35 c37 -37 41 -67 9
-73 -19 -4 -86 53 -86 73 0 13 20 35 33 35 5 0 25 -16 44 -35z"/>
<path d="M9566 1424 c-28 -27 -20 -69 19 -103 41 -36 65 -39 90 -11 24 26 14
60 -30 99 -40 35 -57 38 -79 15z m69 -35 c24 -21 35 -39 33 -53 -4 -30 -36
-32 -65 -4 -37 34 -47 57 -32 74 16 20 24 18 64 -17z"/>
<path d="M10176 1424 c-28 -27 -20 -69 19 -103 41 -36 65 -39 90 -11 24 26 14
60 -30 99 -40 35 -57 38 -79 15z m69 -35 c24 -21 35 -39 33 -53 -4 -30 -36
-32 -65 -4 -37 34 -47 57 -32 74 16 20 24 18 64 -17z"/>
<path d="M10786 1424 c-28 -27 -20 -69 19 -103 41 -36 65 -39 90 -11 24 26 14
60 -30 99 -40 35 -57 38 -79 15z m69 -35 c24 -21 35 -39 33 -53 -4 -30 -36
-32 -65 -4 -37 34 -47 57 -32 74 16 20 24 18 64 -17z"/>
<path d="M11396 1424 c-28 -27 -20 -69 19 -103 41 -36 65 -39 90 -11 24 26 14
60 -30 99 -40 35 -57 38 -79 15z m69 -35 c24 -21 35 -39 33 -53 -4 -30 -36
-32 -65 -4 -37 34 -47 57 -32 74 16 20 24 18 64 -17z"/>
<path d="M12007 1422 c-26 -29 -20 -61 17 -98 37 -37 66 -43 90 -18 26 25 19
54 -23 95 -43 43 -60 48 -84 21z m72 -36 c53 -55 20 -106 -36 -54 -37 34 -47
57 -32 74 18 21 32 17 68 -20z"/>
<path d="M12617 1422 c-26 -29 -20 -61 17 -98 37 -37 66 -43 90 -18 26 25 19
54 -23 95 -43 43 -60 48 -84 21z m72 -36 c53 -55 20 -106 -36 -54 -37 34 -47
57 -32 74 18 21 32 17 68 -20z"/>
<path d="M13227 1422 c-26 -29 -20 -61 17 -98 37 -37 66 -43 90 -18 26 25 19
54 -23 95 -43 43 -60 48 -84 21z m72 -36 c53 -55 20 -106 -36 -54 -37 34 -47
57 -32 74 18 21 32 17 68 -20z"/>
<path d="M1004 1405 c-20 -31 -12 -56 32 -94 41 -36 57 -38 85 -10 26 26 18
54 -27 97 -40 38 -68 41 -90 7z m85 -31 c34 -38 35 -51 8 -68 -31 -20 -106 72
-80 97 15 16 43 5 72 -29z"/>
<path d="M1622 1418 c-22 -22 -13 -63 21 -96 36 -35 67 -41 91 -16 24 24 19
49 -18 88 -34 37 -72 46 -94 24z m75 -33 c37 -37 41 -67 9 -73 -19 -4 -86 53
-86 73 0 13 20 35 33 35 5 0 25 -16 44 -35z"/>
<path d="M2232 1418 c-22 -22 -13 -63 21 -96 36 -35 67 -41 91 -16 24 24 19
49 -18 88 -34 37 -72 46 -94 24z m75 -33 c37 -37 41 -67 9 -73 -19 -4 -86 53
-86 73 0 13 20 35 33 35 5 0 25 -16 44 -35z"/>
<path d="M2842 1418 c-22 -22 -13 -63 21 -96 36 -35 67 -41 91 -16 24 24 19
49 -18 88 -34 37 -72 46 -94 24z m75 -33 c37 -37 41 -67 9 -73 -19 -4 -86 53
-86 73 0 13 20 35 33 35 5 0 25 -16 44 -35z"/>
<path d="M3452 1418 c-22 -22 -13 -63 21 -96 36 -35 67 -41 91 -16 24 24 19
49 -18 88 -34 37 -72 46 -94 24z m75 -33 c37 -37 41 -67 9 -73 -19 -4 -86 53
-86 73 0 13 20 35 33 35 5 0 25 -16 44 -35z"/>
<path d="M922 1328 c-22 -22 -13 -59 22 -94 39 -39 79 -45 96 -15 16 31 12 48
-21 86 -33 37 -73 47 -97 23z m86 -41 c46 -49 4 -91 -45 -45 -38 36 -45 54
-27 72 18 18 36 11 72 -27z"/>
<path d="M1527 1322 c-25 -27 -21 -46 17 -86 39 -42 77 -47 100 -15 18 26 12
44 -27 87 -35 36 -66 41 -90 14z m80 -34 c37 -35 40 -50 18 -68 -12 -10 -20
-9 -40 4 -52 34 -71 96 -28 96 9 0 32 -14 50 -32z"/>
<path d="M2137 1322 c-25 -27 -21 -46 17 -86 39 -42 77 -47 100 -15 18 26 12
44 -27 87 -35 36 -66 41 -90 14z m80 -34 c37 -35 40 -50 18 -68 -12 -10 -20
-9 -40 4 -52 34 -71 96 -28 96 9 0 32 -14 50 -32z"/>
<path d="M2747 1322 c-25 -27 -21 -46 17 -86 39 -42 77 -47 100 -15 18 26 12
44 -27 87 -35 36 -66 41 -90 14z m80 -34 c37 -35 40 -50 18 -68 -12 -10 -20
-9 -40 4 -52 34 -71 96 -28 96 9 0 32 -14 50 -32z"/>
<path d="M3362 1328 c-22 -22 -14 -68 17 -99 36 -36 85 -40 101 -8 31 57 -74
151 -118 107z m79 -37 c32 -33 36 -52 14 -71 -18 -15 -55 6 -81 45 -36 55 17
75 67 26z"/>
<path d="M3972 1328 c-22 -22 -13 -63 21 -96 36 -35 67 -41 91 -16 24 24 19
49 -18 88 -34 37 -72 46 -94 24z m75 -33 c37 -37 41 -67 9 -73 -19 -4 -86 53
-86 73 0 13 20 35 33 35 5 0 25 -16 44 -35z"/>
<path d="M4582 1328 c-22 -22 -13 -59 22 -94 39 -39 79 -45 96 -15 16 31 12
48 -21 86 -33 37 -73 47 -97 23z m86 -41 c46 -49 4 -91 -45 -45 -38 36 -45 54
-27 72 18 18 36 11 72 -27z"/>
<path d="M5192 1328 c-22 -22 -13 -59 22 -94 39 -39 79 -45 96 -15 16 31 12
48 -21 86 -33 37 -73 47 -97 23z m86 -41 c46 -49 4 -91 -45 -45 -38 36 -45 54
-27 72 18 18 36 11 72 -27z"/>
<path d="M5802 1328 c-22 -22 -13 -59 22 -94 39 -39 79 -45 96 -15 16 31 12
48 -21 86 -33 37 -73 47 -97 23z m86 -41 c46 -49 4 -91 -45 -45 -38 36 -45 54
-27 72 18 18 36 11 72 -27z"/>
<path d="M6412 1328 c-22 -22 -13 -59 22 -94 39 -39 79 -45 96 -15 16 31 12
48 -21 86 -33 37 -73 47 -97 23z m86 -41 c46 -49 4 -91 -45 -45 -38 36 -45 54
-27 72 18 18 36 11 72 -27z"/>
<path d="M7020 1321 c-5 -11 -10 -27 -10 -36 0 -26 64 -85 92 -85 57 0 65 59
15 108 -38 37 -81 43 -97 13z m94 -41 c47 -56 -5 -86 -57 -32 -29 30 -34 51
-15 70 14 14 38 2 72 -38z"/>
<path d="M7630 1321 c-5 -11 -10 -27 -10 -36 0 -26 64 -85 92 -85 57 0 65 59
15 108 -38 37 -81 43 -97 13z m94 -41 c47 -56 -5 -86 -57 -32 -29 30 -34 51
-15 70 14 14 38 2 72 -38z"/>
<path d="M8240 1321 c-5 -11 -10 -27 -10 -36 0 -26 64 -85 92 -85 57 0 65 59
15 108 -38 37 -81 43 -97 13z m94 -41 c47 -56 -5 -86 -57 -32 -29 30 -34 51
-15 70 14 14 38 2 72 -38z"/>
<path d="M8856 1324 c-9 -8 -16 -20 -16 -25 0 -21 30 -67 54 -83 36 -23 63
-20 82 9 15 23 15 27 -1 53 -37 58 -87 78 -119 46z m79 -28 c38 -37 44 -68 12
-74 -43 -9 -102 62 -77 93 18 21 24 19 65 -19z"/>
<path d="M9466 1324 c-9 -8 -16 -20 -16 -25 0 -21 30 -67 54 -83 36 -23 63
-20 82 9 15 23 15 27 -1 53 -37 58 -87 78 -119 46z m79 -28 c38 -37 44 -68 12
-74 -43 -9 -102 62 -77 93 18 21 24 19 65 -19z"/>
<path d="M10076 1324 c-9 -8 -16 -20 -16 -25 0 -21 30 -67 54 -83 36 -23 63
-20 82 9 15 23 15 27 -1 53 -37 58 -87 78 -119 46z m79 -28 c38 -37 44 -68 12
-74 -43 -9 -102 62 -77 93 18 21 24 19 65 -19z"/>
<path d="M10686 1324 c-9 -8 -16 -20 -16 -25 0 -21 30 -67 54 -83 36 -23 63
-20 82 9 15 23 15 27 -1 53 -37 58 -87 78 -119 46z m79 -28 c38 -37 44 -68 12
-74 -43 -9 -102 62 -77 93 18 21 24 19 65 -19z"/>
<path d="M11302 1328 c-22 -22 -13 -63 21 -96 36 -35 67 -41 91 -16 24 24 19
49 -18 88 -34 37 -72 46 -94 24z m75 -33 c37 -37 41 -67 9 -73 -19 -4 -86 53
-86 73 0 13 20 35 33 35 5 0 25 -16 44 -35z"/>
<path d="M11912 1328 c-22 -22 -13 -63 21 -96 36 -35 67 -41 91 -16 24 24 19
49 -18 88 -34 37 -72 46 -94 24z m75 -33 c37 -37 41 -67 9 -73 -19 -4 -86 53
-86 73 0 13 20 35 33 35 5 0 25 -16 44 -35z"/>
<path d="M12522 1328 c-22 -22 -13 -63 21 -96 36 -35 67 -41 91 -16 24 24 19
49 -18 88 -34 37 -72 46 -94 24z m75 -33 c37 -37 41 -67 9 -73 -19 -4 -86 53
-86 73 0 13 20 35 33 35 5 0 25 -16 44 -35z"/>
<path d="M13132 1328 c-22 -22 -13 -63 21 -96 36 -35 67 -41 91 -16 24 24 19
49 -18 88 -34 37 -72 46 -94 24z m75 -33 c37 -37 41 -67 9 -73 -19 -4 -86 53
-86 73 0 13 20 35 33 35 5 0 25 -16 44 -35z"/>
<path d="M5710 1235 c-40 -42 -32 -60 9 -21 l29 28 23 -66 c21 -59 39 -84 39
-56 0 15 -51 140 -60 145 -4 2 -22 -11 -40 -30z"/>
<path d="M8767 1242 c-37 -39 -35 -64 2 -28 32 31 32 31 61 -47 12 -31 26 -57
31 -57 12 0 7 16 -26 97 -12 31 -27 59 -32 60 -5 2 -21 -9 -36 -25z"/>
<path d="M11822 1237 c-40 -42 -42 -61 -2 -22 16 16 32 27 34 24 2 -2 14 -32
26 -66 13 -35 27 -63 31 -63 5 0 9 4 9 8 0 12 -50 136 -59 145 -4 4 -21 -8
-39 -26z"/>
<path d="M2655 1230 c-33 -35 -26 -54 8 -22 13 12 26 22 29 22 3 0 16 -29 29
-65 12 -36 26 -65 31 -65 12 0 10 10 -19 88 -15 39 -32 72 -38 72 -6 0 -24
-13 -40 -30z"/>
<path d="M5097 1232 l-27 -28 28 -27 28 -27 21 22 c23 23 49 19 60 -8 4 -12
-3 -25 -21 -41 -15 -12 -21 -23 -14 -23 19 0 33 12 47 38 10 19 10 28 -4 48
-18 28 -41 31 -67 8 -14 -14 -20 -14 -33 -4 -13 11 -13 15 -2 29 40 46 26 57
-16 13z"/>
<path d="M8150 1235 l-23 -25 23 -25 c28 -29 37 -31 62 -9 14 14 20 14 33 4
22 -18 18 -47 -7 -61 -15 -8 -18 -14 -10 -17 19 -6 52 28 52 54 0 24 -24 54
-43 54 -7 0 -23 -7 -35 -16 -18 -13 -26 -13 -38 -3 -13 10 -12 15 6 34 11 12
20 24 20 28 0 14 -17 6 -40 -18z"/>
<path d="M11207 1232 l-27 -28 28 -27 c29 -27 29 -27 47 -7 23 25 41 25 55 0
9 -17 6 -25 -14 -45 -14 -14 -20 -25 -12 -25 21 0 46 34 46 64 0 38 -38 54
-73 31 -42 -27 -64 0 -30 37 27 30 9 30 -20 0z"/>
<path d="M1434 1225 c-14 -14 -22 -30 -18 -37 5 -7 10 -4 15 10 9 24 44 30 52
9 3 -8 1 -20 -4 -28 -15 -24 -10 -31 12 -15 12 8 28 12 35 9 21 -8 17 -41 -6
-55 -20 -13 -27 -28 -12 -28 18 0 52 42 52 65 0 25 -26 46 -47 38 -8 -3 -13 4
-13 16 0 11 -9 25 -20 31 -17 9 -25 6 -46 -15z"/>
<path d="M2040 1225 l-24 -26 27 -26 c25 -26 27 -26 46 -9 11 10 28 16 38 14
27 -5 28 -43 2 -62 -28 -19 -19 -32 10 -14 26 16 38 55 24 77 -14 22 -51 26
-72 7 -16 -15 -19 -15 -31 -1 -10 13 -10 19 4 33 34 38 11 44 -24 7z"/>
<path d="M3272 1234 c-12 -8 -22 -26 -22 -39 0 -22 32 -55 53 -55 4 0 19 12
32 26 l24 26 7 -26 c4 -18 1 -33 -10 -45 -22 -24 -20 -34 4 -21 46 25 24 111
-35 138 -32 15 -26 15 -53 -4z m52 -17 c19 -14 13 -42 -11 -51 -19 -8 -43 11
-43 34 0 32 23 39 54 17z"/>
<path d="M4487 1232 c-10 -10 -17 -25 -17 -33 0 -9 7 -5 19 10 12 16 24 22 35
18 19 -7 21 -38 4 -55 -9 -9 -9 -12 -1 -12 7 0 15 5 18 10 10 16 45 12 52 -7
4 -11 -3 -24 -23 -40 -22 -17 -25 -23 -12 -23 18 0 58 37 58 53 0 20 -22 47
-39 47 -10 0 -23 11 -29 25 -14 29 -42 32 -65 7z"/>
<path d="M6322 1238 c-7 -7 -12 -24 -12 -38 0 -14 5 -31 12 -38 19 -19 56 -14
70 8 16 26 25 25 33 -1 5 -14 0 -28 -16 -45 -18 -20 -20 -24 -6 -24 9 0 21 9
27 19 18 35 11 68 -21 100 -32 32 -66 40 -87 19z m56 -17 c20 -12 10 -45 -14
-49 -25 -4 -49 22 -40 43 6 16 33 20 54 6z"/>
<path d="M6935 1237 c-3 -9 -7 -24 -10 -32 -2 -8 0 -17 5 -20 6 -4 10 1 10 9
0 25 13 19 53 -22 29 -29 34 -41 25 -50 -6 -6 -9 -15 -5 -19 10 -9 57 37 57
56 0 12 -3 12 -12 3 -10 -10 -24 -1 -65 40 -42 41 -53 48 -58 35z"/>
<path d="M7536 1228 c-22 -31 -20 -48 3 -19 12 16 24 22 35 18 19 -7 21 -38 4
-55 -9 -9 -9 -12 -1 -12 7 0 15 5 18 10 10 16 45 12 52 -7 4 -10 -3 -24 -21
-40 -19 -16 -22 -23 -12 -23 22 0 56 36 56 58 0 22 -19 42 -40 42 -8 0 -20 10
-25 23 -14 31 -49 34 -69 5z"/>
<path d="M9372 1238 c-28 -28 -2 -88 38 -88 10 0 26 10 35 23 13 19 17 20 25
7 15 -23 12 -38 -10 -60 -15 -15 -17 -20 -5 -20 8 0 22 11 31 25 14 21 14 30
4 55 -23 57 -88 88 -118 58z m66 -20 c15 -15 -3 -48 -28 -48 -21 0 -40 27 -33
48 6 15 45 16 61 0z"/>
<path d="M10596 1234 c-9 -8 -16 -23 -16 -32 0 -13 3 -12 16 6 8 12 21 22 28
22 19 0 29 -30 15 -47 -17 -19 -5 -27 20 -11 17 11 23 10 37 -4 16 -15 15 -18
-11 -42 -19 -17 -23 -26 -13 -26 25 0 50 36 46 67 -2 22 -9 29 -30 31 -19 2
-28 9 -28 22 0 16 -18 30 -40 30 -5 0 -16 -7 -24 -16z"/>
<path d="M12426 1234 c-30 -30 -9 -84 33 -84 10 0 26 9 36 20 10 11 22 17 26
14 17 -10 9 -53 -13 -68 -16 -12 -18 -16 -7 -16 22 0 49 32 49 59 0 28 -61 91
-88 91 -11 0 -28 -7 -36 -16z m64 -19 c10 -12 10 -18 0 -30 -27 -32 -71 -8
-56 30 3 8 14 15 24 15 11 0 25 -7 32 -15z"/>
<path d="M826 1218 c-9 -36 -7 -45 8 -26 12 16 16 14 51 -22 32 -33 36 -42 25
-55 -21 -26 13 -19 38 8 26 28 31 57 7 37 -14 -11 -23 -6 -63 33 -26 26 -50
47 -54 47 -3 0 -8 -10 -12 -22z"/>
<path d="M3876 1214 c-9 -33 1 -45 12 -15 7 20 10 19 51 -23 26 -27 39 -46 32
-50 -6 -4 -11 -12 -11 -18 0 -7 14 1 30 17 29 28 43 58 17 37 -10 -9 -24 -1
-57 33 -51 52 -65 55 -74 19z"/>
<path d="M9987 1233 c-4 -3 -6 -18 -6 -32 1 -17 3 -20 6 -8 6 25 14 22 56 -21
29 -29 34 -41 25 -50 -6 -6 -8 -15 -5 -19 4 -4 22 7 39 25 30 30 34 58 5 34
-10 -9 -23 -1 -57 33 -45 46 -52 50 -63 38z"/>
<path d="M13036 1214 c-9 -33 1 -45 12 -15 7 20 10 19 51 -23 26 -27 39 -46
32 -50 -6 -4 -11 -12 -11 -18 0 -7 14 1 30 17 29 28 43 58 17 37 -10 -9 -24
-1 -57 33 -51 52 -65 55 -74 19z"/>
<path d="M6837 1142 c-10 -10 -17 -25 -17 -32 0 -9 7 -6 20 8 36 38 52 21 68
-77 l7 -44 33 28 c17 15 32 34 32 43 0 12 -8 8 -30 -13 l-30 -29 0 47 c0 72
-46 110 -83 69z"/>
<path d="M7447 1142 c-10 -10 -17 -25 -17 -32 0 -9 7 -6 20 8 36 38 52 21 68
-77 l7 -44 33 28 c17 15 32 34 32 43 0 12 -8 8 -30 -13 l-30 -29 0 47 c0 72
-46 110 -83 69z"/>
<path d="M8060 1140 c-19 -19 -27 -40 -14 -40 3 0 14 10 24 23 18 21 20 21 36
5 11 -11 19 -38 22 -72 2 -31 8 -56 11 -56 4 0 22 15 39 33 39 40 30 58 -10
20 l-28 -27 0 45 c0 47 -21 89 -46 89 -8 0 -23 -9 -34 -20z"/>
<path d="M8670 1140 c-19 -19 -27 -40 -14 -40 3 0 14 10 24 23 18 21 20 21 36
5 11 -11 19 -38 22 -72 2 -31 8 -56 11 -56 4 0 22 15 39 33 39 40 30 58 -10
20 l-28 -27 0 45 c0 47 -21 89 -46 89 -8 0 -23 -9 -34 -20z"/>
<path d="M9280 1140 c-19 -19 -27 -40 -14 -40 3 0 14 10 24 23 18 21 20 21 36
5 11 -11 19 -38 22 -72 2 -31 8 -56 11 -56 4 0 22 15 39 33 39 40 30 58 -10
20 l-28 -27 0 45 c0 47 -21 89 -46 89 -8 0 -23 -9 -34 -20z"/>
<path d="M9904 1152 c-14 -9 -37 -52 -28 -52 3 0 14 10 24 23 18 21 20 21 36
5 14 -14 15 -20 4 -33 -16 -20 -5 -32 15 -15 8 7 22 10 30 6 23 -8 18 -44 -7
-57 -15 -8 -18 -14 -10 -17 19 -6 52 28 52 53 0 27 -24 49 -45 41 -10 -3 -15
1 -15 12 0 32 -31 51 -56 34z"/>
<path d="M10514 1152 c-14 -9 -37 -52 -28 -52 3 0 14 10 24 23 18 21 20 21 36
5 14 -14 15 -20 4 -33 -16 -20 -5 -32 15 -15 8 7 22 10 30 6 23 -8 18 -44 -7
-57 -15 -8 -18 -14 -10 -17 19 -6 52 28 52 53 0 27 -24 49 -45 41 -10 -3 -15
1 -15 12 0 32 -31 51 -56 34z"/>
<path d="M11124 1152 c-14 -9 -37 -52 -28 -52 3 0 14 10 24 23 18 21 20 21 36
5 14 -14 15 -20 4 -33 -16 -20 -5 -32 15 -15 8 7 22 10 30 6 23 -8 18 -44 -7
-57 -15 -8 -18 -14 -10 -17 19 -6 52 28 52 53 0 27 -24 49 -45 41 -10 -3 -15
1 -15 12 0 32 -31 51 -56 34z"/>
<path d="M11734 1152 c-14 -9 -37 -52 -28 -52 3 0 14 10 24 23 18 21 20 21 36
5 14 -14 15 -20 4 -33 -16 -20 -5 -32 15 -15 8 7 22 10 30 6 23 -8 18 -44 -7
-57 -15 -8 -18 -14 -10 -17 19 -6 52 28 52 53 0 27 -24 49 -45 41 -10 -3 -15
1 -15 12 0 32 -31 51 -56 34z"/>
<path d="M12337 1142 c-10 -10 -17 -27 -16 -38 0 -17 1 -17 9 2 12 31 30 39
47 21 12 -12 13 -19 3 -37 -14 -26 -8 -36 10 -15 16 19 34 19 51 -1 11 -14 10
-20 -14 -40 -18 -15 -23 -24 -13 -24 22 0 46 28 46 54 0 28 -24 50 -45 42 -10
-3 -15 1 -15 12 0 20 -18 42 -35 42 -7 0 -19 -8 -28 -18z"/>
<path d="M12958 1154 c-6 -5 19 -110 29 -127 3 -5 18 3 33 18 18 17 30 23 34
16 4 -6 12 -11 18 -11 7 0 6 5 -2 15 -6 8 -9 19 -5 25 3 5 -2 10 -13 10 -10 0
-31 14 -47 30 -29 30 -37 35 -47 24z m62 -88 c-18 -23 -27 -20 -34 12 -4 15
-9 36 -12 47 -5 16 1 13 27 -12 27 -27 30 -34 19 -47z"/>
<path d="M3786 1134 c-3 -9 -6 -23 -6 -32 0 -14 2 -14 13 1 11 16 16 14 51
-22 33 -34 37 -42 26 -56 -22 -27 5 -16 33 13 29 30 37 53 12 32 -14 -11 -23
-6 -63 33 -53 52 -57 54 -66 31z"/>
<path d="M4396 1134 c-3 -9 -6 -23 -6 -32 0 -14 2 -14 13 1 11 16 16 14 51
-22 33 -34 37 -42 26 -56 -22 -27 5 -16 33 13 29 30 37 53 12 32 -14 -11 -23
-6 -63 33 -53 52 -57 54 -66 31z"/>
<path d="M5006 1134 c-3 -9 -6 -23 -6 -32 0 -14 2 -14 13 1 11 16 16 14 51
-22 33 -34 37 -42 26 -56 -22 -27 5 -16 33 13 29 30 37 53 12 32 -14 -11 -23
-6 -63 33 -53 52 -57 54 -66 31z"/>
<path d="M5616 1128 c-9 -36 -7 -45 8 -26 12 16 16 14 51 -22 32 -33 36 -42
25 -55 -21 -26 13 -19 38 8 26 28 31 57 7 37 -14 -11 -23 -6 -63 33 -26 26
-50 47 -54 47 -3 0 -8 -10 -12 -22z"/>
<path d="M6226 1128 c-9 -36 -7 -45 8 -26 12 16 16 14 51 -22 32 -33 36 -42
25 -55 -21 -26 13 -19 38 8 26 28 31 57 7 37 -14 -11 -23 -6 -63 33 -26 26
-50 47 -54 47 -3 0 -8 -10 -12 -22z"/>
<path d="M1427 1102 c-10 -10 -14 -22 -10 -25 7 -8 43 21 43 35 0 14 -16 9
-33 -10z"/>
<path d="M2037 1102 c-10 -10 -14 -22 -10 -25 7 -8 43 21 43 35 0 14 -16 9
-33 -10z"/>
<path d="M2655 1100 c-10 -11 -16 -22 -13 -25 3 -3 13 4 23 15 10 11 16 22 13
25 -3 3 -13 -4 -23 -15z"/>
<path d="M3265 1100 c-10 -11 -16 -22 -13 -25 3 -3 13 4 23 15 10 11 16 22 13
25 -3 3 -13 -4 -23 -15z"/>
<path d="M810 1095 c-7 -9 -10 -18 -7 -22 8 -7 37 15 37 28 0 14 -16 11 -30
-6z"/>
<path d="M685 1087 c-3 -9 -7 -24 -10 -32 -2 -8 0 -17 5 -20 6 -4 10 1 10 9 0
25 13 19 53 -22 29 -29 34 -41 25 -50 -6 -6 -9 -15 -5 -19 10 -9 57 37 57 56
0 12 -3 12 -12 3 -10 -10 -24 -1 -65 40 -42 41 -53 48 -58 35z"/>
<path d="M1295 1087 c-3 -9 -7 -24 -10 -32 -2 -8 0 -15 5 -15 6 0 10 8 10 17
0 12 13 4 45 -27 34 -34 42 -47 33 -57 -6 -7 -9 -16 -6 -18 2 -3 20 11 39 31
30 33 32 36 10 29 -19 -6 -32 1 -72 41 -39 38 -49 44 -54 31z"/>
<path d="M1907 1093 c-4 -3 -6 -18 -6 -32 1 -17 3 -20 6 -8 6 25 14 22 58 -23
32 -33 36 -41 25 -55 -24 -28 6 -15 36 16 24 26 26 30 9 25 -16 -5 -32 5 -65
39 -45 46 -52 50 -63 38z"/>
<path d="M2517 1093 c-4 -3 -6 -18 -6 -32 1 -17 3 -20 6 -8 6 25 14 22 58 -23
32 -33 36 -41 25 -55 -24 -28 6 -15 36 16 24 26 26 30 9 25 -16 -5 -32 5 -65
39 -45 46 -52 50 -63 38z"/>
<path d="M3127 1093 c-4 -3 -6 -18 -6 -32 1 -17 3 -20 6 -8 6 25 14 22 58 -23
32 -33 36 -41 25 -55 -24 -28 6 -15 36 16 24 26 26 30 9 25 -16 -5 -32 5 -65
39 -45 46 -52 50 -63 38z"/>
<path d="M3780 1015 c-7 -9 -10 -18 -7 -22 8 -7 37 15 37 28 0 14 -16 11 -30
-6z"/>
<path d="M4390 1015 c-7 -9 -10 -18 -7 -22 8 -7 37 15 37 28 0 14 -16 11 -30
-6z"/>
<path d="M5005 1010 c-10 -11 -13 -20 -8 -20 13 0 38 29 31 35 -3 3 -13 -4
-23 -15z"/>
<path d="M5615 1010 c-10 -11 -13 -20 -8 -20 13 0 38 29 31 35 -3 3 -13 -4
-23 -15z"/>
<path d="M6225 1010 c-10 -11 -13 -20 -8 -20 13 0 38 29 31 35 -3 3 -13 -4
-23 -15z"/>
<path d="M6835 1010 c-10 -11 -13 -20 -8 -20 13 0 38 29 31 35 -3 3 -13 -4
-23 -15z"/>
<path d="M7445 1010 c-10 -11 -14 -20 -8 -20 5 0 18 9 28 20 10 11 14 20 8 20
-5 0 -18 -9 -28 -20z"/>
<path d="M8055 1010 c-10 -11 -14 -20 -8 -20 5 0 18 9 28 20 10 11 14 20 8 20
-5 0 -18 -9 -28 -20z"/>
<path d="M8665 1010 c-10 -11 -14 -20 -8 -20 5 0 18 9 28 20 10 11 14 20 8 20
-5 0 -18 -9 -28 -20z"/>
<path d="M9275 1010 c-10 -11 -14 -20 -8 -20 5 0 18 9 28 20 10 11 14 20 8 20
-5 0 -18 -9 -28 -20z"/>
<path d="M9885 1010 c-10 -11 -14 -20 -8 -20 5 0 18 9 28 20 10 11 14 20 8 20
-5 0 -18 -9 -28 -20z"/>
<path d="M10495 1010 c-10 -11 -14 -20 -8 -20 5 0 18 9 28 20 10 11 14 20 8
20 -5 0 -18 -9 -28 -20z"/>
<path d="M11105 1010 c-10 -11 -14 -20 -8 -20 5 0 18 9 28 20 10 11 14 20 8
20 -5 0 -18 -9 -28 -20z"/>
<path d="M11720 1015 c-7 -9 -10 -18 -7 -22 8 -7 37 15 37 28 0 14 -16 11 -30
-6z"/>
<path d="M12330 1015 c-7 -9 -10 -18 -7 -22 8 -7 37 15 37 28 0 14 -16 11 -30
-6z"/>
<path d="M12940 1015 c-7 -9 -10 -18 -7 -22 8 -7 37 15 37 28 0 14 -16 11 -30
-6z"/>
<path d="M1207 1002 c-26 -29 -20 -61 17 -98 37 -37 66 -43 90 -18 26 25 19
54 -23 95 -43 43 -60 48 -84 21z m72 -36 c53 -55 20 -106 -36 -54 -37 34 -47
57 -32 74 18 21 32 17 68 -20z"/>
<path d="M1817 1002 c-26 -29 -20 -61 17 -98 37 -37 66 -43 90 -18 26 25 19
54 -23 95 -43 43 -60 48 -84 21z m72 -36 c53 -55 20 -106 -36 -54 -37 34 -47
57 -32 74 18 21 32 17 68 -20z"/>
<path d="M2427 1002 c-26 -29 -20 -61 17 -98 37 -37 66 -43 90 -18 26 25 19
54 -23 95 -43 43 -60 48 -84 21z m72 -36 c53 -55 20 -106 -36 -54 -37 34 -47
57 -32 74 18 21 32 17 68 -20z"/>
<path d="M3037 1002 c-26 -29 -20 -61 17 -98 37 -37 66 -43 90 -18 26 25 19
54 -23 95 -43 43 -60 48 -84 21z m72 -36 c53 -55 20 -106 -36 -54 -37 34 -47
57 -32 74 18 21 32 17 68 -20z"/>
<path d="M3647 1003 c-4 -3 -6 -18 -6 -32 1 -17 3 -20 6 -8 6 25 14 22 58 -23
32 -33 36 -41 25 -55 -24 -28 6 -15 36 16 24 26 26 30 9 25 -16 -5 -32 5 -65
39 -45 46 -52 50 -63 38z"/>
<path d="M4256 994 c-3 -9 -6 -23 -6 -32 0 -14 2 -14 13 1 11 16 16 14 51 -22
33 -34 37 -42 26 -56 -21 -26 13 -19 38 8 27 28 28 40 4 33 -12 -4 -31 8 -62
39 -49 50 -55 52 -64 29z"/>
<path d="M4866 994 c-3 -9 -6 -23 -6 -32 0 -14 2 -14 13 1 11 16 16 14 51 -22
33 -34 37 -42 26 -56 -21 -26 13 -19 38 8 27 28 28 40 4 33 -12 -4 -31 8 -62
39 -49 50 -55 52 -64 29z"/>
<path d="M5476 994 c-3 -9 -6 -23 -6 -32 0 -14 2 -14 13 1 11 16 16 14 51 -22
33 -34 37 -42 26 -56 -21 -26 13 -19 38 8 27 28 28 40 4 33 -12 -4 -31 8 -62
39 -49 50 -55 52 -64 29z"/>
<path d="M6086 994 c-3 -9 -6 -23 -6 -32 0 -14 2 -14 13 1 11 16 16 14 51 -22
33 -34 37 -42 26 -56 -21 -26 13 -19 38 8 27 28 28 40 4 33 -12 -4 -31 8 -62
39 -49 50 -55 52 -64 29z"/>
<path d="M6696 984 c-8 -30 0 -45 10 -20 6 15 12 12 45 -20 31 -30 37 -42 32
-63 l-6 -26 32 29 c35 33 40 50 13 42 -12 -4 -31 8 -62 39 -24 25 -47 45 -51
45 -4 0 -10 -12 -13 -26z"/>
<path d="M7306 984 c-8 -30 0 -45 10 -20 6 15 12 12 45 -20 31 -30 37 -42 32
-63 l-6 -26 32 29 c35 33 40 50 13 42 -12 -4 -31 8 -62 39 -24 25 -47 45 -51
45 -4 0 -10 -12 -13 -26z"/>
<path d="M7916 984 c-8 -30 0 -45 10 -20 6 15 12 12 45 -20 31 -30 37 -42 32
-63 l-6 -26 32 29 c35 33 40 50 13 42 -12 -4 -31 8 -62 39 -24 25 -47 45 -51
45 -4 0 -10 -12 -13 -26z"/>
<path d="M8526 984 c-8 -30 0 -45 10 -20 6 15 12 12 45 -20 31 -30 37 -42 32
-63 l-6 -26 32 29 c35 33 40 50 13 42 -12 -4 -31 8 -62 39 -24 25 -47 45 -51
45 -4 0 -10 -12 -13 -26z"/>
<path d="M9145 997 c-3 -9 -7 -24 -10 -32 -2 -8 0 -15 5 -15 6 0 10 8 10 17 0
12 13 4 45 -27 34 -34 42 -47 33 -57 -6 -7 -9 -16 -6 -18 2 -3 20 11 39 31 30
33 32 36 10 29 -19 -6 -32 1 -72 41 -39 38 -49 44 -54 31z"/>
<path d="M9755 997 c-3 -9 -7 -24 -10 -32 -2 -8 0 -15 5 -15 6 0 10 8 10 17 0
12 13 4 45 -27 34 -34 42 -47 33 -57 -6 -7 -9 -16 -6 -18 2 -3 20 11 39 31 30
33 32 36 10 29 -19 -6 -32 1 -72 41 -39 38 -49 44 -54 31z"/>
<path d="M10365 997 c-3 -9 -7 -24 -10 -32 -2 -8 0 -15 5 -15 6 0 10 8 10 17
0 12 13 4 45 -27 34 -34 42 -47 33 -57 -6 -7 -9 -16 -6 -18 2 -3 20 11 39 31
30 33 32 36 10 29 -19 -6 -32 1 -72 41 -39 38 -49 44 -54 31z"/>
<path d="M10977 1003 c-4 -3 -6 -18 -6 -32 1 -17 3 -20 6 -8 6 25 14 22 58
-23 32 -33 36 -41 25 -55 -24 -28 6 -15 36 16 24 26 26 30 9 25 -16 -5 -32 5
-65 39 -45 46 -52 50 -63 38z"/>
<path d="M11587 1003 c-4 -3 -6 -18 -6 -32 1 -17 3 -20 6 -8 6 25 14 22 58
-23 32 -33 36 -41 25 -55 -24 -28 6 -15 36 16 24 26 26 30 9 25 -16 -5 -32 5
-65 39 -45 46 -52 50 -63 38z"/>
<path d="M12197 1003 c-4 -3 -6 -18 -6 -32 1 -17 3 -20 6 -8 6 25 14 22 58
-23 32 -33 36 -41 25 -55 -24 -28 6 -15 36 16 24 26 26 30 9 25 -16 -5 -32 5
-65 39 -45 46 -52 50 -63 38z"/>
<path d="M12807 1003 c-4 -3 -6 -18 -6 -32 1 -17 3 -20 6 -8 6 25 14 22 58
-23 32 -33 36 -41 25 -55 -24 -28 6 -15 36 16 24 26 26 30 9 25 -16 -5 -32 5
-65 39 -45 46 -52 50 -63 38z"/>
<path d="M1735 920 c-8 -13 13 -128 25 -135 4 -2 17 7 30 20 18 19 26 22 37
13 17 -14 31 -2 16 13 -6 6 -9 18 -6 27 5 10 2 13 -6 7 -8 -4 -27 6 -51 30
-26 25 -40 33 -45 25z m55 -94 c-20 -25 -26 -20 -37 30 l-11 46 31 -30 c26
-26 28 -33 17 -46z"/>
<path d="M2335 910 c-23 -25 -14 -63 25 -101 32 -32 61 -37 84 -13 19 18 20
38 6 65 -14 25 -52 24 -75 -1 -10 -11 -22 -17 -26 -14 -15 9 -10 46 8 66 9 10
12 18 6 18 -5 0 -18 -9 -28 -20z m103 -83 c-4 -27 -39 -34 -58 -12 -11 13 -10
19 5 35 23 25 58 10 53 -23z"/>
<path d="M2951 914 c-30 -21 -26 -68 7 -72 15 -2 22 -10 22 -26 0 -35 25 -52
56 -38 49 23 49 92 -1 92 -18 0 -25 5 -25 20 0 29 -32 42 -59 24z m39 -20 c11
-12 10 -18 -3 -32 -16 -15 -18 -15 -34 0 -13 14 -14 20 -3 32 7 9 16 16 20 16
4 0 13 -7 20 -16z m67 -60 c5 -15 -26 -46 -41 -41 -6 2 -12 16 -14 31 -3 25
-1 27 24 24 15 -2 29 -8 31 -14z"/>
<path d="M3555 910 c-24 -26 -14 -60 30 -99 40 -35 57 -38 79 -15 26 25 19 63
-18 100 -39 39 -65 43 -91 14z m82 -35 c36 -36 38 -51 10 -69 -31 -20 -106 72
-80 97 14 15 36 6 70 -28z"/>
<path d="M4165 910 c-24 -26 -14 -60 30 -99 40 -35 57 -38 79 -15 26 25 19 63
-18 100 -39 39 -65 43 -91 14z m82 -35 c36 -36 38 -51 10 -69 -31 -20 -106 72
-80 97 14 15 36 6 70 -28z"/>
<path d="M4775 910 c-24 -26 -14 -60 30 -99 40 -35 57 -38 79 -15 26 25 19 63
-18 100 -39 39 -65 43 -91 14z m82 -35 c36 -36 38 -51 10 -69 -31 -20 -106 72
-80 97 14 15 36 6 70 -28z"/>
<path d="M5385 910 c-24 -26 -14 -60 30 -99 40 -35 57 -38 79 -15 26 25 19 63
-18 100 -39 39 -65 43 -91 14z m82 -35 c36 -36 38 -51 10 -69 -31 -20 -106 72
-80 97 14 15 36 6 70 -28z"/>
<path d="M5994 905 c-20 -31 -12 -56 32 -94 41 -36 57 -38 85 -10 26 26 18 54
-27 97 -40 38 -68 41 -90 7z m85 -31 c34 -38 35 -51 8 -68 -31 -20 -106 72
-80 97 15 16 43 5 72 -29z"/>
<path d="M6604 905 c-20 -31 -12 -56 32 -94 41 -36 57 -38 85 -10 26 26 18 54
-27 97 -40 38 -68 41 -90 7z m85 -31 c34 -38 35 -51 8 -68 -31 -20 -106 72
-80 97 15 16 43 5 72 -29z"/>
<path d="M7214 905 c-20 -31 -12 -56 32 -94 41 -36 57 -38 85 -10 26 26 18 54
-27 97 -40 38 -68 41 -90 7z m85 -31 c34 -38 35 -51 8 -68 -31 -20 -106 72
-80 97 15 16 43 5 72 -29z"/>
<path d="M7824 905 c-20 -31 -12 -56 32 -94 41 -36 57 -38 85 -10 26 26 18 54
-27 97 -40 38 -68 41 -90 7z m85 -31 c34 -38 35 -51 8 -68 -31 -20 -106 72
-80 97 15 16 43 5 72 -29z"/>
<path d="M8448 919 c-31 -18 -23 -67 18 -105 41 -39 56 -42 84 -14 29 29 25
47 -19 91 -40 41 -54 45 -83 28z m69 -41 c52 -51 35 -101 -22 -64 -39 26 -60
63 -45 81 18 22 30 19 67 -17z"/>
<path d="M9058 919 c-31 -18 -23 -67 18 -105 41 -39 56 -42 84 -14 29 29 25
47 -19 91 -40 41 -54 45 -83 28z m69 -41 c52 -51 35 -101 -22 -64 -39 26 -60
63 -45 81 18 22 30 19 67 -17z"/>
<path d="M9668 919 c-31 -18 -23 -67 18 -105 41 -39 56 -42 84 -14 29 29 25
47 -19 91 -40 41 -54 45 -83 28z m69 -41 c52 -51 35 -101 -22 -64 -39 26 -60
63 -45 81 18 22 30 19 67 -17z"/>
<path d="M10276 914 c-33 -33 -4 -100 54 -124 26 -11 33 -10 50 5 30 27 25 60
-15 100 -39 38 -65 44 -89 19z m75 -33 c49 -50 29 -103 -26 -67 -39 26 -60 63
-45 81 19 22 38 18 71 -14z"/>
<path d="M10886 914 c-33 -33 -4 -100 54 -124 26 -11 33 -10 50 5 30 27 25 60
-15 100 -39 38 -65 44 -89 19z m75 -33 c49 -50 29 -103 -26 -67 -39 26 -60 63
-45 81 19 22 38 18 71 -14z"/>
<path d="M11496 914 c-33 -33 -4 -100 54 -124 26 -11 33 -10 50 5 30 27 25 60
-15 100 -39 38 -65 44 -89 19z m75 -33 c49 -50 29 -103 -26 -67 -39 26 -60 63
-45 81 19 22 38 18 71 -14z"/>
<path d="M12106 914 c-33 -33 -4 -100 54 -124 26 -11 33 -10 50 5 30 27 25 60
-15 100 -39 38 -65 44 -89 19z m75 -33 c49 -50 29 -103 -26 -67 -39 26 -60 63
-45 81 19 22 38 18 71 -14z"/>
<path d="M12715 910 c-24 -26 -14 -60 30 -99 40 -35 57 -38 79 -15 26 25 19
63 -18 100 -39 39 -65 43 -91 14z m82 -35 c36 -36 38 -51 10 -69 -31 -20 -106
72 -80 97 14 15 36 6 70 -28z"/>
<path d="M1106 901 c-10 -11 -16 -26 -14 -33 3 -8 9 -5 17 10 26 49 55 20 67
-67 l7 -52 33 32 c19 18 34 37 34 43 0 5 -10 0 -23 -12 -32 -30 -37 -28 -37
16 0 70 -47 104 -84 63z"/>
<path d="M5306 831 c-23 -26 -20 -65 9 -100 31 -36 57 -46 85 -31 26 14 26 61
0 85 -18 17 -21 17 -45 1 -14 -9 -25 -22 -25 -29 -1 -13 -30 21 -30 35 0 4 9
17 20 28 10 10 16 22 11 24 -5 3 -16 -3 -25 -13z m88 -67 c20 -19 20 -28 1
-44 -30 -25 -70 15 -45 45 16 19 25 19 44 -1z"/>
<path d="M11411 831 c-26 -26 -26 -48 -3 -84 38 -56 77 -71 105 -39 23 26 21
58 -5 76 -30 21 -35 20 -63 -10 l-24 -26 -7 26 c-4 19 -1 33 11 46 25 27 12
37 -14 11z m92 -73 c12 -19 3 -48 -16 -48 -7 0 -22 6 -32 14 -19 14 -19 15 -1
35 21 23 34 23 49 -1z"/>
<path d="M3467 822 c-26 -29 -20 -61 17 -98 37 -37 66 -43 90 -18 26 25 19 54
-23 95 -43 43 -60 48 -84 21z m72 -36 c53 -55 20 -106 -36 -54 -37 34 -47 57
-32 74 18 21 32 17 68 -20z"/>
<path d="M4695 831 c-8 -14 15 -120 27 -128 5 -3 20 5 33 17 20 19 27 21 40
10 9 -8 15 -8 15 -2 0 6 -4 13 -10 17 -5 3 -6 13 -3 22 5 11 3 14 -6 8 -8 -4
-27 6 -51 30 -24 23 -40 33 -45 26z m65 -77 c0 -15 -27 -37 -33 -27 -3 5 -8
26 -12 48 l-8 40 27 -24 c14 -14 26 -30 26 -37z"/>
<path d="M5906 821 c-26 -29 -17 -65 17 -69 15 -2 25 -8 22 -13 -13 -19 6 -49
31 -49 26 0 64 32 64 53 0 20 -22 37 -47 37 -18 0 -23 6 -23 24 0 21 -16 36
-39 36 -4 0 -16 -9 -25 -19z m49 -26 c0 -13 -8 -21 -22 -23 -17 -3 -23 2 -23
16 0 10 3 22 7 26 13 13 38 1 38 -19z m65 -56 c0 -16 -31 -38 -45 -33 -21 9
-19 52 3 56 18 5 42 -9 42 -23z"/>
<path d="M6522 824 c-32 -22 -28 -58 13 -99 37 -37 54 -42 86 -25 39 21 14 97
-42 126 -34 17 -30 17 -57 -2z m75 -39 c36 -36 38 -51 11 -69 -32 -20 -99 50
-85 88 10 25 36 19 74 -19z"/>
<path d="M7748 828 c-7 -21 24 -128 37 -128 6 0 20 9 30 20 14 15 21 17 32 9
17 -14 31 -3 16 12 -6 6 -9 18 -5 27 4 11 1 14 -10 10 -10 -4 -28 6 -49 28
-36 37 -45 41 -51 22z m55 -90 c-19 -21 -21 -19 -37 47 l-8 30 31 -29 c29 -28
30 -31 14 -48z"/>
<path d="M8350 821 c-5 -11 -10 -29 -10 -40 0 -26 64 -91 90 -91 26 0 54 43
45 70 -13 42 -65 48 -86 9 -5 -11 -14 -17 -20 -14 -16 10 -10 63 9 74 16 10
16 10 0 11 -10 0 -22 -9 -28 -19z m98 -53 c16 -16 15 -47 -2 -54 -16 -6 -56
12 -56 26 0 10 28 40 39 40 4 0 12 -5 19 -12z"/>
<path d="M8960 820 c-11 -11 -20 -26 -20 -33 0 -18 21 -37 41 -37 12 0 19 -9
21 -27 4 -36 45 -44 72 -14 28 31 14 71 -25 71 -17 0 -28 4 -24 10 9 14 -13
50 -30 50 -8 0 -24 -9 -35 -20z m48 -28 c3 -18 -1 -22 -22 -22 -19 0 -26 5
-26 18 0 39 43 43 48 4z m62 -53 c0 -24 -33 -42 -48 -27 -17 17 -15 35 5 46
23 13 43 4 43 -19z"/>
<path d="M9570 820 c-28 -28 -25 -44 16 -90 42 -47 76 -52 99 -16 15 22 15 27
0 56 -14 27 -67 70 -87 70 -5 0 -17 -9 -28 -20z m77 -35 c37 -37 41 -67 9 -73
-19 -4 -86 53 -86 73 0 13 20 35 33 35 5 0 25 -16 44 -35z"/>
<path d="M10804 827 c-7 -20 14 -114 28 -123 5 -3 20 3 32 15 17 16 25 18 34
9 6 -6 15 -9 19 -5 4 4 2 12 -4 18 -6 6 -9 18 -6 27 4 10 2 13 -8 10 -8 -3
-31 10 -51 30 -31 30 -38 33 -44 19z m49 -90 c-10 -10 -18 -15 -20 -10 -1 4
-6 26 -12 47 l-10 39 29 -28 c28 -27 29 -29 13 -48z"/>
<path d="M12016 821 c-24 -26 -17 -65 12 -69 16 -3 22 -10 22 -28 0 -44 67
-45 87 -1 14 31 -1 57 -32 57 -17 0 -25 6 -25 18 0 20 -18 42 -35 42 -7 0 -20
-9 -29 -19z m44 -16 c15 -18 5 -35 -20 -35 -10 0 -22 5 -25 10 -7 11 12 40 25
40 4 0 13 -7 20 -15z m53 -86 c-24 -25 -43 -18 -43 16 0 28 28 38 50 18 12
-11 12 -16 -7 -34z"/>
<path d="M12627 822 c-26 -29 -20 -61 17 -98 37 -37 66 -43 90 -18 26 25 19
54 -23 95 -43 43 -60 48 -84 21z m72 -36 c53 -55 20 -106 -36 -54 -37 34 -47
57 -32 74 18 21 32 17 68 -20z"/>
<path d="M4067 812 c-10 -10 -17 -25 -17 -33 0 -9 7 -5 19 10 33 43 71 3 71
-75 0 -19 4 -34 8 -34 12 0 66 59 60 65 -2 3 -13 -4 -23 -15 -27 -30 -35 -25
-35 24 0 68 -46 100 -83 58z"/>
<path d="M7116 808 c-8 -12 -12 -26 -9 -32 4 -5 11 0 16 12 6 12 18 22 29 22
23 0 38 -37 38 -91 0 -48 15 -50 55 -9 34 35 26 54 -9 21 l-23 -22 -7 42 c-4
23 -11 50 -17 60 -13 26 -54 24 -73 -3z"/>
<path d="M10176 814 c-9 -8 -16 -23 -16 -32 0 -13 5 -11 20 8 29 38 53 17 64
-54 4 -31 11 -56 15 -56 13 0 65 60 58 67 -4 3 -18 -4 -32 -17 l-25 -23 0 39
c0 69 -46 106 -84 68z"/>
<path d="M12545 740 c-8 -13 13 -128 25 -135 4 -2 17 7 30 20 18 19 26 22 37
13 17 -14 31 -2 16 13 -6 6 -9 18 -6 27 5 10 2 13 -6 7 -8 -4 -27 6 -51 30
-26 25 -40 33 -45 25z m55 -94 c-20 -25 -26 -20 -37 30 l-11 46 31 -30 c26
-26 28 -33 17 -46z"/>
<path d="M4595 727 c-3 -9 -7 -24 -10 -32 -2 -8 0 -17 5 -20 6 -4 10 1 10 9 0
25 13 19 53 -22 29 -29 34 -41 25 -50 -6 -6 -9 -15 -5 -19 10 -9 57 37 57 56
0 12 -3 12 -12 3 -10 -10 -24 -1 -65 40 -42 41 -53 48 -58 35z"/>
<path d="M5205 727 c-3 -9 -7 -24 -10 -32 -2 -8 0 -17 5 -20 6 -4 10 1 10 9 0
25 13 19 53 -22 29 -29 34 -41 25 -50 -6 -6 -9 -15 -5 -19 10 -9 57 37 57 56
0 12 -3 12 -12 3 -10 -10 -24 -1 -65 40 -42 41 -53 48 -58 35z"/>
<path d="M5815 727 c-3 -9 -7 -24 -10 -32 -2 -8 0 -17 5 -20 6 -4 10 1 10 9 0
25 13 19 53 -22 29 -29 34 -41 25 -50 -6 -6 -9 -15 -5 -19 10 -9 57 37 57 56
0 12 -3 12 -12 3 -10 -10 -24 -1 -65 40 -42 41 -53 48 -58 35z"/>
<path d="M6416 718 c-18 -25 -20 -38 -7 -38 5 0 11 9 14 21 7 28 38 21 54 -11
7 -14 13 -42 13 -62 0 -44 16 -49 48 -15 30 32 29 57 -1 29 -32 -31 -37 -28
-37 21 0 69 -51 102 -84 55z"/>
<path d="M7024 715 c-22 -34 -10 -44 16 -14 l20 24 20 -24 c13 -15 20 -38 20
-67 0 -23 4 -45 8 -48 11 -7 78 62 69 71 -4 3 -18 -4 -31 -16 l-24 -22 -6 45
c-12 75 -59 101 -92 51z"/>
<path d="M7634 715 c-22 -34 -10 -44 16 -14 l20 24 20 -24 c13 -15 20 -38 20
-67 0 -23 4 -45 8 -48 11 -7 78 62 69 71 -4 3 -18 -4 -31 -16 l-24 -22 -6 45
c-12 75 -59 101 -92 51z"/>
<path d="M8244 715 c-22 -34 -10 -44 16 -14 l20 24 20 -24 c13 -15 20 -38 20
-67 0 -23 4 -45 8 -48 11 -7 78 62 69 71 -4 3 -18 -4 -31 -16 l-24 -22 -6 45
c-12 75 -59 101 -92 51z"/>
<path d="M8854 715 c-22 -34 -10 -44 16 -14 l20 24 20 -24 c13 -15 20 -38 20
-67 0 -23 4 -45 8 -48 11 -7 78 62 69 71 -4 3 -18 -4 -31 -16 l-24 -22 -6 45
c-12 75 -59 101 -92 51z"/>
<path d="M9476 724 c-9 -8 -16 -23 -16 -32 0 -13 3 -12 16 6 8 12 21 22 28 22
19 0 29 -30 15 -47 -17 -19 -5 -27 20 -11 17 11 23 10 37 -4 16 -15 15 -18
-11 -42 -19 -17 -23 -26 -13 -26 25 0 50 36 46 67 -2 22 -9 29 -30 31 -19 2
-28 9 -28 22 0 16 -18 30 -40 30 -5 0 -16 -7 -24 -16z"/>
<path d="M10086 724 c-9 -8 -16 -23 -16 -32 0 -13 3 -12 16 6 8 12 21 22 28
22 19 0 29 -30 15 -47 -17 -19 -5 -27 20 -11 17 11 23 10 37 -4 16 -15 15 -18
-11 -42 -19 -17 -23 -26 -13 -26 25 0 50 36 46 67 -2 22 -9 29 -30 31 -19 2
-28 9 -28 22 0 16 -18 30 -40 30 -5 0 -16 -7 -24 -16z"/>
<path d="M10696 724 c-9 -8 -16 -23 -16 -32 0 -13 3 -12 16 6 8 12 21 22 28
22 19 0 29 -30 15 -47 -17 -19 -5 -27 20 -11 17 11 23 10 37 -4 16 -15 15 -18
-11 -42 -19 -17 -23 -26 -13 -26 25 0 50 36 46 67 -2 22 -9 29 -30 31 -19 2
-28 9 -28 22 0 16 -18 30 -40 30 -5 0 -16 -7 -24 -16z"/>
<path d="M11307 722 c-10 -10 -17 -25 -17 -33 0 -9 7 -5 19 10 12 16 24 22 35
18 19 -7 21 -38 4 -55 -9 -9 -9 -12 -1 -12 7 0 15 5 18 10 10 16 45 12 52 -7
4 -11 -3 -24 -23 -40 -22 -17 -25 -23 -12 -23 18 0 58 37 58 53 0 20 -22 47
-39 47 -10 0 -23 11 -29 25 -14 29 -42 32 -65 7z"/>
<path d="M11917 722 c-10 -10 -17 -25 -17 -33 0 -9 7 -5 19 10 12 16 24 22 35
18 19 -7 21 -38 4 -55 -9 -9 -9 -12 -1 -12 7 0 15 5 18 10 10 16 45 12 52 -7
4 -11 -3 -24 -23 -40 -22 -17 -25 -23 -12 -23 18 0 58 37 58 53 0 20 -22 47
-39 47 -10 0 -23 11 -29 25 -14 29 -42 32 -65 7z"/>
<path d="M3366 704 c-9 -33 1 -45 12 -15 7 20 10 19 51 -23 26 -27 39 -46 32
-50 -6 -4 -11 -12 -11 -18 0 -7 14 1 30 17 29 28 43 58 17 37 -10 -9 -24 -1
-57 33 -51 52 -65 55 -74 19z"/>
<path d="M3976 704 c-9 -33 1 -45 12 -15 7 20 10 19 51 -23 26 -27 39 -46 32
-50 -6 -4 -11 -12 -11 -18 0 -7 14 1 30 17 29 28 43 58 17 37 -10 -9 -24 -1
-57 33 -51 52 -65 55 -74 19z"/>
<path d="M5220 245 c0 -50 4 -85 10 -85 6 0 10 17 10 39 0 41 20 67 45 57 10
-4 15 -19 15 -51 0 -25 5 -45 10 -45 13 0 13 76 -1 102 -8 16 -17 19 -40 14
-27 -5 -29 -3 -29 24 0 17 -4 30 -10 30 -6 0 -10 -35 -10 -85z"/>
<path d="M8770 300 c0 -27 -3 -30 -24 -24 -44 11 -72 -47 -46 -96 8 -14 20
-19 50 -17 l40 1 0 83 c0 49 -4 83 -10 83 -5 0 -10 -14 -10 -30z m-5 -80 c0
-31 -3 -35 -25 -35 -19 0 -26 6 -28 23 -5 36 5 54 30 50 19 -2 23 -9 23 -38z"/>
<path d="M5090 310 c0 -5 11 -10 25 -10 24 0 25 -2 25 -70 0 -40 4 -70 10 -70
6 0 10 30 10 70 0 63 2 70 20 70 11 0 20 5 20 10 0 6 -25 10 -55 10 -30 0 -55
-4 -55 -10z"/>
<path d="M5360 310 c0 -5 5 -10 10 -10 6 0 10 5 10 10 0 6 -4 10 -10 10 -5 0
-10 -4 -10 -10z"/>
<path d="M6200 240 c0 -47 4 -80 10 -80 6 0 10 16 10 35 0 33 2 35 35 35 33 0
35 -2 35 -35 0 -19 5 -35 10 -35 6 0 10 33 10 80 0 47 -4 80 -10 80 -5 0 -10
-16 -10 -35 0 -33 -2 -35 -35 -35 -33 0 -35 2 -35 35 0 19 -4 35 -10 35 -6 0
-10 -33 -10 -80z"/>
<path d="M7473 258 c-12 -35 -25 -71 -28 -80 -4 -10 -3 -18 3 -18 6 0 14 9 17
20 9 29 75 29 82 0 3 -11 10 -20 15 -20 12 0 5 29 -23 105 -11 30 -26 55 -32
55 -7 0 -22 -28 -34 -62z m52 -10 c6 -25 5 -28 -19 -28 -30 0 -29 -2 -15 39
12 35 24 31 34 -11z"/>
<path d="M8350 240 c0 -47 4 -80 10 -80 6 0 10 13 10 28 0 23 6 30 33 37 25 8
33 16 35 38 5 38 -14 57 -54 57 l-34 0 0 -80z m65 30 c0 -18 -6 -26 -22 -28
-20 -3 -23 1 -23 28 0 27 3 31 23 28 16 -2 22 -10 22 -28z"/>
<path d="M5610 296 c0 -8 -6 -17 -12 -19 -10 -4 -10 -7 -1 -14 6 -5 13 -29 15
-53 2 -38 7 -46 26 -48 12 -2 22 1 22 7 0 6 -7 11 -15 11 -11 0 -15 11 -15 40
0 29 4 40 15 40 8 0 15 5 15 10 0 6 -7 10 -15 10 -8 0 -15 7 -15 15 0 8 -4 15
-10 15 -5 0 -10 -6 -10 -14z"/>
<path d="M8950 295 c0 -8 -5 -15 -12 -15 -9 0 -9 -3 0 -12 7 -7 12 -28 12 -48
0 -20 5 -41 12 -48 15 -15 38 -16 38 -2 0 6 -7 10 -15 10 -11 0 -15 11 -15 40
0 29 4 40 15 40 8 0 15 5 15 10 0 6 -7 10 -15 10 -8 0 -15 7 -15 15 0 8 -4 15
-10 15 -5 0 -10 -7 -10 -15z"/>
<path d="M5360 220 c0 -33 4 -60 10 -60 6 0 10 27 10 60 0 33 -4 60 -10 60 -6
0 -10 -27 -10 -60z"/>
<path d="M5420 218 c0 -67 17 -79 22 -15 2 32 8 44 26 52 32 14 27 23 -13 22
l-35 -1 0 -58z"/>
<path d="M5513 273 c-22 -8 -14 -43 12 -55 14 -6 25 -18 25 -26 0 -10 -8 -13
-25 -10 -14 3 -25 2 -25 -3 0 -14 21 -21 46 -15 32 8 30 46 -4 61 -29 13 -24
41 6 38 14 -2 21 1 17 7 -6 10 -31 12 -52 3z"/>
<path d="M6350 246 c0 -19 4 -46 10 -60 8 -21 15 -25 50 -23 l40 1 0 58 c0 70
-18 78 -22 11 -3 -44 -5 -48 -28 -48 -23 0 -25 4 -28 48 -4 54 -22 65 -22 13z"/>
<path d="M6480 218 c0 -32 4 -58 10 -58 6 0 10 17 10 39 0 41 20 67 45 57 10
-4 15 -19 15 -51 0 -25 5 -45 10 -45 13 0 13 76 0 100 -8 14 -20 19 -50 17
l-40 -1 0 -58z"/>
<path d="M6630 266 c-6 -8 -10 -32 -9 -53 2 -21 -1 -44 -5 -51 -18 -30 46 -56
82 -33 24 15 10 46 -23 49 -39 5 -58 22 -23 22 29 0 42 13 52 53 6 25 4 27
-28 27 -18 0 -39 -7 -46 -14z m45 -26 c0 -27 -22 -39 -31 -16 -8 22 3 49 19
43 6 -2 12 -14 12 -27z m15 -89 c0 -16 -19 -23 -40 -16 -30 10 -24 25 10 25
17 0 30 -4 30 -9z"/>
<path d="M6756 264 c-24 -23 -21 -81 5 -94 23 -13 61 -10 66 5 2 6 -11 10 -29
10 -23 0 -34 5 -36 18 -3 14 4 17 37 17 29 0 41 4 41 14 0 20 -28 46 -50 46
-10 0 -26 -7 -34 -16z m53 -7 c14 -17 4 -27 -26 -27 -35 0 -28 35 8 39 4 1 12
-5 18 -12z"/>
<path d="M6860 218 c0 -67 17 -79 22 -15 2 32 8 44 26 52 32 14 27 23 -13 22
l-35 -1 0 -58z"/>
<path d="M7610 266 c-6 -8 -10 -32 -9 -53 2 -21 -1 -44 -5 -51 -18 -30 46 -56
82 -33 24 15 10 46 -23 49 -39 5 -58 22 -23 22 29 0 42 13 52 53 6 25 4 27
-28 27 -18 0 -39 -7 -46 -14z m45 -26 c0 -13 -6 -25 -12 -27 -16 -6 -27 21
-19 43 9 23 31 11 31 -16z m15 -89 c0 -16 -19 -23 -40 -16 -30 10 -24 25 10
25 17 0 30 -4 30 -9z"/>
<path d="M7736 264 c-24 -23 -21 -81 5 -94 23 -13 61 -10 66 5 2 6 -11 10 -29
10 -23 0 -34 5 -36 18 -3 14 4 17 37 17 29 0 41 4 41 14 0 20 -28 46 -50 46
-10 0 -26 -7 -34 -16z m53 -7 c14 -17 4 -27 -26 -27 -35 0 -28 35 8 39 4 1 12
-5 18 -12z"/>
<path d="M8480 218 c0 -32 4 -58 10 -58 6 0 10 21 10 46 0 37 4 47 20 51 31 8
24 22 -10 20 -30 -2 -30 -3 -30 -59z"/>
<path d="M8576 264 c-36 -35 -10 -104 39 -104 37 0 39 18 3 22 -22 2 -34 9
-36 21 -3 14 4 17 37 17 29 0 41 4 41 14 0 20 -28 46 -50 46 -10 0 -26 -7 -34
-16z m52 -6 c19 -19 14 -28 -18 -28 -32 0 -37 9 -18 28 15 15 21 15 36 0z"/>
<path d="M8837 273 c-13 -13 -7 -19 20 -18 43 0 44 -33 1 -37 -25 -2 -34 -8
-36 -25 -3 -23 13 -31 66 -31 20 -1 22 4 22 47 0 26 -5 52 -12 59 -13 13 -50
16 -61 5z m53 -72 c0 -5 -7 -14 -15 -21 -18 -15 -42 1 -31 19 8 13 46 15 46 2z"/>
<path d="M9046 265 c-9 -9 -16 -29 -16 -45 0 -61 70 -81 100 -27 13 24 13 30
0 55 -18 32 -60 41 -84 17z m69 -25 c11 -36 -4 -62 -33 -58 -28 3 -40 32 -28
64 8 22 54 18 61 -6z"/>
<path d="M9170 218 c0 -32 4 -58 10 -58 6 0 10 21 10 46 0 37 4 47 20 51 31 8
24 22 -10 20 -30 -2 -30 -3 -30 -59z"/>
</g>
</svg>
