<?xml version="1.0" standalone="no"?>
<!DOCTYPE svg PUBLIC "-//W3C//DTD SVG 20010904//EN"
 "http://www.w3.org/TR/2001/REC-SVG-20010904/DTD/svg10.dtd">
<svg version="1.0" xmlns="http://www.w3.org/2000/svg"
 width="1401.000000pt" height="677.000000pt" viewBox="0 0 1401.000000 677.000000"
 preserveAspectRatio="xMidYMid meet">

<g transform="translate(0.000000,677.000000) scale(0.100000,-0.100000)"
fill="#000000" stroke="none">
<path d="M7372 6598 c-7 -7 -12 -22 -12 -35 0 -14 -6 -23 -15 -23 -8 0 -15 -4
-15 -10 0 -5 7 -10 15 -10 12 0 15 -13 15 -60 0 -33 4 -60 10 -60 6 0 10 27
10 60 0 47 3 60 15 60 8 0 15 5 15 10 0 6 -7 10 -15 10 -23 0 -19 41 5 47 11
3 20 9 20 14 0 13 -34 11 -48 -3z"/>
<path d="M7600 6570 c0 -38 -1 -39 -27 -34 -42 8 -68 -16 -68 -64 0 -22 7 -47
14 -56 16 -19 52 -21 70 -3 11 10 14 10 18 0 14 -38 23 -1 23 92 0 87 -3 105
-15 105 -11 0 -15 -11 -15 -40z m-11 -64 c17 -20 10 -67 -11 -79 -23 -15 -48
8 -48 42 0 45 35 66 59 37z"/>
<path d="M8070 6505 c0 -63 4 -105 10 -105 6 0 10 22 10 50 0 40 4 51 21 60
36 20 49 6 49 -55 0 -30 5 -55 10 -55 6 0 10 26 10 59 0 71 -16 91 -61 74
l-29 -11 0 44 c0 24 -4 44 -10 44 -6 0 -10 -42 -10 -105z"/>
<path d="M5860 6500 l0 -100 38 0 c56 0 85 20 100 67 11 35 11 46 -2 77 -16
39 -46 56 -102 56 l-34 0 0 -100z m97 58 c50 -47 19 -138 -47 -138 l-30 0 0
80 0 80 27 0 c15 0 37 -10 50 -22z"/>
<path d="M7970 6561 c0 -11 -6 -22 -12 -24 -10 -4 -10 -7 -1 -14 6 -5 13 -30
15 -57 3 -54 22 -75 54 -61 18 8 17 9 -3 12 -20 4 -23 10 -23 54 0 42 3 49 20
49 11 0 20 5 20 10 0 6 -9 10 -20 10 -13 0 -20 7 -20 20 0 11 -7 20 -15 20 -8
0 -15 -9 -15 -19z"/>
<path d="M6064 6532 c-16 -11 -34 -48 -34 -71 0 -30 35 -61 68 -61 48 0 84 59
61 102 -15 30 -28 38 -59 38 -14 0 -30 -4 -36 -8z m65 -26 c31 -37 -9 -103
-46 -80 -37 23 -24 94 17 94 10 0 23 -6 29 -14z"/>
<path d="M6212 6527 c-17 -20 -25 -169 -10 -179 22 -13 76 -9 92 8 35 34 9 74
-48 74 -14 0 -28 5 -31 10 -4 6 6 10 24 10 35 0 64 26 58 51 -3 11 -1 19 4 19
5 0 9 5 9 10 0 15 -86 12 -98 -3z m61 -19 c7 -21 -4 -38 -23 -38 -23 0 -34 16
-26 35 7 18 43 20 49 3z m14 -114 c7 -19 -13 -34 -44 -34 -25 0 -37 15 -29 35
8 21 65 19 73 -1z"/>
<path d="M6428 6523 c-24 -28 -28 -50 -17 -83 16 -46 83 -54 97 -12 3 10 -2
10 -22 1 -33 -15 -56 2 -56 41 0 39 23 56 55 42 27 -12 33 -4 13 16 -17 17
-53 15 -70 -5z"/>
<path d="M6553 6533 c-25 -10 -12 -20 24 -19 28 1 38 -3 41 -16 3 -14 -3 -18
-27 -18 -31 0 -61 -22 -61 -44 0 -23 25 -35 68 -33 l42 1 0 56 c0 31 -5 61
-12 68 -12 12 -52 15 -75 5z m67 -88 c0 -15 -46 -32 -57 -22 -3 4 -3 13 0 22
8 20 57 20 57 0z"/>
<path d="M6690 6481 c0 -71 16 -91 61 -74 16 6 29 7 29 2 0 -5 5 -9 10 -9 6 0
10 30 10 70 0 40 -4 70 -10 70 -5 0 -10 -22 -10 -50 0 -38 -4 -52 -19 -60 -36
-19 -51 -3 -51 56 0 30 -4 54 -10 54 -6 0 -10 -26 -10 -59z"/>
<path d="M6852 6528 c-23 -23 -14 -48 24 -64 42 -18 40 -39 -4 -39 -35 0 -38
-18 -4 -23 30 -5 62 15 62 39 0 12 -12 25 -35 36 -40 19 -41 38 -1 38 14 -1
25 4 23 10 -5 15 -50 18 -65 3z"/>
<path d="M6982 6524 c-32 -22 -31 -88 2 -109 27 -18 77 -17 83 1 2 7 -8 9 -28
6 -24 -3 -36 0 -46 14 -21 29 -16 34 37 34 43 0 50 3 50 19 0 45 -55 65 -98
35z m72 -19 c4 -12 -3 -15 -36 -15 -35 0 -39 2 -28 15 7 8 23 15 35 15 13 0
25 -7 29 -15z"/>
<path d="M7200 6520 c-40 -40 -12 -120 43 -120 41 0 67 27 67 69 0 65 -65 96
-110 51z m83 -21 c13 -21 1 -65 -19 -73 -45 -17 -76 30 -48 72 17 26 51 27 67
1z"/>
<path d="M7686 6524 c-22 -22 -29 -55 -17 -87 11 -29 46 -43 86 -33 36 9 31
27 -5 20 -32 -7 -60 8 -60 32 0 8 16 14 48 16 41 3 47 6 44 23 -7 42 -66 60
-96 29z m72 -21 c2 -9 -8 -13 -32 -13 -34 0 -44 8 -29 24 11 11 56 2 61 -11z"/>
<path d="M7833 6533 c-25 -10 -12 -20 24 -19 28 1 38 -3 41 -16 2 -13 -3 -18
-18 -18 -35 0 -60 -19 -60 -45 0 -26 3 -28 62 -29 l38 -1 0 61 c0 47 -4 63
-16 68 -18 7 -53 7 -71 -1z m65 -90 c-4 -20 -35 -30 -50 -15 -15 15 0 32 28
32 19 0 25 -5 22 -17z"/>
<path d="M123 6153 c-23 -9 -13 -18 19 -18 45 0 46 -22 3 -77 -19 -26 -35 -49
-35 -52 0 -3 23 -6 51 -6 31 0 48 4 44 10 -3 6 -20 10 -36 10 l-30 0 30 37
c33 39 39 71 19 91 -12 12 -43 15 -65 5z"/>
<path d="M250 6120 c0 -35 3 -40 24 -40 13 0 29 -7 36 -15 19 -23 -6 -48 -42
-43 -29 5 -39 -9 -13 -18 24 -10 63 4 75 26 15 28 -4 59 -41 67 -41 8 -41 43
0 43 17 0 33 5 36 10 4 6 -10 10 -34 10 l-41 0 0 -40z"/>
<path d="M386 6144 c-19 -19 -22 -114 -4 -132 18 -18 53 -15 71 6 22 24 23
105 1 126 -8 9 -24 16 -34 16 -10 0 -26 -7 -34 -16z m59 -64 c0 -52 -1 -55
-25 -55 -18 0 -26 7 -33 30 -12 44 6 87 36 83 20 -3 22 -9 22 -58z"/>
<path d="M516 6144 c-19 -19 -22 -114 -4 -132 18 -18 53 -15 71 6 22 24 23
105 1 126 -8 9 -24 16 -34 16 -10 0 -26 -7 -34 -16z m59 -64 c0 -52 -1 -55
-25 -55 -18 0 -26 7 -33 30 -12 44 6 87 36 83 20 -3 22 -9 22 -58z"/>
<path d="M123 5283 c-23 -9 -13 -18 19 -18 45 0 46 -22 3 -77 -19 -26 -35 -49
-35 -52 0 -3 23 -6 51 -6 31 0 48 4 44 10 -3 6 -20 10 -36 10 l-30 0 30 37
c33 39 39 71 19 91 -12 12 -43 15 -65 5z"/>
<path d="M256 5274 c-19 -19 -22 -114 -4 -132 18 -18 53 -15 71 6 22 24 23
105 1 126 -8 9 -24 16 -34 16 -10 0 -26 -7 -34 -16z m59 -64 c0 -52 -1 -55
-25 -55 -18 0 -26 7 -33 30 -12 44 6 87 36 83 20 -3 22 -9 22 -58z"/>
<path d="M386 5274 c-19 -19 -22 -114 -4 -132 18 -18 53 -15 71 6 22 24 23
105 1 126 -8 9 -24 16 -34 16 -10 0 -26 -7 -34 -16z m59 -64 c0 -52 -1 -55
-25 -55 -18 0 -26 7 -33 30 -12 44 6 87 36 83 20 -3 22 -9 22 -58z"/>
<path d="M516 5274 c-19 -19 -22 -114 -4 -132 18 -18 53 -15 71 6 22 24 23
105 1 126 -8 9 -24 16 -34 16 -10 0 -26 -7 -34 -16z m59 -64 c0 -52 -1 -55
-25 -55 -18 0 -26 7 -33 30 -12 44 6 87 36 83 20 -3 22 -9 22 -58z"/>
<path d="M138 4396 c-24 -18 -23 -25 2 -19 18 5 20 0 20 -51 0 -49 -2 -56 -20
-56 -11 0 -20 -4 -20 -10 0 -5 21 -10 46 -10 27 0 43 4 39 10 -3 6 -13 10 -21
10 -11 0 -14 16 -14 70 0 73 -3 78 -32 56z"/>
<path d="M250 4370 c0 -35 3 -40 24 -40 13 0 29 -7 36 -15 19 -23 -6 -48 -42
-43 -29 5 -39 -9 -13 -18 24 -10 63 4 75 26 15 28 -4 59 -41 67 -41 8 -41 43
0 43 17 0 33 5 36 10 4 6 -10 10 -34 10 l-41 0 0 -40z"/>
<path d="M386 4394 c-19 -19 -22 -114 -4 -132 18 -18 53 -15 71 6 22 24 23
105 1 126 -8 9 -24 16 -34 16 -10 0 -26 -7 -34 -16z m59 -64 c0 -52 -1 -55
-25 -55 -18 0 -26 7 -33 30 -12 44 6 87 36 83 20 -3 22 -9 22 -58z"/>
<path d="M516 4394 c-19 -19 -22 -114 -4 -132 18 -18 53 -15 71 6 22 24 23
105 1 126 -8 9 -24 16 -34 16 -10 0 -26 -7 -34 -16z m59 -64 c0 -52 -1 -55
-25 -55 -18 0 -26 7 -33 30 -12 44 6 87 36 83 20 -3 22 -9 22 -58z"/>
<path d="M138 3526 c-24 -18 -23 -25 2 -19 18 5 20 0 20 -51 0 -49 -2 -56 -20
-56 -11 0 -20 -4 -20 -10 0 -5 21 -10 46 -10 27 0 43 4 39 10 -3 6 -13 10 -21
10 -11 0 -14 16 -14 70 0 73 -3 78 -32 56z"/>
<path d="M256 3524 c-19 -19 -22 -114 -4 -132 18 -18 53 -15 71 6 22 24 23
105 1 126 -8 9 -24 16 -34 16 -10 0 -26 -7 -34 -16z m59 -64 c0 -52 -1 -55
-25 -55 -18 0 -26 7 -33 30 -12 44 6 87 36 83 20 -3 22 -9 22 -58z"/>
<path d="M386 3524 c-19 -19 -22 -114 -4 -132 18 -18 53 -15 71 6 22 24 23
105 1 126 -8 9 -24 16 -34 16 -10 0 -26 -7 -34 -16z m59 -64 c0 -52 -1 -55
-25 -55 -18 0 -26 7 -33 30 -12 44 6 87 36 83 20 -3 22 -9 22 -58z"/>
<path d="M516 3524 c-19 -19 -22 -114 -4 -132 18 -18 53 -15 71 6 22 24 23
105 1 126 -8 9 -24 16 -34 16 -10 0 -26 -7 -34 -16z m59 -64 c0 -52 -1 -55
-25 -55 -18 0 -26 7 -33 30 -12 44 6 87 36 83 20 -3 22 -9 22 -58z"/>
<path d="M250 2630 c0 -35 3 -40 24 -40 13 0 29 -7 36 -15 19 -23 -6 -48 -42
-43 -29 5 -39 -9 -13 -18 24 -10 63 4 75 26 15 28 -4 59 -41 67 -41 8 -41 43
0 43 17 0 33 5 36 10 4 6 -10 10 -34 10 l-41 0 0 -40z"/>
<path d="M386 2654 c-19 -19 -22 -114 -4 -132 18 -18 53 -15 71 6 22 24 23
105 1 126 -8 9 -24 16 -34 16 -10 0 -26 -7 -34 -16z m59 -64 c0 -52 -1 -55
-25 -55 -18 0 -26 7 -33 30 -12 44 6 87 36 83 20 -3 22 -9 22 -58z"/>
<path d="M516 2654 c-19 -19 -22 -114 -4 -132 18 -18 53 -15 71 6 22 24 23
105 1 126 -8 9 -24 16 -34 16 -10 0 -26 -7 -34 -16z m59 -64 c0 -52 -1 -55
-25 -55 -18 0 -26 7 -33 30 -12 44 6 87 36 83 20 -3 22 -9 22 -58z"/>
<path d="M509 1773 c-8 -9 -14 -37 -14 -63 0 -53 17 -80 51 -80 47 0 73 89 38
138 -18 26 -56 29 -75 5z m65 -19 c16 -43 3 -104 -23 -104 -38 0 -55 56 -31
101 13 23 46 25 54 3z"/>
<path d="M3840 1440 c-28 -28 -25 -44 16 -90 42 -47 76 -52 99 -16 15 22 15
27 0 56 -14 27 -67 70 -87 70 -5 0 -17 -9 -28 -20z m77 -35 c37 -37 41 -67 9
-73 -19 -4 -86 53 -86 73 0 13 20 35 33 35 5 0 25 -16 44 -35z"/>
<path d="M4432 1444 c-32 -22 -28 -58 13 -99 37 -37 54 -42 86 -25 39 21 14
97 -42 126 -34 17 -30 17 -57 -2z m75 -39 c36 -36 38 -51 11 -69 -32 -20 -99
50 -85 88 10 25 36 19 74 -19z"/>
<path d="M5022 1444 c-32 -22 -28 -58 13 -99 37 -37 54 -42 86 -25 39 21 14
97 -42 126 -34 17 -30 17 -57 -2z m75 -39 c36 -36 38 -51 11 -69 -32 -20 -99
50 -85 88 10 25 36 19 74 -19z"/>
<path d="M5607 1442 c-26 -29 -20 -61 17 -98 37 -37 66 -43 90 -18 26 25 19
54 -23 95 -43 43 -60 48 -84 21z m72 -36 c53 -55 20 -106 -36 -54 -37 34 -47
57 -32 74 18 21 32 17 68 -20z"/>
<path d="M6196 1444 c-28 -27 -20 -69 19 -103 41 -36 65 -39 90 -11 24 26 14
60 -30 99 -40 35 -57 38 -79 15z m69 -35 c24 -21 35 -39 33 -53 -4 -30 -36
-32 -65 -4 -37 34 -47 57 -32 74 16 20 24 18 64 -17z"/>
<path d="M6786 1444 c-28 -27 -20 -69 19 -103 41 -36 65 -39 90 -11 24 26 14
60 -30 99 -40 35 -57 38 -79 15z m69 -35 c24 -21 35 -39 33 -53 -4 -30 -36
-32 -65 -4 -37 34 -47 57 -32 74 16 20 24 18 64 -17z"/>
<path d="M7370 1440 c-28 -28 -25 -44 16 -90 42 -47 76 -52 99 -16 15 22 15
27 0 56 -14 27 -67 70 -87 70 -5 0 -17 -9 -28 -20z m77 -35 c37 -37 41 -67 9
-73 -19 -4 -86 53 -86 73 0 13 20 35 33 35 5 0 25 -16 44 -35z"/>
<path d="M7962 1444 c-32 -22 -28 -58 13 -99 37 -37 54 -42 86 -25 39 21 14
97 -42 126 -34 17 -30 17 -57 -2z m75 -39 c36 -36 38 -51 11 -69 -32 -20 -99
50 -85 88 10 25 36 19 74 -19z"/>
<path d="M8552 1444 c-32 -22 -28 -58 13 -99 37 -37 54 -42 86 -25 39 21 14
97 -42 126 -34 17 -30 17 -57 -2z m75 -39 c36 -36 38 -51 11 -69 -32 -20 -99
50 -85 88 10 25 36 19 74 -19z"/>
<path d="M9137 1442 c-26 -29 -20 -61 17 -98 37 -37 66 -43 90 -18 26 25 19
54 -23 95 -43 43 -60 48 -84 21z m72 -36 c53 -55 20 -106 -36 -54 -37 34 -47
57 -32 74 18 21 32 17 68 -20z"/>
<path d="M9727 1442 c-26 -29 -20 -61 17 -98 37 -37 66 -43 90 -18 26 25 19
54 -23 95 -43 43 -60 48 -84 21z m72 -36 c53 -55 20 -106 -36 -54 -37 34 -47
57 -32 74 18 21 32 17 68 -20z"/>
<path d="M10316 1444 c-28 -27 -20 -69 19 -103 41 -36 65 -39 90 -11 24 26 14
60 -30 99 -40 35 -57 38 -79 15z m69 -35 c24 -21 35 -39 33 -53 -4 -30 -36
-32 -65 -4 -37 34 -47 57 -32 74 16 20 24 18 64 -17z"/>
<path d="M10900 1440 c-28 -28 -25 -44 16 -90 42 -47 76 -52 99 -16 15 22 15
27 0 56 -14 27 -67 70 -87 70 -5 0 -17 -9 -28 -20z m77 -35 c37 -37 41 -67 9
-73 -19 -4 -86 53 -86 73 0 13 20 35 33 35 5 0 25 -16 44 -35z"/>
<path d="M11490 1440 c-28 -28 -25 -44 16 -90 42 -47 76 -52 99 -16 15 22 15
27 0 56 -14 27 -67 70 -87 70 -5 0 -17 -9 -28 -20z m77 -35 c37 -37 41 -67 9
-73 -19 -4 -86 53 -86 73 0 13 20 35 33 35 5 0 25 -16 44 -35z"/>
<path d="M12082 1444 c-32 -22 -28 -58 13 -99 37 -37 54 -42 86 -25 39 21 14
97 -42 126 -34 17 -30 17 -57 -2z m75 -39 c36 -36 38 -51 11 -69 -32 -20 -99
50 -85 88 10 25 36 19 74 -19z"/>
<path d="M12667 1442 c-26 -29 -20 -61 17 -98 37 -37 66 -43 90 -18 26 25 19
54 -23 95 -43 43 -60 48 -84 21z m72 -36 c53 -55 20 -106 -36 -54 -37 34 -47
57 -32 74 18 21 32 17 68 -20z"/>
<path d="M13257 1442 c-26 -29 -20 -61 17 -98 37 -37 66 -43 90 -18 26 25 19
54 -23 95 -43 43 -60 48 -84 21z m72 -36 c53 -55 20 -106 -36 -54 -37 34 -47
57 -32 74 18 21 32 17 68 -20z"/>
<path d="M896 1434 c-33 -33 -4 -100 54 -124 26 -11 33 -10 50 5 30 27 25 60
-15 100 -39 38 -65 44 -89 19z m75 -33 c49 -50 29 -103 -26 -67 -39 26 -60 63
-45 81 19 22 38 18 71 -14z"/>
<path d="M1482 1438 c-22 -22 -13 -59 22 -94 39 -39 79 -45 96 -15 16 31 12
48 -21 86 -33 37 -73 47 -97 23z m86 -41 c46 -49 4 -91 -45 -45 -38 36 -45 54
-27 72 18 18 36 11 72 -27z"/>
<path d="M2072 1438 c-22 -22 -13 -63 21 -96 36 -35 67 -41 91 -16 24 24 19
49 -18 88 -34 37 -72 46 -94 24z m75 -33 c37 -37 41 -67 9 -73 -19 -4 -86 53
-86 73 0 13 20 35 33 35 5 0 25 -16 44 -35z"/>
<path d="M2662 1438 c-22 -22 -13 -63 21 -96 36 -35 67 -41 91 -16 24 24 19
49 -18 88 -34 37 -72 46 -94 24z m75 -33 c37 -37 41 -67 9 -73 -19 -4 -86 53
-86 73 0 13 20 35 33 35 5 0 25 -16 44 -35z"/>
<path d="M3246 1434 c-9 -8 -16 -20 -16 -25 0 -21 30 -67 54 -83 36 -23 63
-20 82 9 15 23 15 27 -1 53 -37 58 -87 78 -119 46z m79 -28 c38 -37 44 -68 12
-74 -43 -9 -102 62 -77 93 18 21 24 19 65 -19z"/>
<path d="M806 1344 c-9 -8 -16 -20 -16 -25 0 -21 30 -67 54 -83 36 -23 63 -20
82 9 15 23 15 27 -1 53 -37 58 -87 78 -119 46z m79 -28 c38 -37 44 -68 12 -74
-43 -9 -102 62 -77 93 18 21 24 19 65 -19z"/>
<path d="M1392 1348 c-22 -22 -14 -68 17 -99 36 -36 85 -40 101 -8 31 57 -74
151 -118 107z m79 -37 c32 -33 36 -52 14 -71 -18 -15 -55 6 -81 45 -36 55 17
75 67 26z"/>
<path d="M1977 1342 c-25 -27 -21 -46 17 -86 39 -42 77 -47 100 -15 18 26 12
44 -27 87 -35 36 -66 41 -90 14z m80 -34 c37 -35 40 -50 18 -68 -12 -10 -20
-9 -40 4 -52 34 -71 96 -28 96 9 0 32 -14 50 -32z"/>
<path d="M2567 1342 c-25 -27 -21 -46 17 -86 39 -42 77 -47 100 -15 18 26 12
44 -27 87 -35 36 -66 41 -90 14z m80 -34 c37 -35 40 -50 18 -68 -12 -10 -20
-9 -40 4 -52 34 -71 96 -28 96 9 0 32 -14 50 -32z"/>
<path d="M3156 1344 c-24 -23 -19 -49 15 -89 21 -24 40 -35 58 -35 60 0 69 54
17 106 -37 37 -66 43 -90 18z m83 -39 c17 -20 31 -39 31 -43 0 -10 -22 -32
-32 -32 -16 0 -78 63 -78 79 0 44 39 41 79 -4z"/>
<path d="M3740 1341 c-5 -11 -10 -27 -10 -36 0 -26 64 -85 92 -85 57 0 65 59
15 108 -38 37 -81 43 -97 13z m94 -41 c47 -56 -5 -86 -57 -32 -29 30 -34 51
-15 70 14 14 38 2 72 -38z"/>
<path d="M4332 1348 c-22 -22 -13 -59 22 -94 39 -39 79 -45 96 -15 16 31 12
48 -21 86 -33 37 -73 47 -97 23z m86 -41 c46 -49 4 -91 -45 -45 -38 36 -45 54
-27 72 18 18 36 11 72 -27z"/>
<path d="M4922 1348 c-22 -22 -13 -59 22 -94 39 -39 79 -45 96 -15 16 31 12
48 -21 86 -33 37 -73 47 -97 23z m86 -41 c46 -49 4 -91 -45 -45 -38 36 -45 54
-27 72 18 18 36 11 72 -27z"/>
<path d="M5512 1348 c-22 -22 -13 -63 21 -96 36 -35 67 -41 91 -16 24 24 19
49 -18 88 -34 37 -72 46 -94 24z m75 -33 c37 -37 41 -67 9 -73 -19 -4 -86 53
-86 73 0 13 20 35 33 35 5 0 25 -16 44 -35z"/>
<path d="M6102 1348 c-22 -22 -13 -63 21 -96 36 -35 67 -41 91 -16 24 24 19
49 -18 88 -34 37 -72 46 -94 24z m75 -33 c37 -37 41 -67 9 -73 -19 -4 -86 53
-86 73 0 13 20 35 33 35 5 0 25 -16 44 -35z"/>
<path d="M6686 1344 c-9 -8 -16 -20 -16 -25 0 -21 30 -67 54 -83 36 -23 63
-20 82 9 15 23 15 27 -1 53 -37 58 -87 78 -119 46z m79 -28 c38 -37 44 -68 12
-74 -43 -9 -102 62 -77 93 18 21 24 19 65 -19z"/>
<path d="M7270 1341 c-5 -11 -10 -27 -10 -36 0 -26 64 -85 92 -85 57 0 65 59
15 108 -38 37 -81 43 -97 13z m94 -41 c47 -56 -5 -86 -57 -32 -29 30 -34 51
-15 70 14 14 38 2 72 -38z"/>
<path d="M7860 1341 c-5 -11 -10 -27 -10 -36 0 -26 64 -85 92 -85 57 0 65 59
15 108 -38 37 -81 43 -97 13z m94 -41 c47 -56 -5 -86 -57 -32 -29 30 -34 51
-15 70 14 14 38 2 72 -38z"/>
<path d="M8452 1348 c-22 -22 -13 -59 22 -94 39 -39 79 -45 96 -15 16 31 12
48 -21 86 -33 37 -73 47 -97 23z m86 -41 c46 -49 4 -91 -45 -45 -38 36 -45 54
-27 72 18 18 36 11 72 -27z"/>
<path d="M9042 1348 c-22 -22 -13 -63 21 -96 36 -35 67 -41 91 -16 24 24 19
49 -18 88 -34 37 -72 46 -94 24z m75 -33 c37 -37 41 -67 9 -73 -19 -4 -86 53
-86 73 0 13 20 35 33 35 5 0 25 -16 44 -35z"/>
<path d="M9632 1348 c-22 -22 -13 -63 21 -96 36 -35 67 -41 91 -16 24 24 19
49 -18 88 -34 37 -72 46 -94 24z m75 -33 c37 -37 41 -67 9 -73 -19 -4 -86 53
-86 73 0 13 20 35 33 35 5 0 25 -16 44 -35z"/>
<path d="M10216 1344 c-9 -8 -16 -20 -16 -25 0 -21 30 -67 54 -83 36 -23 63
-20 82 9 15 23 15 27 -1 53 -37 58 -87 78 -119 46z m79 -28 c38 -37 44 -68 12
-74 -43 -9 -102 62 -77 93 18 21 24 19 65 -19z"/>
<path d="M10806 1344 c-9 -8 -16 -20 -16 -25 0 -21 30 -67 54 -83 36 -23 63
-20 82 9 15 23 15 27 -1 53 -37 58 -87 78 -119 46z m79 -28 c38 -37 44 -68 12
-74 -43 -9 -102 62 -77 93 18 21 24 19 65 -19z"/>
<path d="M11390 1341 c-5 -11 -10 -27 -10 -36 0 -26 64 -85 92 -85 57 0 65 59
15 108 -38 37 -81 43 -97 13z m94 -41 c47 -56 -5 -86 -57 -32 -29 30 -34 51
-15 70 14 14 38 2 72 -38z"/>
<path d="M11982 1348 c-22 -22 -13 -59 22 -94 39 -39 79 -45 96 -15 16 31 12
48 -21 86 -33 37 -73 47 -97 23z m86 -41 c46 -49 4 -91 -45 -45 -38 36 -45 54
-27 72 18 18 36 11 72 -27z"/>
<path d="M12572 1348 c-22 -22 -13 -59 22 -94 39 -39 79 -45 96 -15 16 31 12
48 -21 86 -33 37 -73 47 -97 23z m86 -41 c46 -49 4 -91 -45 -45 -38 36 -45 54
-27 72 18 18 36 11 72 -27z"/>
<path d="M13162 1348 c-22 -22 -13 -63 21 -96 36 -35 67 -41 91 -16 24 24 19
49 -18 88 -34 37 -72 46 -94 24z m75 -33 c37 -37 41 -67 9 -73 -19 -4 -86 53
-86 73 0 13 20 35 33 35 5 0 25 -16 44 -35z"/>
<path d="M5422 1257 c-40 -42 -42 -61 -2 -22 16 16 32 27 34 24 2 -2 14 -32
26 -66 13 -35 27 -63 31 -63 5 0 9 4 9 8 0 12 -50 136 -59 145 -4 4 -21 -8
-39 -26z"/>
<path d="M8360 1255 c-40 -42 -32 -60 9 -21 l29 28 23 -66 c21 -59 39 -84 39
-56 0 15 -51 140 -60 145 -4 2 -22 -11 -40 -30z"/>
<path d="M11300 1255 c-40 -41 -32 -61 9 -21 l28 27 23 -58 c25 -62 40 -86 40
-63 0 21 -51 150 -59 150 -4 0 -22 -16 -41 -35z"/>
<path d="M1885 1250 l-29 -30 27 -27 c25 -25 27 -26 45 -10 23 21 46 22 63 1
11 -14 9 -20 -15 -41 -31 -27 -29 -41 3 -24 25 14 38 58 24 80 -14 22 -51 26
-72 7 -16 -15 -19 -15 -31 -1 -11 13 -10 19 5 35 30 33 11 43 -20 10z"/>
<path d="M2470 1245 c-23 -23 -29 -35 -19 -35 9 0 24 9 34 20 10 11 21 20 24
20 3 0 17 -30 30 -66 14 -39 27 -62 32 -57 10 10 -41 145 -57 150 -5 2 -25
-13 -44 -32z"/>
<path d="M4827 1252 l-27 -28 28 -27 28 -27 21 22 c23 23 49 19 60 -8 4 -12
-3 -25 -21 -41 -15 -12 -21 -23 -14 -23 19 0 33 12 47 38 10 19 10 28 -4 48
-18 28 -41 31 -67 8 -14 -14 -20 -14 -33 -4 -13 11 -13 15 -2 29 40 46 26 57
-16 13z"/>
<path d="M7772 1257 c-27 -29 -27 -39 -2 -62 20 -18 22 -18 51 -1 24 14 33 15
44 6 20 -17 19 -30 -7 -57 -26 -28 -6 -31 22 -3 26 26 25 52 -1 76 -20 18 -22
18 -51 1 -24 -14 -34 -15 -45 -6 -12 10 -11 15 7 34 11 12 20 24 20 28 0 14
-17 7 -38 -16z"/>
<path d="M10710 1255 l-23 -25 23 -25 c28 -29 37 -31 62 -9 14 14 20 14 33 4
22 -18 18 -47 -7 -61 -15 -8 -18 -14 -10 -17 19 -6 52 28 52 54 0 24 -24 54
-43 54 -7 0 -23 -7 -35 -16 -18 -13 -26 -13 -38 -3 -13 10 -12 15 6 34 11 12
20 24 20 28 0 14 -17 6 -40 -18z"/>
<path d="M1302 1254 c-12 -8 -22 -25 -21 -37 l0 -22 11 22 c14 29 34 35 49 17
10 -12 10 -20 1 -35 -18 -28 -15 -31 14 -13 24 16 26 16 42 0 16 -16 15 -19
-10 -41 -31 -27 -23 -42 10 -19 41 28 19 103 -25 87 -8 -3 -13 4 -13 16 0 30
-32 44 -58 25z"/>
<path d="M3066 1254 c-21 -21 -20 -57 2 -77 25 -23 37 -21 61 9 19 25 20 25
31 5 12 -23 0 -56 -22 -64 -7 -2 -10 -8 -6 -12 14 -15 48 27 48 58 0 20 -11
40 -34 63 -38 38 -57 42 -80 18z m58 -26 c8 -14 7 -21 -5 -33 -28 -29 -73 11
-48 42 15 17 38 13 53 -9z"/>
<path d="M3655 1257 c-3 -9 -7 -24 -10 -32 -2 -8 0 -17 5 -20 6 -4 10 1 10 9
0 25 13 19 53 -22 29 -29 34 -41 25 -50 -6 -6 -9 -15 -5 -19 10 -9 57 37 57
56 0 12 -3 12 -12 3 -10 -10 -24 -1 -65 40 -42 41 -53 48 -58 35z"/>
<path d="M4236 1248 c-22 -31 -20 -48 3 -19 12 16 24 22 35 18 19 -7 21 -38 4
-55 -9 -9 -9 -12 -1 -12 7 0 15 5 18 10 10 16 45 12 52 -7 4 -10 -3 -24 -21
-40 -19 -16 -22 -23 -12 -23 22 0 56 36 56 58 0 22 -19 42 -40 42 -8 0 -20 10
-25 23 -14 31 -49 34 -69 5z"/>
<path d="M6006 1254 c-30 -30 -9 -84 33 -84 10 0 26 9 36 20 10 11 22 17 26
14 17 -10 9 -53 -13 -68 -16 -12 -18 -16 -7 -16 22 0 49 32 49 59 0 28 -61 91
-88 91 -11 0 -28 -7 -36 -16z m64 -19 c10 -12 10 -18 0 -30 -27 -32 -71 -8
-56 30 3 8 14 15 24 15 11 0 25 -7 32 -15z"/>
<path d="M7174 1245 c-22 -34 -10 -45 15 -14 19 23 21 23 37 7 17 -17 17 -18
-2 -39 -19 -22 -19 -22 1 -14 57 23 89 -11 44 -46 -18 -14 -20 -19 -8 -19 21
0 49 32 49 56 0 24 -18 44 -40 44 -8 0 -20 10 -25 23 -15 32 -50 34 -71 2z"/>
<path d="M8947 1252 c-22 -24 -21 -45 1 -65 25 -23 47 -21 71 4 19 21 19 21
30 1 8 -16 6 -25 -10 -46 -22 -28 -10 -36 15 -10 25 24 19 60 -15 99 -35 39
-67 45 -92 17z m63 -17 c10 -12 10 -18 0 -30 -7 -8 -18 -15 -25 -15 -19 0 -38
28 -31 45 7 19 40 19 56 0z"/>
<path d="M10114 1245 c-22 -34 -10 -45 15 -14 19 23 21 23 37 7 17 -17 17 -18
-2 -39 -19 -22 -19 -22 1 -14 57 23 89 -11 44 -46 -18 -14 -20 -19 -8 -19 21
0 49 32 49 56 0 24 -18 44 -40 44 -8 0 -20 10 -25 23 -15 32 -50 34 -71 2z"/>
<path d="M11892 1258 c-7 -7 -12 -24 -12 -38 0 -14 5 -31 12 -38 19 -19 56
-14 70 8 16 26 25 25 33 -1 5 -14 0 -28 -16 -45 -18 -20 -20 -24 -6 -24 9 0
21 9 27 19 18 35 11 68 -21 100 -32 32 -66 40 -87 19z m56 -17 c20 -12 10 -45
-14 -49 -25 -4 -49 22 -40 43 6 16 33 20 54 6z"/>
<path d="M13066 1254 c-9 -8 -16 -23 -16 -32 0 -13 3 -12 16 6 8 12 21 22 28
22 19 0 29 -30 15 -47 -17 -19 -5 -27 20 -11 17 11 23 10 37 -4 16 -15 15 -18
-11 -42 -19 -17 -23 -26 -13 -26 25 0 50 36 46 67 -2 22 -9 29 -30 31 -19 2
-28 9 -28 22 0 16 -18 30 -40 30 -5 0 -16 -7 -24 -16z"/>
<path d="M717 1253 c-4 -3 -6 -18 -6 -32 1 -17 3 -20 6 -8 6 25 14 22 58 -23
32 -33 36 -41 25 -55 -24 -28 6 -15 36 16 24 26 26 30 9 25 -16 -5 -32 5 -65
39 -45 46 -52 50 -63 38z"/>
<path d="M6597 1253 c-4 -3 -6 -18 -6 -32 1 -17 3 -20 6 -8 6 25 14 22 56 -21
29 -29 34 -41 25 -50 -6 -6 -8 -15 -5 -19 4 -4 22 7 39 25 30 30 34 58 5 34
-10 -9 -23 -1 -57 33 -45 46 -52 50 -63 38z"/>
<path d="M9536 1244 c-3 -9 -6 -23 -6 -32 0 -14 2 -14 13 1 11 16 16 14 51
-22 33 -34 37 -42 26 -56 -22 -27 5 -16 33 13 29 30 37 53 12 32 -14 -11 -23
-6 -63 33 -53 52 -57 54 -66 31z"/>
<path d="M12476 1234 c-9 -33 1 -45 12 -15 7 20 10 19 51 -23 26 -27 39 -46
32 -50 -6 -4 -11 -12 -11 -18 0 -7 14 1 30 17 29 28 43 58 17 37 -10 -9 -24
-1 -57 33 -51 52 -65 55 -74 19z"/>
<path d="M6500 1160 c-19 -19 -27 -40 -14 -40 3 0 14 10 24 23 18 21 20 21 36
5 11 -11 19 -38 22 -72 2 -31 8 -56 11 -56 4 0 22 15 39 33 39 40 30 58 -10
20 l-28 -27 0 45 c0 47 -21 89 -46 89 -8 0 -23 -9 -34 -20z"/>
<path d="M7090 1160 c-19 -19 -27 -40 -14 -40 3 0 14 10 24 23 18 21 20 21 36
5 11 -11 19 -38 22 -72 2 -31 8 -56 11 -56 4 0 22 15 39 33 39 40 30 58 -10
20 l-28 -27 0 45 c0 47 -21 89 -46 89 -8 0 -23 -9 -34 -20z"/>
<path d="M7677 1162 c-10 -10 -17 -25 -17 -32 0 -9 7 -6 20 8 36 38 52 21 68
-77 l7 -44 33 28 c17 15 32 34 32 43 0 12 -8 8 -30 -13 l-30 -29 0 47 c0 72
-46 110 -83 69z"/>
<path d="M8267 1162 c-10 -10 -17 -25 -17 -32 0 -9 7 -6 20 8 36 38 52 21 68
-77 l7 -44 33 28 c17 15 32 34 32 43 0 12 -8 8 -30 -13 l-30 -29 0 47 c0 72
-46 110 -83 69z"/>
<path d="M8857 1162 c-10 -10 -17 -27 -17 -38 1 -15 4 -14 16 9 17 32 25 33
47 9 11 -12 17 -36 17 -65 0 -25 4 -48 8 -51 5 -3 24 10 42 29 37 38 31 49 -7
13 l-23 -21 0 37 c0 77 -46 119 -83 78z"/>
<path d="M9454 1172 c-14 -9 -37 -52 -28 -52 3 0 14 10 24 23 18 21 20 21 36
5 14 -14 15 -20 4 -33 -16 -20 -5 -32 15 -15 8 7 22 10 30 6 23 -8 18 -44 -7
-57 -15 -8 -18 -14 -10 -17 19 -6 52 28 52 53 0 27 -24 49 -45 41 -10 -3 -15
1 -15 12 0 32 -31 51 -56 34z"/>
<path d="M10044 1172 c-14 -9 -37 -52 -28 -52 3 0 14 10 24 23 18 21 20 21 36
5 14 -14 15 -20 4 -33 -16 -20 -5 -32 15 -15 8 7 22 10 30 6 23 -8 18 -44 -7
-57 -15 -8 -18 -14 -10 -17 19 -6 52 28 52 53 0 27 -24 49 -45 41 -10 -3 -15
1 -15 12 0 32 -31 51 -56 34z"/>
<path d="M10620 1160 c-19 -19 -27 -40 -14 -40 3 0 14 10 23 22 19 23 41 18
41 -11 0 -9 -6 -23 -12 -30 -11 -12 -9 -13 7 -6 39 15 60 11 63 -12 2 -15 -5
-26 -25 -37 -24 -13 -25 -15 -7 -16 26 0 54 30 54 57 0 26 -25 47 -45 39 -10
-3 -15 1 -15 12 0 21 -19 42 -37 42 -7 0 -22 -9 -33 -20z"/>
<path d="M11207 1162 c-10 -10 -17 -25 -17 -33 0 -9 7 -6 18 9 12 15 24 21 35
16 18 -7 23 -39 7 -49 -5 -3 -10 -11 -10 -16 0 -5 12 -2 26 7 24 16 26 16 42
0 16 -16 15 -19 -11 -42 -19 -16 -23 -24 -13 -24 20 0 56 35 56 54 0 19 -27
46 -46 46 -8 0 -14 4 -14 9 0 14 -29 41 -44 41 -7 0 -20 -8 -29 -18z"/>
<path d="M11797 1162 c-10 -10 -17 -25 -17 -33 0 -9 7 -6 18 9 12 15 24 21 35
16 18 -7 23 -39 7 -49 -5 -3 -10 -11 -10 -16 0 -5 12 -2 26 7 24 16 26 16 42
0 16 -16 15 -19 -11 -42 -19 -16 -23 -24 -13 -24 20 0 56 35 56 54 0 19 -27
46 -46 46 -8 0 -14 4 -14 9 0 14 -29 41 -44 41 -7 0 -20 -8 -29 -18z"/>
<path d="M12398 1174 c-6 -5 19 -110 29 -127 3 -5 18 3 33 18 18 17 30 23 34
16 4 -6 12 -11 18 -11 7 0 6 5 -2 15 -6 8 -9 19 -5 25 3 5 -2 10 -13 10 -10 0
-31 14 -47 30 -29 30 -37 35 -47 24z m62 -88 c-18 -23 -27 -20 -34 12 -4 15
-9 36 -12 47 -5 16 1 13 27 -12 27 -27 30 -34 19 -47z"/>
<path d="M12988 1174 c-6 -5 19 -110 29 -127 3 -5 18 3 33 18 18 17 30 23 34
16 4 -6 12 -11 18 -11 7 0 6 5 -2 15 -6 8 -9 19 -5 25 3 5 -2 10 -13 10 -10 0
-31 14 -47 30 -29 30 -37 35 -47 24z m62 -88 c-18 -23 -27 -20 -34 12 -4 15
-9 36 -12 47 -5 16 1 13 27 -12 27 -27 30 -34 19 -47z"/>
<path d="M3561 1148 c-5 -13 -6 -27 -3 -33 4 -5 8 -2 10 8 5 25 13 22 55 -21
29 -29 34 -41 25 -50 -6 -6 -8 -15 -5 -19 4 -4 22 8 40 26 28 29 29 33 10 28
-16 -3 -32 7 -64 39 -24 24 -47 44 -51 44 -5 0 -12 -10 -17 -22z"/>
<path d="M4146 1148 c-9 -36 -7 -45 8 -26 12 16 16 14 51 -22 32 -33 36 -42
25 -55 -21 -26 13 -19 38 8 26 28 31 57 7 37 -14 -11 -23 -6 -63 33 -26 26
-50 47 -54 47 -3 0 -8 -10 -12 -22z"/>
<path d="M4736 1154 c-3 -9 -6 -23 -6 -32 0 -14 2 -14 13 1 11 16 16 14 51
-22 33 -34 37 -42 26 -56 -22 -27 5 -16 33 13 29 30 37 53 12 32 -14 -11 -23
-6 -63 33 -53 52 -57 54 -66 31z"/>
<path d="M5326 1154 c-3 -9 -6 -23 -6 -32 0 -14 2 -14 13 1 11 16 16 14 51
-22 33 -34 37 -42 26 -56 -22 -27 5 -16 33 13 29 30 37 53 12 32 -14 -11 -23
-6 -63 33 -53 52 -57 54 -66 31z"/>
<path d="M5917 1163 c-4 -3 -6 -18 -6 -32 1 -17 3 -20 6 -8 6 25 14 22 58 -23
32 -33 36 -41 25 -55 -24 -28 6 -15 36 16 24 26 26 30 9 25 -16 -5 -32 5 -65
39 -45 46 -52 50 -63 38z"/>
<path d="M705 1120 c-10 -11 -16 -22 -13 -25 3 -3 13 4 23 15 10 11 16 22 13
25 -3 3 -13 -4 -23 -15z"/>
<path d="M1295 1120 c-10 -11 -16 -22 -13 -25 3 -3 13 4 23 15 10 11 16 22 13
25 -3 3 -13 -4 -23 -15z"/>
<path d="M1885 1120 c-10 -11 -16 -22 -13 -25 3 -3 13 4 23 15 10 11 16 22 13
25 -3 3 -13 -4 -23 -15z"/>
<path d="M2467 1122 c-10 -10 -14 -22 -10 -25 7 -8 43 21 43 35 0 14 -16 9
-33 -10z"/>
<path d="M3057 1122 c-10 -10 -14 -22 -10 -25 7 -8 43 21 43 35 0 14 -16 9
-33 -10z"/>
<path d="M1156 1104 c-3 -9 -6 -23 -6 -32 0 -14 2 -14 13 1 11 16 16 14 51
-22 33 -34 37 -42 26 -56 -21 -26 13 -19 38 8 27 28 28 40 4 33 -12 -4 -31 8
-62 39 -49 50 -55 52 -64 29z"/>
<path d="M1747 1113 c-4 -3 -6 -18 -6 -32 1 -17 3 -20 6 -8 6 25 14 22 58 -23
32 -33 36 -41 25 -55 -24 -28 6 -15 36 16 24 26 26 30 9 25 -16 -5 -32 5 -65
39 -45 46 -52 50 -63 38z"/>
<path d="M2335 1107 c-3 -9 -7 -24 -10 -32 -2 -8 0 -15 5 -15 6 0 10 8 10 17
0 12 13 4 45 -27 34 -34 42 -47 33 -57 -6 -7 -9 -16 -6 -18 2 -3 20 11 39 31
30 33 32 36 10 29 -19 -6 -32 1 -72 41 -39 38 -49 44 -54 31z"/>
<path d="M2925 1107 c-3 -9 -7 -24 -10 -32 -2 -8 0 -15 5 -15 6 0 10 8 10 17
0 12 13 4 45 -27 34 -34 42 -47 33 -57 -6 -7 -9 -16 -6 -18 2 -3 20 11 39 31
30 33 32 36 10 29 -19 -6 -32 1 -72 41 -39 38 -49 44 -54 31z"/>
<path d="M566 1094 c-3 -9 -6 -23 -6 -32 0 -14 2 -14 13 1 11 16 16 14 51 -22
33 -34 37 -42 26 -56 -22 -27 5 -16 33 13 29 30 37 53 12 32 -14 -11 -23 -6
-63 33 -53 52 -57 54 -66 31z"/>
<path d="M3555 1030 c-10 -11 -14 -20 -8 -20 5 0 18 9 28 20 10 11 14 20 8 20
-5 0 -18 -9 -28 -20z"/>
<path d="M4145 1030 c-10 -11 -13 -20 -8 -20 13 0 38 29 31 35 -3 3 -13 -4
-23 -15z"/>
<path d="M4735 1030 c-10 -11 -13 -20 -8 -20 13 0 38 29 31 35 -3 3 -13 -4
-23 -15z"/>
<path d="M5320 1035 c-7 -9 -10 -18 -7 -22 8 -7 37 15 37 28 0 14 -16 11 -30
-6z"/>
<path d="M5905 1030 c-10 -11 -14 -20 -8 -20 5 0 18 9 28 20 10 11 14 20 8 20
-5 0 -18 -9 -28 -20z"/>
<path d="M6495 1030 c-10 -11 -14 -20 -8 -20 5 0 18 9 28 20 10 11 14 20 8 20
-5 0 -18 -9 -28 -20z"/>
<path d="M7085 1030 c-10 -11 -14 -20 -8 -20 5 0 18 9 28 20 10 11 14 20 8 20
-5 0 -18 -9 -28 -20z"/>
<path d="M7675 1030 c-10 -11 -13 -20 -8 -20 13 0 38 29 31 35 -3 3 -13 -4
-23 -15z"/>
<path d="M8265 1030 c-10 -11 -13 -20 -8 -20 13 0 38 29 31 35 -3 3 -13 -4
-23 -15z"/>
<path d="M8850 1035 c-7 -9 -10 -18 -7 -22 8 -7 37 15 37 28 0 14 -16 11 -30
-6z"/>
<path d="M9440 1035 c-7 -9 -10 -18 -7 -22 8 -7 37 15 37 28 0 14 -16 11 -30
-6z"/>
<path d="M10025 1030 c-10 -11 -14 -20 -8 -20 5 0 18 9 28 20 10 11 14 20 8
20 -5 0 -18 -9 -28 -20z"/>
<path d="M10615 1030 c-10 -11 -14 -20 -8 -20 5 0 18 9 28 20 10 11 14 20 8
20 -5 0 -18 -9 -28 -20z"/>
<path d="M11205 1030 c-10 -11 -14 -20 -8 -20 5 0 18 9 28 20 10 11 14 20 8
20 -5 0 -18 -9 -28 -20z"/>
<path d="M11795 1030 c-10 -11 -13 -20 -8 -20 13 0 38 29 31 35 -3 3 -13 -4
-23 -15z"/>
<path d="M12380 1035 c-7 -9 -10 -18 -7 -22 8 -7 37 15 37 28 0 14 -16 11 -30
-6z"/>
<path d="M12970 1035 c-7 -9 -10 -18 -7 -22 8 -7 37 15 37 28 0 14 -16 11 -30
-6z"/>
<path d="M1072 1024 c-32 -22 -28 -58 13 -99 37 -37 54 -42 86 -25 39 21 14
97 -42 126 -34 17 -30 17 -57 -2z m75 -39 c36 -36 38 -51 11 -69 -32 -20 -99
50 -85 88 10 25 36 19 74 -19z"/>
<path d="M1657 1022 c-26 -29 -20 -61 17 -98 37 -37 66 -43 90 -18 26 25 19
54 -23 95 -43 43 -60 48 -84 21z m72 -36 c53 -55 20 -106 -36 -54 -37 34 -47
57 -32 74 18 21 32 17 68 -20z"/>
<path d="M2247 1022 c-26 -29 -20 -61 17 -98 37 -37 66 -43 90 -18 26 25 19
54 -23 95 -43 43 -60 48 -84 21z m72 -36 c53 -55 20 -106 -36 -54 -37 34 -47
57 -32 74 18 21 32 17 68 -20z"/>
<path d="M2836 1024 c-28 -27 -20 -69 19 -103 41 -36 65 -39 90 -11 24 26 14
60 -30 99 -40 35 -57 38 -79 15z m69 -35 c24 -21 35 -39 33 -53 -4 -30 -36
-32 -65 -4 -37 34 -47 57 -32 74 16 20 24 18 64 -17z"/>
<path d="M3416 1004 c-8 -30 0 -45 10 -20 6 15 12 12 45 -20 31 -30 37 -42 32
-63 l-6 -26 32 29 c35 33 40 50 13 42 -12 -4 -31 8 -62 39 -24 25 -47 45 -51
45 -4 0 -10 -12 -13 -26z"/>
<path d="M4006 1014 c-3 -9 -6 -23 -6 -32 0 -14 2 -14 13 1 11 16 16 14 51
-22 33 -34 37 -42 26 -56 -21 -26 13 -19 38 8 27 28 28 40 4 33 -12 -4 -31 8
-62 39 -49 50 -55 52 -64 29z"/>
<path d="M4596 1014 c-3 -9 -6 -23 -6 -32 0 -14 2 -14 13 1 11 16 16 14 51
-22 33 -34 37 -42 26 -56 -21 -26 13 -19 38 8 27 28 28 40 4 33 -12 -4 -31 8
-62 39 -49 50 -55 52 -64 29z"/>
<path d="M5187 1023 c-4 -3 -6 -18 -6 -32 1 -17 3 -20 6 -8 6 25 14 22 58 -23
32 -33 36 -41 25 -55 -24 -28 6 -15 36 16 24 26 26 30 9 25 -16 -5 -32 5 -65
39 -45 46 -52 50 -63 38z"/>
<path d="M5775 1017 c-3 -9 -7 -24 -10 -32 -2 -8 0 -15 5 -15 6 0 10 8 10 17
0 12 13 4 45 -27 34 -34 42 -47 33 -57 -6 -7 -9 -16 -6 -18 2 -3 20 11 39 31
30 33 32 36 10 29 -19 -6 -32 1 -72 41 -39 38 -49 44 -54 31z"/>
<path d="M6365 1017 c-3 -9 -7 -24 -10 -32 -2 -8 0 -15 5 -15 6 0 10 8 10 17
0 12 13 4 45 -27 34 -34 42 -47 33 -57 -6 -7 -9 -16 -6 -18 2 -3 20 11 39 31
30 33 32 36 10 29 -19 -6 -32 1 -72 41 -39 38 -49 44 -54 31z"/>
<path d="M6946 1004 c-8 -30 0 -45 10 -20 6 15 12 12 45 -20 31 -30 37 -42 32
-63 l-6 -26 32 29 c35 33 40 50 13 42 -12 -4 -31 8 -62 39 -24 25 -47 45 -51
45 -4 0 -10 -12 -13 -26z"/>
<path d="M7536 1004 c-8 -30 0 -45 10 -20 6 15 12 12 45 -20 31 -30 37 -42 32
-63 l-6 -26 32 29 c35 33 40 50 13 42 -12 -4 -31 8 -62 39 -24 25 -47 45 -51
45 -4 0 -10 -12 -13 -26z"/>
<path d="M8126 1014 c-3 -9 -6 -23 -6 -32 0 -14 2 -14 13 1 11 16 16 14 51
-22 33 -34 37 -42 26 -56 -21 -26 13 -19 38 8 27 28 28 40 4 33 -12 -4 -31 8
-62 39 -49 50 -55 52 -64 29z"/>
<path d="M8717 1023 c-4 -3 -6 -18 -6 -32 1 -17 3 -20 6 -8 6 25 14 22 58 -23
32 -33 36 -41 25 -55 -24 -28 6 -15 36 16 24 26 26 30 9 25 -16 -5 -32 5 -65
39 -45 46 -52 50 -63 38z"/>
<path d="M9307 1023 c-4 -3 -6 -18 -6 -32 1 -17 3 -20 6 -8 6 25 14 22 58 -23
32 -33 36 -41 25 -55 -24 -28 6 -15 36 16 24 26 26 30 9 25 -16 -5 -32 5 -65
39 -45 46 -52 50 -63 38z"/>
<path d="M9895 1017 c-3 -9 -7 -24 -10 -32 -2 -8 0 -15 5 -15 6 0 10 8 10 17
0 12 13 4 45 -27 34 -34 42 -47 33 -57 -6 -7 -9 -16 -6 -18 2 -3 20 11 39 31
30 33 32 36 10 29 -19 -6 -32 1 -72 41 -39 38 -49 44 -54 31z"/>
<path d="M10476 1004 c-8 -30 0 -45 10 -20 6 15 12 12 45 -20 31 -30 37 -42
32 -63 l-6 -26 32 29 c35 33 40 50 13 42 -12 -4 -31 8 -62 39 -24 25 -47 45
-51 45 -4 0 -10 -12 -13 -26z"/>
<path d="M11066 1004 c-8 -30 0 -45 10 -20 6 15 12 12 45 -20 31 -30 37 -42
32 -63 l-6 -26 32 29 c35 33 40 50 13 42 -12 -4 -31 8 -62 39 -24 25 -47 45
-51 45 -4 0 -10 -12 -13 -26z"/>
<path d="M11656 1014 c-3 -9 -6 -23 -6 -32 0 -14 2 -14 13 1 11 16 16 14 51
-22 33 -34 37 -42 26 -56 -21 -26 13 -19 38 8 27 28 28 40 4 33 -12 -4 -31 8
-62 39 -49 50 -55 52 -64 29z"/>
<path d="M12246 1014 c-3 -9 -6 -23 -6 -32 0 -14 2 -14 13 1 11 16 16 14 51
-22 33 -34 37 -42 26 -56 -21 -26 13 -19 38 8 27 28 28 40 4 33 -12 -4 -31 8
-62 39 -49 50 -55 52 -64 29z"/>
<path d="M12837 1023 c-4 -3 -6 -18 -6 -32 1 -17 3 -20 6 -8 6 25 14 22 58
-23 32 -33 36 -41 25 -55 -24 -28 6 -15 36 16 24 26 26 30 9 25 -16 -5 -32 5
-65 39 -45 46 -52 50 -63 38z"/>
<path d="M1575 941 c-8 -14 15 -120 27 -128 5 -3 20 4 32 16 17 16 25 18 34 9
6 -6 15 -9 19 -5 4 4 2 12 -4 18 -6 6 -9 18 -6 27 5 10 2 13 -6 7 -8 -4 -27 6
-51 30 -24 23 -40 33 -45 26z m55 -96 c-16 -20 -26 -10 -35 35 l-7 35 28 -27
c23 -23 25 -29 14 -43z"/>
<path d="M2155 930 c-23 -25 -14 -63 25 -101 32 -32 61 -37 84 -13 19 18 20
38 6 65 -14 25 -52 24 -75 -1 -10 -11 -22 -17 -26 -14 -15 9 -10 46 8 66 9 10
12 18 6 18 -5 0 -18 -9 -28 -20z m103 -83 c-4 -27 -39 -34 -58 -12 -11 13 -10
19 5 35 23 25 58 10 53 -23z"/>
<path d="M2753 937 c-43 -19 -40 -77 3 -77 20 0 24 -5 24 -29 0 -38 26 -48 60
-23 44 33 34 82 -17 82 -13 0 -22 4 -19 9 8 12 -3 38 -17 44 -7 2 -22 0 -34
-6z m35 -34 c2 -12 -4 -23 -13 -27 -32 -12 -48 17 -23 42 17 17 32 10 36 -15z
m58 -48 c7 -18 -12 -45 -32 -45 -15 0 -28 35 -19 50 9 15 45 12 51 -5z"/>
<path d="M3324 925 c-20 -31 -12 -56 32 -94 41 -36 57 -38 85 -10 26 26 18 54
-27 97 -40 38 -68 41 -90 7z m85 -31 c34 -38 35 -51 8 -68 -31 -20 -106 72
-80 97 15 16 43 5 72 -29z"/>
<path d="M3914 925 c-20 -31 -12 -56 32 -94 41 -36 57 -38 85 -10 26 26 18 54
-27 97 -40 38 -68 41 -90 7z m85 -31 c34 -38 35 -51 8 -68 -31 -20 -106 72
-80 97 15 16 43 5 72 -29z"/>
<path d="M4505 930 c-24 -26 -14 -60 30 -99 40 -35 57 -38 79 -15 26 25 19 63
-18 100 -39 39 -65 43 -91 14z m82 -35 c36 -36 38 -51 10 -69 -31 -20 -106 72
-80 97 14 15 36 6 70 -28z"/>
<path d="M5096 934 c-33 -33 -4 -100 54 -124 26 -11 33 -10 50 5 30 27 25 60
-15 100 -39 38 -65 44 -89 19z m75 -33 c49 -50 29 -103 -26 -67 -39 26 -60 63
-45 81 19 22 38 18 71 -14z"/>
<path d="M5686 934 c-33 -33 -4 -100 54 -124 26 -11 33 -10 50 5 30 27 25 60
-15 100 -39 38 -65 44 -89 19z m75 -33 c49 -50 29 -103 -26 -67 -39 26 -60 63
-45 81 19 22 38 18 71 -14z"/>
<path d="M6278 939 c-31 -18 -23 -67 18 -105 41 -39 56 -42 84 -14 29 29 25
47 -19 91 -40 41 -54 45 -83 28z m69 -41 c52 -51 35 -101 -22 -64 -39 26 -60
63 -45 81 18 22 30 19 67 -17z"/>
<path d="M6854 925 c-20 -31 -12 -56 32 -94 41 -36 57 -38 85 -10 26 26 18 54
-27 97 -40 38 -68 41 -90 7z m85 -31 c34 -38 35 -51 8 -68 -31 -20 -106 72
-80 97 15 16 43 5 72 -29z"/>
<path d="M7444 925 c-20 -31 -12 -56 32 -94 41 -36 57 -38 85 -10 26 26 18 54
-27 97 -40 38 -68 41 -90 7z m85 -31 c34 -38 35 -51 8 -68 -31 -20 -106 72
-80 97 15 16 43 5 72 -29z"/>
<path d="M8035 930 c-24 -26 -14 -60 30 -99 40 -35 57 -38 79 -15 26 25 19 63
-18 100 -39 39 -65 43 -91 14z m82 -35 c36 -36 38 -51 10 -69 -31 -20 -106 72
-80 97 14 15 36 6 70 -28z"/>
<path d="M8625 930 c-24 -26 -14 -60 30 -99 40 -35 57 -38 79 -15 26 25 19 63
-18 100 -39 39 -65 43 -91 14z m82 -35 c36 -36 38 -51 10 -69 -31 -20 -106 72
-80 97 14 15 36 6 70 -28z"/>
<path d="M9216 934 c-33 -33 -4 -100 54 -124 26 -11 33 -10 50 5 30 27 25 60
-15 100 -39 38 -65 44 -89 19z m75 -33 c49 -50 29 -103 -26 -67 -39 26 -60 63
-45 81 19 22 38 18 71 -14z"/>
<path d="M9808 939 c-31 -18 -23 -67 18 -105 41 -39 56 -42 84 -14 29 29 25
47 -19 91 -40 41 -54 45 -83 28z m69 -41 c52 -51 35 -101 -22 -64 -39 26 -60
63 -45 81 18 22 30 19 67 -17z"/>
<path d="M10398 939 c-31 -18 -23 -67 18 -105 41 -39 56 -42 84 -14 29 29 25
47 -19 91 -40 41 -54 45 -83 28z m69 -41 c52 -51 35 -101 -22 -64 -39 26 -60
63 -45 81 18 22 30 19 67 -17z"/>
<path d="M10974 925 c-20 -31 -12 -56 32 -94 41 -36 57 -38 85 -10 26 26 18
54 -27 97 -40 38 -68 41 -90 7z m85 -31 c34 -38 35 -51 8 -68 -31 -20 -106 72
-80 97 15 16 43 5 72 -29z"/>
<path d="M11565 930 c-24 -26 -14 -60 30 -99 40 -35 57 -38 79 -15 26 25 19
63 -18 100 -39 39 -65 43 -91 14z m82 -35 c36 -36 38 -51 10 -69 -31 -20 -106
72 -80 97 14 15 36 6 70 -28z"/>
<path d="M12155 930 c-24 -26 -14 -60 30 -99 40 -35 57 -38 79 -15 26 25 19
63 -18 100 -39 39 -65 43 -91 14z m82 -35 c36 -36 38 -51 10 -69 -31 -20 -106
72 -80 97 14 15 36 6 70 -28z"/>
<path d="M12746 934 c-33 -33 -4 -100 54 -124 26 -11 33 -10 50 5 30 27 25 60
-15 100 -39 38 -65 44 -89 19z m75 -33 c49 -50 29 -103 -26 -67 -39 26 -60 63
-45 81 19 22 38 18 71 -14z"/>
<path d="M966 918 c-18 -25 -20 -38 -7 -38 5 0 11 9 14 21 7 28 38 21 54 -11
7 -14 13 -42 13 -62 0 -44 16 -49 48 -15 30 32 29 57 -1 29 -32 -31 -37 -28
-37 21 0 69 -51 102 -84 55z"/>
<path d="M5011 844 c-27 -34 -21 -58 25 -101 38 -37 55 -40 78 -17 25 24 20
61 -10 81 -26 17 -27 16 -49 -9 -17 -19 -26 -23 -34 -15 -16 16 -14 37 6 59 9
10 14 21 11 24 -3 3 -15 -7 -27 -22z m94 -64 c17 -19 17 -22 3 -37 -30 -29
-74 10 -48 42 16 20 23 19 45 -5z"/>
<path d="M7951 844 c-27 -34 -21 -58 25 -101 38 -37 55 -40 78 -17 25 24 20
61 -10 81 -26 17 -27 16 -49 -9 -17 -19 -26 -23 -34 -15 -16 16 -14 37 6 59 9
10 14 21 11 24 -3 3 -15 -7 -27 -22z m94 -64 c17 -19 17 -22 3 -37 -30 -29
-74 10 -48 42 16 20 23 19 45 -5z"/>
<path d="M10896 851 c-23 -26 -20 -65 9 -100 31 -36 57 -46 85 -31 26 14 26
61 0 85 -18 17 -21 17 -45 1 -14 -9 -25 -22 -25 -29 -1 -13 -30 21 -30 35 0 4
9 17 20 28 10 10 16 22 11 24 -5 3 -16 -3 -25 -13z m88 -67 c20 -19 20 -28 1
-44 -30 -25 -70 15 -45 45 16 19 25 19 44 -1z"/>
<path d="M3242 844 c-32 -22 -28 -58 13 -99 37 -37 54 -42 86 -25 39 21 14 97
-42 126 -34 17 -30 17 -57 -2z m75 -39 c36 -36 38 -51 11 -69 -32 -20 -99 50
-85 88 10 25 36 19 74 -19z"/>
<path d="M4425 851 c-8 -14 15 -120 27 -128 5 -3 20 5 33 17 20 19 27 21 40
10 9 -8 15 -8 15 -2 0 6 -4 13 -10 17 -5 3 -6 13 -3 22 5 11 3 14 -6 8 -8 -4
-27 6 -51 30 -24 23 -40 33 -45 26z m65 -77 c0 -15 -27 -37 -33 -27 -3 5 -8
26 -12 48 l-8 40 27 -24 c14 -14 26 -30 26 -37z"/>
<path d="M5590 840 c-11 -11 -20 -26 -20 -33 0 -18 21 -37 41 -37 12 0 19 -9
21 -27 4 -35 40 -43 69 -17 30 27 22 68 -13 72 -19 2 -28 9 -28 21 0 20 -19
41 -37 41 -7 0 -22 -9 -33 -20z m48 -28 c3 -16 -2 -22 -17 -22 -26 0 -36 17
-20 36 16 19 33 13 37 -14z m62 -62 c-15 -27 -29 -33 -45 -20 -19 16 -19 25 1
44 23 23 59 3 44 -24z"/>
<path d="M6180 840 c-28 -28 -25 -44 16 -90 42 -47 76 -52 99 -16 15 22 15 27
0 56 -14 27 -67 70 -87 70 -5 0 -17 -9 -28 -20z m77 -35 c37 -37 41 -67 9 -73
-19 -4 -86 53 -86 73 0 13 20 35 33 35 5 0 25 -16 44 -35z"/>
<path d="M7365 850 c-6 -9 19 -117 29 -128 3 -3 17 5 31 18 20 19 27 21 40 10
20 -16 32 -5 16 14 -7 8 -9 21 -5 27 5 8 2 10 -8 6 -10 -3 -28 7 -49 29 -35
36 -44 40 -54 24z m58 -92 c-19 -22 -26 -14 -38 42 l-7 35 31 -29 c29 -28 30
-31 14 -48z"/>
<path d="M8536 841 c-24 -26 -17 -65 12 -69 16 -3 22 -10 22 -28 0 -44 67 -45
87 -1 14 31 -1 57 -32 57 -17 0 -25 6 -25 18 0 20 -18 42 -35 42 -7 0 -20 -9
-29 -19z m44 -16 c15 -18 5 -35 -20 -35 -10 0 -22 5 -25 10 -7 11 12 40 25 40
4 0 13 -7 20 -15z m53 -86 c-24 -25 -43 -18 -43 16 0 28 28 38 50 18 12 -11
12 -16 -7 -34z"/>
<path d="M9126 844 c-28 -27 -20 -69 19 -103 41 -36 65 -39 90 -11 24 26 14
60 -30 99 -40 35 -57 38 -79 15z m69 -35 c24 -21 35 -39 33 -53 -4 -30 -36
-32 -65 -4 -37 34 -47 57 -32 74 16 20 24 18 64 -17z"/>
<path d="M10308 848 c-7 -21 24 -128 37 -128 6 0 20 9 30 20 14 15 21 17 32 9
17 -14 31 -3 16 12 -6 6 -9 18 -5 27 4 11 1 14 -10 10 -10 -4 -28 6 -49 28
-36 37 -45 41 -51 22z m55 -90 c-19 -21 -21 -19 -37 47 l-8 30 31 -29 c29 -28
30 -31 14 -48z"/>
<path d="M11476 841 c-26 -29 -17 -65 17 -69 15 -2 25 -8 22 -13 -13 -19 6
-49 31 -49 26 0 64 32 64 53 0 20 -22 37 -47 37 -18 0 -23 6 -23 24 0 21 -16
36 -39 36 -4 0 -16 -9 -25 -19z m49 -26 c0 -13 -8 -21 -22 -23 -17 -3 -23 2
-23 16 0 10 3 22 7 26 13 13 38 1 38 -19z m65 -56 c0 -16 -31 -38 -45 -33 -21
9 -19 52 3 56 18 5 42 -9 42 -23z"/>
<path d="M12067 842 c-26 -29 -20 -61 17 -98 37 -37 66 -43 90 -18 26 25 19
54 -23 95 -43 43 -60 48 -84 21z m72 -36 c53 -55 20 -106 -36 -54 -37 34 -47
57 -32 74 18 21 32 17 68 -20z"/>
<path d="M3816 828 c-8 -12 -12 -26 -9 -32 4 -5 11 0 16 12 6 12 18 22 29 22
23 0 38 -37 38 -91 0 -48 15 -50 55 -9 34 35 26 54 -9 21 l-23 -22 -7 42 c-4
23 -11 50 -17 60 -13 26 -54 24 -73 -3z"/>
<path d="M6762 838 c-7 -7 -12 -21 -12 -32 0 -20 1 -20 16 2 32 46 64 16 64
-62 0 -55 14 -59 55 -16 34 35 26 54 -9 21 l-23 -22 -5 46 c-3 25 -11 52 -18
60 -15 18 -51 20 -68 3z"/>
<path d="M9706 834 c-9 -8 -16 -23 -16 -32 0 -13 5 -11 20 8 29 38 53 17 64
-54 4 -31 11 -56 15 -56 13 0 65 60 58 67 -4 3 -18 -4 -32 -17 l-25 -23 0 39
c0 69 -46 106 -84 68z"/>
<path d="M12646 834 c-9 -8 -16 -23 -16 -32 0 -13 5 -11 20 8 29 38 53 17 64
-54 4 -31 11 -56 15 -56 13 0 65 60 58 67 -4 3 -18 -4 -32 -17 l-25 -23 0 39
c0 69 -46 106 -84 68z"/>
<path d="M11985 760 c-8 -13 13 -128 25 -135 4 -2 17 7 30 20 18 19 26 22 37
13 17 -14 31 -2 16 13 -6 6 -9 18 -6 27 5 10 2 13 -6 7 -8 -4 -27 6 -51 30
-26 25 -40 33 -45 25z m55 -94 c-20 -25 -26 -20 -37 30 l-11 46 31 -30 c26
-26 28 -33 17 -46z"/>
<path d="M12575 760 c-8 -13 13 -128 25 -135 4 -2 17 7 30 20 18 19 26 22 37
13 17 -14 31 -2 16 13 -6 6 -9 18 -6 27 5 10 2 13 -6 7 -8 -4 -27 6 -51 30
-26 25 -40 33 -45 25z m55 -94 c-20 -25 -26 -20 -37 30 l-11 46 31 -30 c26
-26 28 -33 17 -46z"/>
<path d="M3735 747 c-3 -9 -7 -24 -10 -32 -2 -8 0 -17 5 -20 6 -4 10 1 10 9 0
25 13 19 53 -22 29 -29 34 -41 25 -50 -6 -6 -9 -15 -5 -19 10 -9 57 37 57 56
0 12 -3 12 -12 3 -10 -10 -24 -1 -65 40 -42 41 -53 48 -58 35z"/>
<path d="M6086 744 c-9 -8 -16 -23 -16 -32 0 -13 3 -12 16 6 32 46 64 16 64
-62 0 -25 4 -47 8 -50 11 -7 78 62 69 71 -4 3 -18 -4 -31 -16 l-23 -22 -5 46
c-8 70 -45 97 -82 59z"/>
<path d="M6664 735 c-22 -34 -10 -44 16 -14 l20 24 20 -24 c13 -15 20 -38 20
-67 0 -23 4 -45 8 -48 11 -7 78 62 69 71 -4 3 -18 -4 -31 -16 l-24 -22 -6 45
c-12 75 -59 101 -92 51z"/>
<path d="M7256 738 c-18 -25 -20 -38 -7 -38 5 0 11 9 14 21 7 28 38 21 54 -11
7 -14 13 -42 13 -62 0 -44 16 -49 48 -15 30 32 29 57 -1 29 -32 -31 -37 -28
-37 21 0 69 -51 102 -84 55z"/>
<path d="M7846 738 c-18 -25 -20 -38 -7 -38 5 0 11 9 14 21 7 28 38 21 54 -11
7 -14 13 -42 13 -62 0 -44 16 -49 48 -15 30 32 29 57 -1 29 -32 -31 -37 -28
-37 21 0 69 -51 102 -84 55z"/>
<path d="M8436 741 c-10 -11 -16 -26 -14 -33 3 -8 9 -5 17 10 26 49 55 20 67
-67 l7 -52 33 32 c19 18 34 37 34 43 0 5 -10 0 -23 -12 -32 -30 -37 -28 -37
16 0 70 -47 104 -84 63z"/>
<path d="M9026 744 c-9 -8 -16 -23 -16 -32 0 -13 3 -12 16 6 8 12 21 22 28 22
19 0 29 -30 15 -47 -17 -19 -5 -27 20 -11 17 11 23 10 37 -4 16 -15 15 -18
-11 -42 -19 -17 -23 -26 -13 -26 25 0 50 36 46 67 -2 22 -9 29 -30 31 -19 2
-28 9 -28 22 0 16 -18 30 -40 30 -5 0 -16 -7 -24 -16z"/>
<path d="M9616 744 c-9 -8 -16 -23 -16 -32 0 -13 3 -12 16 6 8 12 21 22 28 22
19 0 29 -30 15 -47 -17 -19 -5 -27 20 -11 17 11 23 10 37 -4 16 -15 15 -18
-11 -42 -19 -17 -23 -26 -13 -26 25 0 50 36 46 67 -2 22 -9 29 -30 31 -19 2
-28 9 -28 22 0 16 -18 30 -40 30 -5 0 -16 -7 -24 -16z"/>
<path d="M10194 735 c-22 -34 -10 -45 15 -14 19 23 21 23 37 7 17 -17 17 -18
-2 -39 -19 -22 -19 -22 1 -14 57 23 89 -11 44 -46 -18 -14 -20 -19 -8 -19 21
0 49 32 49 56 0 24 -18 44 -40 44 -8 0 -20 10 -25 23 -15 32 -50 34 -71 2z"/>
<path d="M10784 735 c-22 -34 -10 -45 15 -14 19 23 21 23 37 7 17 -17 17 -18
-2 -39 -19 -22 -19 -22 1 -14 57 23 89 -11 44 -46 -18 -14 -20 -19 -8 -19 21
0 49 32 49 56 0 24 -18 44 -40 44 -8 0 -20 10 -25 23 -15 32 -50 34 -71 2z"/>
<path d="M11376 738 c-22 -31 -20 -48 3 -19 12 16 24 22 35 18 19 -7 21 -38 4
-55 -9 -9 -9 -12 -1 -12 7 0 15 5 18 10 10 16 45 12 52 -7 4 -10 -3 -24 -21
-40 -19 -16 -22 -23 -12 -23 22 0 56 36 56 58 0 22 -19 42 -40 42 -8 0 -20 10
-25 23 -14 31 -49 34 -69 5z"/>
<path d="M3147 743 c-4 -3 -6 -18 -6 -32 1 -17 3 -20 6 -8 6 25 14 22 56 -21
29 -29 34 -41 25 -50 -6 -6 -8 -15 -5 -19 4 -4 22 7 39 25 30 30 34 58 5 34
-10 -9 -23 -1 -57 33 -45 46 -52 50 -63 38z"/>
<path d="M4316 724 c-9 -33 1 -45 12 -15 7 20 10 19 51 -23 26 -27 39 -46 32
-50 -6 -4 -11 -12 -11 -18 0 -7 14 1 30 17 29 28 43 58 17 37 -10 -9 -24 -1
-57 33 -51 52 -65 55 -74 19z"/>
<path d="M4906 724 c-9 -33 1 -45 12 -15 7 20 10 19 51 -23 26 -27 39 -46 32
-50 -6 -4 -11 -12 -11 -18 0 -7 14 1 30 17 29 28 43 58 17 37 -10 -9 -24 -1
-57 33 -51 52 -65 55 -74 19z"/>
<path d="M5496 734 c-3 -9 -6 -23 -6 -32 0 -14 2 -14 13 1 11 16 16 14 51 -22
33 -34 37 -42 26 -56 -22 -27 5 -16 33 13 29 30 37 53 12 32 -14 -11 -23 -6
-63 33 -53 52 -57 54 -66 31z"/>
<path d="M5240 265 c0 -50 4 -85 10 -85 6 0 10 17 10 39 0 41 20 67 45 57 10
-4 15 -19 15 -51 0 -25 5 -45 10 -45 13 0 13 76 -1 102 -8 16 -17 19 -40 14
-27 -5 -29 -3 -29 24 0 17 -4 30 -10 30 -6 0 -10 -35 -10 -85z"/>
<path d="M8790 320 c0 -27 -3 -30 -24 -24 -44 11 -72 -47 -46 -96 8 -14 20
-19 50 -17 l40 1 0 83 c0 49 -4 83 -10 83 -5 0 -10 -14 -10 -30z m-5 -80 c0
-31 -3 -35 -25 -35 -19 0 -26 6 -28 23 -5 36 5 54 30 50 19 -2 23 -9 23 -38z"/>
<path d="M5110 330 c0 -5 11 -10 25 -10 24 0 25 -2 25 -70 0 -40 4 -70 10 -70
6 0 10 30 10 70 0 63 2 70 20 70 11 0 20 5 20 10 0 6 -25 10 -55 10 -30 0 -55
-4 -55 -10z"/>
<path d="M5380 330 c0 -5 5 -10 10 -10 6 0 10 5 10 10 0 6 -4 10 -10 10 -5 0
-10 -4 -10 -10z"/>
<path d="M6220 260 c0 -47 4 -80 10 -80 6 0 10 16 10 35 0 33 2 35 35 35 33 0
35 -2 35 -35 0 -19 5 -35 10 -35 6 0 10 33 10 80 0 47 -4 80 -10 80 -5 0 -10
-16 -10 -35 0 -33 -2 -35 -35 -35 -33 0 -35 2 -35 35 0 19 -4 35 -10 35 -6 0
-10 -33 -10 -80z"/>
<path d="M7493 278 c-12 -35 -25 -71 -28 -80 -4 -10 -3 -18 3 -18 6 0 14 9 17
20 9 29 75 29 82 0 3 -11 10 -20 15 -20 12 0 5 29 -23 105 -11 30 -26 55 -32
55 -7 0 -22 -28 -34 -62z m52 -10 c6 -25 5 -28 -19 -28 -30 0 -29 -2 -15 39
12 35 24 31 34 -11z"/>
<path d="M8370 260 c0 -47 4 -80 10 -80 6 0 10 13 10 28 0 23 6 30 33 37 25 8
33 16 35 38 5 38 -14 57 -54 57 l-34 0 0 -80z m65 30 c0 -18 -6 -26 -22 -28
-20 -3 -23 1 -23 28 0 27 3 31 23 28 16 -2 22 -10 22 -28z"/>
<path d="M5630 316 c0 -8 -6 -17 -12 -19 -10 -4 -10 -7 -1 -14 6 -5 13 -29 15
-53 2 -38 7 -46 26 -48 12 -2 22 1 22 7 0 6 -7 11 -15 11 -11 0 -15 11 -15 40
0 29 4 40 15 40 8 0 15 5 15 10 0 6 -7 10 -15 10 -8 0 -15 7 -15 15 0 8 -4 15
-10 15 -5 0 -10 -6 -10 -14z"/>
<path d="M8970 315 c0 -8 -5 -15 -12 -15 -9 0 -9 -3 0 -12 7 -7 12 -28 12 -48
0 -20 5 -41 12 -48 15 -15 38 -16 38 -2 0 6 -7 10 -15 10 -11 0 -15 11 -15 40
0 29 4 40 15 40 8 0 15 5 15 10 0 6 -7 10 -15 10 -8 0 -15 7 -15 15 0 8 -4 15
-10 15 -5 0 -10 -7 -10 -15z"/>
<path d="M5380 240 c0 -33 4 -60 10 -60 6 0 10 27 10 60 0 33 -4 60 -10 60 -6
0 -10 -27 -10 -60z"/>
<path d="M5440 238 c0 -67 17 -79 22 -15 2 32 8 44 26 52 32 14 27 23 -13 22
l-35 -1 0 -58z"/>
<path d="M5533 293 c-22 -8 -14 -43 12 -55 14 -6 25 -18 25 -26 0 -10 -8 -13
-25 -10 -14 3 -25 2 -25 -3 0 -14 21 -21 46 -15 32 8 30 46 -4 61 -29 13 -24
41 6 38 14 -2 21 1 17 7 -6 10 -31 12 -52 3z"/>
<path d="M6370 266 c0 -19 4 -46 10 -60 8 -21 15 -25 50 -23 l40 1 0 58 c0 70
-18 78 -22 11 -3 -44 -5 -48 -28 -48 -23 0 -25 4 -28 48 -4 54 -22 65 -22 13z"/>
<path d="M6500 238 c0 -32 4 -58 10 -58 6 0 10 17 10 39 0 41 20 67 45 57 10
-4 15 -19 15 -51 0 -25 5 -45 10 -45 13 0 13 76 0 100 -8 14 -20 19 -50 17
l-40 -1 0 -58z"/>
<path d="M6650 286 c-6 -8 -10 -32 -9 -53 2 -21 -1 -44 -5 -51 -18 -30 46 -56
82 -33 24 15 10 46 -23 49 -39 5 -58 22 -23 22 29 0 42 13 52 53 6 25 4 27
-28 27 -18 0 -39 -7 -46 -14z m45 -26 c0 -27 -22 -39 -31 -16 -8 22 3 49 19
43 6 -2 12 -14 12 -27z m15 -89 c0 -16 -19 -23 -40 -16 -30 10 -24 25 10 25
17 0 30 -4 30 -9z"/>
<path d="M6776 284 c-24 -23 -21 -81 5 -94 23 -13 61 -10 66 5 2 6 -11 10 -29
10 -23 0 -34 5 -36 18 -3 14 4 17 37 17 29 0 41 4 41 14 0 20 -28 46 -50 46
-10 0 -26 -7 -34 -16z m53 -7 c14 -17 4 -27 -26 -27 -35 0 -28 35 8 39 4 1 12
-5 18 -12z"/>
<path d="M6880 238 c0 -67 17 -79 22 -15 2 32 8 44 26 52 32 14 27 23 -13 22
l-35 -1 0 -58z"/>
<path d="M7630 286 c-6 -8 -10 -32 -9 -53 2 -21 -1 -44 -5 -51 -18 -30 46 -56
82 -33 24 15 10 46 -23 49 -39 5 -58 22 -23 22 29 0 42 13 52 53 6 25 4 27
-28 27 -18 0 -39 -7 -46 -14z m45 -26 c0 -13 -6 -25 -12 -27 -16 -6 -27 21
-19 43 9 23 31 11 31 -16z m15 -89 c0 -16 -19 -23 -40 -16 -30 10 -24 25 10
25 17 0 30 -4 30 -9z"/>
<path d="M7756 284 c-24 -23 -21 -81 5 -94 23 -13 61 -10 66 5 2 6 -11 10 -29
10 -23 0 -34 5 -36 18 -3 14 4 17 37 17 29 0 41 4 41 14 0 20 -28 46 -50 46
-10 0 -26 -7 -34 -16z m53 -7 c14 -17 4 -27 -26 -27 -35 0 -28 35 8 39 4 1 12
-5 18 -12z"/>
<path d="M8500 238 c0 -32 4 -58 10 -58 6 0 10 21 10 46 0 37 4 47 20 51 31 8
24 22 -10 20 -30 -2 -30 -3 -30 -59z"/>
<path d="M8596 284 c-36 -35 -10 -104 39 -104 37 0 39 18 3 22 -22 2 -34 9
-36 21 -3 14 4 17 37 17 29 0 41 4 41 14 0 20 -28 46 -50 46 -10 0 -26 -7 -34
-16z m52 -6 c19 -19 14 -28 -18 -28 -32 0 -37 9 -18 28 15 15 21 15 36 0z"/>
<path d="M8857 293 c-13 -13 -7 -19 20 -18 43 0 44 -33 1 -37 -25 -2 -34 -8
-36 -25 -3 -23 13 -31 66 -31 20 -1 22 4 22 47 0 26 -5 52 -12 59 -13 13 -50
16 -61 5z m53 -72 c0 -5 -7 -14 -15 -21 -18 -15 -42 1 -31 19 8 13 46 15 46 2z"/>
<path d="M9066 285 c-9 -9 -16 -29 -16 -45 0 -61 70 -81 100 -27 13 24 13 30
0 55 -18 32 -60 41 -84 17z m69 -25 c11 -36 -4 -62 -33 -58 -28 3 -40 32 -28
64 8 22 54 18 61 -6z"/>
<path d="M9190 238 c0 -32 4 -58 10 -58 6 0 10 21 10 46 0 37 4 47 20 51 31 8
24 22 -10 20 -30 -2 -30 -3 -30 -59z"/>
</g>
</svg>
