<?xml version="1.0" standalone="no"?>
<!DOCTYPE svg PUBLIC "-//W3C//DTD SVG 20010904//EN"
 "http://www.w3.org/TR/2001/REC-SVG-20010904/DTD/svg10.dtd">
<svg version="1.0" xmlns="http://www.w3.org/2000/svg"
 width="1387.000000pt" height="692.000000pt" viewBox="0 0 1387.000000 692.000000"
 preserveAspectRatio="xMidYMid meet">

<g transform="translate(0.000000,692.000000) scale(0.100000,-0.100000)"
fill="#000000" stroke="none">
<path d="M6930 6590 c0 -60 4 -100 10 -100 6 0 10 40 10 100 0 60 -4 100 -10
100 -6 0 -10 -40 -10 -100z"/>
<path d="M7240 6676 c0 -9 5 -16 10 -16 6 0 10 4 10 9 0 6 -4 13 -10 16 -5 3
-10 -1 -10 -9z"/>
<path d="M6300 6585 c0 -57 4 -95 10 -95 6 0 10 16 10 35 0 30 3 35 24 35 35
0 69 31 69 65 0 36 -26 55 -75 55 l-38 0 0 -95z m88 47 c5 -30 -14 -52 -44
-52 -21 0 -24 5 -24 41 0 39 1 40 33 37 25 -2 33 -8 35 -26z"/>
<path d="M7143 6653 c-4 -10 -11 -21 -17 -25 -8 -6 -8 -10 0 -15 6 -5 14 -30
16 -57 6 -46 19 -66 46 -66 6 0 12 5 12 10 0 6 -7 10 -15 10 -11 0 -15 12 -15
50 0 38 4 50 15 50 8 0 15 5 15 10 0 6 -7 10 -15 10 -8 0 -15 6 -15 14 0 23
-19 29 -27 9z"/>
<path d="M6460 6610 c-11 -11 -20 -33 -20 -50 0 -31 30 -70 53 -70 46 1 77 33
77 80 0 28 -35 60 -65 60 -14 0 -34 -9 -45 -20z m82 -25 c8 -19 8 -31 0 -50
-19 -42 -82 -28 -82 18 0 56 60 80 82 32z"/>
<path d="M6610 6535 c0 -57 4 -95 10 -95 6 0 10 16 10 35 0 33 1 34 24 24 32
-15 62 2 71 39 13 60 -29 106 -75 82 -13 -7 -20 -7 -20 0 0 5 -4 10 -10 10 -6
0 -10 -38 -10 -95z m85 25 c0 -35 -4 -45 -18 -48 -26 -5 -47 16 -47 47 0 33
18 53 45 49 17 -3 20 -11 20 -48z"/>
<path d="M6770 6570 c0 -54 3 -62 24 -71 17 -8 29 -8 45 0 14 8 21 8 21 1 0
-5 5 -10 10 -10 6 0 10 30 10 70 0 81 -17 95 -22 19 -3 -55 -21 -78 -52 -66
-12 5 -16 20 -16 62 0 30 -4 55 -10 55 -6 0 -10 -27 -10 -60z"/>
<path d="M7007 6623 c-14 -13 -6 -18 25 -18 23 0 34 -5 36 -17 2 -13 -3 -18
-18 -18 -32 0 -60 -18 -60 -39 0 -27 21 -40 63 -38 l37 2 0 57 c0 46 -4 59
-19 68 -22 11 -54 13 -64 3z m61 -90 c-4 -22 -58 -31 -58 -10 0 20 10 27 37
27 18 0 24 -5 21 -17z"/>
<path d="M7240 6560 c0 -40 4 -70 10 -70 6 0 10 30 10 70 0 40 -4 70 -10 70
-6 0 -10 -30 -10 -70z"/>
<path d="M7320 6610 c-11 -11 -20 -33 -20 -50 0 -31 30 -70 53 -70 46 1 77 33
77 80 0 28 -35 60 -65 60 -14 0 -34 -9 -45 -20z m82 -25 c8 -19 8 -31 0 -50
-19 -42 -82 -28 -82 18 0 56 60 80 82 32z"/>
<path d="M7470 6560 c0 -40 4 -70 10 -70 6 0 10 22 10 48 0 50 12 72 41 72 21
0 29 -20 29 -76 0 -24 5 -44 10 -44 17 0 12 107 -6 124 -18 19 -28 20 -55 6
-13 -7 -19 -7 -19 0 0 5 -4 10 -10 10 -6 0 -10 -30 -10 -70z"/>
<path d="M153 6243 c-23 -9 -13 -18 19 -18 45 0 46 -22 3 -76 -19 -24 -35 -47
-35 -51 0 -5 20 -8 45 -8 25 0 45 5 45 10 0 6 -14 10 -31 10 l-31 0 24 33 c35
46 42 72 23 91 -16 16 -38 19 -62 9z"/>
<path d="M284 6236 c-27 -20 -27 -112 0 -132 40 -29 75 -6 83 54 10 72 -34
113 -83 78z m60 -22 c3 -9 6 -28 6 -44 0 -43 -10 -60 -35 -60 -25 0 -35 17
-35 60 0 43 10 60 35 60 13 0 26 -7 29 -16z"/>
<path d="M414 6236 c-27 -20 -27 -112 0 -132 40 -29 75 -6 83 54 10 72 -34
113 -83 78z m60 -22 c3 -9 6 -28 6 -44 0 -43 -10 -60 -35 -60 -25 0 -35 17
-35 60 0 43 10 60 35 60 13 0 26 -7 29 -16z"/>
<path d="M534 6236 c-27 -20 -27 -112 0 -132 40 -29 75 -6 83 54 10 72 -34
113 -83 78z m60 -22 c3 -9 6 -28 6 -44 0 -43 -10 -60 -35 -60 -25 0 -35 17
-35 60 0 43 10 60 35 60 13 0 26 -7 29 -16z"/>
<path d="M168 5756 c-10 -7 -18 -17 -18 -21 0 -4 7 -2 15 5 13 11 15 5 15 -49
0 -48 -3 -61 -15 -61 -8 0 -15 -4 -15 -10 0 -5 18 -10 40 -10 22 0 40 5 40 10
0 6 -7 10 -15 10 -12 0 -15 14 -15 70 0 73 -3 78 -32 56z"/>
<path d="M288 5759 c-22 -12 -24 -48 -3 -55 13 -5 12 -10 -5 -31 -22 -29 -17
-51 15 -59 77 -19 98 56 25 86 -39 16 -42 50 -4 50 23 0 26 -3 21 -25 -3 -16
0 -24 7 -22 16 5 20 36 6 52 -14 17 -38 19 -62 4z m51 -88 c21 -13 5 -41 -23
-41 -30 0 -42 16 -26 35 14 17 29 19 49 6z"/>
<path d="M414 5756 c-27 -20 -27 -112 0 -132 40 -29 75 -6 83 54 10 72 -34
113 -83 78z m60 -22 c3 -9 6 -28 6 -44 0 -43 -10 -60 -35 -60 -25 0 -35 17
-35 60 0 43 10 60 35 60 13 0 26 -7 29 -16z"/>
<path d="M534 5756 c-27 -20 -27 -112 0 -132 40 -29 75 -6 83 54 10 72 -34
113 -83 78z m60 -22 c3 -9 6 -28 6 -44 0 -43 -10 -60 -35 -60 -25 0 -35 17
-35 60 0 43 10 60 35 60 13 0 26 -7 29 -16z"/>
<path d="M168 5286 c-10 -7 -18 -17 -18 -21 0 -4 7 -2 15 5 13 11 15 5 15 -49
0 -48 -3 -61 -15 -61 -8 0 -15 -4 -15 -10 0 -5 18 -10 40 -10 22 0 40 5 40 10
0 6 -7 10 -15 10 -12 0 -15 14 -15 70 0 73 -3 78 -32 56z"/>
<path d="M290 5280 c-39 -39 -20 -140 26 -140 18 0 54 36 54 54 0 25 -31 48
-57 43 -20 -4 -24 -1 -21 17 2 16 11 22 36 24 18 2 30 8 27 13 -10 16 -44 10
-65 -11z m55 -90 c0 -20 -5 -25 -25 -25 -20 0 -26 6 -28 28 -3 26 -1 28 25 25
22 -2 28 -8 28 -28z"/>
<path d="M414 5286 c-27 -20 -27 -112 0 -132 40 -29 75 -6 83 54 10 72 -34
113 -83 78z m60 -22 c3 -9 6 -28 6 -44 0 -43 -10 -60 -35 -60 -25 0 -35 17
-35 60 0 43 10 60 35 60 13 0 26 -7 29 -16z"/>
<path d="M534 5286 c-27 -20 -27 -112 0 -132 40 -29 75 -6 83 54 10 72 -34
113 -83 78z m60 -22 c3 -9 6 -28 6 -44 0 -43 -10 -60 -35 -60 -25 0 -35 17
-35 60 0 43 10 60 35 60 13 0 26 -7 29 -16z"/>
<path d="M168 4806 c-10 -7 -18 -17 -18 -21 0 -4 7 -2 15 5 13 11 15 5 15 -49
0 -48 -3 -61 -15 -61 -8 0 -15 -4 -15 -10 0 -5 18 -10 40 -10 22 0 40 5 40 10
0 6 -7 10 -15 10 -12 0 -15 14 -15 70 0 73 -3 78 -32 56z"/>
<path d="M291 4769 c-17 -28 -31 -55 -31 -60 0 -5 16 -9 35 -9 28 0 35 -4 35
-20 0 -11 5 -20 10 -20 6 0 10 9 10 19 0 11 6 22 13 25 10 5 10 7 0 12 -8 3
-13 25 -13 55 0 65 -18 64 -59 -2z m39 -9 c0 -36 -2 -40 -26 -40 l-25 0 22 40
c13 22 24 40 26 40 2 0 3 -18 3 -40z"/>
<path d="M414 4806 c-27 -20 -27 -112 0 -132 40 -29 75 -6 83 54 10 72 -34
113 -83 78z m60 -22 c3 -9 6 -28 6 -44 0 -43 -10 -60 -35 -60 -25 0 -35 17
-35 60 0 43 10 60 35 60 13 0 26 -7 29 -16z"/>
<path d="M534 4806 c-27 -20 -27 -112 0 -132 40 -29 75 -6 83 54 10 72 -34
113 -83 78z m60 -22 c3 -9 6 -28 6 -44 0 -43 -10 -60 -35 -60 -25 0 -35 17
-35 60 0 43 10 60 35 60 13 0 26 -7 29 -16z"/>
<path d="M168 4326 c-10 -7 -18 -17 -18 -21 0 -4 7 -2 15 5 13 11 15 5 15 -49
0 -48 -3 -61 -15 -61 -8 0 -15 -4 -15 -10 0 -5 18 -10 40 -10 22 0 40 5 40 10
0 6 -7 10 -15 10 -12 0 -15 14 -15 70 0 73 -3 78 -32 56z"/>
<path d="M283 4333 c-23 -9 -13 -18 19 -18 45 0 46 -22 3 -76 -19 -24 -35 -47
-35 -51 0 -5 20 -8 45 -8 25 0 45 5 45 10 0 6 -14 10 -31 10 l-31 0 24 33 c35
46 42 72 23 91 -16 16 -38 19 -62 9z"/>
<path d="M414 4326 c-27 -20 -27 -112 0 -132 40 -29 75 -6 83 54 10 72 -34
113 -83 78z m60 -22 c3 -9 6 -28 6 -44 0 -43 -10 -60 -35 -60 -25 0 -35 17
-35 60 0 43 10 60 35 60 13 0 26 -7 29 -16z"/>
<path d="M534 4326 c-27 -20 -27 -112 0 -132 40 -29 75 -6 83 54 10 72 -34
113 -83 78z m60 -22 c3 -9 6 -28 6 -44 0 -43 -10 -60 -35 -60 -25 0 -35 17
-35 60 0 43 10 60 35 60 13 0 26 -7 29 -16z"/>
<path d="M168 3846 c-10 -7 -18 -17 -18 -21 0 -4 7 -2 15 5 13 11 15 5 15 -49
0 -48 -3 -61 -15 -61 -8 0 -15 -4 -15 -10 0 -5 18 -10 40 -10 22 0 40 5 40 10
0 6 -7 10 -15 10 -12 0 -15 14 -15 70 0 73 -3 78 -32 56z"/>
<path d="M284 3846 c-27 -20 -27 -112 0 -132 40 -29 75 -6 83 54 10 72 -34
113 -83 78z m60 -22 c3 -9 6 -28 6 -44 0 -43 -10 -60 -35 -60 -25 0 -35 17
-35 60 0 43 10 60 35 60 13 0 26 -7 29 -16z"/>
<path d="M414 3846 c-27 -20 -27 -112 0 -132 40 -29 75 -6 83 54 10 72 -34
113 -83 78z m60 -22 c3 -9 6 -28 6 -44 0 -43 -10 -60 -35 -60 -25 0 -35 17
-35 60 0 43 10 60 35 60 13 0 26 -7 29 -16z"/>
<path d="M534 3846 c-27 -20 -27 -112 0 -132 40 -29 75 -6 83 54 10 72 -34
113 -83 78z m60 -22 c3 -9 6 -28 6 -44 0 -43 -10 -60 -35 -60 -25 0 -35 17
-35 60 0 43 10 60 35 60 13 0 26 -7 29 -16z"/>
<path d="M282 3378 c-15 -15 -15 -41 -1 -55 9 -9 8 -16 -5 -28 -23 -23 -20
-44 9 -57 35 -16 75 3 75 36 0 13 -7 27 -16 30 -16 6 -16 8 0 24 21 24 20 39
-3 52 -26 13 -44 13 -59 -2z m58 -27 c0 -20 -25 -35 -41 -25 -5 3 -9 14 -9 25
0 14 7 19 25 19 18 0 25 -5 25 -19z m0 -66 c16 -19 4 -35 -25 -35 -27 0 -39
14 -31 35 7 19 40 19 56 0z"/>
<path d="M410 3370 c-26 -26 -27 -89 -1 -121 16 -20 23 -22 47 -14 64 23 51
155 -15 155 -6 0 -20 -9 -31 -20z m64 -16 c9 -23 7 -77 -3 -92 -4 -8 -19 -12
-32 -10 -19 2 -25 10 -27 37 -5 55 5 81 32 81 13 0 27 -7 30 -16z"/>
<path d="M540 3370 c-26 -26 -27 -89 -1 -121 16 -20 23 -22 47 -14 64 23 51
155 -15 155 -6 0 -20 -9 -31 -20z m64 -16 c9 -23 7 -77 -3 -92 -4 -8 -19 -12
-32 -10 -19 2 -25 10 -27 37 -5 55 5 81 32 81 13 0 27 -7 30 -16z"/>
<path d="M289 2892 c-44 -36 -25 -142 26 -142 23 0 48 28 48 54 0 34 -19 48
-55 42 -31 -6 -33 -3 -18 25 7 12 21 19 41 19 18 0 28 4 24 10 -10 16 -41 12
-66 -8z m56 -72 c12 -20 -6 -50 -30 -50 -15 0 -26 7 -30 20 -9 27 1 40 30 40
13 0 27 -5 30 -10z"/>
<path d="M410 2890 c-26 -26 -27 -89 -1 -121 16 -20 23 -22 47 -14 64 23 51
155 -15 155 -6 0 -20 -9 -31 -20z m64 -16 c9 -23 7 -77 -3 -92 -4 -8 -19 -12
-32 -10 -19 2 -25 10 -27 37 -5 55 5 81 32 81 13 0 27 -7 30 -16z"/>
<path d="M540 2890 c-26 -26 -27 -89 -1 -121 16 -20 23 -22 47 -14 64 23 51
155 -15 155 -6 0 -20 -9 -31 -20z m64 -16 c9 -23 7 -77 -3 -92 -4 -8 -19 -12
-32 -10 -19 2 -25 10 -27 37 -5 55 5 81 32 81 13 0 27 -7 30 -16z"/>
<path d="M291 2383 c-40 -62 -39 -73 3 -73 28 0 35 -4 39 -22 l4 -23 8 23 c4
12 12 22 17 22 7 0 7 5 0 13 -6 7 -12 32 -14 56 -2 25 -8 46 -15 48 -7 3 -26
-17 -42 -44z m39 -13 c0 -36 -2 -40 -25 -40 -14 0 -25 2 -25 4 0 8 42 76 46
76 2 0 4 -18 4 -40z"/>
<path d="M410 2410 c-26 -26 -27 -89 -1 -121 16 -20 23 -22 47 -14 64 23 51
155 -15 155 -6 0 -20 -9 -31 -20z m64 -16 c9 -23 7 -77 -3 -92 -4 -8 -19 -12
-32 -10 -19 2 -25 10 -27 37 -5 55 5 81 32 81 13 0 27 -7 30 -16z"/>
<path d="M540 2410 c-26 -26 -27 -89 -1 -121 16 -20 23 -22 47 -14 64 23 51
155 -15 155 -6 0 -20 -9 -31 -20z m64 -16 c9 -23 7 -77 -3 -92 -4 -8 -19 -12
-32 -10 -19 2 -25 10 -27 37 -5 55 5 81 32 81 13 0 27 -7 30 -16z"/>
<path d="M283 1943 c-24 -9 -13 -20 17 -15 27 4 30 1 30 -22 0 -14 -13 -40
-30 -59 -41 -47 -38 -57 15 -57 25 0 45 5 45 10 0 6 -17 10 -37 10 l-37 0 32
33 c56 58 32 127 -35 100z"/>
<path d="M410 1930 c-26 -26 -27 -89 -1 -121 16 -20 23 -22 47 -14 64 23 51
155 -15 155 -6 0 -20 -9 -31 -20z m64 -16 c9 -23 7 -77 -3 -92 -4 -8 -19 -12
-32 -10 -19 2 -25 10 -27 37 -5 55 5 81 32 81 13 0 27 -7 30 -16z"/>
<path d="M540 1930 c-26 -26 -27 -89 -1 -121 16 -20 23 -22 47 -14 64 23 51
155 -15 155 -6 0 -20 -9 -31 -20z m64 -16 c9 -23 7 -77 -3 -92 -4 -8 -19 -12
-32 -10 -19 2 -25 10 -27 37 -5 55 5 81 32 81 13 0 27 -7 30 -16z"/>
<path d="M1445 1870 c-125 -4 -174 -11 -292 -39 -79 -19 -143 -38 -143 -43 0
-13 21 -10 157 23 153 38 344 48 544 29 68 -6 203 -17 299 -25 107 -8 233 -25
325 -44 82 -17 204 -40 270 -51 173 -29 406 -85 590 -141 265 -81 541 -130
870 -154 351 -27 1165 -36 2170 -25 517 6 1208 13 1535 15 706 5 2108 41 2560
65 399 22 1432 92 1615 110 105 11 298 26 430 35 132 8 328 24 435 35 107 10
312 26 455 35 270 17 295 20 279 34 -9 8 -567 -28 -749 -48 -100 -11 -492 -41
-504 -39 -9 2 -160 -11 -371 -32 -166 -17 -1150 -83 -1635 -110 -104 -6 -377
-15 -605 -20 -228 -5 -534 -14 -680 -19 -146 -6 -506 -13 -800 -16 -294 -3
-1057 -10 -1695 -16 -1172 -11 -2034 -7 -2355 12 -334 19 -691 79 -945 159
-162 52 -415 111 -610 144 -83 14 -213 39 -290 55 -77 16 -192 32 -255 36 -63
3 -153 11 -200 16 -164 20 -256 24 -405 19z"/>
<path d="M535 1454 c-12 -12 -15 -31 -13 -72 3 -52 5 -57 32 -67 24 -8 31 -6
47 14 24 29 26 103 3 125 -20 21 -48 20 -69 0z m60 -64 c0 -52 -1 -55 -25 -55
-19 0 -26 7 -34 33 -12 44 6 85 37 80 20 -3 22 -9 22 -58z"/>
<path d="M950 1215 c-27 -33 42 -107 72 -77 8 8 6 10 -8 6 -24 -6 -69 38 -61
60 9 23 21 20 57 -16 23 -24 29 -27 21 -11 -11 21 -48 53 -62 53 -4 0 -12 -7
-19 -15z"/>
<path d="M1240 1215 c-27 -33 42 -107 72 -77 8 8 6 10 -8 6 -24 -6 -69 38 -61
60 9 23 21 20 57 -16 23 -24 29 -27 21 -11 -11 21 -48 53 -62 53 -4 0 -12 -7
-19 -15z"/>
<path d="M1578 1203 c36 -35 40 -51 15 -60 -11 -4 -26 4 -45 25 -15 18 -28 28
-28 22 0 -16 47 -60 63 -60 8 0 20 7 27 15 15 18 -7 57 -42 76 -16 9 -13 3 10
-18z"/>
<path d="M1868 1203 c36 -35 40 -51 15 -60 -11 -4 -26 4 -45 25 -15 18 -28 28
-28 22 0 -16 47 -60 63 -60 8 0 20 7 27 15 15 18 -7 57 -42 76 -16 9 -13 3 10
-18z"/>
<path d="M2116 1214 c-18 -17 -11 -37 24 -69 16 -15 25 -17 38 -9 26 17 26 41
-2 69 -29 29 -39 31 -60 9z m63 -28 c14 -17 8 -46 -9 -46 -6 0 -22 11 -36 25
-21 21 -23 29 -14 40 13 16 37 8 59 -19z"/>
<path d="M2406 1214 c-18 -17 -11 -37 24 -69 16 -15 25 -17 38 -9 26 17 26 41
-2 69 -29 29 -39 31 -60 9z m63 -28 c14 -17 8 -46 -9 -46 -6 0 -22 11 -36 25
-21 21 -23 29 -14 40 13 16 37 8 59 -19z"/>
<path d="M2696 1214 c-18 -17 -11 -37 24 -69 16 -15 25 -17 38 -9 26 17 26 41
-2 69 -29 29 -39 31 -60 9z m63 -28 c14 -17 8 -46 -9 -46 -6 0 -22 11 -36 25
-21 21 -23 29 -14 40 13 16 37 8 59 -19z"/>
<path d="M2992 1218 c-19 -19 -14 -42 12 -67 31 -29 60 -24 64 10 2 19 -5 33
-24 48 -31 24 -36 25 -52 9z m45 -20 c26 -24 31 -58 8 -58 -32 0 -67 54 -48
73 10 11 15 9 40 -15z"/>
<path d="M3282 1218 c-19 -19 -14 -42 12 -67 31 -29 60 -24 64 10 2 19 -5 33
-24 48 -31 24 -36 25 -52 9z m45 -20 c26 -24 31 -58 8 -58 -32 0 -67 54 -48
73 10 11 15 9 40 -15z"/>
<path d="M3860 1215 c-27 -33 42 -107 72 -77 8 8 6 10 -8 6 -24 -6 -69 38 -61
60 9 23 21 20 57 -16 23 -24 29 -27 21 -11 -11 21 -48 53 -62 53 -4 0 -12 -7
-19 -15z"/>
<path d="M4198 1203 c36 -35 40 -51 15 -60 -11 -4 -26 4 -45 25 -15 18 -28 28
-28 22 0 -16 47 -60 63 -60 8 0 20 7 27 15 15 18 -7 57 -42 76 -16 9 -13 3 10
-18z"/>
<path d="M4488 1203 c36 -35 40 -51 15 -60 -11 -4 -26 4 -45 25 -15 18 -28 28
-28 22 0 -16 47 -60 63 -60 8 0 20 7 27 15 15 18 -7 57 -42 76 -16 9 -13 3 10
-18z"/>
<path d="M4736 1214 c-18 -17 -11 -37 24 -69 16 -15 25 -17 38 -9 26 17 26 41
-2 69 -29 29 -39 31 -60 9z m63 -28 c14 -17 8 -46 -9 -46 -6 0 -22 11 -36 25
-21 21 -23 29 -14 40 13 16 37 8 59 -19z"/>
<path d="M5026 1214 c-18 -17 -11 -37 24 -69 16 -15 25 -17 38 -9 26 17 26 41
-2 69 -29 29 -39 31 -60 9z m63 -28 c14 -17 8 -46 -9 -46 -6 0 -22 11 -36 25
-21 21 -23 29 -14 40 13 16 37 8 59 -19z"/>
<path d="M5316 1214 c-18 -17 -11 -37 24 -69 16 -15 25 -17 38 -9 26 17 26 41
-2 69 -29 29 -39 31 -60 9z m63 -28 c14 -17 8 -46 -9 -46 -6 0 -22 11 -36 25
-21 21 -23 29 -14 40 13 16 37 8 59 -19z"/>
<path d="M5612 1218 c-19 -19 -14 -42 12 -67 31 -29 60 -24 64 10 2 19 -5 33
-24 48 -31 24 -36 25 -52 9z m45 -20 c26 -24 31 -58 8 -58 -32 0 -67 54 -48
73 10 11 15 9 40 -15z"/>
<path d="M5902 1218 c-19 -19 -14 -42 12 -67 31 -29 60 -24 64 10 2 19 -5 33
-24 48 -31 24 -36 25 -52 9z m45 -20 c26 -24 31 -58 8 -58 -32 0 -67 54 -48
73 10 11 15 9 40 -15z"/>
<path d="M6190 1215 c-27 -33 42 -107 72 -77 8 8 6 10 -8 6 -24 -6 -69 38 -61
60 9 23 21 20 57 -16 23 -24 29 -27 21 -11 -11 21 -48 53 -62 53 -4 0 -12 -7
-19 -15z"/>
<path d="M6480 1215 c-27 -33 42 -107 72 -77 8 8 6 10 -8 6 -24 -6 -69 38 -61
60 9 23 21 20 57 -16 23 -24 29 -27 21 -11 -11 21 -48 53 -62 53 -4 0 -12 -7
-19 -15z"/>
<path d="M6818 1203 c36 -35 40 -51 15 -60 -11 -4 -26 4 -45 25 -15 18 -28 28
-28 22 0 -16 47 -60 63 -60 8 0 20 7 27 15 15 18 -7 57 -42 76 -16 9 -13 3 10
-18z"/>
<path d="M7108 1203 c36 -35 40 -51 15 -60 -11 -4 -26 4 -45 25 -15 18 -28 28
-28 22 0 -16 47 -60 63 -60 8 0 20 7 27 15 15 18 -7 57 -42 76 -16 9 -13 3 10
-18z"/>
<path d="M7356 1214 c-18 -17 -11 -37 24 -69 16 -15 25 -17 38 -9 26 17 26 41
-2 69 -29 29 -39 31 -60 9z m63 -28 c14 -17 8 -46 -9 -46 -6 0 -22 11 -36 25
-21 21 -23 29 -14 40 13 16 37 8 59 -19z"/>
<path d="M7646 1214 c-18 -17 -11 -37 24 -69 16 -15 25 -17 38 -9 26 17 26 41
-2 69 -29 29 -39 31 -60 9z m63 -28 c14 -17 8 -46 -9 -46 -6 0 -22 11 -36 25
-21 21 -23 29 -14 40 13 16 37 8 59 -19z"/>
<path d="M7942 1218 c-19 -19 -14 -42 12 -67 31 -29 60 -24 64 10 2 19 -5 33
-24 48 -31 24 -36 25 -52 9z m45 -20 c26 -24 31 -58 8 -58 -32 0 -67 54 -48
73 10 11 15 9 40 -15z"/>
<path d="M8232 1218 c-19 -19 -14 -42 12 -67 31 -29 60 -24 64 10 2 19 -5 33
-24 48 -31 24 -36 25 -52 9z m45 -20 c26 -24 31 -58 8 -58 -32 0 -67 54 -48
73 10 11 15 9 40 -15z"/>
<path d="M8522 1218 c-19 -19 -14 -42 12 -67 31 -29 60 -24 64 10 2 19 -5 33
-24 48 -31 24 -36 25 -52 9z m45 -20 c26 -24 31 -58 8 -58 -32 0 -67 54 -48
73 10 11 15 9 40 -15z"/>
<path d="M8810 1215 c-27 -33 42 -107 72 -77 8 8 6 10 -8 6 -24 -6 -69 38 -61
60 9 23 21 20 57 -16 23 -24 29 -27 21 -11 -11 21 -48 53 -62 53 -4 0 -12 -7
-19 -15z"/>
<path d="M9100 1215 c-27 -33 42 -107 72 -77 8 8 6 10 -8 6 -24 -6 -69 38 -61
60 9 23 21 20 57 -16 23 -24 29 -27 21 -11 -11 21 -48 53 -62 53 -4 0 -12 -7
-19 -15z"/>
<path d="M9438 1203 c36 -35 40 -51 15 -60 -11 -4 -26 4 -45 25 -15 18 -28 28
-28 22 0 -16 47 -60 63 -60 8 0 20 7 27 15 15 18 -7 57 -42 76 -16 9 -13 3 10
-18z"/>
<path d="M9728 1203 c36 -35 40 -51 15 -60 -11 -4 -26 4 -45 25 -15 18 -28 28
-28 22 0 -16 47 -60 63 -60 8 0 20 7 27 15 15 18 -7 57 -42 76 -16 9 -13 3 10
-18z"/>
<path d="M9976 1214 c-18 -17 -11 -37 24 -69 16 -15 25 -17 38 -9 26 17 26 41
-2 69 -29 29 -39 31 -60 9z m63 -28 c14 -17 8 -46 -9 -46 -6 0 -22 11 -36 25
-21 21 -23 29 -14 40 13 16 37 8 59 -19z"/>
<path d="M10266 1214 c-18 -17 -11 -37 24 -69 16 -15 25 -17 38 -9 26 17 26
41 -2 69 -29 29 -39 31 -60 9z m63 -28 c14 -17 8 -46 -9 -46 -6 0 -22 11 -36
25 -21 21 -23 29 -14 40 13 16 37 8 59 -19z"/>
<path d="M10562 1218 c-19 -19 -14 -42 12 -67 31 -29 60 -24 64 10 2 19 -5 33
-24 48 -31 24 -36 25 -52 9z m45 -20 c26 -24 31 -58 8 -58 -32 0 -67 54 -48
73 10 11 15 9 40 -15z"/>
<path d="M10852 1218 c-19 -19 -14 -42 12 -67 31 -29 60 -24 64 10 2 19 -5 33
-24 48 -31 24 -36 25 -52 9z m45 -20 c26 -24 31 -58 8 -58 -32 0 -67 54 -48
73 10 11 15 9 40 -15z"/>
<path d="M11140 1215 c-27 -33 42 -107 72 -77 8 8 6 10 -8 6 -24 -6 -69 38
-61 60 9 23 21 20 57 -16 23 -24 29 -27 21 -11 -11 21 -48 53 -62 53 -4 0 -12
-7 -19 -15z"/>
<path d="M11430 1215 c-27 -33 42 -107 72 -77 8 8 6 10 -8 6 -24 -6 -69 38
-61 60 9 23 21 20 57 -16 23 -24 29 -27 21 -11 -11 21 -48 53 -62 53 -4 0 -12
-7 -19 -15z"/>
<path d="M11720 1215 c-27 -33 42 -107 72 -77 8 8 6 10 -8 6 -24 -6 -69 38
-61 60 9 23 21 20 57 -16 23 -24 29 -27 21 -11 -11 21 -48 53 -62 53 -4 0 -12
-7 -19 -15z"/>
<path d="M12058 1203 c36 -35 40 -51 15 -60 -11 -4 -26 4 -45 25 -15 18 -28
28 -28 22 0 -16 47 -60 63 -60 8 0 20 7 27 15 15 18 -7 57 -42 76 -16 9 -13 3
10 -18z"/>
<path d="M12348 1203 c36 -35 40 -51 15 -60 -11 -4 -26 4 -45 25 -15 18 -28
28 -28 22 0 -16 47 -60 63 -60 8 0 20 7 27 15 15 18 -7 57 -42 76 -16 9 -13 3
10 -18z"/>
<path d="M12596 1214 c-18 -17 -11 -37 24 -69 16 -15 25 -17 38 -9 26 17 26
41 -2 69 -29 29 -39 31 -60 9z m63 -28 c14 -17 8 -46 -9 -46 -6 0 -22 11 -36
25 -21 21 -23 29 -14 40 13 16 37 8 59 -19z"/>
<path d="M12886 1214 c-18 -17 -11 -37 24 -69 16 -15 25 -17 38 -9 26 17 26
41 -2 69 -29 29 -39 31 -60 9z m63 -28 c14 -17 8 -46 -9 -46 -6 0 -22 11 -36
25 -21 21 -23 29 -14 40 13 16 37 8 59 -19z"/>
<path d="M13182 1218 c-19 -19 -14 -42 12 -67 31 -29 60 -24 64 10 2 19 -5 33
-24 48 -31 24 -36 25 -52 9z m45 -20 c26 -24 31 -58 8 -58 -32 0 -67 54 -48
73 10 11 15 9 40 -15z"/>
<path d="M13472 1218 c-19 -19 -14 -42 12 -67 31 -29 60 -24 64 10 2 19 -5 33
-24 48 -31 24 -36 25 -52 9z m45 -20 c26 -24 31 -58 8 -58 -32 0 -67 54 -48
73 10 11 15 9 40 -15z"/>
<path d="M3566 1211 c-4 -5 3 -7 13 -4 11 3 28 -4 40 -16 44 -44 10 -72 -36
-29 -13 12 -23 16 -23 9 0 -7 -7 -10 -19 -6 -10 3 -24 -1 -31 -10 -28 -34 42
-107 73 -76 9 10 8 11 -6 5 -20 -7 -67 30 -67 52 0 19 20 28 33 15 15 -15 30
-14 21 2 -5 8 -2 8 9 -2 18 -15 23 -26 7 -16 -16 10 -12 -11 5 -25 13 -11 14
-10 9 5 -5 13 -3 16 7 13 21 -8 49 10 49 31 0 36 -68 78 -84 52z"/>
<path d="M886 1151 c-4 -5 3 -7 13 -4 11 3 28 -4 40 -16 44 -44 10 -72 -36
-29 -13 12 -23 17 -23 10 0 -6 12 -20 26 -31 30 -23 64 -14 64 18 0 36 -68 78
-84 52z"/>
<path d="M1175 1149 c-12 -19 5 -59 30 -71 52 -23 75 20 32 60 -25 24 -52 28
-62 11z m57 -16 c23 -20 24 -53 1 -53 -23 0 -53 29 -53 52 0 23 27 24 52 1z"/>
<path d="M1465 1149 c-12 -19 5 -59 30 -71 52 -23 75 20 32 60 -25 24 -52 28
-62 11z m57 -16 c23 -20 24 -53 1 -53 -23 0 -53 29 -53 52 0 23 27 24 52 1z"/>
<path d="M1757 1153 c-15 -15 -5 -43 24 -68 30 -24 33 -25 50 -9 16 15 17 19
4 44 -18 35 -59 52 -78 33z m62 -29 c11 -15 18 -30 15 -35 -15 -26 -74 8 -74
43 0 27 35 22 59 -8z"/>
<path d="M2047 1153 c-15 -15 -5 -43 24 -68 30 -24 33 -25 50 -9 16 15 17 19
4 44 -18 35 -59 52 -78 33z m62 -29 c11 -15 18 -30 15 -35 -15 -26 -74 8 -74
43 0 27 35 22 59 -8z"/>
<path d="M2340 1145 c-23 -27 39 -94 69 -76 8 6 3 10 -18 14 -30 6 -57 39 -46
57 11 18 33 10 59 -21 31 -36 35 -24 5 15 -23 29 -50 34 -69 11z"/>
<path d="M2630 1145 c-23 -27 39 -94 69 -76 8 6 3 10 -18 14 -30 6 -57 39 -46
57 11 18 33 10 59 -21 31 -36 35 -24 5 15 -23 29 -50 34 -69 11z"/>
<path d="M2920 1145 c-11 -13 -9 -21 9 -45 21 -30 21 -30 1 -30 -11 0 -20 6
-20 14 0 8 -5 18 -11 22 -16 10 -43 -21 -35 -41 5 -14 14 -16 40 -11 37 7 50
-2 36 -24 -8 -12 -13 -13 -29 -3 -17 11 -19 10 -15 -2 14 -36 69 -2 56 34 -3
9 0 12 10 9 8 -4 20 -3 27 2 8 4 2 9 -18 13 -30 6 -57 39 -46 57 11 18 33 10
59 -21 31 -36 35 -24 5 15 -23 29 -50 34 -69 11z m-20 -65 c0 -11 -7 -20 -15
-20 -15 0 -21 21 -8 33 12 13 23 7 23 -13z"/>
<path d="M3216 1151 c-4 -5 3 -7 13 -4 11 3 28 -4 40 -16 44 -44 10 -72 -36
-29 -13 12 -23 17 -23 10 0 -6 12 -20 26 -31 30 -23 64 -14 64 18 0 36 -68 78
-84 52z"/>
<path d="M3795 1149 c-12 -19 5 -59 30 -71 52 -23 75 20 32 60 -25 24 -52 28
-62 11z m57 -16 c23 -20 24 -53 1 -53 -23 0 -53 29 -53 52 0 23 27 24 52 1z"/>
<path d="M4085 1149 c-12 -19 5 -59 30 -71 52 -23 75 20 32 60 -25 24 -52 28
-62 11z m57 -16 c23 -20 24 -53 1 -53 -23 0 -53 29 -53 52 0 23 27 24 52 1z"/>
<path d="M4377 1153 c-15 -15 -5 -43 24 -68 30 -24 33 -25 50 -9 16 15 17 19
4 44 -18 35 -59 52 -78 33z m62 -29 c11 -15 18 -30 15 -35 -15 -26 -74 8 -74
43 0 27 35 22 59 -8z"/>
<path d="M4667 1153 c-15 -15 -5 -43 24 -68 30 -24 33 -25 50 -9 16 15 17 19
4 44 -18 35 -59 52 -78 33z m62 -29 c11 -15 18 -30 15 -35 -15 -26 -74 8 -74
43 0 27 35 22 59 -8z"/>
<path d="M4960 1145 c-23 -27 39 -94 69 -76 8 6 3 10 -18 14 -30 6 -57 39 -46
57 11 18 33 10 59 -21 31 -36 35 -24 5 15 -23 29 -50 34 -69 11z"/>
<path d="M5250 1145 c-23 -27 39 -94 69 -76 8 6 3 10 -18 14 -30 6 -57 39 -46
57 11 18 33 10 59 -21 31 -36 35 -24 5 15 -23 29 -50 34 -69 11z"/>
<path d="M5540 1145 c-23 -27 39 -94 69 -76 8 6 3 10 -18 14 -30 6 -57 39 -46
57 11 18 33 10 59 -21 31 -36 35 -24 5 15 -23 29 -50 34 -69 11z"/>
<path d="M5836 1151 c-4 -5 3 -7 13 -4 21 5 61 -28 61 -52 0 -22 -34 -18 -55
5 -10 11 -20 18 -23 15 -3 -3 3 -14 13 -25 18 -19 17 -20 -3 -20 -13 0 -22 6
-22 14 0 8 -5 18 -11 22 -16 10 -43 -21 -35 -41 5 -14 14 -16 40 -11 37 7 50
-2 36 -24 -8 -12 -13 -13 -29 -3 -17 11 -19 10 -15 -2 14 -35 69 -2 56 34 -3
8 1 12 9 9 21 -8 49 10 49 31 0 36 -68 78 -84 52z m-26 -71 c0 -11 -7 -20 -15
-20 -15 0 -21 21 -8 33 12 13 23 7 23 -13z"/>
<path d="M6126 1151 c-4 -5 3 -7 13 -4 11 3 28 -4 40 -16 44 -44 10 -72 -36
-29 -14 13 -23 17 -23 9 0 -8 -6 -11 -17 -6 -12 4 -9 -3 10 -22 30 -32 34 -52
15 -73 -11 -12 -10 -12 5 -1 22 17 22 40 0 71 l-18 25 29 -22 c52 -41 92 9 43
55 -24 23 -52 29 -61 13z"/>
<path d="M6415 1149 c-4 -5 -4 -21 -1 -35 6 -23 5 -24 -15 -14 -17 10 -24 9
-37 -4 -13 -12 -13 -20 -4 -41 15 -33 58 -53 75 -36 9 10 8 11 -6 5 -20 -7
-67 30 -67 52 0 20 19 27 35 14 8 -6 19 -9 24 -5 6 3 8 0 5 -8 -3 -8 3 -20 12
-28 16 -13 16 -12 6 7 -11 20 -9 22 20 20 41 -1 49 26 17 60 -24 25 -53 31
-64 13z m57 -16 c23 -20 24 -53 1 -53 -23 0 -53 29 -53 52 0 23 27 24 52 1z"/>
<path d="M6705 1149 c-12 -19 5 -59 30 -71 52 -23 75 20 32 60 -25 24 -52 28
-62 11z m57 -16 c23 -20 24 -53 1 -53 -23 0 -53 29 -53 52 0 23 27 24 52 1z"/>
<path d="M6997 1153 c-15 -15 -5 -43 24 -68 30 -24 33 -25 50 -9 16 15 17 19
4 44 -18 35 -59 52 -78 33z m62 -29 c11 -15 18 -30 15 -35 -15 -26 -74 8 -74
43 0 27 35 22 59 -8z"/>
<path d="M7287 1153 c-15 -15 -5 -43 24 -68 30 -24 33 -25 50 -9 16 15 17 19
4 44 -18 35 -59 52 -78 33z m62 -29 c11 -15 18 -30 15 -35 -15 -26 -74 8 -74
43 0 27 35 22 59 -8z"/>
<path d="M7580 1145 c-11 -13 -9 -21 8 -45 27 -36 13 -48 -18 -15 -29 31 -40
32 -40 3 0 -16 3 -19 8 -10 7 9 13 8 26 -7 10 -11 15 -25 11 -30 -10 -16 -23
-13 -28 7 -4 15 -5 15 -6 0 -1 -23 17 -32 34 -18 8 6 19 9 25 5 7 -4 10 0 8
11 -2 11 3 20 12 20 40 4 43 7 13 15 -33 10 -59 41 -48 59 11 18 33 10 59 -21
31 -36 35 -24 5 15 -23 29 -50 34 -69 11z"/>
<path d="M7870 1145 c-23 -27 39 -94 69 -76 8 6 3 10 -18 14 -30 6 -57 39 -46
57 11 18 33 10 59 -21 31 -36 35 -24 5 15 -23 29 -50 34 -69 11z"/>
<path d="M8166 1151 c-4 -5 3 -7 13 -4 21 5 61 -28 61 -52 0 -22 -34 -18 -55
5 -10 11 -20 18 -23 15 -3 -3 3 -14 13 -25 17 -19 17 -20 2 -14 -11 4 -26 -1
-37 -11 -18 -16 -20 -16 -26 -1 -3 9 0 24 7 34 12 16 12 16 -5 1 -23 -21 -14
-53 20 -75 31 -21 54 -12 54 22 0 16 5 24 13 21 19 -7 47 12 47 32 0 36 -68
78 -84 52z m12 -109 c4 -25 -19 -30 -37 -9 -8 10 -7 17 1 25 17 17 32 10 36
-16z"/>
<path d="M8456 1151 c-4 -5 3 -7 13 -4 11 3 28 -4 40 -16 44 -44 10 -72 -36
-29 -13 12 -23 17 -23 10 0 -6 12 -20 26 -31 30 -23 64 -14 64 18 0 36 -68 78
-84 52z"/>
<path d="M8746 1151 c-4 -5 3 -7 13 -4 21 5 61 -28 61 -52 0 -22 -34 -18 -55
5 -10 11 -20 18 -23 15 -3 -3 2 -13 12 -24 16 -17 15 -19 -21 -24 -42 -7 -48
-4 -39 19 4 10 12 14 24 9 13 -5 14 -4 5 6 -14 14 -43 -4 -43 -28 0 -17 42
-34 51 -20 9 14 42 0 36 -16 -2 -6 -14 -12 -26 -11 -11 0 -21 -3 -21 -8 0 -14
37 -9 50 7 7 8 9 22 6 31 -4 10 -2 14 6 11 20 -7 48 12 48 32 0 36 -68 78 -84
52z"/>
<path d="M9033 1144 c-3 -8 -1 -26 6 -40 l11 -24 -28 17 -27 17 28 -30 c30
-33 34 -53 15 -74 -11 -12 -10 -12 5 0 13 10 17 22 13 41 -5 25 -3 27 27 25
40 -1 48 26 16 60 -26 27 -57 31 -66 8z m59 -11 c23 -20 24 -53 1 -53 -23 0
-53 29 -53 52 0 23 27 24 52 1z"/>
<path d="M9325 1149 c-4 -5 -4 -21 -1 -35 6 -23 5 -24 -16 -13 -17 9 -14 3 10
-18 36 -35 40 -51 15 -60 -11 -4 -26 4 -45 25 -15 18 -28 28 -28 22 0 -16 47
-60 63 -60 25 0 40 26 28 48 -10 18 -7 20 21 18 41 -1 49 26 17 60 -24 25 -53
31 -64 13z m57 -16 c23 -20 24 -53 1 -53 -23 0 -53 29 -53 52 0 23 27 24 52 1z"/>
<path d="M9617 1153 c-15 -15 -5 -43 24 -68 30 -24 33 -25 50 -9 16 15 17 19
4 44 -18 35 -59 52 -78 33z m62 -29 c11 -15 18 -30 15 -35 -15 -26 -74 8 -74
43 0 27 35 22 59 -8z"/>
<path d="M9907 1153 c-15 -15 -5 -43 24 -68 30 -24 33 -25 50 -9 16 15 17 19
4 44 -18 35 -59 52 -78 33z m62 -29 c11 -15 18 -30 15 -35 -15 -26 -74 8 -74
43 0 27 35 22 59 -8z"/>
<path d="M10200 1145 c-23 -27 39 -94 69 -76 8 6 3 10 -18 14 -30 6 -57 39
-46 57 11 18 33 10 59 -21 31 -36 35 -24 5 15 -23 29 -50 34 -69 11z"/>
<path d="M10490 1145 c-11 -13 -9 -21 8 -45 27 -36 13 -48 -18 -15 -22 23 -40
25 -40 4 0 -6 4 -8 9 -5 4 3 17 -4 27 -15 18 -20 18 -21 -1 -35 -10 -8 -14
-14 -8 -14 7 0 15 5 18 11 4 6 13 8 21 5 10 -4 14 0 12 12 -2 9 4 18 12 18 40
4 43 7 13 15 -33 10 -59 41 -48 59 11 18 33 10 59 -21 31 -36 35 -24 5 15 -23
29 -50 34 -69 11z"/>
<path d="M10786 1151 c-4 -5 3 -7 13 -4 11 3 28 -4 40 -16 44 -44 10 -72 -36
-29 -13 12 -23 17 -23 10 0 -6 12 -20 26 -31 30 -23 64 -14 64 18 0 36 -68 78
-84 52z"/>
<path d="M11076 1151 c-4 -5 3 -7 13 -4 21 5 61 -28 61 -52 0 -22 -34 -18 -55
5 -10 11 -20 18 -23 15 -3 -3 3 -14 13 -25 17 -19 17 -20 2 -14 -11 4 -26 -1
-37 -11 -18 -16 -20 -16 -26 -1 -3 9 0 24 7 34 12 16 12 16 -5 1 -23 -21 -14
-53 20 -75 31 -21 54 -12 54 22 0 16 5 24 13 21 19 -7 47 12 47 32 0 36 -68
78 -84 52z m12 -109 c4 -25 -19 -30 -37 -9 -8 10 -7 17 1 25 17 17 32 10 36
-16z"/>
<path d="M11366 1151 c-4 -5 3 -7 13 -4 11 3 28 -4 40 -16 44 -44 10 -72 -36
-29 -13 12 -23 17 -23 10 0 -6 12 -20 26 -31 30 -23 64 -14 64 18 0 36 -68 78
-84 52z"/>
<path d="M11655 1149 c-12 -19 5 -59 30 -71 52 -23 75 20 32 60 -25 24 -52 28
-62 11z m57 -16 c23 -20 24 -53 1 -53 -23 0 -53 29 -53 52 0 23 27 24 52 1z"/>
<path d="M11945 1149 c-12 -19 5 -59 30 -71 52 -23 75 20 32 60 -25 24 -52 28
-62 11z m57 -16 c23 -20 24 -53 1 -53 -23 0 -53 29 -53 52 0 23 27 24 52 1z"/>
<path d="M12237 1153 c-15 -15 -5 -43 24 -68 30 -24 33 -25 50 -9 16 15 17 19
4 44 -18 35 -59 52 -78 33z m62 -29 c11 -15 18 -30 15 -35 -15 -26 -74 8 -74
43 0 27 35 22 59 -8z"/>
<path d="M12527 1153 c-15 -15 -5 -43 24 -68 30 -24 33 -25 50 -9 16 15 17 19
4 44 -18 35 -59 52 -78 33z m62 -29 c11 -15 18 -30 15 -35 -15 -26 -74 8 -74
43 0 27 35 22 59 -8z"/>
<path d="M12820 1145 c-23 -27 39 -94 69 -76 8 6 3 10 -18 14 -30 6 -57 39
-46 57 11 18 33 10 59 -21 31 -36 35 -24 5 15 -23 29 -50 34 -69 11z"/>
<path d="M13110 1145 c-23 -27 39 -94 69 -76 8 6 3 10 -18 14 -30 6 -57 39
-46 57 11 18 33 10 59 -21 31 -36 35 -24 5 15 -23 29 -50 34 -69 11z"/>
<path d="M13406 1151 c-4 -5 3 -7 13 -4 11 3 28 -4 40 -16 44 -44 10 -72 -36
-29 -13 12 -23 17 -23 11 0 -6 7 -16 15 -23 8 -7 12 -17 9 -22 -3 -5 -18 2
-33 16 -15 15 -30 23 -34 19 -10 -9 -9 -25 2 -19 4 3 17 -4 27 -15 18 -20 18
-21 -1 -35 -10 -8 -14 -14 -8 -14 7 0 15 5 18 11 4 6 13 8 21 5 10 -4 14 0 12
11 -2 12 4 18 18 19 49 3 59 37 21 72 -24 23 -52 29 -61 13z"/>
<path d="M5489 1093 c-21 -24 -21 -26 -2 -9 l23 19 20 -44 c21 -45 17 -18 -4
33 l-12 28 -25 -27z"/>
<path d="M8399 1093 c-21 -24 -21 -26 -2 -9 l23 19 20 -44 c21 -45 17 -18 -4
33 l-12 28 -25 -27z"/>
<path d="M11310 1093 c-17 -19 -18 -22 -4 -10 23 19 34 22 34 8 0 -15 31 -83
36 -78 3 2 -6 28 -18 57 l-23 52 -25 -29z"/>
<path d="M1711 1084 c1 -18 3 -22 6 -11 5 18 6 18 24 1 15 -13 16 -20 7 -31
-9 -11 -13 -11 -19 -1 -6 9 -9 9 -9 1 0 -19 19 -26 35 -13 8 6 18 9 24 6 5 -3
7 3 4 14 -3 12 -8 18 -11 15 -3 -3 -18 7 -34 22 l-28 27 1 -30z"/>
<path d="M1992 1098 c-27 -27 -2 -64 29 -45 15 9 24 9 39 -1 24 -15 26 -9 4
12 -12 12 -20 13 -35 6 -25 -14 -44 -3 -28 16 15 18 7 28 -9 12z"/>
<path d="M2574 1088 l-19 -23 22 19 c22 18 22 18 37 -19 9 -21 16 -42 16 -48
0 -6 3 -8 6 -4 7 7 -26 97 -36 97 -4 0 -15 -10 -26 -22z"/>
<path d="M3160 1095 c-6 -8 -10 -22 -8 -32 4 -23 46 -30 54 -9 3 9 11 13 18 9
6 -4 5 1 -3 11 -24 29 -47 37 -61 21z m44 -30 c-7 -17 -30 -20 -39 -5 -4 6 -4
18 -1 26 4 11 10 12 25 4 12 -6 18 -16 15 -25z"/>
<path d="M4621 1084 c1 -18 3 -22 6 -11 5 18 6 18 24 1 15 -13 16 -20 7 -31
-9 -11 -13 -11 -19 -1 -6 9 -9 9 -9 1 0 -19 19 -26 35 -13 8 6 18 9 24 6 5 -3
7 3 4 14 -3 12 -8 18 -11 15 -3 -3 -18 7 -34 22 l-28 27 1 -30z"/>
<path d="M4907 1093 c-15 -15 -15 -18 -1 -34 13 -15 20 -16 35 -6 14 9 21 9
31 -1 9 -9 7 -17 -8 -34 l-19 -23 23 19 c27 23 28 42 3 55 -14 8 -22 7 -31 -4
-10 -12 -16 -13 -27 -4 -11 10 -11 15 3 30 21 24 14 25 -9 2z"/>
<path d="M7237 1095 c-9 -9 -17 -19 -17 -23 0 -3 5 -1 12 6 19 19 41 15 35 -7
-3 -14 0 -17 13 -14 27 7 34 -16 13 -40 l-18 -22 23 19 c26 23 28 44 5 53 -10
4 -25 16 -34 26 -14 18 -16 18 -32 2z"/>
<path d="M7817 1093 c-15 -15 -15 -18 -1 -34 13 -15 20 -16 35 -6 14 9 21 9
31 -1 9 -9 7 -17 -8 -34 l-19 -23 23 19 c27 23 28 42 3 55 -14 8 -22 7 -31 -4
-10 -12 -16 -13 -27 -4 -11 10 -11 15 3 30 21 24 14 25 -9 2z"/>
<path d="M9857 1095 c-9 -9 -17 -22 -17 -28 0 -7 5 -4 11 6 5 9 16 17 24 17
14 0 21 -18 27 -68 l3 -24 25 28 c21 25 22 26 3 10 -23 -19 -23 -19 -23 6 0
14 -8 36 -18 48 -17 21 -19 21 -35 5z"/>
<path d="M10147 1095 c-9 -9 -17 -19 -17 -23 0 -3 5 -1 12 6 19 19 41 15 35
-7 -3 -14 0 -17 13 -14 27 7 34 -16 13 -40 l-18 -22 23 19 c26 23 28 44 5 53
-10 4 -25 16 -34 26 -14 18 -16 18 -32 2z"/>
<path d="M10726 1092 c-15 -18 -15 -20 3 -36 12 -11 21 -14 26 -7 3 6 15 11
26 11 24 0 25 -28 2 -47 -16 -13 -16 -13 5 -3 25 12 29 42 9 59 -10 8 -19 7
-33 -3 -28 -21 -51 0 -28 25 10 11 15 19 12 19 -3 0 -12 -8 -22 -18z"/>
<path d="M11602 1098 c-7 -7 -12 -18 -12 -25 0 -18 43 -34 51 -20 9 14 42 0
36 -16 -2 -6 -14 -12 -26 -11 -11 0 -21 -3 -21 -8 0 -14 37 -9 50 7 7 8 9 22
6 31 -5 13 -15 15 -47 10 -35 -6 -40 -4 -37 11 2 10 11 17 21 17 9 -1 14 2 11
7 -7 12 -18 11 -32 -3z"/>
<path d="M11924 1091 c14 -16 17 -24 8 -33 -17 -17 -45 -1 -39 24 4 14 3 18
-5 10 -15 -15 0 -52 22 -52 10 0 22 5 25 10 3 6 10 10 16 10 13 0 11 -34 -3
-50 -11 -12 -10 -12 5 -1 33 25 18 68 -33 96 -9 5 -8 0 4 -14z"/>
<path d="M12228 1083 c36 -35 40 -51 15 -60 -11 -4 -26 4 -45 25 -15 18 -28
28 -28 22 0 -16 47 -60 63 -60 8 0 20 7 27 15 15 18 -7 57 -42 76 -16 9 -13 3
10 -18z"/>
<path d="M12767 1095 c-9 -9 -17 -22 -17 -28 0 -7 5 -4 11 6 5 9 16 17 24 17
14 0 21 -18 27 -68 l3 -24 25 28 c21 25 22 26 3 10 -23 -19 -23 -19 -23 6 0
14 -8 36 -18 48 -17 21 -19 21 -35 5z"/>
<path d="M830 1096 c0 -4 14 -19 30 -33 17 -13 30 -32 30 -40 0 -13 2 -13 16
-2 13 11 13 14 3 17 -8 3 -29 18 -46 35 -18 17 -33 28 -33 23z"/>
<path d="M1117 1094 c-4 -4 -7 -12 -7 -18 0 -6 4 -5 9 3 16 25 41 4 41 -33 0
-44 12 -52 36 -23 10 12 12 16 4 10 -22 -20 -29 -16 -32 25 -2 28 -8 38 -23
40 -12 2 -24 0 -28 -4z"/>
<path d="M1405 1089 c-4 -6 -4 -13 -1 -16 3 -4 6 -1 6 5 0 15 27 16 35 2 4 -6
1 -18 -7 -27 -12 -15 -11 -15 9 -2 30 18 53 -1 33 -28 -13 -17 -13 -17 3 -2
20 17 13 49 -9 49 -8 0 -17 7 -20 15 -7 17 -40 20 -49 4z"/>
<path d="M3446 1091 c-4 -5 3 -7 13 -4 11 3 28 -4 40 -16 44 -44 10 -72 -36
-29 -13 12 -23 17 -23 10 0 -6 12 -20 26 -31 30 -23 64 -14 64 18 0 36 -68 78
-84 52z"/>
<path d="M3740 1096 c0 -4 14 -19 30 -33 17 -13 30 -32 30 -40 0 -13 2 -13 16
-2 13 11 13 14 3 17 -8 3 -29 18 -46 35 -18 17 -33 28 -33 23z"/>
<path d="M4025 1090 c-4 -6 -4 -14 -1 -17 3 -4 6 -1 6 5 0 16 27 15 36 0 4 -7
10 -27 13 -46 l6 -34 25 29 c13 15 16 20 5 10 -19 -17 -20 -16 -30 20 -11 39
-45 57 -60 33z"/>
<path d="M4315 1089 c-4 -6 -4 -13 -1 -16 3 -4 6 -1 6 5 0 15 27 16 35 2 4 -6
1 -18 -7 -27 -12 -15 -11 -15 9 -2 30 18 53 -1 33 -28 -13 -17 -13 -17 3 -2
20 17 13 49 -9 49 -8 0 -17 7 -20 15 -7 17 -40 20 -49 4z"/>
<path d="M6064 1085 c-9 -23 3 -45 25 -45 11 0 22 4 25 8 3 5 -5 8 -17 8 -17
-1 -22 5 -21 22 1 26 -4 28 -12 7z"/>
<path d="M6650 1084 c0 -8 4 -13 8 -10 13 8 64 -49 55 -60 -5 -5 2 0 15 10 25
22 28 28 9 20 -7 -2 -26 9 -42 26 -32 33 -45 38 -45 14z"/>
<path d="M6935 1090 c-4 -6 -4 -14 -1 -17 3 -4 6 -1 6 5 0 16 27 15 36 0 4 -7
10 -27 13 -46 l6 -34 25 29 c13 15 16 20 5 10 -19 -17 -20 -16 -30 20 -11 39
-45 57 -60 33z"/>
<path d="M8974 1085 c-9 -23 3 -45 25 -45 11 0 22 4 25 8 3 5 -5 8 -17 8 -17
-1 -22 5 -21 22 1 26 -4 28 -12 7z"/>
<path d="M9560 1084 c0 -8 4 -13 8 -10 13 8 64 -49 55 -60 -5 -5 2 0 15 10 25
22 28 28 9 20 -7 -2 -26 9 -42 26 -32 33 -45 38 -45 14z"/>
<path d="M12474 1086 c-4 -9 -4 -20 0 -23 3 -4 6 0 6 7 0 8 12 2 30 -15 16
-15 26 -33 23 -39 -4 -6 3 -2 15 8 23 20 29 32 11 20 -6 -3 -26 9 -45 27 -29
28 -34 30 -40 15z"/>
<path d="M13049 1083 c-11 -15 -11 -16 1 -5 25 22 43 15 35 -15 -5 -23 -4 -25
9 -14 16 13 36 7 36 -11 0 -6 -8 -17 -17 -25 -16 -13 -16 -13 5 -3 28 13 29
50 2 57 -11 3 -20 12 -20 19 0 20 -35 17 -51 -3z"/>
<path d="M2281 1078 c-1 -27 43 -72 63 -65 23 9 31 34 16 52 -16 19 -25 19
-44 -1 -15 -14 -17 -13 -25 8 -7 16 -10 18 -10 6z m76 -24 c9 -23 -13 -40 -32
-24 -12 10 -13 16 -4 26 15 18 28 18 36 -2z"/>
<path d="M5191 1078 c-1 -27 43 -72 63 -65 23 9 31 34 16 52 -16 19 -25 19
-44 -1 -15 -14 -17 -13 -25 8 -7 16 -10 18 -10 6z m76 -24 c9 -23 -13 -40 -32
-24 -12 10 -13 16 -4 26 15 18 28 18 36 -2z"/>
<path d="M10451 1054 c0 -11 3 -14 6 -6 3 7 2 16 -1 19 -3 4 -6 -2 -5 -13z"/>
<path d="M13361 1054 c0 -11 3 -14 6 -6 3 7 2 16 -1 19 -3 4 -6 -2 -5 -13z"/>
<path d="M3230 1042 c0 -6 -7 -18 -16 -26 -8 -9 -11 -16 -5 -16 13 0 35 39 27
48 -3 3 -6 0 -6 -6z"/>
<path d="M3390 1036 c0 -4 14 -19 30 -33 17 -13 30 -32 30 -40 0 -13 2 -13 16
-2 13 11 13 14 3 17 -8 3 -29 18 -46 35 -18 17 -33 28 -33 23z"/>
<path d="M6290 1018 c-11 -22 -10 -22 4 -4 21 26 46 5 46 -40 0 -40 10 -43 36
-11 l19 22 -22 -19 c-23 -19 -23 -19 -23 8 0 59 -39 87 -60 44z"/>
<path d="M6580 1018 c-11 -22 -10 -22 4 -4 21 26 46 5 46 -40 0 -40 10 -43 36
-11 l19 22 -22 -19 c-23 -19 -23 -19 -23 8 0 59 -39 87 -60 44z"/>
<path d="M6877 1033 c-14 -13 -7 -25 8 -13 21 17 35 4 35 -35 0 -43 12 -51 36
-22 l19 22 -22 -19 -23 -19 0 34 c0 46 -30 75 -53 52z"/>
<path d="M7167 1033 c-14 -13 -7 -25 8 -13 21 17 35 4 35 -35 0 -43 12 -51 36
-22 l19 22 -22 -19 -23 -19 0 34 c0 46 -30 75 -53 52z"/>
<path d="M7462 1028 c-6 -6 -12 -16 -12 -22 0 -5 6 -2 13 9 19 25 36 11 43
-36 7 -44 13 -47 39 -19 10 11 13 20 7 20 -6 0 -14 -6 -19 -12 -5 -9 -11 1
-19 27 -11 42 -31 54 -52 33z"/>
<path d="M7752 1028 c-6 -6 -12 -16 -12 -22 0 -5 6 -2 13 9 19 25 36 11 43
-36 7 -44 13 -47 39 -19 10 11 13 20 7 20 -6 0 -14 -6 -19 -12 -5 -9 -11 1
-19 27 -11 42 -31 54 -52 33z"/>
<path d="M8042 1028 c-6 -6 -12 -16 -12 -22 0 -5 6 -2 13 9 19 25 36 11 43
-36 7 -44 13 -47 39 -19 10 11 13 20 7 20 -6 0 -14 -6 -19 -12 -5 -9 -11 1
-19 27 -11 42 -31 54 -52 33z"/>
<path d="M8332 1028 c-7 -7 -12 -16 -12 -22 0 -5 6 -1 14 9 12 16 16 17 30 6
9 -8 16 -28 16 -47 0 -40 10 -43 36 -11 l19 22 -22 -19 c-23 -19 -23 -19 -23
8 0 54 -30 82 -58 54z"/>
<path d="M8622 1028 c-7 -7 -12 -16 -12 -22 0 -5 6 -1 14 9 12 16 16 17 30 6
9 -8 16 -28 16 -47 0 -40 10 -43 36 -11 l19 22 -22 -19 c-23 -19 -23 -19 -23
8 0 54 -30 82 -58 54z"/>
<path d="M8910 1018 c-11 -22 -10 -22 4 -4 21 26 46 5 46 -40 0 -40 10 -43 36
-11 l19 22 -22 -19 c-23 -19 -23 -19 -23 8 0 59 -39 87 -60 44z"/>
<path d="M9206 1031 c-3 -5 2 -8 12 -7 11 1 17 -6 16 -20 0 -16 5 -20 23 -16
28 5 32 -22 6 -37 -10 -6 -13 -11 -7 -11 16 0 34 22 34 42 0 16 -5 20 -27 17
-4 0 -10 9 -15 20 -7 21 -32 28 -42 12z"/>
<path d="M9497 1033 c-4 -3 -7 -11 -7 -17 0 -6 5 -5 12 2 19 19 31 14 26 -11
-4 -20 -1 -23 19 -19 28 5 32 -22 6 -37 -10 -6 -13 -11 -7 -11 16 0 34 22 34
42 0 11 -7 18 -19 18 -10 0 -21 9 -24 20 -5 19 -27 27 -40 13z"/>
<path d="M9787 1033 c-4 -3 -7 -11 -7 -17 0 -6 5 -5 12 2 19 19 31 14 26 -11
-4 -20 -1 -23 19 -19 28 5 32 -22 6 -37 -10 -6 -13 -11 -7 -11 16 0 34 22 34
42 0 11 -7 18 -19 18 -10 0 -21 9 -24 20 -5 19 -27 27 -40 13z"/>
<path d="M10079 1023 c-13 -16 -12 -17 4 -4 24 19 47 -1 27 -24 -12 -14 -11
-16 12 -10 32 8 44 -8 22 -29 -8 -9 -11 -16 -5 -16 19 0 34 40 21 56 -7 7 -16
12 -20 9 -5 -3 -11 4 -15 15 -8 25 -28 26 -46 3z"/>
<path d="M10369 1023 c-13 -16 -12 -17 4 -4 24 19 47 -1 27 -24 -12 -14 -11
-16 12 -10 32 8 44 -8 22 -29 -8 -9 -11 -16 -5 -16 19 0 34 40 21 56 -7 7 -16
12 -20 9 -5 -3 -11 4 -15 15 -8 25 -28 26 -46 3z"/>
<path d="M10662 1028 c-7 -7 -12 -16 -12 -22 0 -5 6 -2 13 9 16 21 41 11 34
-14 -3 -14 1 -17 19 -13 29 5 33 -22 7 -37 -10 -6 -13 -11 -7 -11 22 0 39 30
27 48 -5 10 -14 16 -19 14 -4 -2 -11 6 -16 17 -8 23 -28 27 -46 9z"/>
<path d="M10952 1028 c-7 -7 -12 -16 -12 -22 0 -5 6 -2 13 9 16 21 41 11 34
-14 -3 -14 1 -17 19 -13 29 5 33 -22 7 -37 -10 -6 -13 -11 -7 -11 22 0 39 30
27 48 -5 10 -14 16 -19 14 -4 -2 -11 6 -16 17 -8 23 -28 27 -46 9z"/>
<path d="M11242 1028 c-7 -7 -12 -16 -12 -22 0 -5 6 -2 13 9 16 21 41 11 34
-14 -3 -14 1 -17 19 -13 29 5 33 -22 7 -37 -10 -6 -13 -11 -7 -11 22 0 39 30
27 48 -5 10 -14 16 -19 14 -4 -2 -11 6 -16 17 -8 23 -28 27 -46 9z"/>
<path d="M11536 1031 c-3 -5 2 -8 12 -7 11 1 17 -6 16 -20 0 -16 5 -20 23 -16
28 5 32 -22 6 -37 -10 -6 -13 -11 -7 -11 16 0 34 22 34 42 0 16 -5 20 -27 17
-4 0 -10 9 -15 20 -7 21 -32 28 -42 12z"/>
<path d="M11826 1031 c-3 -5 2 -8 12 -7 11 1 17 -6 16 -20 0 -16 5 -20 23 -16
28 5 32 -22 6 -37 -10 -6 -13 -11 -7 -11 16 0 34 22 34 42 0 16 -5 20 -27 17
-4 0 -10 9 -15 20 -7 21 -32 28 -42 12z"/>
<path d="M12131 1013 c1 -19 3 -22 6 -10 5 18 6 18 24 1 15 -13 16 -20 7 -31
-9 -11 -13 -11 -19 -1 -7 10 -9 9 -9 -4 0 -22 13 -23 30 -4 6 8 18 12 26 9 23
-8 16 4 -18 36 -41 38 -48 39 -47 4z"/>
<path d="M12421 1013 c1 -19 3 -22 6 -10 5 18 6 18 24 1 15 -13 16 -20 7 -31
-9 -11 -13 -11 -19 -1 -7 10 -9 9 -9 -4 0 -22 13 -23 30 -4 6 8 18 12 26 9 23
-8 16 4 -18 36 -41 38 -48 39 -47 4z"/>
<path d="M12710 1018 c0 -16 3 -19 8 -10 7 10 12 8 25 -6 16 -17 16 -20 2 -32
-12 -10 -15 -9 -15 5 0 10 -3 16 -6 12 -4 -3 -4 -14 0 -23 6 -15 8 -15 24 -2
9 9 23 13 30 11 20 -8 14 4 -20 36 -39 37 -48 38 -48 9z"/>
<path d="M13000 1018 c0 -16 3 -19 8 -10 7 10 12 8 25 -6 16 -17 16 -20 2 -32
-12 -10 -15 -9 -15 5 0 10 -3 16 -6 12 -4 -3 -4 -14 0 -23 6 -15 8 -15 24 -2
9 9 23 13 30 11 20 -8 14 4 -20 36 -39 37 -48 38 -48 9z"/>
<path d="M13290 1023 c0 -13 2 -15 8 -5 7 9 13 8 27 -8 18 -19 18 -21 -1 -42
l-19 -23 22 18 c12 11 27 16 32 12 21 -13 10 5 -21 34 -38 35 -48 38 -48 14z"/>
<path d="M2049 1013 c-13 -16 -12 -17 4 -4 16 13 21 21 13 21 -2 0 -10 -8 -17
-17z"/>
<path d="M3675 1019 c-4 -6 -4 -13 -1 -16 3 -4 6 0 6 7 0 8 12 2 30 -15 18
-17 28 -35 25 -44 -4 -11 0 -10 15 4 20 18 27 31 12 21 -5 -3 -22 8 -37 24
-31 32 -40 36 -50 19z"/>
<path d="M3965 1019 c-4 -6 -4 -13 -1 -16 3 -4 6 0 6 7 0 8 12 2 30 -15 18
-17 28 -35 25 -44 -4 -11 0 -10 15 4 20 18 27 31 12 21 -5 -3 -22 8 -37 24
-31 32 -40 36 -50 19z"/>
<path d="M4289 996 c22 -22 31 -39 25 -48 -4 -7 2 -4 14 6 22 19 30 32 14 22
-5 -3 -22 8 -37 24 -16 17 -33 30 -39 30 -5 0 5 -15 23 -34z"/>
<path d="M4579 996 c22 -22 31 -39 25 -48 -4 -7 2 -4 14 6 22 19 30 32 14 22
-5 -3 -22 8 -37 24 -16 17 -33 30 -39 30 -5 0 5 -15 23 -34z"/>
<path d="M4869 996 c22 -22 31 -39 25 -48 -4 -7 2 -4 14 6 22 19 30 32 14 22
-5 -3 -22 8 -37 24 -16 17 -33 30 -39 30 -5 0 5 -15 23 -34z"/>
<path d="M5130 1018 c0 -6 3 -8 7 -5 12 12 62 -44 56 -62 -5 -13 -3 -13 15 3
25 22 28 31 8 23 -7 -3 -26 8 -42 24 -29 31 -44 37 -44 17z"/>
<path d="M5420 1018 c0 -6 3 -8 7 -5 12 12 62 -44 56 -62 -5 -13 -3 -13 15 3
25 22 28 31 8 23 -7 -3 -26 8 -42 24 -29 31 -44 37 -44 17z"/>
<path d="M5710 1013 c0 -13 3 -14 8 -5 12 17 67 -41 56 -60 -4 -7 2 -4 14 6
25 22 28 28 9 20 -7 -2 -26 9 -42 26 -33 34 -45 38 -45 13z"/>
<path d="M6000 1013 c0 -13 3 -14 8 -5 12 17 67 -41 56 -60 -4 -7 2 -4 14 6
25 22 28 28 9 20 -7 -2 -26 9 -42 26 -33 34 -45 38 -45 13z"/>
<path d="M2279 1003 c-13 -16 -12 -17 4 -4 16 13 21 21 13 21 -2 0 -10 -8 -17
-17z"/>
<path d="M2569 1003 c-13 -16 -12 -17 4 -4 9 7 17 15 17 17 0 8 -8 3 -21 -13z"/>
<path d="M2859 1003 c-13 -16 -12 -17 4 -4 9 7 17 15 17 17 0 8 -8 3 -21 -13z"/>
<path d="M3149 1003 c-13 -16 -12 -17 4 -4 9 7 17 15 17 17 0 8 -8 3 -21 -13z"/>
<path d="M730 996 c0 -4 14 -19 30 -33 17 -13 30 -32 30 -40 0 -13 2 -13 16
-2 13 11 13 14 3 17 -8 3 -29 18 -46 35 -18 17 -33 28 -33 23z"/>
<path d="M1020 984 c0 -8 4 -13 8 -10 13 8 64 -49 55 -60 -5 -5 2 0 15 10 25
22 28 28 9 20 -7 -2 -26 9 -42 26 -32 33 -45 38 -45 14z"/>
<path d="M1310 984 c0 -8 4 -13 8 -10 13 8 64 -49 55 -60 -5 -5 2 0 15 10 25
22 28 28 9 20 -7 -2 -26 9 -42 26 -32 33 -45 38 -45 14z"/>
<path d="M1600 984 c0 -8 4 -13 8 -10 13 8 64 -49 55 -60 -5 -5 2 0 15 10 25
22 28 28 9 20 -7 -2 -26 9 -42 26 -32 33 -45 38 -45 14z"/>
<path d="M1894 986 c-4 -9 -4 -20 0 -23 3 -4 6 0 6 7 0 8 12 2 30 -15 16 -15
26 -33 23 -39 -4 -6 3 -2 15 8 23 20 29 32 11 20 -6 -3 -26 9 -45 27 -29 28
-34 30 -40 15z"/>
<path d="M2184 986 c-4 -9 -4 -20 0 -23 3 -4 6 0 6 7 0 8 12 2 30 -15 16 -15
26 -33 23 -39 -4 -6 3 -2 15 8 23 20 29 32 11 20 -6 -3 -26 9 -45 27 -29 28
-34 30 -40 15z"/>
<path d="M2476 985 c-9 -24 -7 -32 4 -15 7 12 13 11 35 -10 14 -13 23 -30 21
-37 -7 -16 6 -17 22 -1 15 15 16 32 1 22 -6 -3 -25 8 -44 26 -27 26 -33 29
-39 15z"/>
<path d="M2766 985 c-9 -24 -7 -32 4 -15 7 12 13 11 35 -10 14 -13 23 -30 21
-37 -7 -16 6 -17 22 -1 15 15 16 32 1 22 -6 -3 -25 8 -44 26 -27 26 -33 29
-39 15z"/>
<path d="M3060 996 c0 -4 14 -19 30 -33 17 -13 30 -32 30 -40 0 -13 2 -13 16
-2 13 11 13 14 3 17 -8 3 -29 18 -46 35 -18 17 -33 28 -33 23z"/>
<path d="M13301 984 c0 -11 3 -14 6 -6 3 7 2 16 -1 19 -3 4 -6 -2 -5 -13z"/>
<path d="M961 932 c-19 -35 45 -96 75 -71 20 17 17 37 -11 64 -29 30 -51 32
-64 7z m59 -16 c22 -24 22 -56 0 -56 -18 0 -59 51 -53 66 8 21 27 17 53 -10z"/>
<path d="M1251 932 c-19 -35 45 -96 75 -71 20 17 17 37 -11 64 -29 30 -51 32
-64 7z m59 -16 c22 -24 22 -56 0 -56 -18 0 -59 51 -53 66 8 21 27 17 53 -10z"/>
<path d="M1544 936 c-10 -25 0 -48 28 -69 22 -17 30 -18 43 -7 22 18 19 43 -8
68 -27 25 -55 29 -63 8z m54 -16 c24 -22 28 -45 11 -55 -14 -9 -59 34 -59 57
0 24 21 23 48 -2z"/>
<path d="M1834 936 c-10 -25 0 -48 28 -69 22 -17 30 -18 43 -7 22 18 19 43 -8
68 -27 25 -55 29 -63 8z m54 -16 c24 -22 28 -45 11 -55 -14 -9 -59 34 -59 57
0 24 21 23 48 -2z"/>
<path d="M2130 935 c-24 -29 26 -94 63 -79 27 10 27 32 1 64 -28 33 -45 37
-64 15z m57 -21 c24 -24 24 -27 9 -42 -15 -15 -18 -14 -42 10 -17 16 -24 32
-21 42 9 23 24 20 54 -10z"/>
<path d="M2420 935 c-24 -29 26 -94 63 -79 27 10 27 32 1 64 -28 33 -45 37
-64 15z m57 -21 c24 -24 24 -27 9 -42 -15 -15 -18 -14 -42 10 -17 16 -24 32
-21 42 9 23 24 20 54 -10z"/>
<path d="M2710 935 c-11 -13 -10 -20 6 -42 30 -40 49 -49 68 -34 22 19 20 38
-9 66 -28 29 -47 31 -65 10z m57 -17 c24 -23 29 -43 13 -53 -23 -14 -79 42
-65 65 10 16 27 12 52 -12z"/>
<path d="M3000 935 c-11 -13 -10 -20 6 -42 30 -40 49 -49 68 -34 22 19 20 38
-9 66 -28 29 -47 31 -65 10z m57 -17 c24 -23 29 -43 13 -53 -23 -14 -79 42
-65 65 10 16 27 12 52 -12z"/>
<path d="M3669 933 c-13 -16 -12 -17 4 -4 16 13 21 21 13 21 -2 0 -10 -8 -17
-17z"/>
<path d="M3959 933 c-13 -16 -12 -17 4 -4 16 13 21 21 13 21 -2 0 -10 -8 -17
-17z"/>
<path d="M4249 933 c-13 -16 -12 -17 4 -4 16 13 21 21 13 21 -2 0 -10 -8 -17
-17z"/>
<path d="M5709 933 c-13 -16 -12 -17 4 -4 16 13 21 21 13 21 -2 0 -10 -8 -17
-17z"/>
<path d="M5999 933 c-13 -16 -12 -17 4 -4 9 7 17 15 17 17 0 8 -8 3 -21 -13z"/>
<path d="M6289 933 c-13 -16 -12 -17 4 -4 9 7 17 15 17 17 0 8 -8 3 -21 -13z"/>
<path d="M6579 933 c-13 -16 -12 -17 4 -4 9 7 17 15 17 17 0 8 -8 3 -21 -13z"/>
<path d="M6869 933 c-13 -16 -12 -17 4 -4 9 7 17 15 17 17 0 8 -8 3 -21 -13z"/>
<path d="M8329 933 c-13 -16 -12 -17 4 -4 9 7 17 15 17 17 0 8 -8 3 -21 -13z"/>
<path d="M8619 933 c-13 -16 -12 -17 4 -4 9 7 17 15 17 17 0 8 -8 3 -21 -13z"/>
<path d="M8909 933 c-13 -16 -12 -17 4 -4 16 13 21 21 13 21 -2 0 -10 -8 -17
-17z"/>
<path d="M9199 933 c-13 -16 -12 -17 4 -4 16 13 21 21 13 21 -2 0 -10 -8 -17
-17z"/>
<path d="M10949 933 c-13 -16 -12 -17 4 -4 9 7 17 15 17 17 0 8 -8 3 -21 -13z"/>
<path d="M11239 933 c-13 -16 -12 -17 4 -4 9 7 17 15 17 17 0 8 -8 3 -21 -13z"/>
<path d="M11529 933 c-13 -16 -12 -17 4 -4 9 7 17 15 17 17 0 8 -8 3 -21 -13z"/>
<path d="M11819 933 c-13 -16 -12 -17 4 -4 9 7 17 15 17 17 0 8 -8 3 -21 -13z"/>
<path d="M3290 936 c0 -4 14 -19 30 -33 17 -13 30 -32 30 -40 0 -13 2 -13 16
-2 13 11 13 14 3 17 -8 3 -29 18 -46 35 -18 17 -33 28 -33 23z"/>
<path d="M3580 923 c0 -13 3 -14 8 -5 12 17 67 -41 56 -60 -4 -7 2 -4 14 6 25
22 28 28 9 20 -7 -2 -26 9 -42 26 -33 34 -45 38 -45 13z"/>
<path d="M3870 923 c0 -13 3 -14 8 -5 12 17 67 -41 56 -60 -4 -7 2 -4 14 6 25
22 28 28 9 20 -7 -2 -26 9 -42 26 -33 34 -45 38 -45 13z"/>
<path d="M4165 929 c-4 -6 -4 -13 -1 -16 3 -4 6 0 6 7 0 8 12 2 30 -15 18 -17
28 -35 25 -44 -4 -11 0 -10 15 4 20 18 27 31 12 21 -5 -3 -22 8 -37 24 -31 32
-40 36 -50 19z"/>
<path d="M4455 929 c-4 -6 -4 -13 -1 -16 3 -4 6 0 6 7 0 8 12 2 30 -15 18 -17
28 -35 25 -44 -4 -11 0 -10 15 4 20 18 27 31 12 21 -5 -3 -22 8 -37 24 -31 32
-40 36 -50 19z"/>
<path d="M4779 906 c22 -22 31 -39 25 -48 -4 -7 2 -4 14 6 22 19 30 32 14 22
-5 -3 -22 8 -37 24 -16 17 -33 30 -39 30 -5 0 5 -15 23 -34z"/>
<path d="M5069 906 c22 -22 31 -39 25 -48 -4 -7 2 -4 14 6 22 19 30 32 14 22
-5 -3 -22 8 -37 24 -16 17 -33 30 -39 30 -5 0 5 -15 23 -34z"/>
<path d="M5330 928 c0 -6 3 -8 7 -5 12 12 62 -44 56 -62 -5 -13 -3 -13 15 3
25 22 28 31 8 23 -7 -3 -26 8 -42 24 -29 31 -44 37 -44 17z"/>
<path d="M5620 928 c0 -6 3 -8 7 -5 12 12 62 -44 56 -62 -5 -13 -3 -13 15 3
25 22 28 31 8 23 -7 -3 -26 8 -42 24 -29 31 -44 37 -44 17z"/>
<path d="M5910 923 c0 -13 3 -14 8 -5 12 17 67 -41 56 -60 -4 -7 2 -4 14 6 25
22 28 28 9 20 -7 -2 -26 9 -42 26 -33 34 -45 38 -45 13z"/>
<path d="M6200 923 c0 -13 3 -14 8 -5 12 17 67 -41 56 -60 -4 -7 2 -4 14 6 25
22 28 28 9 20 -7 -2 -26 9 -42 26 -33 34 -45 38 -45 13z"/>
<path d="M6490 923 c0 -13 3 -14 8 -5 12 17 67 -41 56 -60 -4 -7 2 -4 14 6 25
22 28 28 9 20 -7 -2 -26 9 -42 26 -33 34 -45 38 -45 13z"/>
<path d="M6785 929 c-4 -6 -4 -13 -1 -16 3 -4 6 0 6 7 0 8 12 2 30 -15 18 -17
28 -35 25 -44 -4 -11 0 -10 15 4 20 18 27 31 12 21 -5 -3 -22 8 -37 24 -31 32
-40 36 -50 19z"/>
<path d="M7075 929 c-4 -6 -4 -13 -1 -16 3 -4 6 0 6 7 0 8 12 2 30 -15 18 -17
28 -35 25 -44 -4 -11 0 -10 15 4 20 18 27 31 12 21 -5 -3 -22 8 -37 24 -31 32
-40 36 -50 19z"/>
<path d="M7399 906 c22 -22 31 -39 25 -48 -4 -7 2 -4 14 6 22 19 30 32 14 22
-5 -3 -22 8 -37 24 -16 17 -33 30 -39 30 -5 0 5 -15 23 -34z"/>
<path d="M7689 906 c22 -22 31 -39 25 -48 -4 -7 2 -4 14 6 22 19 30 32 14 22
-5 -3 -22 8 -37 24 -16 17 -33 30 -39 30 -5 0 5 -15 23 -34z"/>
<path d="M7950 928 c0 -6 3 -8 7 -5 12 12 62 -44 56 -62 -5 -13 -3 -13 15 3
25 22 28 31 8 23 -7 -3 -26 8 -42 24 -29 31 -44 37 -44 17z"/>
<path d="M8240 928 c0 -6 3 -8 7 -5 12 12 62 -44 56 -62 -5 -13 -3 -13 15 3
25 22 28 31 8 23 -7 -3 -26 8 -42 24 -29 31 -44 37 -44 17z"/>
<path d="M8530 923 c0 -13 3 -14 8 -5 12 17 67 -41 56 -60 -4 -7 2 -4 14 6 25
22 28 28 9 20 -7 -2 -26 9 -42 26 -33 34 -45 38 -45 13z"/>
<path d="M8820 923 c0 -13 3 -14 8 -5 12 17 67 -41 56 -60 -4 -7 2 -4 14 6 25
22 28 28 9 20 -7 -2 -26 9 -42 26 -33 34 -45 38 -45 13z"/>
<path d="M9110 923 c0 -13 3 -14 8 -5 12 17 67 -41 56 -60 -4 -7 2 -4 14 6 25
22 28 28 9 20 -7 -2 -26 9 -42 26 -33 34 -45 38 -45 13z"/>
<path d="M9405 929 c-4 -6 -4 -13 -1 -16 3 -4 6 0 6 7 0 8 12 2 30 -15 18 -17
28 -35 25 -44 -4 -11 0 -10 15 4 20 18 27 31 12 21 -5 -3 -22 8 -37 24 -31 32
-40 36 -50 19z"/>
<path d="M9695 929 c-4 -6 -4 -13 -1 -16 3 -4 6 0 6 7 0 8 12 2 30 -15 18 -17
28 -35 25 -44 -4 -11 0 -10 15 4 20 18 27 31 12 21 -5 -3 -22 8 -37 24 -31 32
-40 36 -50 19z"/>
<path d="M10019 906 c22 -22 31 -39 25 -48 -4 -7 2 -4 14 6 22 19 30 32 14 22
-5 -3 -22 8 -37 24 -16 17 -33 30 -39 30 -5 0 5 -15 23 -34z"/>
<path d="M10309 906 c22 -22 31 -39 25 -48 -4 -7 2 -4 14 6 22 19 30 32 14 22
-5 -3 -22 8 -37 24 -16 17 -33 30 -39 30 -5 0 5 -15 23 -34z"/>
<path d="M10570 928 c0 -6 3 -8 7 -5 12 12 62 -44 56 -62 -5 -13 -3 -13 15 3
25 22 28 31 8 23 -7 -3 -26 8 -42 24 -29 31 -44 37 -44 17z"/>
<path d="M10860 928 c0 -6 3 -8 7 -5 12 12 62 -44 56 -62 -5 -13 -3 -13 15 3
25 22 28 31 8 23 -7 -3 -26 8 -42 24 -29 31 -44 37 -44 17z"/>
<path d="M11150 923 c0 -13 3 -14 8 -5 12 17 67 -41 56 -60 -4 -7 2 -4 14 6
25 22 28 28 9 20 -7 -2 -26 9 -42 26 -33 34 -45 38 -45 13z"/>
<path d="M11440 923 c0 -13 3 -14 8 -5 12 17 67 -41 56 -60 -4 -7 2 -4 14 6
25 22 28 28 9 20 -7 -2 -26 9 -42 26 -33 34 -45 38 -45 13z"/>
<path d="M11735 929 c-4 -6 -4 -13 -1 -16 3 -4 6 0 6 7 0 8 12 2 30 -15 18
-17 28 -35 25 -44 -4 -11 0 -10 15 4 20 18 27 31 12 21 -5 -3 -22 8 -37 24
-31 32 -40 36 -50 19z"/>
<path d="M12025 929 c-4 -6 -4 -13 -1 -16 3 -4 6 0 6 7 0 8 12 2 30 -15 18
-17 28 -35 25 -44 -4 -11 0 -10 15 4 20 18 27 31 12 21 -5 -3 -22 8 -37 24
-31 32 -40 36 -50 19z"/>
<path d="M12315 929 c-4 -6 -4 -13 -1 -16 3 -4 6 0 6 7 0 8 12 2 30 -15 18
-17 28 -35 25 -44 -4 -11 0 -10 15 4 20 18 27 31 12 21 -5 -3 -22 8 -37 24
-31 32 -40 36 -50 19z"/>
<path d="M12639 906 c22 -22 31 -39 25 -48 -4 -7 2 -4 14 6 22 19 30 32 14 22
-5 -3 -22 8 -37 24 -16 17 -33 30 -39 30 -5 0 5 -15 23 -34z"/>
<path d="M12929 906 c22 -22 31 -39 25 -48 -4 -7 2 -4 14 6 22 19 30 32 14 22
-5 -3 -22 8 -37 24 -16 17 -33 30 -39 30 -5 0 5 -15 23 -34z"/>
<path d="M13190 928 c0 -6 3 -8 7 -5 12 12 62 -44 56 -62 -5 -13 -3 -13 15 3
25 22 28 31 8 23 -7 -3 -26 8 -42 24 -29 31 -44 37 -44 17z"/>
<path d="M2649 873 c-21 -24 -21 -26 -2 -9 l23 19 20 -44 c21 -45 17 -18 -4
33 l-12 28 -25 -27z"/>
<path d="M1780 868 c0 -16 3 -19 8 -10 7 9 13 8 26 -7 10 -11 15 -25 11 -30
-10 -16 -23 -13 -28 7 -4 15 -5 15 -6 0 -1 -23 17 -32 34 -18 8 6 19 9 24 6 5
-4 9 2 8 13 0 11 -4 18 -8 16 -3 -3 -17 7 -29 20 -29 31 -40 32 -40 3z"/>
<path d="M2067 873 c-15 -15 -15 -18 -1 -34 13 -15 20 -16 35 -6 14 9 21 9 31
-1 9 -9 7 -17 -8 -34 l-19 -23 23 19 c27 23 28 42 3 55 -14 8 -22 7 -31 -4
-10 -12 -16 -13 -27 -4 -11 10 -11 15 3 30 21 24 14 25 -9 2z"/>
<path d="M2360 875 c-16 -19 -4 -52 26 -71 31 -21 54 -12 54 21 0 33 -25 43
-50 20 -18 -16 -20 -16 -26 -1 -3 9 -1 23 6 31 7 8 10 15 7 15 -2 0 -10 -7
-17 -15z m68 -53 c4 -25 -19 -30 -37 -9 -8 10 -7 17 1 25 17 17 32 10 36 -16z"/>
<path d="M2942 878 c-7 -7 -12 -18 -12 -25 0 -18 43 -34 51 -20 9 14 42 0 36
-16 -2 -6 -14 -12 -26 -11 -11 0 -21 -3 -21 -8 0 -14 37 -9 50 7 7 8 9 22 6
31 -5 13 -15 15 -47 10 -35 -6 -40 -4 -37 11 2 10 11 17 21 17 9 -1 14 2 11 7
-7 12 -18 11 -32 -3z"/>
<path d="M3230 875 c-11 -13 -10 -20 6 -42 30 -40 49 -49 68 -34 22 19 20 38
-9 66 -28 29 -47 31 -65 10z m57 -17 c24 -23 29 -43 13 -53 -23 -14 -79 42
-65 65 10 16 27 12 52 -12z"/>
<path d="M3520 875 c-6 -8 -9 -23 -5 -35 6 -18 3 -20 -18 -15 -55 14 -51 -56
4 -86 28 -14 52 6 44 38 -5 21 -3 23 19 17 13 -3 27 -1 30 4 3 6 -2 8 -12 5
-22 -5 -67 40 -59 61 9 23 21 20 57 -16 23 -24 29 -27 21 -11 -11 21 -48 53
-62 53 -4 0 -12 -7 -19 -15z m0 -79 c22 -24 22 -56 0 -56 -18 0 -59 51 -53 66
8 21 27 17 53 -10z"/>
<path d="M3858 863 c36 -35 40 -51 15 -60 -11 -4 -26 4 -45 25 -15 18 -28 28
-28 22 0 -16 47 -60 63 -60 8 0 20 7 27 15 15 18 -7 57 -42 76 -16 9 -13 3 10
-18z"/>
<path d="M4148 863 c36 -35 40 -51 15 -60 -11 -4 -26 4 -45 25 -15 18 -28 28
-28 22 0 -16 47 -60 63 -60 8 0 20 7 27 15 15 18 -7 57 -42 76 -16 9 -13 3 10
-18z"/>
<path d="M4396 874 c-18 -17 -11 -37 24 -69 16 -15 25 -17 38 -9 26 17 26 41
-2 69 -29 29 -39 31 -60 9z m63 -28 c14 -17 8 -46 -9 -46 -6 0 -22 11 -36 25
-21 21 -23 29 -14 40 13 16 37 8 59 -19z"/>
<path d="M4686 874 c-18 -17 -11 -37 24 -69 16 -15 25 -17 38 -9 26 17 26 41
-2 69 -29 29 -39 31 -60 9z m63 -28 c14 -17 8 -46 -9 -46 -6 0 -22 11 -36 25
-21 21 -23 29 -14 40 13 16 37 8 59 -19z"/>
<path d="M4982 878 c-19 -19 -14 -42 12 -67 31 -29 60 -24 64 10 2 19 -5 33
-24 48 -31 24 -36 25 -52 9z m45 -20 c26 -24 31 -58 8 -58 -32 0 -67 54 -48
73 10 11 15 9 40 -15z"/>
<path d="M5272 878 c-19 -19 -14 -42 12 -67 31 -29 60 -24 64 10 2 19 -5 33
-24 48 -31 24 -36 25 -52 9z m45 -20 c26 -24 31 -58 8 -58 -32 0 -67 54 -48
73 10 11 15 9 40 -15z"/>
<path d="M5560 875 c-27 -33 42 -107 72 -77 8 8 6 10 -8 6 -24 -6 -69 38 -61
60 9 23 21 20 57 -16 23 -24 29 -27 21 -11 -11 21 -48 53 -62 53 -4 0 -12 -7
-19 -15z"/>
<path d="M5850 875 c-27 -33 42 -107 72 -77 8 8 6 10 -8 6 -24 -6 -69 38 -61
60 9 23 21 20 57 -16 23 -24 29 -27 21 -11 -11 21 -48 53 -62 53 -4 0 -12 -7
-19 -15z"/>
<path d="M6188 863 c36 -35 40 -51 15 -60 -11 -4 -26 4 -45 25 -15 18 -28 28
-28 22 0 -16 47 -60 63 -60 8 0 20 7 27 15 15 18 -7 57 -42 76 -16 9 -13 3 10
-18z"/>
<path d="M6478 863 c36 -35 40 -51 15 -60 -11 -4 -26 4 -46 27 -23 26 -28 28
-22 11 6 -19 4 -21 -18 -16 -55 14 -51 -56 4 -86 28 -14 52 6 44 38 -5 21 -3
23 18 18 36 -9 54 18 33 50 -9 13 -26 30 -38 36 -16 9 -13 3 10 -18z m-48 -67
c22 -24 22 -56 0 -56 -18 0 -59 51 -53 66 8 21 27 17 53 -10z"/>
<path d="M6768 863 c36 -35 40 -51 15 -60 -11 -4 -26 4 -45 25 -15 18 -28 28
-28 22 0 -16 47 -60 63 -60 8 0 20 7 27 15 15 18 -7 57 -42 76 -16 9 -13 3 10
-18z"/>
<path d="M7016 874 c-18 -17 -11 -37 24 -69 16 -15 25 -17 38 -9 26 17 26 41
-2 69 -29 29 -39 31 -60 9z m63 -28 c14 -17 8 -46 -9 -46 -6 0 -22 11 -36 25
-21 21 -23 29 -14 40 13 16 37 8 59 -19z"/>
<path d="M7306 874 c-18 -17 -11 -37 24 -69 16 -15 25 -17 38 -9 26 17 26 41
-2 69 -29 29 -39 31 -60 9z m63 -28 c14 -17 8 -46 -9 -46 -6 0 -22 11 -36 25
-21 21 -23 29 -14 40 13 16 37 8 59 -19z"/>
<path d="M7602 878 c-19 -19 -14 -42 12 -67 31 -29 60 -24 64 10 2 19 -5 33
-24 48 -31 24 -36 25 -52 9z m45 -20 c26 -24 31 -58 8 -58 -32 0 -67 54 -48
73 10 11 15 9 40 -15z"/>
<path d="M7892 878 c-19 -19 -14 -42 12 -67 31 -29 60 -24 64 10 2 19 -5 33
-24 48 -31 24 -36 25 -52 9z m45 -20 c26 -24 31 -58 8 -58 -32 0 -67 54 -48
73 10 11 15 9 40 -15z"/>
<path d="M8180 875 c-27 -33 42 -107 72 -77 8 8 6 10 -8 6 -24 -6 -69 38 -61
60 9 23 21 20 57 -16 23 -24 29 -27 21 -11 -11 21 -48 53 -62 53 -4 0 -12 -7
-19 -15z"/>
<path d="M8470 875 c-27 -33 42 -107 72 -77 8 8 6 10 -8 6 -24 -6 -69 38 -61
60 9 23 21 20 57 -16 23 -24 29 -27 21 -11 -11 21 -48 53 -62 53 -4 0 -12 -7
-19 -15z"/>
<path d="M8808 863 c36 -35 40 -51 15 -60 -11 -4 -26 4 -45 25 -15 18 -28 28
-28 22 0 -16 47 -60 63 -60 8 0 20 7 27 15 15 18 -7 57 -42 76 -16 9 -13 3 10
-18z"/>
<path d="M9098 863 c36 -35 40 -51 15 -60 -11 -4 -26 4 -45 25 -15 18 -28 28
-28 22 0 -16 47 -60 63 -60 8 0 20 7 27 15 15 18 -7 57 -42 76 -16 9 -13 3 10
-18z"/>
<path d="M9388 863 c36 -35 40 -51 15 -60 -11 -4 -26 4 -45 25 -30 35 -35 34
-16 -1 16 -30 20 -75 7 -83 -14 -8 -59 35 -59 58 0 19 25 25 35 8 3 -5 11 -10
17 -10 6 0 6 6 -2 15 -7 9 -23 15 -34 13 -32 -5 -28 -55 6 -81 23 -17 29 -18
43 -7 10 8 15 23 12 37 -3 19 -1 22 18 17 13 -3 27 1 34 10 11 13 11 20 -3 41
-9 13 -26 30 -38 36 -16 9 -13 3 10 -18z"/>
<path d="M9636 874 c-18 -17 -11 -37 24 -69 16 -15 25 -17 38 -9 26 17 26 41
-2 69 -29 29 -39 31 -60 9z m63 -28 c14 -17 8 -46 -9 -46 -6 0 -22 11 -36 25
-21 21 -23 29 -14 40 13 16 37 8 59 -19z"/>
<path d="M9926 874 c-18 -17 -11 -37 24 -69 16 -15 25 -17 38 -9 26 17 26 41
-2 69 -29 29 -39 31 -60 9z m63 -28 c14 -17 8 -46 -9 -46 -6 0 -22 11 -36 25
-21 21 -23 29 -14 40 13 16 37 8 59 -19z"/>
<path d="M10222 878 c-19 -19 -14 -42 12 -67 31 -29 60 -24 64 10 2 19 -5 33
-24 48 -31 24 -36 25 -52 9z m45 -20 c26 -24 31 -58 8 -58 -32 0 -67 54 -48
73 10 11 15 9 40 -15z"/>
<path d="M10512 878 c-19 -19 -14 -42 12 -67 31 -29 60 -24 64 10 2 19 -5 33
-24 48 -31 24 -36 25 -52 9z m45 -20 c26 -24 31 -58 8 -58 -32 0 -67 54 -48
73 10 11 15 9 40 -15z"/>
<path d="M10800 875 c-27 -33 42 -107 72 -77 8 8 6 10 -8 6 -24 -6 -69 38 -61
60 9 23 21 20 57 -16 23 -24 29 -27 21 -11 -11 21 -48 53 -62 53 -4 0 -12 -7
-19 -15z"/>
<path d="M11089 874 c-11 -14 -11 -21 3 -45 16 -28 16 -29 -2 -29 -10 0 -23
-8 -29 -17 -9 -17 -10 -17 -16 0 -4 9 -4 25 0 35 5 13 3 14 -6 5 -17 -17 -3
-60 26 -79 21 -14 28 -14 41 -3 9 7 14 22 11 36 -4 19 -1 22 18 17 13 -3 26
-1 29 4 3 6 -2 8 -12 5 -22 -5 -67 40 -59 61 9 23 21 20 57 -16 23 -24 29 -27
21 -11 -11 21 -48 53 -62 53 -4 0 -13 -7 -20 -16z m18 -100 c3 -8 1 -20 -5
-26 -15 -15 -43 8 -35 28 7 19 32 18 40 -2z"/>
<path d="M11428 863 c36 -35 40 -51 15 -60 -11 -4 -26 4 -45 25 -15 18 -28 28
-28 22 0 -16 47 -60 63 -60 8 0 20 7 27 15 15 18 -7 57 -42 76 -16 9 -13 3 10
-18z"/>
<path d="M11718 863 c36 -35 40 -51 15 -60 -11 -4 -26 4 -45 25 -15 18 -28 28
-28 22 0 -16 47 -60 63 -60 8 0 20 7 27 15 15 18 -7 57 -42 76 -16 9 -13 3 10
-18z"/>
<path d="M11966 874 c-18 -17 -11 -37 24 -69 16 -15 25 -17 38 -9 26 17 26 41
-2 69 -29 29 -39 31 -60 9z m63 -28 c14 -17 8 -46 -9 -46 -6 0 -22 11 -36 25
-21 21 -23 29 -14 40 13 16 37 8 59 -19z"/>
<path d="M12256 874 c-18 -17 -11 -37 24 -69 16 -15 25 -17 38 -9 26 17 26 41
-2 69 -29 29 -39 31 -60 9z m63 -28 c14 -17 8 -46 -9 -46 -6 0 -22 11 -36 25
-21 21 -23 29 -14 40 13 16 37 8 59 -19z"/>
<path d="M12546 874 c-18 -17 -11 -37 24 -69 16 -15 25 -17 38 -9 26 17 26 41
-2 69 -29 29 -39 31 -60 9z m63 -28 c14 -17 8 -46 -9 -46 -6 0 -22 11 -36 25
-21 21 -23 29 -14 40 13 16 37 8 59 -19z"/>
<path d="M12842 878 c-19 -19 -14 -42 12 -67 31 -29 60 -24 64 10 2 19 -5 33
-24 48 -31 24 -36 25 -52 9z m45 -20 c26 -24 31 -58 8 -58 -32 0 -67 54 -48
73 10 11 15 9 40 -15z"/>
<path d="M13132 878 c-19 -19 -14 -42 12 -67 31 -29 60 -24 64 10 2 19 -5 33
-24 48 -31 24 -36 25 -52 9z m45 -20 c26 -24 31 -58 8 -58 -32 0 -67 54 -48
73 10 11 15 9 40 -15z"/>
<path d="M900 876 c0 -4 14 -19 30 -33 17 -13 30 -32 30 -40 0 -13 2 -13 16
-2 13 11 13 14 3 17 -8 3 -29 18 -46 35 -18 17 -33 28 -33 23z"/>
<path d="M1185 870 c-4 -6 -4 -14 -1 -17 3 -4 6 -1 6 5 0 16 27 15 36 0 4 -7
10 -27 13 -46 l6 -34 25 29 c13 15 16 20 5 10 -19 -17 -20 -16 -30 20 -11 39
-45 57 -60 33z"/>
<path d="M1475 869 c-4 -6 -4 -13 -1 -16 3 -4 6 -1 6 5 0 15 27 16 35 2 4 -6
1 -18 -7 -27 -12 -15 -11 -15 9 -2 30 18 53 -1 33 -28 -13 -17 -13 -17 3 -2
20 17 13 49 -9 49 -8 0 -17 7 -20 15 -7 17 -40 20 -49 4z"/>
<path d="M5499 813 c-17 -20 -18 -23 -3 -10 11 9 23 17 26 17 4 0 14 -20 24
-45 9 -25 19 -44 21 -41 4 4 -26 87 -37 99 -3 4 -17 -5 -31 -20z"/>
<path d="M8409 813 c-17 -20 -18 -23 -3 -10 11 9 23 17 26 17 4 0 14 -20 24
-45 9 -25 19 -44 21 -41 4 4 -26 87 -37 99 -3 4 -17 -5 -31 -20z"/>
<path d="M11327 822 c-23 -26 -21 -39 2 -18 19 18 20 17 35 -19 9 -21 16 -42
16 -48 0 -6 3 -8 6 -4 7 7 -27 107 -36 107 -4 0 -14 -8 -23 -18z"/>
<path d="M3213 804 c27 -30 33 -52 20 -70 -5 -5 -1 -4 6 3 20 17 4 61 -29 81
-25 16 -25 15 3 -14z"/>
<path d="M4046 814 c-20 -20 -21 -30 -1 -14 24 20 45 4 45 -35 0 -41 9 -44 36
-12 l19 22 -22 -19 c-23 -19 -23 -19 -23 8 0 30 -16 66 -30 66 -5 0 -16 -7
-24 -16z"/>
<path d="M4336 814 c-23 -22 -20 -30 4 -9 17 16 20 16 26 2 3 -9 3 -20 0 -25
-3 -5 6 -7 19 -4 28 5 34 -14 13 -38 -11 -12 -10 -12 5 -1 23 18 22 42 -2 48
-11 3 -21 13 -24 24 -6 23 -20 24 -41 3z"/>
<path d="M4641 804 c1 -18 3 -22 6 -11 5 18 6 18 24 1 15 -13 16 -20 7 -31 -9
-11 -13 -11 -19 -1 -7 10 -9 9 -9 -4 0 -22 13 -23 30 -3 9 11 16 12 26 5 10
-9 11 -7 7 9 -3 12 -10 21 -16 21 -6 0 -21 10 -34 22 l-23 21 1 -29z"/>
<path d="M4916 811 c-15 -17 -15 -19 0 -31 12 -11 20 -11 35 -2 11 7 24 10 29
7 13 -8 13 -42 0 -48 -6 -3 -5 -4 2 -3 7 1 14 15 16 29 4 32 -20 46 -44 27
-21 -19 -43 3 -24 25 18 21 7 19 -14 -4z"/>
<path d="M5217 823 c-13 -12 -7 -50 11 -65 35 -30 46 -30 18 0 -19 21 -27 38
-23 51 5 22 4 25 -6 14z"/>
<path d="M5792 818 c-18 -18 -15 -36 7 -43 10 -3 21 -15 24 -25 6 -24 30 -26
47 -5 15 18 6 45 -14 45 -8 0 -18 9 -21 20 -7 23 -25 26 -43 8z m34 -9 c10
-17 -13 -36 -27 -22 -12 12 -4 33 11 33 5 0 12 -5 16 -11z m42 -46 c-5 -26
-38 -29 -38 -4 0 15 6 21 21 21 14 0 19 -5 17 -17z"/>
<path d="M6086 821 c-4 -5 3 -7 14 -4 23 6 39 -22 22 -39 -9 -9 -17 -6 -33 8
-22 19 -22 19 -10 -3 14 -27 33 -29 51 -8 11 13 14 13 27 -2 9 -11 12 -12 7
-3 -21 44 -65 73 -78 51z"/>
<path d="M6956 814 c-20 -20 -21 -30 -1 -14 24 20 45 4 45 -35 0 -41 9 -44 36
-12 l19 22 -22 -19 c-23 -19 -23 -19 -23 8 0 30 -16 66 -30 66 -5 0 -16 -7
-24 -16z"/>
<path d="M7249 813 c-13 -16 -12 -17 3 -4 15 11 19 11 24 -2 3 -9 3 -21 -1
-27 -4 -7 2 -9 19 -4 22 5 26 3 26 -14 0 -11 -5 -23 -10 -25 -6 -3 -5 -4 2 -3
7 1 14 15 16 29 3 21 -1 27 -16 27 -11 0 -22 9 -25 20 -6 25 -20 26 -38 3z"/>
<path d="M7551 804 c1 -18 3 -22 6 -11 5 18 6 18 24 1 15 -13 16 -20 7 -31 -9
-11 -13 -11 -19 -1 -7 10 -9 9 -9 -4 0 -22 13 -23 30 -3 9 11 16 12 26 5 10
-9 11 -7 7 9 -3 12 -10 21 -16 21 -6 0 -21 10 -34 22 l-23 21 1 -29z"/>
<path d="M7830 814 c-11 -12 -10 -18 3 -31 13 -14 19 -14 32 -3 13 11 18 11
31 -2 14 -14 14 -17 -1 -32 -9 -9 -12 -16 -6 -16 21 0 31 36 16 56 -12 17 -17
17 -36 6 -27 -17 -49 -1 -29 23 7 8 10 15 7 15 -2 0 -10 -7 -17 -16z"/>
<path d="M8127 823 c-13 -12 -7 -50 11 -65 35 -30 46 -30 18 0 -19 21 -27 38
-23 51 5 22 4 25 -6 14z"/>
<path d="M8706 821 c-4 -5 3 -7 14 -4 15 4 20 0 20 -16 0 -21 -17 -28 -36 -13
-5 4 -2 0 6 -8 9 -8 19 -23 23 -32 7 -21 28 -23 45 -6 19 19 15 48 -7 48 -10
0 -21 9 -24 20 -5 20 -31 27 -41 11z m72 -58 c-2 -10 -10 -18 -18 -18 -8 0
-16 8 -18 18 -2 12 3 17 18 17 15 0 20 -5 18 -17z"/>
<path d="M8996 821 c-4 -5 3 -7 14 -4 23 6 39 -22 22 -39 -9 -9 -17 -6 -33 8
-22 19 -22 19 -10 -3 14 -27 33 -29 51 -8 11 13 14 13 27 -2 9 -11 12 -12 7
-3 -21 44 -65 73 -78 51z"/>
<path d="M9871 817 c-8 -11 -6 -13 12 -13 17 1 23 -5 25 -29 5 -54 10 -60 32
-40 11 10 20 23 20 28 0 6 -9 2 -20 -8 -20 -18 -20 -17 -20 16 0 49 -26 73
-49 46z"/>
<path d="M10159 813 c-13 -16 -12 -17 3 -4 15 11 19 11 24 -2 3 -9 3 -21 -1
-27 -4 -7 2 -9 19 -4 22 5 26 3 26 -14 0 -11 -5 -23 -10 -25 -6 -3 -5 -4 2 -3
7 1 14 15 16 29 3 21 -1 27 -16 27 -11 0 -22 9 -25 20 -6 25 -20 26 -38 3z"/>
<path d="M10460 808 c0 -16 3 -19 8 -10 7 10 12 8 25 -6 16 -17 16 -20 2 -32
-12 -10 -15 -9 -15 5 0 10 -3 16 -6 12 -4 -3 -4 -14 0 -23 6 -15 8 -15 24 0
14 12 21 13 30 4 9 -9 12 -9 12 -1 0 13 -60 73 -72 73 -5 0 -8 -10 -8 -22z"/>
<path d="M10740 814 c-11 -12 -10 -18 3 -31 13 -14 19 -14 32 -3 13 11 18 11
31 -2 14 -14 14 -17 -1 -32 -9 -9 -12 -16 -6 -16 21 0 31 36 16 56 -12 17 -17
17 -36 6 -27 -17 -49 -1 -29 23 7 8 10 15 7 15 -2 0 -10 -7 -17 -16z"/>
<path d="M11616 821 c-4 -5 3 -7 14 -4 15 4 20 0 20 -16 0 -21 -17 -28 -36
-13 -5 4 -2 0 6 -8 9 -8 19 -23 23 -32 7 -21 28 -23 45 -6 19 19 15 48 -7 48
-10 0 -21 9 -24 20 -5 20 -31 27 -41 11z m72 -58 c-2 -10 -10 -18 -18 -18 -8
0 -16 8 -18 18 -2 12 3 17 18 17 15 0 20 -5 18 -17z"/>
<path d="M11938 814 c19 -13 21 -19 11 -30 -16 -20 -32 -13 -40 17 -7 23 -7
23 -8 -4 -1 -35 23 -46 49 -22 18 16 20 16 26 1 3 -9 0 -24 -7 -34 -13 -15
-12 -16 4 -3 9 7 17 20 17 28 0 17 -45 63 -62 63 -7 0 -2 -7 10 -16z"/>
<path d="M12194 816 c-10 -25 0 -48 28 -69 22 -17 30 -18 43 -7 22 18 19 43
-8 68 -27 25 -55 29 -63 8z m54 -16 c24 -22 28 -45 11 -55 -14 -9 -59 34 -59
57 0 24 21 23 48 -2z"/>
<path d="M12781 817 c-8 -11 -6 -13 12 -13 17 1 23 -5 25 -29 5 -54 10 -60 32
-40 11 10 20 23 20 28 0 6 -9 2 -20 -8 -20 -18 -20 -17 -20 16 0 49 -26 73
-49 46z"/>
<path d="M13072 818 c-7 -7 -12 -17 -12 -22 0 -6 5 -3 11 7 8 14 14 15 24 7 8
-6 11 -18 9 -25 -4 -9 0 -12 14 -8 26 6 36 -12 16 -31 -8 -9 -11 -16 -5 -16
14 0 30 32 24 48 -3 6 -10 12 -16 12 -7 0 -18 9 -25 20 -14 23 -23 25 -40 8z"/>
<path d="M3164 805 c-9 -23 3 -45 25 -45 11 0 22 4 25 8 3 5 -5 8 -17 8 -17
-1 -22 5 -21 22 1 26 -4 28 -12 7z"/>
<path d="M3757 814 c-11 -11 -8 -26 4 -19 15 10 61 -36 54 -54 -4 -11 0 -10
15 4 22 20 27 30 9 19 -6 -3 -25 8 -43 25 -18 17 -35 28 -39 25z"/>
<path d="M6666 805 c-9 -24 -7 -32 4 -15 7 12 13 11 35 -10 15 -14 23 -30 20
-39 -4 -11 0 -10 15 4 22 20 27 30 9 19 -6 -3 -25 8 -44 26 -27 26 -33 29 -39
15z"/>
<path d="M9576 805 c-9 -24 -7 -32 4 -15 7 12 13 11 35 -10 15 -14 23 -30 20
-39 -4 -11 0 -10 15 4 22 20 27 30 9 19 -6 -3 -25 8 -44 26 -27 26 -33 29 -39
15z"/>
<path d="M12490 814 c0 -3 14 -17 31 -31 16 -14 28 -32 25 -39 -7 -17 6 -18
22 -2 14 14 16 32 4 24 -5 -3 -22 8 -37 24 -27 28 -45 38 -45 24z"/>
<path d="M5246 792 c-3 -5 5 -8 17 -8 17 1 22 -5 21 -22 0 -16 2 -20 10 -12 7
7 7 16 0 28 -13 19 -39 28 -48 14z"/>
<path d="M8156 792 c-3 -5 5 -8 17 -8 17 1 22 -5 21 -22 0 -16 2 -20 10 -12 7
7 7 16 0 28 -13 19 -39 28 -48 14z"/>
<path d="M6897 755 c-9 -9 -17 -22 -17 -28 0 -7 5 -4 11 6 5 9 16 17 24 17 14
0 21 -18 27 -68 l3 -24 25 28 c21 25 22 26 3 10 -23 -19 -23 -19 -23 6 0 14
-8 36 -18 48 -17 21 -19 21 -35 5z"/>
<path d="M7187 755 c-9 -9 -17 -22 -17 -28 0 -7 5 -4 11 6 5 9 16 17 24 17 14
0 21 -18 27 -68 l3 -24 25 28 c21 25 22 26 3 10 -23 -19 -23 -19 -23 6 0 14
-8 36 -18 48 -17 21 -19 21 -35 5z"/>
<path d="M9517 755 c-9 -9 -17 -19 -17 -23 0 -3 5 -1 12 6 19 19 41 15 35 -7
-3 -14 0 -17 13 -14 27 7 34 -16 13 -40 l-18 -22 23 19 c26 23 28 44 5 53 -10
4 -25 16 -34 26 -14 18 -16 18 -32 2z"/>
<path d="M9807 755 c-9 -9 -17 -19 -17 -23 0 -3 5 -1 12 6 19 19 41 15 35 -7
-3 -14 0 -17 13 -14 27 7 34 -16 13 -40 l-18 -22 23 19 c26 23 28 44 5 53 -10
4 -25 16 -34 26 -14 18 -16 18 -32 2z"/>
<path d="M12140 748 c0 -16 3 -19 8 -10 7 9 13 8 26 -7 10 -11 15 -25 11 -30
-10 -16 -23 -13 -28 7 -4 15 -5 15 -6 0 -1 -23 17 -32 34 -18 8 6 19 9 24 6 5
-4 9 2 8 13 0 11 -4 18 -8 16 -3 -3 -17 7 -29 20 -29 31 -40 32 -40 3z"/>
<path d="M12430 748 c0 -16 3 -19 8 -10 7 9 13 8 26 -7 10 -11 15 -25 11 -30
-10 -16 -23 -13 -28 7 -4 15 -5 15 -6 0 -1 -23 17 -32 34 -18 8 6 19 9 24 6 5
-4 9 2 8 13 0 11 -4 18 -8 16 -3 -3 -17 7 -29 20 -29 31 -40 32 -40 3z"/>
<path d="M12727 763 c-10 -9 -9 -25 2 -19 4 3 17 -4 27 -15 18 -20 18 -21 -1
-35 -10 -8 -14 -14 -8 -14 7 0 15 5 18 11 4 6 13 8 20 5 9 -3 13 2 12 14 -1
11 -3 17 -6 14 -2 -2 -16 7 -31 21 -15 14 -29 22 -33 18z"/>
<path d="M13017 763 c-10 -9 -9 -25 2 -19 4 3 17 -4 27 -15 18 -20 18 -21 -1
-35 -10 -8 -14 -14 -8 -14 7 0 15 5 18 11 4 6 13 8 20 5 9 -3 13 2 12 14 -1
11 -3 17 -6 14 -2 -2 -16 7 -31 21 -15 14 -29 22 -33 18z"/>
<path d="M3400 756 c0 -4 14 -19 30 -33 17 -13 30 -32 30 -40 0 -13 2 -13 16
-2 13 11 13 14 3 17 -8 3 -29 18 -46 35 -18 17 -33 28 -33 23z"/>
<path d="M3690 744 c0 -8 4 -13 8 -10 13 8 64 -49 55 -60 -5 -5 2 0 15 10 25
22 28 28 9 20 -7 -2 -26 9 -42 26 -32 33 -45 38 -45 14z"/>
<path d="M3980 744 c0 -8 4 -13 8 -10 13 8 64 -49 55 -60 -5 -5 2 0 15 10 25
22 28 28 9 20 -7 -2 -26 9 -42 26 -32 33 -45 38 -45 14z"/>
<path d="M4274 746 c-4 -9 -4 -20 0 -23 3 -4 6 0 6 7 0 8 12 2 30 -15 16 -15
26 -33 23 -39 -4 -6 3 -2 15 8 23 20 29 32 11 20 -6 -3 -26 9 -45 27 -29 28
-34 30 -40 15z"/>
<path d="M4564 746 c-4 -9 -4 -20 0 -23 3 -4 6 0 6 7 0 8 12 2 30 -15 16 -15
26 -33 23 -39 -4 -6 3 -2 15 8 23 20 29 32 11 20 -6 -3 -26 9 -45 27 -29 28
-34 30 -40 15z"/>
<path d="M4856 745 c-9 -24 -7 -32 4 -15 7 12 13 11 35 -10 14 -13 23 -30 21
-37 -7 -16 6 -17 22 -1 15 15 16 32 1 22 -6 -3 -25 8 -44 26 -27 26 -33 29
-39 15z"/>
<path d="M5146 745 c-9 -24 -7 -32 4 -15 7 12 13 11 35 -10 14 -13 23 -30 21
-37 -7 -16 6 -17 22 -1 15 15 16 32 1 22 -6 -3 -25 8 -44 26 -27 26 -33 29
-39 15z"/>
<path d="M5440 756 c0 -4 14 -19 30 -33 17 -13 30 -32 30 -40 0 -13 2 -13 16
-2 13 11 13 14 3 17 -8 3 -29 18 -46 35 -18 17 -33 28 -33 23z"/>
<path d="M5730 756 c0 -4 14 -19 30 -33 17 -13 30 -32 30 -40 0 -13 2 -13 16
-2 13 11 13 14 3 17 -8 3 -29 18 -46 35 -18 17 -33 28 -33 23z"/>
<path d="M6020 756 c0 -4 14 -19 30 -33 17 -13 30 -32 30 -40 0 -13 2 -13 16
-2 13 11 13 14 3 17 -8 3 -29 18 -46 35 -18 17 -33 28 -33 23z"/>
<path d="M6305 750 c-4 -6 -4 -14 -1 -17 3 -4 6 -1 6 5 0 16 27 15 36 0 4 -7
10 -27 13 -46 l6 -34 25 29 c13 15 16 20 5 10 -19 -17 -20 -16 -30 20 -11 39
-45 57 -60 33z"/>
<path d="M6595 750 c-4 -6 -4 -14 -1 -17 3 -4 6 -1 6 5 0 16 27 15 36 0 4 -7
10 -27 13 -46 l6 -34 25 29 c13 15 16 20 5 10 -19 -17 -20 -16 -30 20 -11 39
-45 57 -60 33z"/>
<path d="M7469 743 c-13 -16 -12 -17 3 -4 29 22 48 7 48 -39 0 -44 8 -49 33
-22 24 26 21 39 -3 17 -20 -18 -20 -17 -20 8 0 56 -32 77 -61 40z"/>
<path d="M7759 743 c-13 -16 -12 -17 3 -4 29 22 48 7 48 -39 0 -44 8 -49 33
-22 24 26 21 39 -3 17 -20 -18 -20 -17 -20 8 0 56 -32 77 -61 40z"/>
<path d="M8057 754 c-4 -4 -7 -12 -7 -18 0 -6 4 -5 9 3 16 25 41 4 41 -33 0
-44 12 -52 36 -23 10 12 12 16 4 10 -22 -20 -29 -16 -32 25 -2 28 -8 38 -23
40 -12 2 -24 0 -28 -4z"/>
<path d="M8347 754 c-4 -4 -7 -12 -7 -18 0 -6 4 -5 9 3 16 25 41 4 41 -33 0
-44 12 -52 36 -23 10 12 12 16 4 10 -22 -20 -29 -16 -32 25 -2 28 -8 38 -23
40 -12 2 -24 0 -28 -4z"/>
<path d="M8637 754 c-4 -4 -7 -12 -7 -18 0 -6 4 -5 9 3 16 25 41 4 41 -33 0
-44 12 -52 36 -23 10 12 12 16 4 10 -22 -20 -29 -16 -32 25 -2 28 -8 38 -23
40 -12 2 -24 0 -28 -4z"/>
<path d="M8925 750 c-4 -6 -4 -14 -1 -17 3 -4 6 -1 6 5 0 16 27 15 36 0 4 -7
10 -27 13 -46 l6 -34 25 29 c13 15 16 20 5 10 -19 -17 -20 -16 -30 20 -11 39
-45 57 -60 33z"/>
<path d="M9215 749 c-4 -6 -4 -13 -1 -16 3 -4 6 -1 6 5 0 15 27 16 35 2 4 -6
1 -18 -7 -27 -12 -15 -11 -15 9 -2 30 18 53 -1 33 -28 -13 -17 -13 -17 3 -2
20 17 13 49 -9 49 -8 0 -17 7 -20 15 -7 17 -40 20 -49 4z"/>
<path d="M10089 743 c-11 -15 -11 -16 1 -5 25 22 43 15 35 -15 -5 -23 -4 -25
9 -14 16 13 36 7 36 -11 0 -6 -8 -17 -17 -25 -16 -13 -16 -13 5 -3 28 13 29
50 2 57 -11 3 -20 12 -20 19 0 20 -35 17 -51 -3z"/>
<path d="M10379 743 c-11 -15 -11 -16 1 -5 25 22 43 15 35 -15 -5 -23 -4 -25
9 -14 16 13 36 7 36 -11 0 -6 -8 -17 -17 -25 -16 -13 -16 -13 5 -3 28 13 29
50 2 57 -11 3 -20 12 -20 19 0 20 -35 17 -51 -3z"/>
<path d="M10676 751 c-4 -5 4 -7 15 -4 19 5 21 3 17 -21 -4 -20 -2 -24 5 -17
20 20 40 13 35 -14 -3 -13 -1 -22 3 -19 17 10 9 46 -11 51 -11 3 -20 12 -20
19 0 15 -36 19 -44 5z"/>
<path d="M10966 751 c-4 -5 4 -7 15 -4 19 5 21 3 17 -21 -4 -20 -2 -24 5 -17
20 20 40 13 35 -14 -3 -13 -1 -22 3 -19 17 10 9 46 -11 51 -11 3 -20 12 -20
19 0 15 -36 19 -44 5z"/>
<path d="M11255 749 c-4 -6 -4 -13 -1 -16 3 -4 6 -1 6 5 0 15 27 16 35 2 4 -6
1 -18 -7 -27 -12 -15 -11 -15 9 -2 30 18 53 -1 33 -28 -13 -17 -13 -17 3 -2
20 17 13 49 -9 49 -8 0 -17 7 -20 15 -7 17 -40 20 -49 4z"/>
<path d="M11545 749 c-4 -6 -4 -13 -1 -16 3 -4 6 -1 6 5 0 15 27 16 35 2 4 -6
1 -18 -7 -27 -12 -15 -11 -15 9 -2 30 18 53 -1 33 -28 -13 -17 -13 -17 3 -2
20 17 13 49 -9 49 -8 0 -17 7 -20 15 -7 17 -40 20 -49 4z"/>
<path d="M11835 749 c-4 -6 -4 -13 -1 -16 3 -4 6 -1 6 5 0 15 27 16 35 2 4 -6
1 -18 -7 -27 -12 -15 -11 -15 9 -2 30 18 53 -1 33 -28 -13 -17 -13 -17 3 -2
20 17 13 49 -9 49 -8 0 -17 7 -20 15 -7 17 -40 20 -49 4z"/>
<path d="M12731 714 c0 -11 3 -14 6 -6 3 7 2 16 -1 19 -3 4 -6 -2 -5 -13z"/>
<path d="M13021 714 c0 -11 3 -14 6 -6 3 7 2 16 -1 19 -3 4 -6 -2 -5 -13z"/>
<path d="M5898 424 c-11 -11 -10 -152 1 -159 6 -3 11 16 13 42 3 44 5 48 28
48 23 0 25 -4 28 -47 4 -60 22 -63 22 -4 0 53 -20 79 -55 70 -21 -5 -24 -2
-27 26 -2 18 -6 28 -10 24z"/>
<path d="M6198 424 c-12 -11 -10 -152 2 -159 6 -4 10 7 10 27 l1 33 29 -34
c34 -39 51 -38 20 2 -25 32 -25 35 2 64 12 13 17 23 11 23 -5 0 -20 -12 -34
-26 l-24 -26 -5 52 c-3 29 -8 48 -12 44z"/>
<path d="M5785 395 c-63 -62 2 -172 71 -120 18 14 17 14 -13 9 -44 -8 -63 9
-63 56 0 47 19 64 63 56 30 -5 31 -5 13 9 -28 21 -43 19 -71 -10z"/>
<path d="M6035 410 c3 -5 8 -10 11 -10 2 0 4 5 4 10 0 6 -5 10 -11 10 -5 0 -7
-4 -4 -10z"/>
<path d="M7045 408 c-3 -8 -5 -44 -3 -79 l3 -64 44 1 c30 1 48 7 58 19 17 24
17 86 0 109 -17 24 -95 34 -102 14z m83 -20 c7 -7 12 -28 12 -48 0 -43 -15
-60 -52 -60 -28 0 -28 1 -28 60 0 59 0 60 28 60 15 0 33 -5 40 -12z"/>
<path d="M7945 395 c-61 -60 0 -159 79 -129 11 4 16 19 16 45 0 35 -3 39 -25
39 -14 0 -25 -4 -25 -10 0 -5 7 -10 15 -10 9 0 15 -9 15 -25 0 -21 -5 -25 -28
-25 -37 0 -52 17 -52 60 0 46 15 60 65 60 29 0 36 3 25 10 -26 17 -60 11 -85
-15z"/>
<path d="M8295 410 c3 -5 8 -10 11 -10 2 0 4 5 4 10 0 6 -5 10 -11 10 -5 0 -7
-4 -4 -10z"/>
<path d="M6037 373 c-11 -10 -8 -101 3 -108 6 -4 10 17 10 54 0 62 -1 66 -13
54z"/>
<path d="M6096 364 c-9 -8 -16 -31 -16 -50 0 -27 5 -37 24 -46 15 -6 32 -7 43
-2 15 6 12 9 -15 12 -32 3 -33 5 -30 40 3 32 7 37 31 40 15 2 25 8 22 13 -9
14 -42 11 -59 -7z"/>
<path d="M6326 364 c-31 -31 -11 -104 29 -104 7 0 22 3 32 7 14 6 10 9 -17 13
-23 3 -36 11 -38 23 -3 13 4 17 32 17 42 0 50 10 30 38 -18 26 -46 28 -68 6z
m52 -6 c19 -19 14 -28 -18 -28 -41 0 -40 33 1 39 3 1 10 -4 17 -11z"/>
<path d="M6437 373 c-11 -10 -8 -101 2 -108 6 -3 11 16 13 42 3 44 5 48 28 48
23 0 25 -4 28 -47 2 -27 7 -48 13 -48 16 0 10 87 -7 104 -18 18 -23 19 -44 6
-9 -5 -17 -5 -20 1 -4 5 -9 6 -13 2z"/>
<path d="M7216 367 c-24 -18 -25 -76 -1 -93 26 -19 49 -17 68 4 48 53 -11 130
-67 89z m59 -47 c0 -30 -3 -35 -27 -38 -30 -4 -44 23 -33 59 5 15 14 19 33 17
24 -3 27 -8 27 -38z"/>
<path d="M7342 367 c-6 -7 -13 -39 -14 -71 -3 -66 10 -84 56 -72 54 13 42 56
-16 56 -17 0 -28 5 -28 14 0 9 7 12 18 10 23 -7 48 15 56 49 6 25 4 27 -28 27
-18 0 -38 -6 -44 -13z m46 -21 c6 -29 -15 -43 -35 -24 -14 14 -14 20 -3 33 16
19 34 15 38 -9z m10 -98 c-3 -7 -15 -13 -28 -13 -13 0 -25 6 -27 13 -3 8 6 12
27 12 21 0 30 -4 28 -12z"/>
<path d="M8087 374 c-10 -11 -9 -102 2 -108 5 -3 11 15 13 42 5 48 -2 78 -15
66z"/>
<path d="M8115 370 c-3 -5 3 -10 15 -10 12 0 18 5 15 10 -3 6 -10 10 -15 10
-5 0 -12 -4 -15 -10z"/>
<path d="M8187 367 c-16 -11 -14 -12 15 -12 23 0 34 -5 36 -17 2 -12 -5 -17
-30 -20 -25 -2 -34 -8 -36 -25 -3 -23 16 -33 58 -29 23 3 25 7 24 50 -1 61
-28 82 -67 53z m53 -66 c0 -14 -28 -33 -40 -26 -20 12 -10 35 15 35 14 0 25
-4 25 -9z"/>
<path d="M8297 373 c-11 -10 -8 -101 3 -108 6 -4 10 17 10 54 0 62 -1 66 -13
54z"/>
<path d="M8357 373 c-11 -10 -8 -101 2 -108 6 -3 11 16 13 42 3 44 5 48 28 48
23 0 25 -4 28 -47 2 -27 7 -48 13 -48 16 0 10 87 -7 104 -18 18 -23 19 -44 6
-9 -5 -17 -5 -20 1 -4 5 -9 6 -13 2z"/>
<path d="M7595 340 c-3 -5 0 -12 7 -15 25 -10 283 0 283 10 0 14 -281 19 -290
5z"/>
</g>
</svg>
