<?xml version="1.0" encoding="UTF-8"?>
<!DOCTYPE svg PUBLIC "-//W3C//DTD SVG 1.1//EN" "http://www.w3.org/Graphics/SVG/1.1/DTD/svg11.dtd">
<svg width="350mm" height="172mm" viewBox="0 0 35000 17200" version="1.1" xmlns="http://www.w3.org/2000/svg" xmlns:xlink="http://www.w3.org/1999/xlink" stroke-width="28.222" stroke-linejoin="round" xml:space="preserve">
 <path fill="rgb(255,255,255)" stroke="none" d="M 17513,17197 L 13,17197 13,13 35013,13 35013,17197 17513,17197 Z"/>
 <path fill="none" stroke="rgb(217,217,217)" stroke-width="26" stroke-linejoin="round" d="M 17513,17197 L 13,17197 13,13 35013,13 35013,17197 17513,17197 Z"/>
 <path fill="none" stroke="rgb(217,217,217)" stroke-width="26" stroke-linejoin="round" d="M 31746,13081 L 2744,13081"/>
 <path fill="none" stroke="rgb(217,217,217)" stroke-width="26" stroke-linejoin="round" d="M 31746,11690 L 2744,11690"/>
 <path fill="none" stroke="rgb(217,217,217)" stroke-width="26" stroke-linejoin="round" d="M 31746,10299 L 2744,10299"/>
 <path fill="none" stroke="rgb(217,217,217)" stroke-width="26" stroke-linejoin="round" d="M 31746,8908 L 2744,8908"/>
 <path fill="none" stroke="rgb(217,217,217)" stroke-width="26" stroke-linejoin="round" d="M 31746,7516 L 2744,7516"/>
 <path fill="none" stroke="rgb(217,217,217)" stroke-width="26" stroke-linejoin="round" d="M 31746,6125 L 2744,6125"/>
 <path fill="none" stroke="rgb(217,217,217)" stroke-width="26" stroke-linejoin="round" d="M 31746,4735 L 2744,4735"/>
 <path fill="none" stroke="rgb(217,217,217)" stroke-width="26" stroke-linejoin="round" d="M 31746,3344 L 2744,3344"/>
 <path fill="none" stroke="rgb(217,217,217)" stroke-width="26" stroke-linejoin="round" d="M 31746,1952 L 2744,1952"/>
 <path fill="none" stroke="rgb(217,217,217)" stroke-width="35" stroke-linejoin="round" d="M 2744,13081 L 31746,13081"/>
 <path fill="none" stroke="rgb(91,155,213)" stroke-width="97" stroke-linejoin="round" stroke-linecap="round" d="M 2960,13081 L 3392,13081 3825,13081 4259,13081 4691,13081 5124,13081 5557,13081 5989,13081 6423,13081 6856,13081 7288,13051 7721,12803 8154,12803 8587,12803 9020,12803 9453,12608 9885,12524 10318,12524 10752,12262 11184,11749 11617,11551 12050,11499 12482,11091 12916,10385 13349,9900 13781,9731 14214,9211 14647,8660 15080,7806 15513,7225 15946,6622 16378,6077 16811,5689 17245,5358 17677,5152 18110,5152 18543,5152 18975,5152 19408,4979 19842,4735 20274,4557 20707,4456 21140,4456 21572,4456 22006,4349 22439,4213 22871,4178 23304,3913 23737,3900 24170,3900 24603,3743 25036,3135 25468,2926 25901,2926 26335,2926 26767,2926 27200,2926 27633,2926 28065,2926 28499,2926 28932,2926 29364,2926 29797,2926 30230,2926 30663,2926 31096,2926 31529,2926"/>
 <path fill="none" stroke="rgb(237,125,49)" stroke-width="97" stroke-linejoin="round" stroke-linecap="round" d="M 2960,13081 L 3392,13081 3825,13081 4259,13081 4691,13081 5124,13081 5557,13081 5989,13081 6423,13081 6856,13081 7288,13081 7721,13081 8154,13081 8587,13081 9020,13081 9453,13081 9885,13081 10318,13081 10752,13081 11184,13081 11617,13081 12050,13081 12482,13081 12916,13081 13349,13081 13781,13081 14214,13050 14647,12803 15080,12666 15513,12664 15946,12524 16378,12524 16811,12386 17245,12386 17677,12386 18110,12087 18543,11968 18975,11968 19408,11968 19842,11968 20274,11968 20707,11968 21140,11968 21572,11882 22006,11776 22439,11690 22871,11690 23304,11614 23737,11412 24170,11412 24603,11412 25036,11412 25468,11412 25901,11412 26335,11412 26767,11412 27200,11412 27633,11412 28065,11412 28499,11412 28932,11412 29364,11412 29797,11412 30230,11412 30663,11412 31096,11412 31529,11412"/>
 <path fill="none" stroke="rgb(255,192,0)" stroke-width="97" stroke-linejoin="round" stroke-linecap="round" d="M 2960,12977 L 3392,12733 3825,12664 4259,12664 4691,12664 5124,12524 5557,12386 5989,12386 6423,12386 6856,12312 7288,12142 7721,12107 8154,12107 8587,12107 9020,12107 9453,12107 9885,12107 10318,12107 10752,12089 11184,11968 11617,11835 12050,11690 12482,11610 12916,11551 13349,11420 13781,11336 14214,11272 14647,11148 15080,11134 15513,11134 15946,11088 16378,10983 16811,10764 17245,10716 17677,10716 18110,10716 18543,10653 18975,10519 19408,10438 19842,10438 20274,10438 20707,10438 21140,10438 21572,10438 22006,10320 22439,10299 22871,10299 23304,10299 23737,10299 24170,10299 24603,10299 25036,10299 25468,10299 25901,10299 26335,10299 26767,10299 27200,10299 27633,10299 28065,10299 28499,10299 28932,10299 29364,10299 29797,10299 30230,10299 30663,10299 31096,10299 31529,10299"/>
 <path fill="none" stroke="rgb(165,165,165)" stroke-width="97" stroke-linejoin="round" stroke-linecap="round" d="M 2960,13081 L 3392,13081 3825,13081 4259,13081 4691,13081 5124,13081 5557,13081 5989,13081 6423,13081 6856,13081 7288,12572 7721,11912 8154,11736 8587,11714 9020,11714 9453,11696 9885,11411 10318,10863 10752,10628 11184,10278 11617,9892 12050,9541 12482,9161 12916,8815 13349,8570 13781,8055 14214,7629 14647,7314 15080,6744 15513,6269 15946,6002 16378,5701 16811,5529 17245,5173 17677,4918 18110,4727 18543,4606 18975,4515 19408,4325 19842,4090 20274,3913 20707,3779 21140,3559 21572,3532 22006,3457 22439,3304 22871,3256 23304,3181 23737,3139 24170,3111 24603,3077 25036,3044 25468,3033 25901,3023 26335,2970 26767,2970 27200,2970 27633,2970 28065,2938 28499,2938 28932,2938 29364,2938 29797,2938 30230,2938 30663,2938 31096,2938 31529,2938"/>
 <text class="SVGTextShape" transform="rotate(-59.9 2423 14536)"><tspan class="TextParagraph" font-family="Calibri, sans-serif" font-size="563px" font-weight="400"><tspan class="TextPosition" x="2423" y="14536"><tspan fill="rgb(89,89,89)" stroke="none">1-100</tspan></tspan></tspan></text>
 <text class="SVGTextShape" transform="rotate(-59.9 2997 15039)"><tspan class="TextParagraph" font-family="Calibri, sans-serif" font-size="563px" font-weight="400"><tspan class="TextPosition" x="2997" y="15039"><tspan fill="rgb(89,89,89)" stroke="none">201-300</tspan></tspan></tspan></text>
 <text class="SVGTextShape" transform="rotate(-59.9 3864 15039)"><tspan class="TextParagraph" font-family="Calibri, sans-serif" font-size="563px" font-weight="400"><tspan class="TextPosition" x="3864" y="15039"><tspan fill="rgb(89,89,89)" stroke="none">401-500</tspan></tspan></tspan></text>
 <text class="SVGTextShape" transform="rotate(-59.9 4729 15039)"><tspan class="TextParagraph" font-family="Calibri, sans-serif" font-size="563px" font-weight="400"><tspan class="TextPosition" x="4729" y="15039"><tspan fill="rgb(89,89,89)" stroke="none">601-700</tspan></tspan></tspan></text>
 <text class="SVGTextShape" transform="rotate(-59.9 5595 15039)"><tspan class="TextParagraph" font-family="Calibri, sans-serif" font-size="563px" font-weight="400"><tspan class="TextPosition" x="5595" y="15039"><tspan fill="rgb(89,89,89)" stroke="none">801-900</tspan></tspan></tspan></text>
 <text class="SVGTextShape" transform="rotate(-59.9 6170 15543)"><tspan class="TextParagraph" font-family="Calibri, sans-serif" font-size="563px" font-weight="400"><tspan class="TextPosition" x="6170" y="15543"><tspan fill="rgb(89,89,89)" stroke="none">1001-1100</tspan></tspan></tspan></text>
 <text class="SVGTextShape" transform="rotate(-59.9 7035 15543)"><tspan class="TextParagraph" font-family="Calibri, sans-serif" font-size="563px" font-weight="400"><tspan class="TextPosition" x="7035" y="15543"><tspan fill="rgb(89,89,89)" stroke="none">1201-1300</tspan></tspan></tspan></text>
 <text class="SVGTextShape" transform="rotate(-59.9 7901 15543)"><tspan class="TextParagraph" font-family="Calibri, sans-serif" font-size="563px" font-weight="400"><tspan class="TextPosition" x="7901" y="15543"><tspan fill="rgb(89,89,89)" stroke="none">1401-1500</tspan></tspan></tspan></text>
 <text class="SVGTextShape" transform="rotate(-59.9 8767 15543)"><tspan class="TextParagraph" font-family="Calibri, sans-serif" font-size="563px" font-weight="400"><tspan class="TextPosition" x="8767" y="15543"><tspan fill="rgb(89,89,89)" stroke="none">1601-1700</tspan></tspan></tspan></text>
 <text class="SVGTextShape" transform="rotate(-59.9 9633 15543)"><tspan class="TextParagraph" font-family="Calibri, sans-serif" font-size="563px" font-weight="400"><tspan class="TextPosition" x="9633" y="15543"><tspan fill="rgb(89,89,89)" stroke="none">1801-1900</tspan></tspan></tspan></text>
 <text class="SVGTextShape" transform="rotate(-59.9 10498 15543)"><tspan class="TextParagraph" font-family="Calibri, sans-serif" font-size="563px" font-weight="400"><tspan class="TextPosition" x="10498" y="15543"><tspan fill="rgb(89,89,89)" stroke="none">2001-2100</tspan></tspan></tspan></text>
 <text class="SVGTextShape" transform="rotate(-59.9 11364 15543)"><tspan class="TextParagraph" font-family="Calibri, sans-serif" font-size="563px" font-weight="400"><tspan class="TextPosition" x="11364" y="15543"><tspan fill="rgb(89,89,89)" stroke="none">2201-2300</tspan></tspan></tspan></text>
 <text class="SVGTextShape" transform="rotate(-59.9 12230 15543)"><tspan class="TextParagraph" font-family="Calibri, sans-serif" font-size="563px" font-weight="400"><tspan class="TextPosition" x="12230" y="15543"><tspan fill="rgb(89,89,89)" stroke="none">2401-2500</tspan></tspan></tspan></text>
 <text class="SVGTextShape" transform="rotate(-59.9 13095 15543)"><tspan class="TextParagraph" font-family="Calibri, sans-serif" font-size="563px" font-weight="400"><tspan class="TextPosition" x="13095" y="15543"><tspan fill="rgb(89,89,89)" stroke="none">2601-2700</tspan></tspan></tspan></text>
 <text class="SVGTextShape" transform="rotate(-59.9 13962 15543)"><tspan class="TextParagraph" font-family="Calibri, sans-serif" font-size="563px" font-weight="400"><tspan class="TextPosition" x="13962" y="15543"><tspan fill="rgb(89,89,89)" stroke="none">2801-2900</tspan></tspan></tspan></text>
 <text class="SVGTextShape" transform="rotate(-59.9 14827 15543)"><tspan class="TextParagraph" font-family="Calibri, sans-serif" font-size="563px" font-weight="400"><tspan class="TextPosition" x="14827" y="15543"><tspan fill="rgb(89,89,89)" stroke="none">3001-3100</tspan></tspan></tspan></text>
 <text class="SVGTextShape" transform="rotate(-59.9 15692 15543)"><tspan class="TextParagraph" font-family="Calibri, sans-serif" font-size="563px" font-weight="400"><tspan class="TextPosition" x="15692" y="15543"><tspan fill="rgb(89,89,89)" stroke="none">3201-3300</tspan></tspan></tspan></text>
 <text class="SVGTextShape" transform="rotate(-59.9 16559 15543)"><tspan class="TextParagraph" font-family="Calibri, sans-serif" font-size="563px" font-weight="400"><tspan class="TextPosition" x="16559" y="15543"><tspan fill="rgb(89,89,89)" stroke="none">3401-3500</tspan></tspan></tspan></text>
 <text class="SVGTextShape" transform="rotate(-59.9 17424 15543)"><tspan class="TextParagraph" font-family="Calibri, sans-serif" font-size="563px" font-weight="400"><tspan class="TextPosition" x="17424" y="15543"><tspan fill="rgb(89,89,89)" stroke="none">3601-3700</tspan></tspan></tspan></text>
 <text class="SVGTextShape" transform="rotate(-59.9 18289 15543)"><tspan class="TextParagraph" font-family="Calibri, sans-serif" font-size="563px" font-weight="400"><tspan class="TextPosition" x="18289" y="15543"><tspan fill="rgb(89,89,89)" stroke="none">3801-3900</tspan></tspan></tspan></text>
 <text class="SVGTextShape" transform="rotate(-59.9 19156 15543)"><tspan class="TextParagraph" font-family="Calibri, sans-serif" font-size="563px" font-weight="400"><tspan class="TextPosition" x="19156" y="15543"><tspan fill="rgb(89,89,89)" stroke="none">4001-4100</tspan></tspan></tspan></text>
 <text class="SVGTextShape" transform="rotate(-59.9 20021 15543)"><tspan class="TextParagraph" font-family="Calibri, sans-serif" font-size="563px" font-weight="400"><tspan class="TextPosition" x="20021" y="15543"><tspan fill="rgb(89,89,89)" stroke="none">4201-4300</tspan></tspan></tspan></text>
 <text class="SVGTextShape" transform="rotate(-59.9 20887 15543)"><tspan class="TextParagraph" font-family="Calibri, sans-serif" font-size="563px" font-weight="400"><tspan class="TextPosition" x="20887" y="15543"><tspan fill="rgb(89,89,89)" stroke="none">4401-4500</tspan></tspan></tspan></text>
 <text class="SVGTextShape" transform="rotate(-59.9 21753 15543)"><tspan class="TextParagraph" font-family="Calibri, sans-serif" font-size="563px" font-weight="400"><tspan class="TextPosition" x="21753" y="15543"><tspan fill="rgb(89,89,89)" stroke="none">4601-4700</tspan></tspan></tspan></text>
 <text class="SVGTextShape" transform="rotate(-59.9 22618 15543)"><tspan class="TextParagraph" font-family="Calibri, sans-serif" font-size="563px" font-weight="400"><tspan class="TextPosition" x="22618" y="15543"><tspan fill="rgb(89,89,89)" stroke="none">4801-4900</tspan></tspan></tspan></text>
 <text class="SVGTextShape" transform="rotate(-59.9 23484 15543)"><tspan class="TextParagraph" font-family="Calibri, sans-serif" font-size="563px" font-weight="400"><tspan class="TextPosition" x="23484" y="15543"><tspan fill="rgb(89,89,89)" stroke="none">5001-5100</tspan></tspan></tspan></text>
 <text class="SVGTextShape" transform="rotate(-59.9 24350 15543)"><tspan class="TextParagraph" font-family="Calibri, sans-serif" font-size="563px" font-weight="400"><tspan class="TextPosition" x="24350" y="15543"><tspan fill="rgb(89,89,89)" stroke="none">5201-5300</tspan></tspan></tspan></text>
 <text class="SVGTextShape" transform="rotate(-59.9 25216 15543)"><tspan class="TextParagraph" font-family="Calibri, sans-serif" font-size="563px" font-weight="400"><tspan class="TextPosition" x="25216" y="15543"><tspan fill="rgb(89,89,89)" stroke="none">5401-5500</tspan></tspan></tspan></text>
 <text class="SVGTextShape" transform="rotate(-59.9 26081 15543)"><tspan class="TextParagraph" font-family="Calibri, sans-serif" font-size="563px" font-weight="400"><tspan class="TextPosition" x="26081" y="15543"><tspan fill="rgb(89,89,89)" stroke="none">5601-5700</tspan></tspan></tspan></text>
 <text class="SVGTextShape" transform="rotate(-59.9 26947 15543)"><tspan class="TextParagraph" font-family="Calibri, sans-serif" font-size="563px" font-weight="400"><tspan class="TextPosition" x="26947" y="15543"><tspan fill="rgb(89,89,89)" stroke="none">5801-5900</tspan></tspan></tspan></text>
 <text class="SVGTextShape" transform="rotate(-59.9 27813 15543)"><tspan class="TextParagraph" font-family="Calibri, sans-serif" font-size="563px" font-weight="400"><tspan class="TextPosition" x="27813" y="15543"><tspan fill="rgb(89,89,89)" stroke="none">6001-6100</tspan></tspan></tspan></text>
 <text class="SVGTextShape" transform="rotate(-59.9 28678 15543)"><tspan class="TextParagraph" font-family="Calibri, sans-serif" font-size="563px" font-weight="400"><tspan class="TextPosition" x="28678" y="15543"><tspan fill="rgb(89,89,89)" stroke="none">6201-6300</tspan></tspan></tspan></text>
 <text class="SVGTextShape" transform="rotate(-59.9 29545 15543)"><tspan class="TextParagraph" font-family="Calibri, sans-serif" font-size="563px" font-weight="400"><tspan class="TextPosition" x="29545" y="15543"><tspan fill="rgb(89,89,89)" stroke="none">6401-6500</tspan></tspan></tspan></text>
 <text class="SVGTextShape" transform="rotate(-59.9 30410 15543)"><tspan class="TextParagraph" font-family="Calibri, sans-serif" font-size="563px" font-weight="400"><tspan class="TextPosition" x="30410" y="15543"><tspan fill="rgb(89,89,89)" stroke="none">6601-6700</tspan></tspan></tspan></text>
 <text class="SVGTextShape"><tspan class="TextParagraph" font-family="Calibri, sans-serif" font-size="563px" font-weight="400"><tspan class="TextPosition" x="2353" y="13227"><tspan fill="rgb(89,89,89)" stroke="none">0</tspan></tspan></tspan></text>
 <text class="SVGTextShape"><tspan class="TextParagraph" font-family="Calibri, sans-serif" font-size="563px" font-weight="400"><tspan class="TextPosition" x="2062" y="11835"><tspan fill="rgb(89,89,89)" stroke="none">10</tspan></tspan></tspan></text>
 <text class="SVGTextShape"><tspan class="TextParagraph" font-family="Calibri, sans-serif" font-size="563px" font-weight="400"><tspan class="TextPosition" x="2062" y="10444"><tspan fill="rgb(89,89,89)" stroke="none">20</tspan></tspan></tspan></text>
 <text class="SVGTextShape"><tspan class="TextParagraph" font-family="Calibri, sans-serif" font-size="563px" font-weight="400"><tspan class="TextPosition" x="2062" y="9053"><tspan fill="rgb(89,89,89)" stroke="none">30</tspan></tspan></tspan></text>
 <text class="SVGTextShape"><tspan class="TextParagraph" font-family="Calibri, sans-serif" font-size="563px" font-weight="400"><tspan class="TextPosition" x="2062" y="7661"><tspan fill="rgb(89,89,89)" stroke="none">40</tspan></tspan></tspan></text>
 <text class="SVGTextShape"><tspan class="TextParagraph" font-family="Calibri, sans-serif" font-size="563px" font-weight="400"><tspan class="TextPosition" x="2062" y="6271"><tspan fill="rgb(89,89,89)" stroke="none">50</tspan></tspan></tspan></text>
 <text class="SVGTextShape"><tspan class="TextParagraph" font-family="Calibri, sans-serif" font-size="563px" font-weight="400"><tspan class="TextPosition" x="2062" y="4880"><tspan fill="rgb(89,89,89)" stroke="none">60</tspan></tspan></tspan></text>
 <text class="SVGTextShape"><tspan class="TextParagraph" font-family="Calibri, sans-serif" font-size="563px" font-weight="400"><tspan class="TextPosition" x="2062" y="3489"><tspan fill="rgb(89,89,89)" stroke="none">70</tspan></tspan></tspan></text>
 <text class="SVGTextShape"><tspan class="TextParagraph" font-family="Calibri, sans-serif" font-size="563px" font-weight="400"><tspan class="TextPosition" x="2062" y="2097"><tspan fill="rgb(89,89,89)" stroke="none">80</tspan></tspan></tspan></text>
 <text class="SVGTextShape"><tspan class="TextParagraph" font-family="Calibri, sans-serif" font-size="563px" font-weight="400"><tspan class="TextPosition" x="31845" y="13227"><tspan fill="rgb(89,89,89)" stroke="none">0</tspan></tspan></tspan></text>
 <text class="SVGTextShape"><tspan class="TextParagraph" font-family="Calibri, sans-serif" font-size="563px" font-weight="400"><tspan class="TextPosition" x="31845" y="11636"><tspan fill="rgb(89,89,89)" stroke="none">50</tspan></tspan></tspan></text>
 <text class="SVGTextShape"><tspan class="TextParagraph" font-family="Calibri, sans-serif" font-size="563px" font-weight="400"><tspan class="TextPosition" x="31845" y="10047"><tspan fill="rgb(89,89,89)" stroke="none">100</tspan></tspan></tspan></text>
 <text class="SVGTextShape"><tspan class="TextParagraph" font-family="Calibri, sans-serif" font-size="563px" font-weight="400"><tspan class="TextPosition" x="31845" y="8457"><tspan fill="rgb(89,89,89)" stroke="none">150</tspan></tspan></tspan></text>
 <text class="SVGTextShape"><tspan class="TextParagraph" font-family="Calibri, sans-serif" font-size="563px" font-weight="400"><tspan class="TextPosition" x="31845" y="6867"><tspan fill="rgb(89,89,89)" stroke="none">200</tspan></tspan></tspan></text>
 <text class="SVGTextShape"><tspan class="TextParagraph" font-family="Calibri, sans-serif" font-size="563px" font-weight="400"><tspan class="TextPosition" x="31845" y="5277"><tspan fill="rgb(89,89,89)" stroke="none">250</tspan></tspan></tspan></text>
 <text class="SVGTextShape"><tspan class="TextParagraph" font-family="Calibri, sans-serif" font-size="563px" font-weight="400"><tspan class="TextPosition" x="31845" y="3688"><tspan fill="rgb(89,89,89)" stroke="none">300</tspan></tspan></tspan></text>
 <text class="SVGTextShape"><tspan class="TextParagraph" font-family="Calibri, sans-serif" font-size="563px" font-weight="400"><tspan class="TextPosition" x="31845" y="2098"><tspan fill="rgb(89,89,89)" stroke="none">350</tspan></tspan></tspan></text>
 <text class="SVGTextShape"><tspan class="TextParagraph" font-family="Calibri, sans-serif" font-size="676px" font-weight="700"><tspan class="TextPosition" x="14790" y="1223"><tspan fill="rgb(89,89,89)" stroke="none">Dog cause of death</tspan></tspan></tspan></text>
 <path fill="none" stroke="rgb(91,155,213)" stroke-width="97" stroke-linejoin="round" stroke-linecap="round" d="M 12249,16806 L 13048,16806"/>
 <path fill="none" stroke="rgb(237,125,49)" stroke-width="97" stroke-linejoin="round" stroke-linecap="round" d="M 14815,16806 L 15614,16806"/>
 <path fill="none" stroke="rgb(255,192,0)" stroke-width="97" stroke-linejoin="round" stroke-linecap="round" d="M 17750,16806 L 18550,16806"/>
 <path fill="none" stroke="rgb(165,165,165)" stroke-width="97" stroke-linejoin="round" stroke-linecap="round" d="M 21004,16806 L 21803,16806"/>
 <text class="SVGTextShape"><tspan class="TextParagraph" font-family="Calibri, sans-serif" font-size="563px" font-weight="400"><tspan class="TextPosition" x="13172" y="16950"><tspan fill="rgb(89,89,89)" stroke="none">Thirst</tspan></tspan></tspan></text>
 <text class="SVGTextShape"><tspan class="TextParagraph" font-family="Calibri, sans-serif" font-size="563px" font-weight="400"><tspan class="TextPosition" x="15738" y="16950"><tspan fill="rgb(89,89,89)" stroke="none">Hunger</tspan></tspan></tspan></text>
 <text class="SVGTextShape"><tspan class="TextParagraph" font-family="Calibri, sans-serif" font-size="563px" font-weight="400"><tspan class="TextPosition" x="18674" y="16950"><tspan fill="rgb(89,89,89)" stroke="none">Predator</tspan></tspan></tspan></text>
 <text class="SVGTextShape"><tspan class="TextParagraph" font-family="Calibri, sans-serif" font-size="563px" font-weight="400"><tspan class="TextPosition" x="21927" y="16950"><tspan fill="rgb(89,89,89)" stroke="none">Age</tspan></tspan></tspan></text>
 <text class="SVGTextShape" transform="rotate(-90 1056 11827)"><tspan class="TextParagraph" font-family="Calibri, sans-serif" font-size="564px" font-weight="400"><tspan class="TextPosition" x="1056" y="11827"><tspan fill="rgb(89,89,89)" stroke="none">Thirst / Hunger / Predator</tspan></tspan></tspan></text>
 <text class="SVGTextShape" transform="rotate(-90 34011 9344)"><tspan class="TextParagraph" font-family="Calibri, sans-serif" font-size="564px" font-weight="400"><tspan class="TextPosition" x="34011" y="9344"><tspan fill="rgb(89,89,89)" stroke="none">Age</tspan></tspan></tspan></text>
</svg>