<?xml version="1.0" encoding="UTF-8"?>
<!DOCTYPE svg PUBLIC "-//W3C//DTD SVG 1.1//EN" "http://www.w3.org/Graphics/SVG/1.1/DTD/svg11.dtd">
<svg width="393mm" height="142mm" viewBox="0 0 39300 14200" version="1.1" xmlns="http://www.w3.org/2000/svg" xmlns:xlink="http://www.w3.org/1999/xlink" stroke-width="28.222" stroke-linejoin="round" xml:space="preserve">
 <path fill="rgb(255,255,255)" stroke="none" d="M 19650,14214 L 13,14214 13,13 39287,13 39287,14214 19650,14214 Z"/>
 <path fill="none" stroke="rgb(217,217,217)" stroke-width="26" stroke-linejoin="round" d="M 19650,14214 L 13,14214 13,13 39287,13 39287,14214 19650,14214 Z"/>
 <path fill="none" stroke="rgb(217,217,217)" stroke-width="26" stroke-linejoin="round" d="M 38502,12188 L 1984,12188"/>
 <path fill="none" stroke="rgb(217,217,217)" stroke-width="26" stroke-linejoin="round" d="M 38502,10136 L 1984,10136"/>
 <path fill="none" stroke="rgb(217,217,217)" stroke-width="26" stroke-linejoin="round" d="M 38502,8084 L 1984,8084"/>
 <path fill="none" stroke="rgb(217,217,217)" stroke-width="26" stroke-linejoin="round" d="M 38502,6033 L 1984,6033"/>
 <path fill="none" stroke="rgb(217,217,217)" stroke-width="26" stroke-linejoin="round" d="M 38502,3980 L 1984,3980"/>
 <path fill="none" stroke="rgb(217,217,217)" stroke-width="26" stroke-linejoin="round" d="M 38502,1929 L 1984,1929"/>
 <path fill="none" stroke="rgb(217,217,217)" stroke-width="26" stroke-linejoin="round" d="M 1984,1929 L 38502,1929"/>
 <path fill="none" stroke="rgb(237,125,49)" stroke-width="79" stroke-linejoin="round" stroke-linecap="round" d="M 3288,4157 L 5896,5821 8504,6578 11112,8900 13721,5537 16330,1929 18938,1929 21546,1929 24154,1929 26764,1929 29372,1929 31980,1929 34588,1929 37196,1929"/>
 <path fill="none" stroke="rgb(112,173,71)" stroke-width="79" stroke-linejoin="round" stroke-linecap="round" d="M 3288,4642 L 5896,5663 8504,6466 11112,9995 13721,7014 16330,1929 18938,1929 21546,1929 24154,1929 26764,1929 29372,1929 31980,1929 34588,1929 37196,1929"/>
 <path fill="none" stroke="rgb(67,104,43)" stroke-width="79" stroke-linejoin="round" stroke-linecap="round" d="M 3288,2728 L 5896,2999 8504,3641 11112,2381 13721,2137 16330,1929 18938,1929 21546,1929 24154,1929 26764,1929 29372,1929 31980,1929 34588,1929 37196,1929"/>
 <path fill="none" stroke="rgb(255,205,51)" stroke-width="79" stroke-linejoin="round" stroke-linecap="round" d="M 3288,2711 L 5896,3092 8504,3728 11112,1929 13721,2103 16330,1929 18938,1929 21546,1929 24154,1929 26764,1929 29372,1929 31980,1929 34588,1929 37196,1929"/>
 <path fill="none" stroke="rgb(204,154,0)" stroke-width="79" stroke-linejoin="round" stroke-linecap="round" d="M 3288,5168 L 5896,4984 8504,6916 11112,6785 13721,5078 16330,1929 18938,1929 21546,1929 24154,1929 26764,1929 29372,1929 31980,1929 34588,1929 37196,1929"/>
 <path fill="none" stroke="rgb(244,177,131)" stroke-width="79" stroke-linejoin="round" stroke-linecap="round" d="M 3288,5528 L 5896,5139 8504,6641 11112,6994 13721,4166 16330,1929 18938,1929 21546,1929 24154,1929 26764,1929 29372,1929 31980,1929 34588,1929 37196,1929"/>
 <text class="SVGTextShape"><tspan class="TextParagraph" font-family="Calibri, sans-serif" font-size="493px" font-weight="400"><tspan class="TextPosition" x="2944" y="2398"><tspan fill="rgb(89,89,89)" stroke="none">1-2</tspan></tspan></tspan></text>
 <text class="SVGTextShape"><tspan class="TextParagraph" font-family="Calibri, sans-serif" font-size="493px" font-weight="400"><tspan class="TextPosition" x="5553" y="2398"><tspan fill="rgb(89,89,89)" stroke="none">2-3</tspan></tspan></tspan></text>
 <text class="SVGTextShape"><tspan class="TextParagraph" font-family="Calibri, sans-serif" font-size="493px" font-weight="400"><tspan class="TextPosition" x="8161" y="2398"><tspan fill="rgb(89,89,89)" stroke="none">3-4</tspan></tspan></tspan></text>
 <text class="SVGTextShape"><tspan class="TextParagraph" font-family="Calibri, sans-serif" font-size="493px" font-weight="400"><tspan class="TextPosition" x="10769" y="2398"><tspan fill="rgb(89,89,89)" stroke="none">4-5</tspan></tspan></tspan></text>
 <text class="SVGTextShape"><tspan class="TextParagraph" font-family="Calibri, sans-serif" font-size="493px" font-weight="400"><tspan class="TextPosition" x="13377" y="2398"><tspan fill="rgb(89,89,89)" stroke="none">5-6</tspan></tspan></tspan></text>
 <text class="SVGTextShape"><tspan class="TextParagraph" font-family="Calibri, sans-serif" font-size="493px" font-weight="400"><tspan class="TextPosition" x="15987" y="2398"><tspan fill="rgb(89,89,89)" stroke="none">6-7</tspan></tspan></tspan></text>
 <text class="SVGTextShape"><tspan class="TextParagraph" font-family="Calibri, sans-serif" font-size="493px" font-weight="400"><tspan class="TextPosition" x="18595" y="2398"><tspan fill="rgb(89,89,89)" stroke="none">7-8</tspan></tspan></tspan></text>
 <text class="SVGTextShape"><tspan class="TextParagraph" font-family="Calibri, sans-serif" font-size="493px" font-weight="400"><tspan class="TextPosition" x="21203" y="2398"><tspan fill="rgb(89,89,89)" stroke="none">8-9</tspan></tspan></tspan></text>
 <text class="SVGTextShape"><tspan class="TextParagraph" font-family="Calibri, sans-serif" font-size="493px" font-weight="400"><tspan class="TextPosition" x="23678" y="2398"><tspan fill="rgb(89,89,89)" stroke="none">9-10</tspan></tspan></tspan></text>
 <text class="SVGTextShape"><tspan class="TextParagraph" font-family="Calibri, sans-serif" font-size="493px" font-weight="400"><tspan class="TextPosition" x="26156" y="2398"><tspan fill="rgb(89,89,89)" stroke="none">10-11</tspan></tspan></tspan></text>
 <text class="SVGTextShape"><tspan class="TextParagraph" font-family="Calibri, sans-serif" font-size="493px" font-weight="400"><tspan class="TextPosition" x="28764" y="2398"><tspan fill="rgb(89,89,89)" stroke="none">11-12</tspan></tspan></tspan></text>
 <text class="SVGTextShape"><tspan class="TextParagraph" font-family="Calibri, sans-serif" font-size="493px" font-weight="400"><tspan class="TextPosition" x="31372" y="2398"><tspan fill="rgb(89,89,89)" stroke="none">12-13</tspan></tspan></tspan></text>
 <text class="SVGTextShape"><tspan class="TextParagraph" font-family="Calibri, sans-serif" font-size="493px" font-weight="400"><tspan class="TextPosition" x="33980" y="2398"><tspan fill="rgb(89,89,89)" stroke="none">13-14</tspan></tspan></tspan></text>
 <text class="SVGTextShape"><tspan class="TextParagraph" font-family="Calibri, sans-serif" font-size="493px" font-weight="400"><tspan class="TextPosition" x="36588" y="2398"><tspan fill="rgb(89,89,89)" stroke="none">14-15</tspan></tspan></tspan></text>
 <text class="SVGTextShape"><tspan class="TextParagraph" font-family="Calibri, sans-serif" font-size="493px" font-weight="400"><tspan class="TextPosition" x="799" y="12307"><tspan fill="rgb(89,89,89)" stroke="none">-0.25</tspan></tspan></tspan></text>
 <text class="SVGTextShape"><tspan class="TextParagraph" font-family="Calibri, sans-serif" font-size="493px" font-weight="400"><tspan class="TextPosition" x="1064" y="10255"><tspan fill="rgb(89,89,89)" stroke="none">-0.2</tspan></tspan></tspan></text>
 <text class="SVGTextShape"><tspan class="TextParagraph" font-family="Calibri, sans-serif" font-size="493px" font-weight="400"><tspan class="TextPosition" x="799" y="8203"><tspan fill="rgb(89,89,89)" stroke="none">-0.15</tspan></tspan></tspan></text>
 <text class="SVGTextShape"><tspan class="TextParagraph" font-family="Calibri, sans-serif" font-size="493px" font-weight="400"><tspan class="TextPosition" x="1064" y="6152"><tspan fill="rgb(89,89,89)" stroke="none">-0.1</tspan></tspan></tspan></text>
 <text class="SVGTextShape"><tspan class="TextParagraph" font-family="Calibri, sans-serif" font-size="493px" font-weight="400"><tspan class="TextPosition" x="799" y="4100"><tspan fill="rgb(89,89,89)" stroke="none">-0.05</tspan></tspan></tspan></text>
 <text class="SVGTextShape"><tspan class="TextParagraph" font-family="Calibri, sans-serif" font-size="493px" font-weight="400"><tspan class="TextPosition" x="1619" y="2049"><tspan fill="rgb(89,89,89)" stroke="none">0</tspan></tspan></tspan></text>
 <text class="SVGTextShape"><tspan class="TextParagraph" font-family="Calibri, sans-serif" font-size="592px" font-weight="400"><tspan class="TextPosition" x="18010" y="1059"><tspan fill="rgb(89,89,89)" stroke="none">Dog recessive</tspan></tspan></tspan></text>
 <path fill="none" stroke="rgb(237,125,49)" stroke-width="79" stroke-linejoin="round" stroke-linecap="round" d="M 9130,13259 L 9929,13259"/>
 <path fill="none" stroke="rgb(112,173,71)" stroke-width="79" stroke-linejoin="round" stroke-linecap="round" d="M 15361,13259 L 16161,13259"/>
 <path fill="none" stroke="rgb(67,104,43)" stroke-width="79" stroke-linejoin="round" stroke-linecap="round" d="M 23126,13259 L 23926,13259"/>
 <path fill="none" stroke="rgb(255,205,51)" stroke-width="79" stroke-linejoin="round" stroke-linecap="round" d="M 9130,13862 L 9929,13862"/>
 <path fill="none" stroke="rgb(204,154,0)" stroke-width="79" stroke-linejoin="round" stroke-linecap="round" d="M 15361,13862 L 16161,13862"/>
 <path fill="none" stroke="rgb(244,177,131)" stroke-width="79" stroke-linejoin="round" stroke-linecap="round" d="M 23126,13862 L 23926,13862"/>
 <text class="SVGTextShape"><tspan class="TextParagraph" font-family="Calibri, sans-serif" font-size="493px" font-weight="400"><tspan class="TextPosition" x="10037" y="13377"><tspan fill="rgb(89,89,89)" stroke="none">SpeedInheritedRecessive</tspan></tspan></tspan></text>
 <text class="SVGTextShape"><tspan class="TextParagraph" font-family="Calibri, sans-serif" font-size="493px" font-weight="400"><tspan class="TextPosition" x="16269" y="13377"><tspan fill="rgb(89,89,89)" stroke="none">SpeedRecessive</tspan></tspan></tspan></text>
 <text class="SVGTextShape"><tspan class="TextParagraph" font-family="Calibri, sans-serif" font-size="493px" font-weight="400"><tspan class="TextPosition" x="24033" y="13377"><tspan fill="rgb(89,89,89)" stroke="none">MetabolismInheritedRecessive</tspan></tspan></tspan></text>
 <text class="SVGTextShape"><tspan class="TextParagraph" font-family="Calibri, sans-serif" font-size="493px" font-weight="400"><tspan class="TextPosition" x="10037" y="13979"><tspan fill="rgb(89,89,89)" stroke="none">MetabolismRecessive</tspan></tspan></tspan></text>
 <text class="SVGTextShape"><tspan class="TextParagraph" font-family="Calibri, sans-serif" font-size="493px" font-weight="400"><tspan class="TextPosition" x="16269" y="13979"><tspan fill="rgb(89,89,89)" stroke="none">ReproductionInheritedRecessive</tspan></tspan></tspan></text>
 <text class="SVGTextShape"><tspan class="TextParagraph" font-family="Calibri, sans-serif" font-size="493px" font-weight="400"><tspan class="TextPosition" x="24033" y="13979"><tspan fill="rgb(89,89,89)" stroke="none">ReproductionRecessive</tspan></tspan></tspan></text>
</svg>