<?xml version="1.0" encoding="UTF-8"?>
<!DOCTYPE svg PUBLIC "-//W3C//DTD SVG 1.1//EN" "http://www.w3.org/Graphics/SVG/1.1/DTD/svg11.dtd">
<svg width="367mm" height="169mm" viewBox="0 0 36700 16900" version="1.1" xmlns="http://www.w3.org/2000/svg" xmlns:xlink="http://www.w3.org/1999/xlink" stroke-width="28.222" stroke-linejoin="round" xml:space="preserve">
 <path fill="rgb(255,255,255)" stroke="none" d="M 18345,16854 L 13,16854 13,13 36676,13 36676,16854 18345,16854 Z"/>
 <path fill="none" stroke="rgb(217,217,217)" stroke-width="26" stroke-linejoin="round" d="M 18345,16854 L 13,16854 13,13 36676,13 36676,16854 18345,16854 Z"/>
 <path fill="none" stroke="rgb(217,217,217)" stroke-width="26" stroke-linejoin="round" d="M 35944,14028 L 2010,14028"/>
 <path fill="none" stroke="rgb(217,217,217)" stroke-width="26" stroke-linejoin="round" d="M 35944,12715 L 2010,12715"/>
 <path fill="none" stroke="rgb(217,217,217)" stroke-width="26" stroke-linejoin="round" d="M 35944,11403 L 2010,11403"/>
 <path fill="none" stroke="rgb(217,217,217)" stroke-width="26" stroke-linejoin="round" d="M 35944,10090 L 2010,10090"/>
 <path fill="none" stroke="rgb(217,217,217)" stroke-width="26" stroke-linejoin="round" d="M 35944,8778 L 2010,8778"/>
 <path fill="none" stroke="rgb(217,217,217)" stroke-width="26" stroke-linejoin="round" d="M 35944,7466 L 2010,7466"/>
 <path fill="none" stroke="rgb(217,217,217)" stroke-width="26" stroke-linejoin="round" d="M 35944,6153 L 2010,6153"/>
 <path fill="none" stroke="rgb(217,217,217)" stroke-width="26" stroke-linejoin="round" d="M 35944,4841 L 2010,4841"/>
 <path fill="none" stroke="rgb(217,217,217)" stroke-width="26" stroke-linejoin="round" d="M 35944,3529 L 2010,3529"/>
 <path fill="none" stroke="rgb(217,217,217)" stroke-width="26" stroke-linejoin="round" d="M 35944,2216 L 2010,2216"/>
 <path fill="none" stroke="rgb(217,217,217)" stroke-width="35" stroke-linejoin="round" d="M 2010,11403 L 35944,11403"/>
 <path fill="none" stroke="rgb(91,155,213)" stroke-width="97" stroke-linejoin="round" stroke-linecap="round" d="M 2747,9608 L 4222,9875 5698,10901 7173,10357 8649,10918 10124,10841 11599,10648 13074,11147 14550,10622 16025,10973 17501,11091 18976,10956 20451,11498 21927,10810 23402,10719 24878,10839 26353,10819 27829,10826 29303,10591 30779,10723 32254,11150 33730,10762 35205,11203"/>
 <path fill="none" stroke="rgb(237,125,49)" stroke-width="97" stroke-linejoin="round" stroke-linecap="round" d="M 2747,9677 L 4222,10669 5698,10839 7173,10818 8649,10947 10124,10903 11599,11339 13074,10689 14550,10989 16025,11036 17501,11088 18976,10895 20451,11506 21927,11269 23402,10898 24878,11426 26353,10464 27829,10821 29303,10612 30779,10837 32254,11093 33730,10994 35205,10600"/>
 <path fill="none" stroke="rgb(165,165,165)" stroke-width="97" stroke-linejoin="round" stroke-linecap="round" d="M 2747,3387 L 4222,7329 5698,9948 7173,8836 8649,8924 10124,9896 11599,10591 13074,9776 14550,10084 16025,10385 17501,9580 18976,7579 20451,13089 21927,10587 23402,8891 24878,12511 26353,8756 27829,10097 29303,7060 30779,9508 32254,10616 33730,9631 35205,11123"/>
 <text class="SVGTextShape" transform="rotate(-39.9 2272 15076)"><tspan class="TextParagraph" font-family="Calibri, sans-serif" font-size="563px" font-weight="400"><tspan class="TextPosition" x="2272" y="15076"><tspan fill="rgb(89,89,89)" stroke="none">1-2</tspan></tspan></tspan></text>
 <text class="SVGTextShape" transform="rotate(-39.9 3747 15076)"><tspan class="TextParagraph" font-family="Calibri, sans-serif" font-size="563px" font-weight="400"><tspan class="TextPosition" x="3747" y="15076"><tspan fill="rgb(89,89,89)" stroke="none">2-3</tspan></tspan></tspan></text>
 <text class="SVGTextShape" transform="rotate(-39.9 5222 15076)"><tspan class="TextParagraph" font-family="Calibri, sans-serif" font-size="563px" font-weight="400"><tspan class="TextPosition" x="5222" y="15076"><tspan fill="rgb(89,89,89)" stroke="none">3-4</tspan></tspan></tspan></text>
 <text class="SVGTextShape" transform="rotate(-39.9 6697 15076)"><tspan class="TextParagraph" font-family="Calibri, sans-serif" font-size="563px" font-weight="400"><tspan class="TextPosition" x="6697" y="15076"><tspan fill="rgb(89,89,89)" stroke="none">4-5</tspan></tspan></tspan></text>
 <text class="SVGTextShape" transform="rotate(-39.9 8173 15076)"><tspan class="TextParagraph" font-family="Calibri, sans-serif" font-size="563px" font-weight="400"><tspan class="TextPosition" x="8173" y="15076"><tspan fill="rgb(89,89,89)" stroke="none">5-6</tspan></tspan></tspan></text>
 <text class="SVGTextShape" transform="rotate(-39.9 9648 15076)"><tspan class="TextParagraph" font-family="Calibri, sans-serif" font-size="563px" font-weight="400"><tspan class="TextPosition" x="9648" y="15076"><tspan fill="rgb(89,89,89)" stroke="none">6-7</tspan></tspan></tspan></text>
 <text class="SVGTextShape" transform="rotate(-39.9 11124 15076)"><tspan class="TextParagraph" font-family="Calibri, sans-serif" font-size="563px" font-weight="400"><tspan class="TextPosition" x="11124" y="15076"><tspan fill="rgb(89,89,89)" stroke="none">7-8</tspan></tspan></tspan></text>
 <text class="SVGTextShape" transform="rotate(-39.9 12599 15076)"><tspan class="TextParagraph" font-family="Calibri, sans-serif" font-size="563px" font-weight="400"><tspan class="TextPosition" x="12599" y="15076"><tspan fill="rgb(89,89,89)" stroke="none">8-9</tspan></tspan></tspan></text>
 <text class="SVGTextShape" transform="rotate(-39.9 13852 15263)"><tspan class="TextParagraph" font-family="Calibri, sans-serif" font-size="563px" font-weight="400"><tspan class="TextPosition" x="13852" y="15263"><tspan fill="rgb(89,89,89)" stroke="none">9-10</tspan></tspan></tspan></text>
 <text class="SVGTextShape" transform="rotate(-39.9 15104 15450)"><tspan class="TextParagraph" font-family="Calibri, sans-serif" font-size="563px" font-weight="400"><tspan class="TextPosition" x="15104" y="15450"><tspan fill="rgb(89,89,89)" stroke="none">10-11</tspan></tspan></tspan></text>
 <text class="SVGTextShape" transform="rotate(-39.9 16580 15450)"><tspan class="TextParagraph" font-family="Calibri, sans-serif" font-size="563px" font-weight="400"><tspan class="TextPosition" x="16580" y="15450"><tspan fill="rgb(89,89,89)" stroke="none">11-12</tspan></tspan></tspan></text>
 <text class="SVGTextShape" transform="rotate(-39.9 18055 15450)"><tspan class="TextParagraph" font-family="Calibri, sans-serif" font-size="563px" font-weight="400"><tspan class="TextPosition" x="18055" y="15450"><tspan fill="rgb(89,89,89)" stroke="none">12-13</tspan></tspan></tspan></text>
 <text class="SVGTextShape" transform="rotate(-39.9 19530 15450)"><tspan class="TextParagraph" font-family="Calibri, sans-serif" font-size="563px" font-weight="400"><tspan class="TextPosition" x="19530" y="15450"><tspan fill="rgb(89,89,89)" stroke="none">13-14</tspan></tspan></tspan></text>
 <text class="SVGTextShape" transform="rotate(-39.9 21006 15450)"><tspan class="TextParagraph" font-family="Calibri, sans-serif" font-size="563px" font-weight="400"><tspan class="TextPosition" x="21006" y="15450"><tspan fill="rgb(89,89,89)" stroke="none">14-15</tspan></tspan></tspan></text>
 <text class="SVGTextShape" transform="rotate(-39.9 22481 15450)"><tspan class="TextParagraph" font-family="Calibri, sans-serif" font-size="563px" font-weight="400"><tspan class="TextPosition" x="22481" y="15450"><tspan fill="rgb(89,89,89)" stroke="none">15-16</tspan></tspan></tspan></text>
 <text class="SVGTextShape" transform="rotate(-39.9 23957 15450)"><tspan class="TextParagraph" font-family="Calibri, sans-serif" font-size="563px" font-weight="400"><tspan class="TextPosition" x="23957" y="15450"><tspan fill="rgb(89,89,89)" stroke="none">16-17</tspan></tspan></tspan></text>
 <text class="SVGTextShape" transform="rotate(-39.9 25432 15450)"><tspan class="TextParagraph" font-family="Calibri, sans-serif" font-size="563px" font-weight="400"><tspan class="TextPosition" x="25432" y="15450"><tspan fill="rgb(89,89,89)" stroke="none">17-18</tspan></tspan></tspan></text>
 <text class="SVGTextShape" transform="rotate(-39.9 26907 15450)"><tspan class="TextParagraph" font-family="Calibri, sans-serif" font-size="563px" font-weight="400"><tspan class="TextPosition" x="26907" y="15450"><tspan fill="rgb(89,89,89)" stroke="none">18-19</tspan></tspan></tspan></text>
 <text class="SVGTextShape" transform="rotate(-39.9 28382 15450)"><tspan class="TextParagraph" font-family="Calibri, sans-serif" font-size="563px" font-weight="400"><tspan class="TextPosition" x="28382" y="15450"><tspan fill="rgb(89,89,89)" stroke="none">19-20</tspan></tspan></tspan></text>
 <text class="SVGTextShape" transform="rotate(-39.9 29858 15450)"><tspan class="TextParagraph" font-family="Calibri, sans-serif" font-size="563px" font-weight="400"><tspan class="TextPosition" x="29858" y="15450"><tspan fill="rgb(89,89,89)" stroke="none">20-21</tspan></tspan></tspan></text>
 <text class="SVGTextShape" transform="rotate(-39.9 31333 15450)"><tspan class="TextParagraph" font-family="Calibri, sans-serif" font-size="563px" font-weight="400"><tspan class="TextPosition" x="31333" y="15450"><tspan fill="rgb(89,89,89)" stroke="none">21-22</tspan></tspan></tspan></text>
 <text class="SVGTextShape" transform="rotate(-39.9 32809 15450)"><tspan class="TextParagraph" font-family="Calibri, sans-serif" font-size="563px" font-weight="400"><tspan class="TextPosition" x="32809" y="15450"><tspan fill="rgb(89,89,89)" stroke="none">22-23</tspan></tspan></tspan></text>
 <text class="SVGTextShape" transform="rotate(-39.9 34284 15450)"><tspan class="TextParagraph" font-family="Calibri, sans-serif" font-size="563px" font-weight="400"><tspan class="TextPosition" x="34284" y="15450"><tspan fill="rgb(89,89,89)" stroke="none">23-24</tspan></tspan></tspan></text>
 <text class="SVGTextShape"><tspan class="TextParagraph" font-family="Calibri, sans-serif" font-size="563px" font-weight="400"><tspan class="TextPosition" x="746" y="14173"><tspan fill="rgb(89,89,89)" stroke="none">-0.04</tspan></tspan></tspan></text>
 <text class="SVGTextShape"><tspan class="TextParagraph" font-family="Calibri, sans-serif" font-size="563px" font-weight="400"><tspan class="TextPosition" x="746" y="12860"><tspan fill="rgb(89,89,89)" stroke="none">-0.02</tspan></tspan></tspan></text>
 <text class="SVGTextShape"><tspan class="TextParagraph" font-family="Calibri, sans-serif" font-size="563px" font-weight="400"><tspan class="TextPosition" x="1619" y="11548"><tspan fill="rgb(89,89,89)" stroke="none">0</tspan></tspan></tspan></text>
 <text class="SVGTextShape"><tspan class="TextParagraph" font-family="Calibri, sans-serif" font-size="563px" font-weight="400"><tspan class="TextPosition" x="905" y="10236"><tspan fill="rgb(89,89,89)" stroke="none">0.02</tspan></tspan></tspan></text>
 <text class="SVGTextShape"><tspan class="TextParagraph" font-family="Calibri, sans-serif" font-size="563px" font-weight="400"><tspan class="TextPosition" x="905" y="8923"><tspan fill="rgb(89,89,89)" stroke="none">0.04</tspan></tspan></tspan></text>
 <text class="SVGTextShape"><tspan class="TextParagraph" font-family="Calibri, sans-serif" font-size="563px" font-weight="400"><tspan class="TextPosition" x="905" y="7611"><tspan fill="rgb(89,89,89)" stroke="none">0.06</tspan></tspan></tspan></text>
 <text class="SVGTextShape"><tspan class="TextParagraph" font-family="Calibri, sans-serif" font-size="563px" font-weight="400"><tspan class="TextPosition" x="905" y="6298"><tspan fill="rgb(89,89,89)" stroke="none">0.08</tspan></tspan></tspan></text>
 <text class="SVGTextShape"><tspan class="TextParagraph" font-family="Calibri, sans-serif" font-size="563px" font-weight="400"><tspan class="TextPosition" x="1196" y="4987"><tspan fill="rgb(89,89,89)" stroke="none">0.1</tspan></tspan></tspan></text>
 <text class="SVGTextShape"><tspan class="TextParagraph" font-family="Calibri, sans-serif" font-size="563px" font-weight="400"><tspan class="TextPosition" x="905" y="3675"><tspan fill="rgb(89,89,89)" stroke="none">0.12</tspan></tspan></tspan></text>
 <text class="SVGTextShape"><tspan class="TextParagraph" font-family="Calibri, sans-serif" font-size="563px" font-weight="400"><tspan class="TextPosition" x="905" y="2363"><tspan fill="rgb(89,89,89)" stroke="none">0.14</tspan></tspan></tspan></text>
 <text class="SVGTextShape"><tspan class="TextParagraph" font-family="Calibri, sans-serif" font-size="676px" font-weight="700"><tspan class="TextPosition" x="13942" y="1216"><tspan fill="rgb(89,89,89)" stroke="none">Chicken comparison to parents</tspan></tspan></tspan></text>
 <path fill="none" stroke="rgb(91,155,213)" stroke-width="97" stroke-linejoin="round" stroke-linecap="round" d="M 13028,16463 L 13828,16463"/>
 <path fill="none" stroke="rgb(237,125,49)" stroke-width="97" stroke-linejoin="round" stroke-linecap="round" d="M 15700,16463 L 16500,16463"/>
 <path fill="none" stroke="rgb(165,165,165)" stroke-width="97" stroke-linejoin="round" stroke-linecap="round" d="M 19695,16463 L 20494,16463"/>
 <text class="SVGTextShape"><tspan class="TextParagraph" font-family="Calibri, sans-serif" font-size="563px" font-weight="400"><tspan class="TextPosition" x="13952" y="16607"><tspan fill="rgb(89,89,89)" stroke="none">Speed</tspan></tspan></tspan></text>
 <text class="SVGTextShape"><tspan class="TextParagraph" font-family="Calibri, sans-serif" font-size="563px" font-weight="400"><tspan class="TextPosition" x="16624" y="16607"><tspan fill="rgb(89,89,89)" stroke="none">Metabolism</tspan></tspan></tspan></text>
 <text class="SVGTextShape"><tspan class="TextParagraph" font-family="Calibri, sans-serif" font-size="563px" font-weight="400"><tspan class="TextPosition" x="20618" y="16607"><tspan fill="rgb(89,89,89)" stroke="none">Reproduction</tspan></tspan></tspan></text>
</svg>