<?xml version="1.0" encoding="UTF-8"?>
<!DOCTYPE svg PUBLIC "-//W3C//DTD SVG 1.1//EN" "http://www.w3.org/Graphics/SVG/1.1/DTD/svg11.dtd">
<svg width="393mm" height="142mm" viewBox="0 0 39300 14200" version="1.1" xmlns="http://www.w3.org/2000/svg" xmlns:xlink="http://www.w3.org/1999/xlink" stroke-width="28.222" stroke-linejoin="round" xml:space="preserve">
 <path fill="rgb(255,255,255)" stroke="none" d="M 19650,14214 L 13,14214 13,13 39287,13 39287,14214 19650,14214 Z"/>
 <path fill="none" stroke="rgb(217,217,217)" stroke-width="26" stroke-linejoin="round" d="M 19650,14214 L 13,14214 13,13 39287,13 39287,14214 19650,14214 Z"/>
 <path fill="none" stroke="rgb(217,217,217)" stroke-width="26" stroke-linejoin="round" d="M 38502,12187 L 1719,12187"/>
 <path fill="none" stroke="rgb(217,217,217)" stroke-width="26" stroke-linejoin="round" d="M 38502,10722 L 1719,10722"/>
 <path fill="none" stroke="rgb(217,217,217)" stroke-width="26" stroke-linejoin="round" d="M 38502,9256 L 1719,9256"/>
 <path fill="none" stroke="rgb(217,217,217)" stroke-width="26" stroke-linejoin="round" d="M 38502,7791 L 1719,7791"/>
 <path fill="none" stroke="rgb(217,217,217)" stroke-width="26" stroke-linejoin="round" d="M 38502,6325 L 1719,6325"/>
 <path fill="none" stroke="rgb(217,217,217)" stroke-width="26" stroke-linejoin="round" d="M 38502,4860 L 1719,4860"/>
 <path fill="none" stroke="rgb(217,217,217)" stroke-width="26" stroke-linejoin="round" d="M 38502,3395 L 1719,3395"/>
 <path fill="none" stroke="rgb(217,217,217)" stroke-width="26" stroke-linejoin="round" d="M 38502,1928 L 1719,1928"/>
 <path fill="none" stroke="rgb(217,217,217)" stroke-width="26" stroke-linejoin="round" d="M 1719,3395 L 38502,3395"/>
 <path fill="none" stroke="rgb(237,125,49)" stroke-width="79" stroke-linejoin="round" stroke-linecap="round" d="M 3032,4178 L 5659,4473 8286,4869 10915,4966 13542,5235 16169,5089 18796,5524 21423,3395 24050,3395 26678,3395 29306,3395 31933,3395 34560,3395 37187,3395"/>
 <path fill="none" stroke="rgb(112,173,71)" stroke-width="79" stroke-linejoin="round" stroke-linecap="round" d="M 3032,4045 L 5659,4503 8286,4926 10915,4956 13542,5230 16169,5155 18796,5524 21423,3395 24050,3395 26678,3395 29306,3395 31933,3395 34560,3395 37187,3395"/>
 <path fill="none" stroke="rgb(67,104,43)" stroke-width="79" stroke-linejoin="round" stroke-linecap="round" d="M 3032,3617 L 5659,3620 8286,3686 10915,3730 13542,3660 16169,3544 18796,2714 21423,3395 24050,3395 26678,3395 29306,3395 31933,3395 34560,3395 37187,3395"/>
 <path fill="none" stroke="rgb(255,205,51)" stroke-width="79" stroke-linejoin="round" stroke-linecap="round" d="M 3032,3536 L 5659,3611 8286,3713 10915,3717 13542,3664 16169,3504 18796,2483 21423,3395 24050,3395 26678,3395 29306,3395 31933,3395 34560,3395 37187,3395"/>
 <path fill="none" stroke="rgb(204,154,0)" stroke-width="79" stroke-linejoin="round" stroke-linecap="round" d="M 3032,4164 L 5659,4394 8286,4323 10915,4396 13542,4486 16169,4807 18796,11694 21423,3395 24050,3395 26678,3395 29306,3395 31933,3395 34560,3395 37187,3395"/>
 <path fill="none" stroke="rgb(244,177,131)" stroke-width="79" stroke-linejoin="round" stroke-linecap="round" d="M 3032,4280 L 5659,4337 8286,4274 10915,4400 13542,4486 16169,4827 18796,11694 21423,3395 24050,3395 26678,3395 29306,3395 31933,3395 34560,3395 37187,3395"/>
 <text class="SVGTextShape"><tspan class="TextParagraph" font-family="Calibri, sans-serif" font-size="493px" font-weight="400"><tspan class="TextPosition" x="2689" y="3864"><tspan fill="rgb(89,89,89)" stroke="none">1-2</tspan></tspan></tspan></text>
 <text class="SVGTextShape"><tspan class="TextParagraph" font-family="Calibri, sans-serif" font-size="493px" font-weight="400"><tspan class="TextPosition" x="5316" y="3864"><tspan fill="rgb(89,89,89)" stroke="none">2-3</tspan></tspan></tspan></text>
 <text class="SVGTextShape"><tspan class="TextParagraph" font-family="Calibri, sans-serif" font-size="493px" font-weight="400"><tspan class="TextPosition" x="7943" y="3864"><tspan fill="rgb(89,89,89)" stroke="none">3-4</tspan></tspan></tspan></text>
 <text class="SVGTextShape"><tspan class="TextParagraph" font-family="Calibri, sans-serif" font-size="493px" font-weight="400"><tspan class="TextPosition" x="10571" y="3864"><tspan fill="rgb(89,89,89)" stroke="none">4-5</tspan></tspan></tspan></text>
 <text class="SVGTextShape"><tspan class="TextParagraph" font-family="Calibri, sans-serif" font-size="493px" font-weight="400"><tspan class="TextPosition" x="13198" y="3864"><tspan fill="rgb(89,89,89)" stroke="none">5-6</tspan></tspan></tspan></text>
 <text class="SVGTextShape"><tspan class="TextParagraph" font-family="Calibri, sans-serif" font-size="493px" font-weight="400"><tspan class="TextPosition" x="15826" y="3864"><tspan fill="rgb(89,89,89)" stroke="none">6-7</tspan></tspan></tspan></text>
 <text class="SVGTextShape"><tspan class="TextParagraph" font-family="Calibri, sans-serif" font-size="493px" font-weight="400"><tspan class="TextPosition" x="18453" y="3864"><tspan fill="rgb(89,89,89)" stroke="none">7-8</tspan></tspan></tspan></text>
 <text class="SVGTextShape"><tspan class="TextParagraph" font-family="Calibri, sans-serif" font-size="493px" font-weight="400"><tspan class="TextPosition" x="21080" y="3864"><tspan fill="rgb(89,89,89)" stroke="none">8-9</tspan></tspan></tspan></text>
 <text class="SVGTextShape"><tspan class="TextParagraph" font-family="Calibri, sans-serif" font-size="493px" font-weight="400"><tspan class="TextPosition" x="23574" y="3864"><tspan fill="rgb(89,89,89)" stroke="none">9-10</tspan></tspan></tspan></text>
 <text class="SVGTextShape"><tspan class="TextParagraph" font-family="Calibri, sans-serif" font-size="493px" font-weight="400"><tspan class="TextPosition" x="26070" y="3864"><tspan fill="rgb(89,89,89)" stroke="none">10-11</tspan></tspan></tspan></text>
 <text class="SVGTextShape"><tspan class="TextParagraph" font-family="Calibri, sans-serif" font-size="493px" font-weight="400"><tspan class="TextPosition" x="28698" y="3864"><tspan fill="rgb(89,89,89)" stroke="none">11-12</tspan></tspan></tspan></text>
 <text class="SVGTextShape"><tspan class="TextParagraph" font-family="Calibri, sans-serif" font-size="493px" font-weight="400"><tspan class="TextPosition" x="31325" y="3864"><tspan fill="rgb(89,89,89)" stroke="none">12-13</tspan></tspan></tspan></text>
 <text class="SVGTextShape"><tspan class="TextParagraph" font-family="Calibri, sans-serif" font-size="493px" font-weight="400"><tspan class="TextPosition" x="33952" y="3864"><tspan fill="rgb(89,89,89)" stroke="none">13-14</tspan></tspan></tspan></text>
 <text class="SVGTextShape"><tspan class="TextParagraph" font-family="Calibri, sans-serif" font-size="493px" font-weight="400"><tspan class="TextPosition" x="36579" y="3864"><tspan fill="rgb(89,89,89)" stroke="none">14-15</tspan></tspan></tspan></text>
 <text class="SVGTextShape"><tspan class="TextParagraph" font-family="Calibri, sans-serif" font-size="493px" font-weight="400"><tspan class="TextPosition" x="799" y="12306"><tspan fill="rgb(89,89,89)" stroke="none">-0.6</tspan></tspan></tspan></text>
 <text class="SVGTextShape"><tspan class="TextParagraph" font-family="Calibri, sans-serif" font-size="493px" font-weight="400"><tspan class="TextPosition" x="799" y="10841"><tspan fill="rgb(89,89,89)" stroke="none">-0.5</tspan></tspan></tspan></text>
 <text class="SVGTextShape"><tspan class="TextParagraph" font-family="Calibri, sans-serif" font-size="493px" font-weight="400"><tspan class="TextPosition" x="799" y="9376"><tspan fill="rgb(89,89,89)" stroke="none">-0.4</tspan></tspan></tspan></text>
 <text class="SVGTextShape"><tspan class="TextParagraph" font-family="Calibri, sans-serif" font-size="493px" font-weight="400"><tspan class="TextPosition" x="799" y="7910"><tspan fill="rgb(89,89,89)" stroke="none">-0.3</tspan></tspan></tspan></text>
 <text class="SVGTextShape"><tspan class="TextParagraph" font-family="Calibri, sans-serif" font-size="493px" font-weight="400"><tspan class="TextPosition" x="799" y="6444"><tspan fill="rgb(89,89,89)" stroke="none">-0.2</tspan></tspan></tspan></text>
 <text class="SVGTextShape"><tspan class="TextParagraph" font-family="Calibri, sans-serif" font-size="493px" font-weight="400"><tspan class="TextPosition" x="799" y="4979"><tspan fill="rgb(89,89,89)" stroke="none">-0.1</tspan></tspan></tspan></text>
 <text class="SVGTextShape"><tspan class="TextParagraph" font-family="Calibri, sans-serif" font-size="493px" font-weight="400"><tspan class="TextPosition" x="1354" y="3514"><tspan fill="rgb(89,89,89)" stroke="none">0</tspan></tspan></tspan></text>
 <text class="SVGTextShape"><tspan class="TextParagraph" font-family="Calibri, sans-serif" font-size="493px" font-weight="400"><tspan class="TextPosition" x="958" y="2048"><tspan fill="rgb(89,89,89)" stroke="none">0.1</tspan></tspan></tspan></text>
 <text class="SVGTextShape"><tspan class="TextParagraph" font-family="Calibri, sans-serif" font-size="592px" font-weight="400"><tspan class="TextPosition" x="18010" y="1059"><tspan fill="rgb(89,89,89)" stroke="none">Dog recessive</tspan></tspan></tspan></text>
 <path fill="none" stroke="rgb(237,125,49)" stroke-width="79" stroke-linejoin="round" stroke-linecap="round" d="M 9130,13259 L 9929,13259"/>
 <path fill="none" stroke="rgb(112,173,71)" stroke-width="79" stroke-linejoin="round" stroke-linecap="round" d="M 15361,13259 L 16161,13259"/>
 <path fill="none" stroke="rgb(67,104,43)" stroke-width="79" stroke-linejoin="round" stroke-linecap="round" d="M 23126,13259 L 23926,13259"/>
 <path fill="none" stroke="rgb(255,205,51)" stroke-width="79" stroke-linejoin="round" stroke-linecap="round" d="M 9130,13862 L 9929,13862"/>
 <path fill="none" stroke="rgb(204,154,0)" stroke-width="79" stroke-linejoin="round" stroke-linecap="round" d="M 15361,13862 L 16161,13862"/>
 <path fill="none" stroke="rgb(244,177,131)" stroke-width="79" stroke-linejoin="round" stroke-linecap="round" d="M 23126,13862 L 23926,13862"/>
 <text class="SVGTextShape"><tspan class="TextParagraph" font-family="Calibri, sans-serif" font-size="493px" font-weight="400"><tspan class="TextPosition" x="10037" y="13377"><tspan fill="rgb(89,89,89)" stroke="none">SpeedInheritedRecessive</tspan></tspan></tspan></text>
 <text class="SVGTextShape"><tspan class="TextParagraph" font-family="Calibri, sans-serif" font-size="493px" font-weight="400"><tspan class="TextPosition" x="16269" y="13377"><tspan fill="rgb(89,89,89)" stroke="none">SpeedRecessive</tspan></tspan></tspan></text>
 <text class="SVGTextShape"><tspan class="TextParagraph" font-family="Calibri, sans-serif" font-size="493px" font-weight="400"><tspan class="TextPosition" x="24033" y="13377"><tspan fill="rgb(89,89,89)" stroke="none">MetabolismInheritedRecessive</tspan></tspan></tspan></text>
 <text class="SVGTextShape"><tspan class="TextParagraph" font-family="Calibri, sans-serif" font-size="493px" font-weight="400"><tspan class="TextPosition" x="10037" y="13979"><tspan fill="rgb(89,89,89)" stroke="none">MetabolismRecessive</tspan></tspan></tspan></text>
 <text class="SVGTextShape"><tspan class="TextParagraph" font-family="Calibri, sans-serif" font-size="493px" font-weight="400"><tspan class="TextPosition" x="16269" y="13979"><tspan fill="rgb(89,89,89)" stroke="none">ReproductionInheritedRecessive</tspan></tspan></tspan></text>
 <text class="SVGTextShape"><tspan class="TextParagraph" font-family="Calibri, sans-serif" font-size="493px" font-weight="400"><tspan class="TextPosition" x="24033" y="13979"><tspan fill="rgb(89,89,89)" stroke="none">ReproductionRecessive</tspan></tspan></tspan></text>
</svg>