<?xml version="1.0" encoding="UTF-8"?>
<!DOCTYPE svg PUBLIC "-//W3C//DTD SVG 1.1//EN" "http://www.w3.org/Graphics/SVG/1.1/DTD/svg11.dtd">
<svg width="366mm" height="169mm" viewBox="0 0 36600 16900" version="1.1" xmlns="http://www.w3.org/2000/svg" xmlns:xlink="http://www.w3.org/1999/xlink" stroke-width="28.222" stroke-linejoin="round" xml:space="preserve">
 <path fill="rgb(255,255,255)" stroke="none" d="M 18300,16888 L 13,16888 13,13 36587,13 36587,16888 18300,16888 Z"/>
 <path fill="none" stroke="rgb(217,217,217)" stroke-width="26" stroke-linejoin="round" d="M 18300,16888 L 13,16888 13,13 36587,13 36587,16888 18300,16888 Z"/>
 <path fill="none" stroke="rgb(217,217,217)" stroke-width="26" stroke-linejoin="round" d="M 35855,14210 L 1559,14210"/>
 <path fill="none" stroke="rgb(217,217,217)" stroke-width="26" stroke-linejoin="round" d="M 35855,12497 L 1559,12497"/>
 <path fill="none" stroke="rgb(217,217,217)" stroke-width="26" stroke-linejoin="round" d="M 35855,10784 L 1559,10784"/>
 <path fill="none" stroke="rgb(217,217,217)" stroke-width="26" stroke-linejoin="round" d="M 35855,9072 L 1559,9072"/>
 <path fill="none" stroke="rgb(217,217,217)" stroke-width="26" stroke-linejoin="round" d="M 35855,7358 L 1559,7358"/>
 <path fill="none" stroke="rgb(217,217,217)" stroke-width="26" stroke-linejoin="round" d="M 35855,5646 L 1559,5646"/>
 <path fill="none" stroke="rgb(217,217,217)" stroke-width="26" stroke-linejoin="round" d="M 35855,3933 L 1559,3933"/>
 <path fill="none" stroke="rgb(217,217,217)" stroke-width="26" stroke-linejoin="round" d="M 35855,2219 L 1559,2219"/>
 <path fill="none" stroke="rgb(217,217,217)" stroke-width="35" stroke-linejoin="round" d="M 1559,14210 L 35855,14210"/>
 <path fill="none" stroke="rgb(68,114,196)" stroke-width="97" stroke-linejoin="round" stroke-linecap="round" d="M 2338,13633 L 3897,13198 5456,13099 7015,12952 8574,12899 10133,12684 11691,12513 13250,12483 14809,12506 16368,12452 17927,12132 19487,11975 21045,12066 22604,11944 24163,11743 25722,11584 27281,11499 28840,11371 30399,11000 31957,10791 33516,10708 35075,10397"/>
 <path fill="none" stroke="rgb(183,183,183)" stroke-width="97" stroke-linejoin="round" stroke-linecap="round" d="M 2338,13742 L 3897,13466 5456,13335 7015,13258 8574,13203 10133,12944 11691,12986 13250,12801 14809,12638 16368,12523 17927,12274 19487,12103 21045,12100 22604,12039 24163,11840 25722,11845 27281,11612 28840,11420 30399,11194 31957,10987 33516,10924 35075,10743"/>
 <path fill="none" stroke="rgb(157,195,230)" stroke-width="97" stroke-linejoin="round" stroke-linecap="round" d="M 2338,12251 L 3897,10463 5456,10759 7015,10466 8574,10084 10133,9500 11691,9453 13250,9047 14809,8802 16368,8641 17927,8312 19487,7604 21045,7817 22604,7301 24163,6581 25722,6967 27281,6404 28840,5714 30399,5028 31957,4297 33516,3938 35075,3240"/>
 <text class="SVGTextShape" transform="rotate(-39.9 1863 15109)"><tspan class="TextParagraph" font-family="Calibri, sans-serif" font-size="563px" font-weight="400"><tspan class="TextPosition" x="1863" y="15109"><tspan fill="rgb(89,89,89)" stroke="none">1-2</tspan></tspan></tspan></text>
 <text class="SVGTextShape" transform="rotate(-39.9 3422 15109)"><tspan class="TextParagraph" font-family="Calibri, sans-serif" font-size="563px" font-weight="400"><tspan class="TextPosition" x="3422" y="15109"><tspan fill="rgb(89,89,89)" stroke="none">2-3</tspan></tspan></tspan></text>
 <text class="SVGTextShape" transform="rotate(-39.9 4981 15109)"><tspan class="TextParagraph" font-family="Calibri, sans-serif" font-size="563px" font-weight="400"><tspan class="TextPosition" x="4981" y="15109"><tspan fill="rgb(89,89,89)" stroke="none">3-4</tspan></tspan></tspan></text>
 <text class="SVGTextShape" transform="rotate(-39.9 6539 15109)"><tspan class="TextParagraph" font-family="Calibri, sans-serif" font-size="563px" font-weight="400"><tspan class="TextPosition" x="6539" y="15109"><tspan fill="rgb(89,89,89)" stroke="none">4-5</tspan></tspan></tspan></text>
 <text class="SVGTextShape" transform="rotate(-39.9 8098 15109)"><tspan class="TextParagraph" font-family="Calibri, sans-serif" font-size="563px" font-weight="400"><tspan class="TextPosition" x="8098" y="15109"><tspan fill="rgb(89,89,89)" stroke="none">5-6</tspan></tspan></tspan></text>
 <text class="SVGTextShape" transform="rotate(-39.9 9657 15109)"><tspan class="TextParagraph" font-family="Calibri, sans-serif" font-size="563px" font-weight="400"><tspan class="TextPosition" x="9657" y="15109"><tspan fill="rgb(89,89,89)" stroke="none">6-7</tspan></tspan></tspan></text>
 <text class="SVGTextShape" transform="rotate(-39.9 11216 15109)"><tspan class="TextParagraph" font-family="Calibri, sans-serif" font-size="563px" font-weight="400"><tspan class="TextPosition" x="11216" y="15109"><tspan fill="rgb(89,89,89)" stroke="none">7-8</tspan></tspan></tspan></text>
 <text class="SVGTextShape" transform="rotate(-39.9 12775 15109)"><tspan class="TextParagraph" font-family="Calibri, sans-serif" font-size="563px" font-weight="400"><tspan class="TextPosition" x="12775" y="15109"><tspan fill="rgb(89,89,89)" stroke="none">8-9</tspan></tspan></tspan></text>
 <text class="SVGTextShape" transform="rotate(-39.9 14111 15296)"><tspan class="TextParagraph" font-family="Calibri, sans-serif" font-size="563px" font-weight="400"><tspan class="TextPosition" x="14111" y="15296"><tspan fill="rgb(89,89,89)" stroke="none">9-10</tspan></tspan></tspan></text>
 <text class="SVGTextShape" transform="rotate(-39.9 15447 15483)"><tspan class="TextParagraph" font-family="Calibri, sans-serif" font-size="563px" font-weight="400"><tspan class="TextPosition" x="15447" y="15483"><tspan fill="rgb(89,89,89)" stroke="none">10-11</tspan></tspan></tspan></text>
 <text class="SVGTextShape" transform="rotate(-39.9 17006 15483)"><tspan class="TextParagraph" font-family="Calibri, sans-serif" font-size="563px" font-weight="400"><tspan class="TextPosition" x="17006" y="15483"><tspan fill="rgb(89,89,89)" stroke="none">11-12</tspan></tspan></tspan></text>
 <text class="SVGTextShape" transform="rotate(-39.9 18566 15483)"><tspan class="TextParagraph" font-family="Calibri, sans-serif" font-size="563px" font-weight="400"><tspan class="TextPosition" x="18566" y="15483"><tspan fill="rgb(89,89,89)" stroke="none">12-13</tspan></tspan></tspan></text>
 <text class="SVGTextShape" transform="rotate(-39.9 20124 15483)"><tspan class="TextParagraph" font-family="Calibri, sans-serif" font-size="563px" font-weight="400"><tspan class="TextPosition" x="20124" y="15483"><tspan fill="rgb(89,89,89)" stroke="none">13-14</tspan></tspan></tspan></text>
 <text class="SVGTextShape" transform="rotate(-39.9 21683 15483)"><tspan class="TextParagraph" font-family="Calibri, sans-serif" font-size="563px" font-weight="400"><tspan class="TextPosition" x="21683" y="15483"><tspan fill="rgb(89,89,89)" stroke="none">14-15</tspan></tspan></tspan></text>
 <text class="SVGTextShape" transform="rotate(-39.9 23242 15483)"><tspan class="TextParagraph" font-family="Calibri, sans-serif" font-size="563px" font-weight="400"><tspan class="TextPosition" x="23242" y="15483"><tspan fill="rgb(89,89,89)" stroke="none">15-16</tspan></tspan></tspan></text>
 <text class="SVGTextShape" transform="rotate(-39.9 24801 15483)"><tspan class="TextParagraph" font-family="Calibri, sans-serif" font-size="563px" font-weight="400"><tspan class="TextPosition" x="24801" y="15483"><tspan fill="rgb(89,89,89)" stroke="none">16-17</tspan></tspan></tspan></text>
 <text class="SVGTextShape" transform="rotate(-39.9 26360 15483)"><tspan class="TextParagraph" font-family="Calibri, sans-serif" font-size="563px" font-weight="400"><tspan class="TextPosition" x="26360" y="15483"><tspan fill="rgb(89,89,89)" stroke="none">17-18</tspan></tspan></tspan></text>
 <text class="SVGTextShape" transform="rotate(-39.9 27919 15483)"><tspan class="TextParagraph" font-family="Calibri, sans-serif" font-size="563px" font-weight="400"><tspan class="TextPosition" x="27919" y="15483"><tspan fill="rgb(89,89,89)" stroke="none">18-19</tspan></tspan></tspan></text>
 <text class="SVGTextShape" transform="rotate(-39.9 29478 15483)"><tspan class="TextParagraph" font-family="Calibri, sans-serif" font-size="563px" font-weight="400"><tspan class="TextPosition" x="29478" y="15483"><tspan fill="rgb(89,89,89)" stroke="none">19-20</tspan></tspan></tspan></text>
 <text class="SVGTextShape" transform="rotate(-39.9 31036 15483)"><tspan class="TextParagraph" font-family="Calibri, sans-serif" font-size="563px" font-weight="400"><tspan class="TextPosition" x="31036" y="15483"><tspan fill="rgb(89,89,89)" stroke="none">20-21</tspan></tspan></tspan></text>
 <text class="SVGTextShape" transform="rotate(-39.9 32595 15483)"><tspan class="TextParagraph" font-family="Calibri, sans-serif" font-size="563px" font-weight="400"><tspan class="TextPosition" x="32595" y="15483"><tspan fill="rgb(89,89,89)" stroke="none">21-22</tspan></tspan></tspan></text>
 <text class="SVGTextShape" transform="rotate(-39.9 34154 15483)"><tspan class="TextParagraph" font-family="Calibri, sans-serif" font-size="563px" font-weight="400"><tspan class="TextPosition" x="34154" y="15483"><tspan fill="rgb(89,89,89)" stroke="none">22-23</tspan></tspan></tspan></text>
 <text class="SVGTextShape"><tspan class="TextParagraph" font-family="Calibri, sans-serif" font-size="563px" font-weight="400"><tspan class="TextPosition" x="1168" y="14356"><tspan fill="rgb(89,89,89)" stroke="none">0</tspan></tspan></tspan></text>
 <text class="SVGTextShape"><tspan class="TextParagraph" font-family="Calibri, sans-serif" font-size="563px" font-weight="400"><tspan class="TextPosition" x="745" y="12642"><tspan fill="rgb(89,89,89)" stroke="none">0.1</tspan></tspan></tspan></text>
 <text class="SVGTextShape"><tspan class="TextParagraph" font-family="Calibri, sans-serif" font-size="563px" font-weight="400"><tspan class="TextPosition" x="745" y="10929"><tspan fill="rgb(89,89,89)" stroke="none">0.2</tspan></tspan></tspan></text>
 <text class="SVGTextShape"><tspan class="TextParagraph" font-family="Calibri, sans-serif" font-size="563px" font-weight="400"><tspan class="TextPosition" x="745" y="9217"><tspan fill="rgb(89,89,89)" stroke="none">0.3</tspan></tspan></tspan></text>
 <text class="SVGTextShape"><tspan class="TextParagraph" font-family="Calibri, sans-serif" font-size="563px" font-weight="400"><tspan class="TextPosition" x="745" y="7504"><tspan fill="rgb(89,89,89)" stroke="none">0.4</tspan></tspan></tspan></text>
 <text class="SVGTextShape"><tspan class="TextParagraph" font-family="Calibri, sans-serif" font-size="563px" font-weight="400"><tspan class="TextPosition" x="745" y="5791"><tspan fill="rgb(89,89,89)" stroke="none">0.5</tspan></tspan></tspan></text>
 <text class="SVGTextShape"><tspan class="TextParagraph" font-family="Calibri, sans-serif" font-size="563px" font-weight="400"><tspan class="TextPosition" x="745" y="4078"><tspan fill="rgb(89,89,89)" stroke="none">0.6</tspan></tspan></tspan></text>
 <text class="SVGTextShape"><tspan class="TextParagraph" font-family="Calibri, sans-serif" font-size="563px" font-weight="400"><tspan class="TextPosition" x="745" y="2365"><tspan fill="rgb(89,89,89)" stroke="none">0.7</tspan></tspan></tspan></text>
 <text class="SVGTextShape"><tspan class="TextParagraph" font-family="Calibri, sans-serif" font-size="676px" font-weight="700"><tspan class="TextPosition" x="14757" y="1217"><tspan fill="rgb(89,89,89)" stroke="none">Chicken dominant alleles</tspan></tspan></tspan></text>
 <path fill="none" stroke="rgb(68,114,196)" stroke-width="97" stroke-linejoin="round" stroke-linecap="round" d="M 9612,16497 L 10411,16497"/>
 <path fill="none" stroke="rgb(183,183,183)" stroke-width="97" stroke-linejoin="round" stroke-linecap="round" d="M 14531,16497 L 15331,16497"/>
 <path fill="none" stroke="rgb(157,195,230)" stroke-width="97" stroke-linejoin="round" stroke-linecap="round" d="M 20773,16497 L 21572,16497"/>
 <text class="SVGTextShape"><tspan class="TextParagraph" font-family="Calibri, sans-serif" font-size="563px" font-weight="400"><tspan class="TextPosition" x="10535" y="16641"><tspan fill="rgb(89,89,89)" stroke="none">SpeedDominant</tspan></tspan></tspan></text>
 <text class="SVGTextShape"><tspan class="TextParagraph" font-family="Calibri, sans-serif" font-size="563px" font-weight="400"><tspan class="TextPosition" x="15455" y="16641"><tspan fill="rgb(89,89,89)" stroke="none">MetabolismDominant</tspan></tspan></tspan></text>
 <text class="SVGTextShape"><tspan class="TextParagraph" font-family="Calibri, sans-serif" font-size="563px" font-weight="400"><tspan class="TextPosition" x="21696" y="16641"><tspan fill="rgb(89,89,89)" stroke="none">ReproductionDominant</tspan></tspan></tspan></text>
</svg>