<?xml version="1.0" encoding="UTF-8"?>
<!DOCTYPE svg PUBLIC "-//W3C//DTD SVG 1.1//EN" "http://www.w3.org/Graphics/SVG/1.1/DTD/svg11.dtd">
<svg width="366mm" height="169mm" viewBox="0 0 36600 16900" version="1.1" xmlns="http://www.w3.org/2000/svg" xmlns:xlink="http://www.w3.org/1999/xlink" stroke-width="28.222" stroke-linejoin="round" xml:space="preserve">
 <path fill="rgb(255,255,255)" stroke="none" d="M 18303,16894 L 13,16894 13,13 36592,13 36592,16894 18303,16894 Z"/>
 <path fill="none" stroke="rgb(217,217,217)" stroke-width="26" stroke-linejoin="round" d="M 18303,16894 L 13,16894 13,13 36592,13 36592,16894 18303,16894 Z"/>
 <path fill="none" stroke="rgb(217,217,217)" stroke-width="26" stroke-linejoin="round" d="M 36210,13908 L 1731,13908"/>
 <path fill="none" stroke="rgb(217,217,217)" stroke-width="26" stroke-linejoin="round" d="M 36210,12205 L 1731,12205"/>
 <path fill="none" stroke="rgb(217,217,217)" stroke-width="26" stroke-linejoin="round" d="M 36210,10501 L 1731,10501"/>
 <path fill="none" stroke="rgb(217,217,217)" stroke-width="26" stroke-linejoin="round" d="M 36210,8799 L 1731,8799"/>
 <path fill="none" stroke="rgb(217,217,217)" stroke-width="26" stroke-linejoin="round" d="M 36210,7096 L 1731,7096"/>
 <path fill="none" stroke="rgb(217,217,217)" stroke-width="26" stroke-linejoin="round" d="M 36210,5393 L 1731,5393"/>
 <path fill="none" stroke="rgb(217,217,217)" stroke-width="26" stroke-linejoin="round" d="M 36210,3690 L 1731,3690"/>
 <path fill="none" stroke="rgb(217,217,217)" stroke-width="26" stroke-linejoin="round" d="M 36210,1988 L 1731,1988"/>
 <path fill="none" stroke="rgb(217,217,217)" stroke-width="35" stroke-linejoin="round" d="M 1731,13908 L 36210,13908"/>
 <path fill="none" stroke="rgb(68,114,196)" stroke-width="97" stroke-linejoin="round" stroke-linecap="round" d="M 2514,13334 L 4081,12901 5649,12804 7216,12658 8783,12604 10350,12390 11917,12220 13485,12192 15052,12213 16619,12161 18187,11841 19753,11685 21321,11776 22888,11654 24455,11456 26023,11297 27590,11212 29157,11085 30724,10716 32291,10508 33859,10425 35426,10117"/>
 <path fill="none" stroke="rgb(183,183,183)" stroke-width="97" stroke-linejoin="round" stroke-linecap="round" d="M 2514,13443 L 4081,13168 5649,13038 7216,12961 8783,12906 10350,12649 11917,12691 13485,12507 15052,12344 16619,12229 18187,11984 19753,11812 21321,11810 22888,11748 24455,11552 26023,11557 27590,11325 29157,11134 30724,10910 32291,10704 33859,10640 35426,10461"/>
 <path fill="none" stroke="rgb(157,195,230)" stroke-width="97" stroke-linejoin="round" stroke-linecap="round" d="M 2514,11960 L 4081,10183 5649,10476 7216,10186 8783,9805 10350,9224 11917,9178 13485,8774 15052,8530 16619,8371 18187,8043 19753,7339 21321,7552 22888,7039 24455,6324 26023,6706 27590,6147 29157,5460 30724,4778 32291,4053 33859,3695 35426,3001"/>
 <text class="SVGTextShape" transform="rotate(-39.9 2039 14806)"><tspan class="TextParagraph" font-family="Calibri, sans-serif" font-size="563px" font-weight="400"><tspan class="TextPosition" x="2039" y="14806"><tspan fill="rgb(89,89,89)" stroke="none">1-2</tspan></tspan></tspan></text>
 <text class="SVGTextShape" transform="rotate(-39.9 3606 14806)"><tspan class="TextParagraph" font-family="Calibri, sans-serif" font-size="563px" font-weight="400"><tspan class="TextPosition" x="3606" y="14806"><tspan fill="rgb(89,89,89)" stroke="none">2-3</tspan></tspan></tspan></text>
 <text class="SVGTextShape" transform="rotate(-39.9 5173 14806)"><tspan class="TextParagraph" font-family="Calibri, sans-serif" font-size="563px" font-weight="400"><tspan class="TextPosition" x="5173" y="14806"><tspan fill="rgb(89,89,89)" stroke="none">3-4</tspan></tspan></tspan></text>
 <text class="SVGTextShape" transform="rotate(-39.9 6740 14806)"><tspan class="TextParagraph" font-family="Calibri, sans-serif" font-size="563px" font-weight="400"><tspan class="TextPosition" x="6740" y="14806"><tspan fill="rgb(89,89,89)" stroke="none">4-5</tspan></tspan></tspan></text>
 <text class="SVGTextShape" transform="rotate(-39.9 8307 14806)"><tspan class="TextParagraph" font-family="Calibri, sans-serif" font-size="563px" font-weight="400"><tspan class="TextPosition" x="8307" y="14806"><tspan fill="rgb(89,89,89)" stroke="none">5-6</tspan></tspan></tspan></text>
 <text class="SVGTextShape" transform="rotate(-39.9 9875 14806)"><tspan class="TextParagraph" font-family="Calibri, sans-serif" font-size="563px" font-weight="400"><tspan class="TextPosition" x="9875" y="14806"><tspan fill="rgb(89,89,89)" stroke="none">6-7</tspan></tspan></tspan></text>
 <text class="SVGTextShape" transform="rotate(-39.9 11442 14806)"><tspan class="TextParagraph" font-family="Calibri, sans-serif" font-size="563px" font-weight="400"><tspan class="TextPosition" x="11442" y="14806"><tspan fill="rgb(89,89,89)" stroke="none">7-8</tspan></tspan></tspan></text>
 <text class="SVGTextShape" transform="rotate(-39.9 13010 14806)"><tspan class="TextParagraph" font-family="Calibri, sans-serif" font-size="563px" font-weight="400"><tspan class="TextPosition" x="13010" y="14806"><tspan fill="rgb(89,89,89)" stroke="none">8-9</tspan></tspan></tspan></text>
 <text class="SVGTextShape" transform="rotate(-39.9 14354 14994)"><tspan class="TextParagraph" font-family="Calibri, sans-serif" font-size="563px" font-weight="400"><tspan class="TextPosition" x="14354" y="14994"><tspan fill="rgb(89,89,89)" stroke="none">9-10</tspan></tspan></tspan></text>
 <text class="SVGTextShape" transform="rotate(-39.9 15698 15180)"><tspan class="TextParagraph" font-family="Calibri, sans-serif" font-size="563px" font-weight="400"><tspan class="TextPosition" x="15698" y="15180"><tspan fill="rgb(89,89,89)" stroke="none">10-11</tspan></tspan></tspan></text>
 <text class="SVGTextShape" transform="rotate(-39.9 17266 15180)"><tspan class="TextParagraph" font-family="Calibri, sans-serif" font-size="563px" font-weight="400"><tspan class="TextPosition" x="17266" y="15180"><tspan fill="rgb(89,89,89)" stroke="none">11-12</tspan></tspan></tspan></text>
 <text class="SVGTextShape" transform="rotate(-39.9 18832 15180)"><tspan class="TextParagraph" font-family="Calibri, sans-serif" font-size="563px" font-weight="400"><tspan class="TextPosition" x="18832" y="15180"><tspan fill="rgb(89,89,89)" stroke="none">12-13</tspan></tspan></tspan></text>
 <text class="SVGTextShape" transform="rotate(-39.9 20400 15180)"><tspan class="TextParagraph" font-family="Calibri, sans-serif" font-size="563px" font-weight="400"><tspan class="TextPosition" x="20400" y="15180"><tspan fill="rgb(89,89,89)" stroke="none">13-14</tspan></tspan></tspan></text>
 <text class="SVGTextShape" transform="rotate(-39.9 21967 15180)"><tspan class="TextParagraph" font-family="Calibri, sans-serif" font-size="563px" font-weight="400"><tspan class="TextPosition" x="21967" y="15180"><tspan fill="rgb(89,89,89)" stroke="none">14-15</tspan></tspan></tspan></text>
 <text class="SVGTextShape" transform="rotate(-39.9 23534 15180)"><tspan class="TextParagraph" font-family="Calibri, sans-serif" font-size="563px" font-weight="400"><tspan class="TextPosition" x="23534" y="15180"><tspan fill="rgb(89,89,89)" stroke="none">15-16</tspan></tspan></tspan></text>
 <text class="SVGTextShape" transform="rotate(-39.9 25102 15180)"><tspan class="TextParagraph" font-family="Calibri, sans-serif" font-size="563px" font-weight="400"><tspan class="TextPosition" x="25102" y="15180"><tspan fill="rgb(89,89,89)" stroke="none">16-17</tspan></tspan></tspan></text>
 <text class="SVGTextShape" transform="rotate(-39.9 26669 15180)"><tspan class="TextParagraph" font-family="Calibri, sans-serif" font-size="563px" font-weight="400"><tspan class="TextPosition" x="26669" y="15180"><tspan fill="rgb(89,89,89)" stroke="none">17-18</tspan></tspan></tspan></text>
 <text class="SVGTextShape" transform="rotate(-39.9 28236 15180)"><tspan class="TextParagraph" font-family="Calibri, sans-serif" font-size="563px" font-weight="400"><tspan class="TextPosition" x="28236" y="15180"><tspan fill="rgb(89,89,89)" stroke="none">18-19</tspan></tspan></tspan></text>
 <text class="SVGTextShape" transform="rotate(-39.9 29803 15180)"><tspan class="TextParagraph" font-family="Calibri, sans-serif" font-size="563px" font-weight="400"><tspan class="TextPosition" x="29803" y="15180"><tspan fill="rgb(89,89,89)" stroke="none">19-20</tspan></tspan></tspan></text>
 <text class="SVGTextShape" transform="rotate(-39.9 31370 15180)"><tspan class="TextParagraph" font-family="Calibri, sans-serif" font-size="563px" font-weight="400"><tspan class="TextPosition" x="31370" y="15180"><tspan fill="rgb(89,89,89)" stroke="none">20-21</tspan></tspan></tspan></text>
 <text class="SVGTextShape" transform="rotate(-39.9 32938 15180)"><tspan class="TextParagraph" font-family="Calibri, sans-serif" font-size="563px" font-weight="400"><tspan class="TextPosition" x="32938" y="15180"><tspan fill="rgb(89,89,89)" stroke="none">21-22</tspan></tspan></tspan></text>
 <text class="SVGTextShape" transform="rotate(-39.9 34505 15180)"><tspan class="TextParagraph" font-family="Calibri, sans-serif" font-size="563px" font-weight="400"><tspan class="TextPosition" x="34505" y="15180"><tspan fill="rgb(89,89,89)" stroke="none">22-23</tspan></tspan></tspan></text>
 <text class="SVGTextShape"><tspan class="TextParagraph" font-family="Calibri, sans-serif" font-size="563px" font-weight="400"><tspan class="TextPosition" x="1340" y="14053"><tspan fill="rgb(89,89,89)" stroke="none">0</tspan></tspan></tspan></text>
 <text class="SVGTextShape"><tspan class="TextParagraph" font-family="Calibri, sans-serif" font-size="563px" font-weight="400"><tspan class="TextPosition" x="917" y="12350"><tspan fill="rgb(89,89,89)" stroke="none">0.1</tspan></tspan></tspan></text>
 <text class="SVGTextShape"><tspan class="TextParagraph" font-family="Calibri, sans-serif" font-size="563px" font-weight="400"><tspan class="TextPosition" x="917" y="10646"><tspan fill="rgb(89,89,89)" stroke="none">0.2</tspan></tspan></tspan></text>
 <text class="SVGTextShape"><tspan class="TextParagraph" font-family="Calibri, sans-serif" font-size="563px" font-weight="400"><tspan class="TextPosition" x="917" y="8944"><tspan fill="rgb(89,89,89)" stroke="none">0.3</tspan></tspan></tspan></text>
 <text class="SVGTextShape"><tspan class="TextParagraph" font-family="Calibri, sans-serif" font-size="563px" font-weight="400"><tspan class="TextPosition" x="917" y="7241"><tspan fill="rgb(89,89,89)" stroke="none">0.4</tspan></tspan></tspan></text>
 <text class="SVGTextShape"><tspan class="TextParagraph" font-family="Calibri, sans-serif" font-size="563px" font-weight="400"><tspan class="TextPosition" x="917" y="5539"><tspan fill="rgb(89,89,89)" stroke="none">0.5</tspan></tspan></tspan></text>
 <text class="SVGTextShape"><tspan class="TextParagraph" font-family="Calibri, sans-serif" font-size="563px" font-weight="400"><tspan class="TextPosition" x="917" y="3835"><tspan fill="rgb(89,89,89)" stroke="none">0.6</tspan></tspan></tspan></text>
 <text class="SVGTextShape"><tspan class="TextParagraph" font-family="Calibri, sans-serif" font-size="563px" font-weight="400"><tspan class="TextPosition" x="917" y="2133"><tspan fill="rgb(89,89,89)" stroke="none">0.7</tspan></tspan></tspan></text>
 <text class="SVGTextShape"><tspan class="TextParagraph" font-family="Calibri, sans-serif" font-size="676px" font-weight="700"><tspan class="TextPosition" x="14931" y="1217"><tspan fill="rgb(89,89,89)" stroke="none">Chicken newborn genes</tspan></tspan></tspan></text>
 <path fill="none" stroke="rgb(68,114,196)" stroke-width="97" stroke-linejoin="round" stroke-linecap="round" d="M 12986,16503 L 13786,16503"/>
 <path fill="none" stroke="rgb(183,183,183)" stroke-width="97" stroke-linejoin="round" stroke-linecap="round" d="M 15658,16503 L 16458,16503"/>
 <path fill="none" stroke="rgb(157,195,230)" stroke-width="97" stroke-linejoin="round" stroke-linecap="round" d="M 19653,16503 L 20452,16503"/>
 <text class="SVGTextShape"><tspan class="TextParagraph" font-family="Calibri, sans-serif" font-size="563px" font-weight="400"><tspan class="TextPosition" x="13910" y="16647"><tspan fill="rgb(89,89,89)" stroke="none">Speed</tspan></tspan></tspan></text>
 <text class="SVGTextShape"><tspan class="TextParagraph" font-family="Calibri, sans-serif" font-size="563px" font-weight="400"><tspan class="TextPosition" x="16582" y="16647"><tspan fill="rgb(89,89,89)" stroke="none">Metabolism</tspan></tspan></tspan></text>
 <text class="SVGTextShape"><tspan class="TextParagraph" font-family="Calibri, sans-serif" font-size="563px" font-weight="400"><tspan class="TextPosition" x="20576" y="16647"><tspan fill="rgb(89,89,89)" stroke="none">Reproduction</tspan></tspan></tspan></text>
</svg>