<?xml version="1.0" encoding="UTF-8"?>
<!DOCTYPE svg PUBLIC "-//W3C//DTD SVG 1.1//EN" "http://www.w3.org/Graphics/SVG/1.1/DTD/svg11.dtd">
<svg width="365mm" height="169mm" viewBox="0 0 36500 16900" version="1.1" xmlns="http://www.w3.org/2000/svg" xmlns:xlink="http://www.w3.org/1999/xlink" stroke-width="28.222" stroke-linejoin="round" xml:space="preserve">
 <path fill="rgb(255,255,255)" stroke="none" d="M 18235,16877 L 13,16877 13,13 36456,13 36456,16877 18235,16877 Z"/>
 <path fill="none" stroke="rgb(217,217,217)" stroke-width="26" stroke-linejoin="round" d="M 18235,16877 L 13,16877 13,13 36456,13 36456,16877 18235,16877 Z"/>
 <path fill="none" stroke="rgb(217,217,217)" stroke-width="26" stroke-linejoin="round" d="M 36074,13862 L 1933,13862"/>
 <path fill="none" stroke="rgb(217,217,217)" stroke-width="26" stroke-linejoin="round" d="M 36074,12140 L 1933,12140"/>
 <path fill="none" stroke="rgb(217,217,217)" stroke-width="26" stroke-linejoin="round" d="M 36074,10418 L 1933,10418"/>
 <path fill="none" stroke="rgb(217,217,217)" stroke-width="26" stroke-linejoin="round" d="M 36074,8697 L 1933,8697"/>
 <path fill="none" stroke="rgb(217,217,217)" stroke-width="26" stroke-linejoin="round" d="M 36074,6976 L 1933,6976"/>
 <path fill="none" stroke="rgb(217,217,217)" stroke-width="26" stroke-linejoin="round" d="M 36074,5255 L 1933,5255"/>
 <path fill="none" stroke="rgb(217,217,217)" stroke-width="26" stroke-linejoin="round" d="M 36074,3533 L 1933,3533"/>
 <path fill="none" stroke="rgb(217,217,217)" stroke-width="26" stroke-linejoin="round" d="M 36074,1811 L 1933,1811"/>
 <path fill="none" stroke="rgb(217,217,217)" stroke-width="35" stroke-linejoin="round" d="M 1933,6976 L 36074,6976"/>
 <path fill="none" stroke="rgb(255,192,0)" stroke-width="97" stroke-linejoin="round" stroke-linecap="round" d="M 2708,8403 L 4260,5367 5812,9685 7364,6755 8915,8437 10468,7216 12020,6096 13572,8693 15124,6999 16676,7632 18228,10475 19779,9165 21331,4485 22883,6900 24435,9353 25987,6146 27540,8112 29091,6864 30643,8937 32195,5630 33747,7483 35299,6835"/>
 <path fill="none" stroke="rgb(241,151,90)" stroke-width="97" stroke-linejoin="round" stroke-linecap="round" d="M 2708,5281 L 4260,9161 5812,5622 7364,5977 8915,7656 10468,6743 12020,7801 13572,4984 15124,7102 16676,7423 18228,7987 19779,8415 21331,7871 22883,7471 24435,5708 25987,7934 27540,7174 29091,7895 30643,7007 32195,6761 33747,7562 35299,7562"/>
 <path fill="none" stroke="rgb(90,138,57)" stroke-width="97" stroke-linejoin="round" stroke-linecap="round" d="M 2708,7890 L 4260,3489 5812,9769 7364,8515 8915,8175 10468,10315 12020,12543 13572,2725 15124,10854 16676,8365 18228,12778 19779,7991 21331,12266 22883,6445 24435,8715 25987,10912 27540,5036 29091,10022 30643,10863 32195,6196 33747,5448 35299,6743"/>
 <text class="SVGTextShape" transform="rotate(-39.9 2233 14910)"><tspan class="TextParagraph" font-family="Calibri, sans-serif" font-size="563px" font-weight="400"><tspan class="TextPosition" x="2233" y="14910"><tspan fill="rgb(89,89,89)" stroke="none">1-2</tspan></tspan></tspan></text>
 <text class="SVGTextShape" transform="rotate(-39.9 3784 14910)"><tspan class="TextParagraph" font-family="Calibri, sans-serif" font-size="563px" font-weight="400"><tspan class="TextPosition" x="3784" y="14910"><tspan fill="rgb(89,89,89)" stroke="none">2-3</tspan></tspan></tspan></text>
 <text class="SVGTextShape" transform="rotate(-39.9 5336 14910)"><tspan class="TextParagraph" font-family="Calibri, sans-serif" font-size="563px" font-weight="400"><tspan class="TextPosition" x="5336" y="14910"><tspan fill="rgb(89,89,89)" stroke="none">3-4</tspan></tspan></tspan></text>
 <text class="SVGTextShape" transform="rotate(-39.9 6888 14910)"><tspan class="TextParagraph" font-family="Calibri, sans-serif" font-size="563px" font-weight="400"><tspan class="TextPosition" x="6888" y="14910"><tspan fill="rgb(89,89,89)" stroke="none">4-5</tspan></tspan></tspan></text>
 <text class="SVGTextShape" transform="rotate(-39.9 8440 14910)"><tspan class="TextParagraph" font-family="Calibri, sans-serif" font-size="563px" font-weight="400"><tspan class="TextPosition" x="8440" y="14910"><tspan fill="rgb(89,89,89)" stroke="none">5-6</tspan></tspan></tspan></text>
 <text class="SVGTextShape" transform="rotate(-39.9 9992 14910)"><tspan class="TextParagraph" font-family="Calibri, sans-serif" font-size="563px" font-weight="400"><tspan class="TextPosition" x="9992" y="14910"><tspan fill="rgb(89,89,89)" stroke="none">6-7</tspan></tspan></tspan></text>
 <text class="SVGTextShape" transform="rotate(-39.9 11545 14910)"><tspan class="TextParagraph" font-family="Calibri, sans-serif" font-size="563px" font-weight="400"><tspan class="TextPosition" x="11545" y="14910"><tspan fill="rgb(89,89,89)" stroke="none">7-8</tspan></tspan></tspan></text>
 <text class="SVGTextShape" transform="rotate(-39.9 13097 14910)"><tspan class="TextParagraph" font-family="Calibri, sans-serif" font-size="563px" font-weight="400"><tspan class="TextPosition" x="13097" y="14910"><tspan fill="rgb(89,89,89)" stroke="none">8-9</tspan></tspan></tspan></text>
 <text class="SVGTextShape" transform="rotate(-39.9 14426 15098)"><tspan class="TextParagraph" font-family="Calibri, sans-serif" font-size="563px" font-weight="400"><tspan class="TextPosition" x="14426" y="15098"><tspan fill="rgb(89,89,89)" stroke="none">9-10</tspan></tspan></tspan></text>
 <text class="SVGTextShape" transform="rotate(-39.9 15755 15284)"><tspan class="TextParagraph" font-family="Calibri, sans-serif" font-size="563px" font-weight="400"><tspan class="TextPosition" x="15755" y="15284"><tspan fill="rgb(89,89,89)" stroke="none">10-11</tspan></tspan></tspan></text>
 <text class="SVGTextShape" transform="rotate(-39.9 17306 15284)"><tspan class="TextParagraph" font-family="Calibri, sans-serif" font-size="563px" font-weight="400"><tspan class="TextPosition" x="17306" y="15284"><tspan fill="rgb(89,89,89)" stroke="none">11-12</tspan></tspan></tspan></text>
 <text class="SVGTextShape" transform="rotate(-39.9 18858 15284)"><tspan class="TextParagraph" font-family="Calibri, sans-serif" font-size="563px" font-weight="400"><tspan class="TextPosition" x="18858" y="15284"><tspan fill="rgb(89,89,89)" stroke="none">12-13</tspan></tspan></tspan></text>
 <text class="SVGTextShape" transform="rotate(-39.9 20410 15284)"><tspan class="TextParagraph" font-family="Calibri, sans-serif" font-size="563px" font-weight="400"><tspan class="TextPosition" x="20410" y="15284"><tspan fill="rgb(89,89,89)" stroke="none">13-14</tspan></tspan></tspan></text>
 <text class="SVGTextShape" transform="rotate(-39.9 21962 15284)"><tspan class="TextParagraph" font-family="Calibri, sans-serif" font-size="563px" font-weight="400"><tspan class="TextPosition" x="21962" y="15284"><tspan fill="rgb(89,89,89)" stroke="none">14-15</tspan></tspan></tspan></text>
 <text class="SVGTextShape" transform="rotate(-39.9 23514 15284)"><tspan class="TextParagraph" font-family="Calibri, sans-serif" font-size="563px" font-weight="400"><tspan class="TextPosition" x="23514" y="15284"><tspan fill="rgb(89,89,89)" stroke="none">15-16</tspan></tspan></tspan></text>
 <text class="SVGTextShape" transform="rotate(-39.9 25066 15284)"><tspan class="TextParagraph" font-family="Calibri, sans-serif" font-size="563px" font-weight="400"><tspan class="TextPosition" x="25066" y="15284"><tspan fill="rgb(89,89,89)" stroke="none">16-17</tspan></tspan></tspan></text>
 <text class="SVGTextShape" transform="rotate(-39.9 26618 15284)"><tspan class="TextParagraph" font-family="Calibri, sans-serif" font-size="563px" font-weight="400"><tspan class="TextPosition" x="26618" y="15284"><tspan fill="rgb(89,89,89)" stroke="none">17-18</tspan></tspan></tspan></text>
 <text class="SVGTextShape" transform="rotate(-39.9 28170 15284)"><tspan class="TextParagraph" font-family="Calibri, sans-serif" font-size="563px" font-weight="400"><tspan class="TextPosition" x="28170" y="15284"><tspan fill="rgb(89,89,89)" stroke="none">18-19</tspan></tspan></tspan></text>
 <text class="SVGTextShape" transform="rotate(-39.9 29722 15284)"><tspan class="TextParagraph" font-family="Calibri, sans-serif" font-size="563px" font-weight="400"><tspan class="TextPosition" x="29722" y="15284"><tspan fill="rgb(89,89,89)" stroke="none">19-20</tspan></tspan></tspan></text>
 <text class="SVGTextShape" transform="rotate(-39.9 31274 15284)"><tspan class="TextParagraph" font-family="Calibri, sans-serif" font-size="563px" font-weight="400"><tspan class="TextPosition" x="31274" y="15284"><tspan fill="rgb(89,89,89)" stroke="none">20-21</tspan></tspan></tspan></text>
 <text class="SVGTextShape" transform="rotate(-39.9 32826 15284)"><tspan class="TextParagraph" font-family="Calibri, sans-serif" font-size="563px" font-weight="400"><tspan class="TextPosition" x="32826" y="15284"><tspan fill="rgb(89,89,89)" stroke="none">21-22</tspan></tspan></tspan></text>
 <text class="SVGTextShape" transform="rotate(-39.9 34378 15284)"><tspan class="TextParagraph" font-family="Calibri, sans-serif" font-size="563px" font-weight="400"><tspan class="TextPosition" x="34378" y="15284"><tspan fill="rgb(89,89,89)" stroke="none">22-23</tspan></tspan></tspan></text>
 <text class="SVGTextShape"><tspan class="TextParagraph" font-family="Calibri, sans-serif" font-size="563px" font-weight="400"><tspan class="TextPosition" x="379" y="14007"><tspan fill="rgb(89,89,89)" stroke="none">-0.008</tspan></tspan></tspan></text>
 <text class="SVGTextShape"><tspan class="TextParagraph" font-family="Calibri, sans-serif" font-size="563px" font-weight="400"><tspan class="TextPosition" x="379" y="12285"><tspan fill="rgb(89,89,89)" stroke="none">-0.006</tspan></tspan></tspan></text>
 <text class="SVGTextShape"><tspan class="TextParagraph" font-family="Calibri, sans-serif" font-size="563px" font-weight="400"><tspan class="TextPosition" x="379" y="10564"><tspan fill="rgb(89,89,89)" stroke="none">-0.004</tspan></tspan></tspan></text>
 <text class="SVGTextShape"><tspan class="TextParagraph" font-family="Calibri, sans-serif" font-size="563px" font-weight="400"><tspan class="TextPosition" x="379" y="8842"><tspan fill="rgb(89,89,89)" stroke="none">-0.002</tspan></tspan></tspan></text>
 <text class="SVGTextShape"><tspan class="TextParagraph" font-family="Calibri, sans-serif" font-size="563px" font-weight="400"><tspan class="TextPosition" x="1542" y="7121"><tspan fill="rgb(89,89,89)" stroke="none">0</tspan></tspan></tspan></text>
 <text class="SVGTextShape"><tspan class="TextParagraph" font-family="Calibri, sans-serif" font-size="563px" font-weight="400"><tspan class="TextPosition" x="538" y="5400"><tspan fill="rgb(89,89,89)" stroke="none">0.002</tspan></tspan></tspan></text>
 <text class="SVGTextShape"><tspan class="TextParagraph" font-family="Calibri, sans-serif" font-size="563px" font-weight="400"><tspan class="TextPosition" x="538" y="3679"><tspan fill="rgb(89,89,89)" stroke="none">0.004</tspan></tspan></tspan></text>
 <text class="SVGTextShape"><tspan class="TextParagraph" font-family="Calibri, sans-serif" font-size="563px" font-weight="400"><tspan class="TextPosition" x="538" y="1957"><tspan fill="rgb(89,89,89)" stroke="none">0.006</tspan></tspan></tspan></text>
 <text class="SVGTextShape"><tspan class="TextParagraph" font-family="Calibri, sans-serif" font-size="676px" font-weight="700"><tspan class="TextPosition" x="14745" y="1216"><tspan fill="rgb(89,89,89)" stroke="none">Chicken mutation values</tspan></tspan></tspan></text>
 <path fill="none" stroke="rgb(255,192,0)" stroke-width="97" stroke-linejoin="round" stroke-linecap="round" d="M 7842,16486 L 8642,16486"/>
 <path fill="none" stroke="rgb(241,151,90)" stroke-width="97" stroke-linejoin="round" stroke-linecap="round" d="M 13899,16486 L 14698,16486"/>
 <path fill="none" stroke="rgb(90,138,57)" stroke-width="97" stroke-linejoin="round" stroke-linecap="round" d="M 21276,16486 L 22076,16486"/>
 <text class="SVGTextShape"><tspan class="TextParagraph" font-family="Calibri, sans-serif" font-size="563px" font-weight="400"><tspan class="TextPosition" x="8766" y="16630"><tspan fill="rgb(89,89,89)" stroke="none">SpeedMutationValue</tspan></tspan></tspan></text>
 <text class="SVGTextShape"><tspan class="TextParagraph" font-family="Calibri, sans-serif" font-size="563px" font-weight="400"><tspan class="TextPosition" x="14822" y="16630"><tspan fill="rgb(89,89,89)" stroke="none">MetabolismMutationValue</tspan></tspan></tspan></text>
 <text class="SVGTextShape"><tspan class="TextParagraph" font-family="Calibri, sans-serif" font-size="563px" font-weight="400"><tspan class="TextPosition" x="22200" y="16630"><tspan fill="rgb(89,89,89)" stroke="none">ReproductionMutationValue</tspan></tspan></tspan></text>
</svg>