<?xml version="1.0" encoding="UTF-8"?>
<!DOCTYPE svg PUBLIC "-//W3C//DTD SVG 1.1//EN" "http://www.w3.org/Graphics/SVG/1.1/DTD/svg11.dtd">
<svg width="364mm" height="169mm" viewBox="0 0 36400 16900" version="1.1" xmlns="http://www.w3.org/2000/svg" xmlns:xlink="http://www.w3.org/1999/xlink" stroke-width="28.222" stroke-linejoin="round" xml:space="preserve">
 <path fill="rgb(255,255,255)" stroke="none" d="M 18202,16905 L 13,16905 13,13 36390,13 36390,16905 18202,16905 Z"/>
 <path fill="none" stroke="rgb(217,217,217)" stroke-width="26" stroke-linejoin="round" d="M 18202,16905 L 13,16905 13,13 36390,13 36390,16905 18202,16905 Z"/>
 <path fill="none" stroke="rgb(217,217,217)" stroke-width="26" stroke-linejoin="round" d="M 35234,15325 L 2005,15325"/>
 <path fill="none" stroke="rgb(217,217,217)" stroke-width="26" stroke-linejoin="round" d="M 35234,14007 L 2005,14007"/>
 <path fill="none" stroke="rgb(217,217,217)" stroke-width="26" stroke-linejoin="round" d="M 35234,12689 L 2005,12689"/>
 <path fill="none" stroke="rgb(217,217,217)" stroke-width="26" stroke-linejoin="round" d="M 35234,11372 L 2005,11372"/>
 <path fill="none" stroke="rgb(217,217,217)" stroke-width="26" stroke-linejoin="round" d="M 35234,10054 L 2005,10054"/>
 <path fill="none" stroke="rgb(217,217,217)" stroke-width="26" stroke-linejoin="round" d="M 35234,8737 L 2005,8737"/>
 <path fill="none" stroke="rgb(217,217,217)" stroke-width="26" stroke-linejoin="round" d="M 35234,7419 L 2005,7419"/>
 <path fill="none" stroke="rgb(217,217,217)" stroke-width="26" stroke-linejoin="round" d="M 35234,6102 L 2005,6102"/>
 <path fill="none" stroke="rgb(217,217,217)" stroke-width="26" stroke-linejoin="round" d="M 35234,4784 L 2005,4784"/>
 <path fill="none" stroke="rgb(217,217,217)" stroke-width="26" stroke-linejoin="round" d="M 35234,3467 L 2005,3467"/>
 <path fill="none" stroke="rgb(217,217,217)" stroke-width="35" stroke-linejoin="round" d="M 2005,3467 L 35234,3467"/>
 <path fill="none" stroke="rgb(112,173,71)" stroke-width="97" stroke-linejoin="round" stroke-linecap="round" d="M 2759,4518 L 4270,4725 5780,4778 7291,5106 8801,5520 10311,5730 11822,5991 13332,6192 14843,6076 16354,6361 17864,6116 19375,6096 20885,6124 22395,6322 23906,6466 25416,6722 26927,6549 28437,6378 29948,6149 31459,6161 32969,5995 34479,5969"/>
 <path fill="none" stroke="rgb(255,205,51)" stroke-width="97" stroke-linejoin="round" stroke-linecap="round" d="M 2759,4156 L 4270,4240 5780,4393 7291,4490 8801,4890 10311,4713 11822,4817 13332,4902 14843,4823 16354,4942 17864,4949 19375,4626 20885,4638 22395,4687 23906,4557 25416,4741 26927,4593 28437,4357 29948,4352 31459,4221 32969,4102 34479,3945"/>
 <path fill="none" stroke="rgb(244,177,131)" stroke-width="97" stroke-linejoin="round" stroke-linecap="round" d="M 2759,5790 L 4270,6198 5780,6940 7291,8022 8801,8861 10311,9270 11822,9536 13332,10247 14843,10121 16354,10670 17864,11915 19375,11815 20885,12778 22395,13619 23906,13417 25416,13790 26927,13689 28437,12800 29948,12854 31459,12512 32969,12068 34479,11908"/>
 <text class="SVGTextShape" transform="rotate(-39.9 2853 3117)"><tspan class="TextParagraph" font-family="Calibri, sans-serif" font-size="563px" font-weight="400"><tspan class="TextPosition" x="2853" y="3117"><tspan fill="rgb(89,89,89)" stroke="none">1-2</tspan></tspan></tspan></text>
 <text class="SVGTextShape" transform="rotate(-39.9 4364 3117)"><tspan class="TextParagraph" font-family="Calibri, sans-serif" font-size="563px" font-weight="400"><tspan class="TextPosition" x="4364" y="3117"><tspan fill="rgb(89,89,89)" stroke="none">2-3</tspan></tspan></tspan></text>
 <text class="SVGTextShape" transform="rotate(-39.9 5874 3117)"><tspan class="TextParagraph" font-family="Calibri, sans-serif" font-size="563px" font-weight="400"><tspan class="TextPosition" x="5874" y="3117"><tspan fill="rgb(89,89,89)" stroke="none">3-4</tspan></tspan></tspan></text>
 <text class="SVGTextShape" transform="rotate(-39.9 7384 3117)"><tspan class="TextParagraph" font-family="Calibri, sans-serif" font-size="563px" font-weight="400"><tspan class="TextPosition" x="7384" y="3117"><tspan fill="rgb(89,89,89)" stroke="none">4-5</tspan></tspan></tspan></text>
 <text class="SVGTextShape" transform="rotate(-39.9 8895 3117)"><tspan class="TextParagraph" font-family="Calibri, sans-serif" font-size="563px" font-weight="400"><tspan class="TextPosition" x="8895" y="3117"><tspan fill="rgb(89,89,89)" stroke="none">5-6</tspan></tspan></tspan></text>
 <text class="SVGTextShape" transform="rotate(-39.9 10405 3117)"><tspan class="TextParagraph" font-family="Calibri, sans-serif" font-size="563px" font-weight="400"><tspan class="TextPosition" x="10405" y="3117"><tspan fill="rgb(89,89,89)" stroke="none">6-7</tspan></tspan></tspan></text>
 <text class="SVGTextShape" transform="rotate(-39.9 11916 3117)"><tspan class="TextParagraph" font-family="Calibri, sans-serif" font-size="563px" font-weight="400"><tspan class="TextPosition" x="11916" y="3117"><tspan fill="rgb(89,89,89)" stroke="none">7-8</tspan></tspan></tspan></text>
 <text class="SVGTextShape" transform="rotate(-39.9 13426 3117)"><tspan class="TextParagraph" font-family="Calibri, sans-serif" font-size="563px" font-weight="400"><tspan class="TextPosition" x="13426" y="3117"><tspan fill="rgb(89,89,89)" stroke="none">8-9</tspan></tspan></tspan></text>
 <text class="SVGTextShape" transform="rotate(-39.9 14938 3116)"><tspan class="TextParagraph" font-family="Calibri, sans-serif" font-size="563px" font-weight="400"><tspan class="TextPosition" x="14938" y="3116"><tspan fill="rgb(89,89,89)" stroke="none">9-10</tspan></tspan></tspan></text>
 <text class="SVGTextShape" transform="rotate(-39.9 16448 3117)"><tspan class="TextParagraph" font-family="Calibri, sans-serif" font-size="563px" font-weight="400"><tspan class="TextPosition" x="16448" y="3117"><tspan fill="rgb(89,89,89)" stroke="none">10-11</tspan></tspan></tspan></text>
 <text class="SVGTextShape" transform="rotate(-39.9 17958 3117)"><tspan class="TextParagraph" font-family="Calibri, sans-serif" font-size="563px" font-weight="400"><tspan class="TextPosition" x="17958" y="3117"><tspan fill="rgb(89,89,89)" stroke="none">11-12</tspan></tspan></tspan></text>
 <text class="SVGTextShape" transform="rotate(-39.9 19468 3117)"><tspan class="TextParagraph" font-family="Calibri, sans-serif" font-size="563px" font-weight="400"><tspan class="TextPosition" x="19468" y="3117"><tspan fill="rgb(89,89,89)" stroke="none">12-13</tspan></tspan></tspan></text>
 <text class="SVGTextShape" transform="rotate(-39.9 20978 3117)"><tspan class="TextParagraph" font-family="Calibri, sans-serif" font-size="563px" font-weight="400"><tspan class="TextPosition" x="20978" y="3117"><tspan fill="rgb(89,89,89)" stroke="none">13-14</tspan></tspan></tspan></text>
 <text class="SVGTextShape" transform="rotate(-39.9 22489 3117)"><tspan class="TextParagraph" font-family="Calibri, sans-serif" font-size="563px" font-weight="400"><tspan class="TextPosition" x="22489" y="3117"><tspan fill="rgb(89,89,89)" stroke="none">14-15</tspan></tspan></tspan></text>
 <text class="SVGTextShape" transform="rotate(-39.9 24000 3117)"><tspan class="TextParagraph" font-family="Calibri, sans-serif" font-size="563px" font-weight="400"><tspan class="TextPosition" x="24000" y="3117"><tspan fill="rgb(89,89,89)" stroke="none">15-16</tspan></tspan></tspan></text>
 <text class="SVGTextShape" transform="rotate(-39.9 25510 3117)"><tspan class="TextParagraph" font-family="Calibri, sans-serif" font-size="563px" font-weight="400"><tspan class="TextPosition" x="25510" y="3117"><tspan fill="rgb(89,89,89)" stroke="none">16-17</tspan></tspan></tspan></text>
 <text class="SVGTextShape" transform="rotate(-39.9 27021 3117)"><tspan class="TextParagraph" font-family="Calibri, sans-serif" font-size="563px" font-weight="400"><tspan class="TextPosition" x="27021" y="3117"><tspan fill="rgb(89,89,89)" stroke="none">17-18</tspan></tspan></tspan></text>
 <text class="SVGTextShape" transform="rotate(-39.9 28531 3117)"><tspan class="TextParagraph" font-family="Calibri, sans-serif" font-size="563px" font-weight="400"><tspan class="TextPosition" x="28531" y="3117"><tspan fill="rgb(89,89,89)" stroke="none">18-19</tspan></tspan></tspan></text>
 <text class="SVGTextShape" transform="rotate(-39.9 30042 3117)"><tspan class="TextParagraph" font-family="Calibri, sans-serif" font-size="563px" font-weight="400"><tspan class="TextPosition" x="30042" y="3117"><tspan fill="rgb(89,89,89)" stroke="none">19-20</tspan></tspan></tspan></text>
 <text class="SVGTextShape" transform="rotate(-39.9 31553 3117)"><tspan class="TextParagraph" font-family="Calibri, sans-serif" font-size="563px" font-weight="400"><tspan class="TextPosition" x="31553" y="3117"><tspan fill="rgb(89,89,89)" stroke="none">20-21</tspan></tspan></tspan></text>
 <text class="SVGTextShape" transform="rotate(-39.9 33062 3117)"><tspan class="TextParagraph" font-family="Calibri, sans-serif" font-size="563px" font-weight="400"><tspan class="TextPosition" x="33062" y="3117"><tspan fill="rgb(89,89,89)" stroke="none">21-22</tspan></tspan></tspan></text>
 <text class="SVGTextShape" transform="rotate(-39.9 34573 3117)"><tspan class="TextParagraph" font-family="Calibri, sans-serif" font-size="563px" font-weight="400"><tspan class="TextPosition" x="34573" y="3117"><tspan fill="rgb(89,89,89)" stroke="none">22-23</tspan></tspan></tspan></text>
 <text class="SVGTextShape"><tspan class="TextParagraph" font-family="Calibri, sans-serif" font-size="563px" font-weight="400"><tspan class="TextPosition" x="741" y="15470"><tspan fill="rgb(89,89,89)" stroke="none">-0.45</tspan></tspan></tspan></text>
 <text class="SVGTextShape"><tspan class="TextParagraph" font-family="Calibri, sans-serif" font-size="563px" font-weight="400"><tspan class="TextPosition" x="1032" y="14152"><tspan fill="rgb(89,89,89)" stroke="none">-0.4</tspan></tspan></tspan></text>
 <text class="SVGTextShape"><tspan class="TextParagraph" font-family="Calibri, sans-serif" font-size="563px" font-weight="400"><tspan class="TextPosition" x="741" y="12834"><tspan fill="rgb(89,89,89)" stroke="none">-0.35</tspan></tspan></tspan></text>
 <text class="SVGTextShape"><tspan class="TextParagraph" font-family="Calibri, sans-serif" font-size="563px" font-weight="400"><tspan class="TextPosition" x="1032" y="11517"><tspan fill="rgb(89,89,89)" stroke="none">-0.3</tspan></tspan></tspan></text>
 <text class="SVGTextShape"><tspan class="TextParagraph" font-family="Calibri, sans-serif" font-size="563px" font-weight="400"><tspan class="TextPosition" x="741" y="10199"><tspan fill="rgb(89,89,89)" stroke="none">-0.25</tspan></tspan></tspan></text>
 <text class="SVGTextShape"><tspan class="TextParagraph" font-family="Calibri, sans-serif" font-size="563px" font-weight="400"><tspan class="TextPosition" x="1032" y="8882"><tspan fill="rgb(89,89,89)" stroke="none">-0.2</tspan></tspan></tspan></text>
 <text class="SVGTextShape"><tspan class="TextParagraph" font-family="Calibri, sans-serif" font-size="563px" font-weight="400"><tspan class="TextPosition" x="741" y="7564"><tspan fill="rgb(89,89,89)" stroke="none">-0.15</tspan></tspan></tspan></text>
 <text class="SVGTextShape"><tspan class="TextParagraph" font-family="Calibri, sans-serif" font-size="563px" font-weight="400"><tspan class="TextPosition" x="1032" y="6248"><tspan fill="rgb(89,89,89)" stroke="none">-0.1</tspan></tspan></tspan></text>
 <text class="SVGTextShape"><tspan class="TextParagraph" font-family="Calibri, sans-serif" font-size="563px" font-weight="400"><tspan class="TextPosition" x="741" y="4930"><tspan fill="rgb(89,89,89)" stroke="none">-0.05</tspan></tspan></tspan></text>
 <text class="SVGTextShape"><tspan class="TextParagraph" font-family="Calibri, sans-serif" font-size="563px" font-weight="400"><tspan class="TextPosition" x="1614" y="3613"><tspan fill="rgb(89,89,89)" stroke="none">0</tspan></tspan></tspan></text>
 <text class="SVGTextShape"><tspan class="TextParagraph" font-family="Calibri, sans-serif" font-size="676px" font-weight="700"><tspan class="TextPosition" x="14765" y="1217"><tspan fill="rgb(89,89,89)" stroke="none">Chicken recessive alleles</tspan></tspan></tspan></text>
 <path fill="none" stroke="rgb(112,173,71)" stroke-width="97" stroke-linejoin="round" stroke-linecap="round" d="M 9713,16514 L 10512,16514"/>
 <path fill="none" stroke="rgb(255,205,51)" stroke-width="97" stroke-linejoin="round" stroke-linecap="round" d="M 14500,16514 L 15300,16514"/>
 <path fill="none" stroke="rgb(244,177,131)" stroke-width="97" stroke-linejoin="round" stroke-linecap="round" d="M 20609,16514 L 21408,16514"/>
 <text class="SVGTextShape"><tspan class="TextParagraph" font-family="Calibri, sans-serif" font-size="563px" font-weight="400"><tspan class="TextPosition" x="10636" y="16658"><tspan fill="rgb(89,89,89)" stroke="none">SpeedRecessive</tspan></tspan></tspan></text>
 <text class="SVGTextShape"><tspan class="TextParagraph" font-family="Calibri, sans-serif" font-size="563px" font-weight="400"><tspan class="TextPosition" x="15424" y="16658"><tspan fill="rgb(89,89,89)" stroke="none">MetabolismRecessive</tspan></tspan></tspan></text>
 <text class="SVGTextShape"><tspan class="TextParagraph" font-family="Calibri, sans-serif" font-size="563px" font-weight="400"><tspan class="TextPosition" x="21532" y="16658"><tspan fill="rgb(89,89,89)" stroke="none">ReproductionRecessive</tspan></tspan></tspan></text>
</svg>