<?xml version="1.0" encoding="UTF-8"?>
<!DOCTYPE svg PUBLIC "-//W3C//DTD SVG 1.1//EN" "http://www.w3.org/Graphics/SVG/1.1/DTD/svg11.dtd">
<svg width="350mm" height="172mm" viewBox="0 0 35000 17200" version="1.1" xmlns="http://www.w3.org/2000/svg" xmlns:xlink="http://www.w3.org/1999/xlink" stroke-width="28.222" stroke-linejoin="round" xml:space="preserve">
 <path fill="rgb(255,255,255)" stroke="none" d="M 17513,17197 L 13,17197 13,13 35012,13 35012,17197 17513,17197 Z"/>
 <path fill="none" stroke="rgb(217,217,217)" stroke-width="26" stroke-linejoin="round" d="M 17513,17197 L 13,17197 13,13 35012,13 35012,17197 17513,17197 Z"/>
 <path fill="none" stroke="rgb(217,217,217)" stroke-width="26" stroke-linejoin="round" d="M 34312,12989 L 2082,12989"/>
 <path fill="none" stroke="rgb(217,217,217)" stroke-width="26" stroke-linejoin="round" d="M 34312,10802 L 2082,10802"/>
 <path fill="none" stroke="rgb(217,217,217)" stroke-width="26" stroke-linejoin="round" d="M 34312,8615 L 2082,8615"/>
 <path fill="none" stroke="rgb(217,217,217)" stroke-width="26" stroke-linejoin="round" d="M 34312,6430 L 2082,6430"/>
 <path fill="none" stroke="rgb(217,217,217)" stroke-width="26" stroke-linejoin="round" d="M 34312,4243 L 2082,4243"/>
 <path fill="none" stroke="rgb(217,217,217)" stroke-width="26" stroke-linejoin="round" d="M 34312,2058 L 2082,2058"/>
 <path fill="none" stroke="rgb(217,217,217)" stroke-width="26" stroke-linejoin="round" d="M 2082,12989 L 34312,12989"/>
 <path fill="none" stroke="rgb(91,155,213)" stroke-width="79" stroke-linejoin="round" stroke-linecap="round" d="M 2448,12989 L 3181,12989 3913,12989 4645,12989 5378,12989 6110,12989 6843,12989 7576,12984 8309,12979 9041,12961 9773,12939 10506,12922 11238,12906 11971,12870 12703,12846 13436,12816 14168,12801 14901,12787 15633,12771 16365,12740 17098,12716 17830,12696 18564,12673 19296,12640 20029,12601 20761,12567 21493,12525 22226,12476 22958,12444 23691,12412 24423,12366 25156,12334 25888,12305 26620,12270 27353,12218 28085,12175 28818,12139 29551,12070 30284,12004 31016,11966 31749,11939 32481,11894 33213,11829 33946,11792"/>
 <path fill="none" stroke="rgb(237,125,49)" stroke-width="79" stroke-linejoin="round" stroke-linecap="round" d="M 2448,12989 L 3181,12989 3913,12989 4645,12989 5378,12989 6110,12989 6843,12989 7576,12989 8309,12982 9041,12976 9773,12975 10506,12965 11238,12950 11971,12945 12703,12913 13436,12886 14168,12854 14901,12812 15633,12745 16365,12670 17098,12601 17830,12539 18564,12468 19296,12367 20029,12274 20761,12160 21493,12024 22226,11880 22958,11735 23691,11549 24423,11355 25156,11159 25888,10943 26620,10701 27353,10431 28085,10018 28818,9537 29551,9036 30284,8507 31016,7731 31749,6857 32481,6000 33213,5007 33946,4166"/>
 <path fill="none" stroke="rgb(165,165,165)" stroke-width="79" stroke-linejoin="round" stroke-linecap="round" d="M 2448,12989 L 3181,12989 3913,12989 4645,12989 5378,12989 6110,12989 6843,12989 7576,12989 8309,12989 9041,12989 9773,12927 10506,12804 11238,12776 11971,12774 12703,12770 13436,12725 14168,12668 14901,12621 15633,12570 16365,12515 17098,12419 17830,12343 18564,12281 19296,12229 20029,12177 20761,12102 21493,12014 22226,11883 22958,11786 23691,11694 24423,11581 25156,11442 25888,11303 26620,11197 27353,11040 28085,10875 28818,10696 29551,10489 30284,10305 31016,10116 31749,9895 32481,9723 33213,9480 33946,9318"/>
 <path fill="none" stroke="rgb(255,192,0)" stroke-width="79" stroke-linejoin="round" stroke-linecap="round" d="M 2448,12989 L 3181,12989 3913,12989 4645,12989 5378,12989 6110,12989 6843,12989 7576,12989 8309,12989 9041,12989 9773,12989 10506,12989 11238,12989 11971,12989 12703,12989 13436,12989 14168,12989 14901,12989 15633,12989 16365,12989 17098,12989 17830,12989 18564,12989 19296,12989 20029,12989 20761,12989 21493,12989 22226,12989 22958,12989 23691,12989 24423,12989 25156,12989 25888,12989 26620,12989 27353,12989 28085,12989 28818,12989 29551,12989 30284,12989 31016,12989 31749,12989 32481,12989 33213,12989 33946,12989"/>
 <text class="SVGTextShape" transform="rotate(-44.9 1531 14453)"><tspan class="TextParagraph" font-family="Calibri, sans-serif" font-size="634px" font-weight="400"><tspan class="TextPosition" x="1531" y="14453"><tspan fill="rgb(0,0,0)" stroke="none">1-100</tspan></tspan></tspan></text>
 <text class="SVGTextShape" transform="rotate(-44.9 2547 14900)"><tspan class="TextParagraph" font-family="Calibri, sans-serif" font-size="634px" font-weight="400"><tspan class="TextPosition" x="2547" y="14900"><tspan fill="rgb(0,0,0)" stroke="none">201-300</tspan></tspan></tspan></text>
 <text class="SVGTextShape" transform="rotate(-44.9 4012 14900)"><tspan class="TextParagraph" font-family="Calibri, sans-serif" font-size="634px" font-weight="400"><tspan class="TextPosition" x="4012" y="14900"><tspan fill="rgb(0,0,0)" stroke="none">401-500</tspan></tspan></tspan></text>
 <text class="SVGTextShape" transform="rotate(-44.9 5477 14900)"><tspan class="TextParagraph" font-family="Calibri, sans-serif" font-size="634px" font-weight="400"><tspan class="TextPosition" x="5477" y="14900"><tspan fill="rgb(0,0,0)" stroke="none">601-700</tspan></tspan></tspan></text>
 <text class="SVGTextShape" transform="rotate(-44.9 6943 14900)"><tspan class="TextParagraph" font-family="Calibri, sans-serif" font-size="634px" font-weight="400"><tspan class="TextPosition" x="6943" y="14900"><tspan fill="rgb(0,0,0)" stroke="none">801-900</tspan></tspan></tspan></text>
 <text class="SVGTextShape" transform="rotate(-44.9 7958 15349)"><tspan class="TextParagraph" font-family="Calibri, sans-serif" font-size="634px" font-weight="400"><tspan class="TextPosition" x="7958" y="15349"><tspan fill="rgb(0,0,0)" stroke="none">1001-1100</tspan></tspan></tspan></text>
 <text class="SVGTextShape" transform="rotate(-44.9 9423 15349)"><tspan class="TextParagraph" font-family="Calibri, sans-serif" font-size="634px" font-weight="400"><tspan class="TextPosition" x="9423" y="15349"><tspan fill="rgb(0,0,0)" stroke="none">1201-1300</tspan></tspan></tspan></text>
 <text class="SVGTextShape" transform="rotate(-44.9 10888 15349)"><tspan class="TextParagraph" font-family="Calibri, sans-serif" font-size="634px" font-weight="400"><tspan class="TextPosition" x="10888" y="15349"><tspan fill="rgb(0,0,0)" stroke="none">1401-1500</tspan></tspan></tspan></text>
 <text class="SVGTextShape" transform="rotate(-44.9 12352 15349)"><tspan class="TextParagraph" font-family="Calibri, sans-serif" font-size="634px" font-weight="400"><tspan class="TextPosition" x="12352" y="15349"><tspan fill="rgb(0,0,0)" stroke="none">1601-1700</tspan></tspan></tspan></text>
 <text class="SVGTextShape" transform="rotate(-44.9 13817 15349)"><tspan class="TextParagraph" font-family="Calibri, sans-serif" font-size="634px" font-weight="400"><tspan class="TextPosition" x="13817" y="15349"><tspan fill="rgb(0,0,0)" stroke="none">1801-1900</tspan></tspan></tspan></text>
 <text class="SVGTextShape" transform="rotate(-44.9 15282 15349)"><tspan class="TextParagraph" font-family="Calibri, sans-serif" font-size="634px" font-weight="400"><tspan class="TextPosition" x="15282" y="15349"><tspan fill="rgb(0,0,0)" stroke="none">2001-2100</tspan></tspan></tspan></text>
 <text class="SVGTextShape" transform="rotate(-44.9 16748 15349)"><tspan class="TextParagraph" font-family="Calibri, sans-serif" font-size="634px" font-weight="400"><tspan class="TextPosition" x="16748" y="15349"><tspan fill="rgb(0,0,0)" stroke="none">2201-2300</tspan></tspan></tspan></text>
 <text class="SVGTextShape" transform="rotate(-44.9 18213 15349)"><tspan class="TextParagraph" font-family="Calibri, sans-serif" font-size="634px" font-weight="400"><tspan class="TextPosition" x="18213" y="15349"><tspan fill="rgb(0,0,0)" stroke="none">2401-2500</tspan></tspan></tspan></text>
 <text class="SVGTextShape" transform="rotate(-44.9 19678 15349)"><tspan class="TextParagraph" font-family="Calibri, sans-serif" font-size="634px" font-weight="400"><tspan class="TextPosition" x="19678" y="15349"><tspan fill="rgb(0,0,0)" stroke="none">2601-2700</tspan></tspan></tspan></text>
 <text class="SVGTextShape" transform="rotate(-44.9 21143 15349)"><tspan class="TextParagraph" font-family="Calibri, sans-serif" font-size="634px" font-weight="400"><tspan class="TextPosition" x="21143" y="15349"><tspan fill="rgb(0,0,0)" stroke="none">2801-2900</tspan></tspan></tspan></text>
 <text class="SVGTextShape" transform="rotate(-44.9 22608 15349)"><tspan class="TextParagraph" font-family="Calibri, sans-serif" font-size="634px" font-weight="400"><tspan class="TextPosition" x="22608" y="15349"><tspan fill="rgb(0,0,0)" stroke="none">3001-3100</tspan></tspan></tspan></text>
 <text class="SVGTextShape" transform="rotate(-44.9 24072 15349)"><tspan class="TextParagraph" font-family="Calibri, sans-serif" font-size="634px" font-weight="400"><tspan class="TextPosition" x="24072" y="15349"><tspan fill="rgb(0,0,0)" stroke="none">3201-3300</tspan></tspan></tspan></text>
 <text class="SVGTextShape" transform="rotate(-44.9 25537 15349)"><tspan class="TextParagraph" font-family="Calibri, sans-serif" font-size="634px" font-weight="400"><tspan class="TextPosition" x="25537" y="15349"><tspan fill="rgb(0,0,0)" stroke="none">3401-3500</tspan></tspan></tspan></text>
 <text class="SVGTextShape" transform="rotate(-44.9 27002 15349)"><tspan class="TextParagraph" font-family="Calibri, sans-serif" font-size="634px" font-weight="400"><tspan class="TextPosition" x="27002" y="15349"><tspan fill="rgb(0,0,0)" stroke="none">3601-3700</tspan></tspan></tspan></text>
 <text class="SVGTextShape" transform="rotate(-44.9 28468 15349)"><tspan class="TextParagraph" font-family="Calibri, sans-serif" font-size="634px" font-weight="400"><tspan class="TextPosition" x="28468" y="15349"><tspan fill="rgb(0,0,0)" stroke="none">3801-3900</tspan></tspan></tspan></text>
 <text class="SVGTextShape" transform="rotate(-44.9 29933 15349)"><tspan class="TextParagraph" font-family="Calibri, sans-serif" font-size="634px" font-weight="400"><tspan class="TextPosition" x="29933" y="15349"><tspan fill="rgb(0,0,0)" stroke="none">4001-4100</tspan></tspan></tspan></text>
 <text class="SVGTextShape" transform="rotate(-44.9 31398 15349)"><tspan class="TextParagraph" font-family="Calibri, sans-serif" font-size="634px" font-weight="400"><tspan class="TextPosition" x="31398" y="15349"><tspan fill="rgb(0,0,0)" stroke="none">4201-4300</tspan></tspan></tspan></text>
 <text class="SVGTextShape"><tspan class="TextParagraph" font-family="Calibri, sans-serif" font-size="634px" font-weight="400"><tspan class="TextPosition" x="1665" y="13148"><tspan fill="rgb(0,0,0)" stroke="none">0</tspan></tspan></tspan></text>
 <text class="SVGTextShape"><tspan class="TextParagraph" font-family="Calibri, sans-serif" font-size="634px" font-weight="400"><tspan class="TextPosition" x="1030" y="10961"><tspan fill="rgb(0,0,0)" stroke="none">500</tspan></tspan></tspan></text>
 <text class="SVGTextShape"><tspan class="TextParagraph" font-family="Calibri, sans-serif" font-size="634px" font-weight="400"><tspan class="TextPosition" x="713" y="8775"><tspan fill="rgb(0,0,0)" stroke="none">1000</tspan></tspan></tspan></text>
 <text class="SVGTextShape"><tspan class="TextParagraph" font-family="Calibri, sans-serif" font-size="634px" font-weight="400"><tspan class="TextPosition" x="713" y="6589"><tspan fill="rgb(0,0,0)" stroke="none">1500</tspan></tspan></tspan></text>
 <text class="SVGTextShape"><tspan class="TextParagraph" font-family="Calibri, sans-serif" font-size="634px" font-weight="400"><tspan class="TextPosition" x="713" y="4403"><tspan fill="rgb(0,0,0)" stroke="none">2000</tspan></tspan></tspan></text>
 <text class="SVGTextShape"><tspan class="TextParagraph" font-family="Calibri, sans-serif" font-size="634px" font-weight="400"><tspan class="TextPosition" x="713" y="2217"><tspan fill="rgb(0,0,0)" stroke="none">2500</tspan></tspan></tspan></text>
 <text class="SVGTextShape"><tspan class="TextParagraph" font-family="Calibri, sans-serif" font-size="761px" font-weight="400"><tspan class="TextPosition" x="14525" y="1302"><tspan fill="rgb(0,0,0)" stroke="none">Dog cause of death</tspan></tspan></tspan></text>
 <path fill="none" stroke="rgb(91,155,213)" stroke-width="79" stroke-linejoin="round" stroke-linecap="round" d="M 11699,16751 L 12498,16751"/>
 <path fill="none" stroke="rgb(237,125,49)" stroke-width="79" stroke-linejoin="round" stroke-linecap="round" d="M 14539,16751 L 15338,16751"/>
 <path fill="none" stroke="rgb(165,165,165)" stroke-width="79" stroke-linejoin="round" stroke-linecap="round" d="M 17801,16751 L 18601,16751"/>
 <path fill="none" stroke="rgb(255,192,0)" stroke-width="79" stroke-linejoin="round" stroke-linecap="round" d="M 20138,16751 L 20938,16751"/>
 <text class="SVGTextShape"><tspan class="TextParagraph" font-family="Calibri, sans-serif" font-size="634px" font-weight="400"><tspan class="TextPosition" x="12637" y="16909"><tspan fill="rgb(0,0,0)" stroke="none">Thirst</tspan></tspan></tspan></text>
 <text class="SVGTextShape"><tspan class="TextParagraph" font-family="Calibri, sans-serif" font-size="634px" font-weight="400"><tspan class="TextPosition" x="15477" y="16909"><tspan fill="rgb(0,0,0)" stroke="none">Hunger</tspan></tspan></tspan></text>
 <text class="SVGTextShape"><tspan class="TextParagraph" font-family="Calibri, sans-serif" font-size="634px" font-weight="400"><tspan class="TextPosition" x="18740" y="16909"><tspan fill="rgb(0,0,0)" stroke="none">Age</tspan></tspan></tspan></text>
 <text class="SVGTextShape"><tspan class="TextParagraph" font-family="Calibri, sans-serif" font-size="634px" font-weight="400"><tspan class="TextPosition" x="21077" y="16909"><tspan fill="rgb(0,0,0)" stroke="none">Predator</tspan></tspan></tspan></text>
</svg>