<?xml version="1.0" encoding="UTF-8"?>
<!DOCTYPE svg PUBLIC "-//W3C//DTD SVG 1.1//EN" "http://www.w3.org/Graphics/SVG/1.1/DTD/svg11.dtd">
<svg width="350mm" height="172mm" viewBox="0 0 35000 17200" version="1.1" xmlns="http://www.w3.org/2000/svg" xmlns:xlink="http://www.w3.org/1999/xlink" stroke-width="28.222" stroke-linejoin="round" xml:space="preserve">
 <path fill="rgb(255,255,255)" stroke="none" d="M 17513,17197 L 13,17197 13,13 35012,13 35012,17197 17513,17197 Z"/>
 <path fill="none" stroke="rgb(217,217,217)" stroke-width="26" stroke-linejoin="round" d="M 17513,17197 L 13,17197 13,13 35012,13 35012,17197 17513,17197 Z"/>
 <path fill="none" stroke="rgb(217,217,217)" stroke-width="26" stroke-linejoin="round" d="M 34312,13772 L 2082,13772"/>
 <path fill="none" stroke="rgb(217,217,217)" stroke-width="26" stroke-linejoin="round" d="M 34312,12600 L 2082,12600"/>
 <path fill="none" stroke="rgb(217,217,217)" stroke-width="26" stroke-linejoin="round" d="M 34312,11429 L 2082,11429"/>
 <path fill="none" stroke="rgb(217,217,217)" stroke-width="26" stroke-linejoin="round" d="M 34312,10258 L 2082,10258"/>
 <path fill="none" stroke="rgb(217,217,217)" stroke-width="26" stroke-linejoin="round" d="M 34312,9086 L 2082,9086"/>
 <path fill="none" stroke="rgb(217,217,217)" stroke-width="26" stroke-linejoin="round" d="M 34312,7915 L 2082,7915"/>
 <path fill="none" stroke="rgb(217,217,217)" stroke-width="26" stroke-linejoin="round" d="M 34312,6743 L 2082,6743"/>
 <path fill="none" stroke="rgb(217,217,217)" stroke-width="26" stroke-linejoin="round" d="M 34312,5571 L 2082,5571"/>
 <path fill="none" stroke="rgb(217,217,217)" stroke-width="26" stroke-linejoin="round" d="M 34312,4400 L 2082,4400"/>
 <path fill="none" stroke="rgb(217,217,217)" stroke-width="26" stroke-linejoin="round" d="M 34312,3229 L 2082,3229"/>
 <path fill="none" stroke="rgb(217,217,217)" stroke-width="26" stroke-linejoin="round" d="M 34312,2058 L 2082,2058"/>
 <path fill="none" stroke="rgb(217,217,217)" stroke-width="26" stroke-linejoin="round" d="M 2082,13772 L 34312,13772"/>
 <path fill="none" stroke="rgb(237,125,49)" stroke-width="79" stroke-linejoin="round" stroke-linecap="round" d="M 2448,12908 L 3181,12960 3913,12748 4645,12464 5378,11949 6110,11361 6843,10998 7576,10465 8309,9535 9041,8703 9773,8006 10506,7424 11238,6829 11971,6296 12703,5724 13436,5232 14168,5011 14901,4633 15633,4610 16365,4142 17098,4223 17830,3917 18564,4088 19296,3916 20029,3601 20761,3635 21493,3916 22226,4573 22958,5164 23691,6014 24423,7079 25156,7897 25888,8808 26620,9657 27353,10401 28085,11231 28818,11914 29551,12475 30284,12879 31016,13253 31749,13548 32481,13718"/>
 <path fill="none" stroke="rgb(255,192,0)" stroke-width="79" stroke-linejoin="round" stroke-linecap="round" d="M 2448,13479 L 3181,13479 3913,13479 4645,13479 5378,13387 6110,13281 6843,13194 7576,13113 8309,12998 9041,12851 9773,12766 10506,12793 11238,12744 11971,12675 12703,12512 13436,12380 14168,12210 14901,12100 15633,12019 16365,11910 17098,11817 17830,11597 18564,11419 19296,11218 20029,10954 20761,10691 21493,10449 22226,10239 22958,9966 23691,9656 24423,9391 25156,8860 25888,8367 26620,7731 27353,7143 28085,6628 28818,6152 29551,5692 30284,5069 31016,4806 31749,4647 32481,4606"/>
 <path fill="none" stroke="rgb(68,114,196)" stroke-width="79" stroke-linejoin="round" stroke-linecap="round" d="M 2448,12806 L 3181,12630 3913,12597 4645,12662 5378,12719 6110,12858 6843,12991 7576,13173 8309,13377 9041,13527 9773,13639 10506,13679 11238,13690 11971,13706 12703,13720 13436,13727 14168,13719 14901,13710 15633,13700 16365,13701 17098,13692 17830,13672 18564,13666 19296,13664 20029,13666 20761,13659 21493,13652 22226,13631 22958,13606 23691,13588 24423,13577 25156,13550 25888,13509 26620,13471 27353,13430 28085,13378 28818,13328 29551,13274 30284,13218 31016,13159 31749,13101 32481,13043 33213,12987 33946,12943"/>
 <text class="SVGTextShape" transform="rotate(-44.9 1830 14787)"><tspan class="TextParagraph" font-family="Calibri, sans-serif" font-size="423px" font-weight="400"><tspan class="TextPosition" x="1830" y="14787"><tspan fill="rgb(89,89,89)" stroke="none">1-100</tspan></tspan></tspan></text>
 <text class="SVGTextShape" transform="rotate(-44.9 2263 15087)"><tspan class="TextParagraph" font-family="Calibri, sans-serif" font-size="423px" font-weight="400"><tspan class="TextPosition" x="2263" y="15087"><tspan fill="rgb(89,89,89)" stroke="none">101-200</tspan></tspan></tspan></text>
 <text class="SVGTextShape" transform="rotate(-44.9 2996 15087)"><tspan class="TextParagraph" font-family="Calibri, sans-serif" font-size="423px" font-weight="400"><tspan class="TextPosition" x="2996" y="15087"><tspan fill="rgb(89,89,89)" stroke="none">201-300</tspan></tspan></tspan></text>
 <text class="SVGTextShape" transform="rotate(-44.9 3728 15087)"><tspan class="TextParagraph" font-family="Calibri, sans-serif" font-size="423px" font-weight="400"><tspan class="TextPosition" x="3728" y="15087"><tspan fill="rgb(89,89,89)" stroke="none">301-400</tspan></tspan></tspan></text>
 <text class="SVGTextShape" transform="rotate(-44.9 4461 15087)"><tspan class="TextParagraph" font-family="Calibri, sans-serif" font-size="423px" font-weight="400"><tspan class="TextPosition" x="4461" y="15087"><tspan fill="rgb(89,89,89)" stroke="none">401-500</tspan></tspan></tspan></text>
 <text class="SVGTextShape" transform="rotate(-44.9 5193 15087)"><tspan class="TextParagraph" font-family="Calibri, sans-serif" font-size="423px" font-weight="400"><tspan class="TextPosition" x="5193" y="15087"><tspan fill="rgb(89,89,89)" stroke="none">501-600</tspan></tspan></tspan></text>
 <text class="SVGTextShape" transform="rotate(-44.9 5926 15087)"><tspan class="TextParagraph" font-family="Calibri, sans-serif" font-size="423px" font-weight="400"><tspan class="TextPosition" x="5926" y="15087"><tspan fill="rgb(89,89,89)" stroke="none">601-700</tspan></tspan></tspan></text>
 <text class="SVGTextShape" transform="rotate(-44.9 6659 15087)"><tspan class="TextParagraph" font-family="Calibri, sans-serif" font-size="423px" font-weight="400"><tspan class="TextPosition" x="6659" y="15087"><tspan fill="rgb(89,89,89)" stroke="none">701-800</tspan></tspan></tspan></text>
 <text class="SVGTextShape" transform="rotate(-44.9 7392 15087)"><tspan class="TextParagraph" font-family="Calibri, sans-serif" font-size="423px" font-weight="400"><tspan class="TextPosition" x="7392" y="15087"><tspan fill="rgb(89,89,89)" stroke="none">801-900</tspan></tspan></tspan></text>
 <text class="SVGTextShape" transform="rotate(-44.9 7974 15237)"><tspan class="TextParagraph" font-family="Calibri, sans-serif" font-size="423px" font-weight="400"><tspan class="TextPosition" x="7974" y="15237"><tspan fill="rgb(89,89,89)" stroke="none">901-1000</tspan></tspan></tspan></text>
 <text class="SVGTextShape" transform="rotate(-44.9 8557 15386)"><tspan class="TextParagraph" font-family="Calibri, sans-serif" font-size="423px" font-weight="400"><tspan class="TextPosition" x="8557" y="15386"><tspan fill="rgb(89,89,89)" stroke="none">1001-1100</tspan></tspan></tspan></text>
 <text class="SVGTextShape" transform="rotate(-44.9 9289 15386)"><tspan class="TextParagraph" font-family="Calibri, sans-serif" font-size="423px" font-weight="400"><tspan class="TextPosition" x="9289" y="15386"><tspan fill="rgb(89,89,89)" stroke="none">1101-1200</tspan></tspan></tspan></text>
 <text class="SVGTextShape" transform="rotate(-44.9 10021 15386)"><tspan class="TextParagraph" font-family="Calibri, sans-serif" font-size="423px" font-weight="400"><tspan class="TextPosition" x="10021" y="15386"><tspan fill="rgb(89,89,89)" stroke="none">1201-1300</tspan></tspan></tspan></text>
 <text class="SVGTextShape" transform="rotate(-44.9 10754 15386)"><tspan class="TextParagraph" font-family="Calibri, sans-serif" font-size="423px" font-weight="400"><tspan class="TextPosition" x="10754" y="15386"><tspan fill="rgb(89,89,89)" stroke="none">1301-1400</tspan></tspan></tspan></text>
 <text class="SVGTextShape" transform="rotate(-44.9 11486 15386)"><tspan class="TextParagraph" font-family="Calibri, sans-serif" font-size="423px" font-weight="400"><tspan class="TextPosition" x="11486" y="15386"><tspan fill="rgb(89,89,89)" stroke="none">1401-1500</tspan></tspan></tspan></text>
 <text class="SVGTextShape" transform="rotate(-44.9 12219 15386)"><tspan class="TextParagraph" font-family="Calibri, sans-serif" font-size="423px" font-weight="400"><tspan class="TextPosition" x="12219" y="15386"><tspan fill="rgb(89,89,89)" stroke="none">1501-1600</tspan></tspan></tspan></text>
 <text class="SVGTextShape" transform="rotate(-44.9 12951 15386)"><tspan class="TextParagraph" font-family="Calibri, sans-serif" font-size="423px" font-weight="400"><tspan class="TextPosition" x="12951" y="15386"><tspan fill="rgb(89,89,89)" stroke="none">1601-1700</tspan></tspan></tspan></text>
 <text class="SVGTextShape" transform="rotate(-44.9 13684 15386)"><tspan class="TextParagraph" font-family="Calibri, sans-serif" font-size="423px" font-weight="400"><tspan class="TextPosition" x="13684" y="15386"><tspan fill="rgb(89,89,89)" stroke="none">1701-1800</tspan></tspan></tspan></text>
 <text class="SVGTextShape" transform="rotate(-44.9 14416 15386)"><tspan class="TextParagraph" font-family="Calibri, sans-serif" font-size="423px" font-weight="400"><tspan class="TextPosition" x="14416" y="15386"><tspan fill="rgb(89,89,89)" stroke="none">1801-1900</tspan></tspan></tspan></text>
 <text class="SVGTextShape" transform="rotate(-44.9 15149 15386)"><tspan class="TextParagraph" font-family="Calibri, sans-serif" font-size="423px" font-weight="400"><tspan class="TextPosition" x="15149" y="15386"><tspan fill="rgb(89,89,89)" stroke="none">1901-2000</tspan></tspan></tspan></text>
 <text class="SVGTextShape" transform="rotate(-44.9 15881 15386)"><tspan class="TextParagraph" font-family="Calibri, sans-serif" font-size="423px" font-weight="400"><tspan class="TextPosition" x="15881" y="15386"><tspan fill="rgb(89,89,89)" stroke="none">2001-2100</tspan></tspan></tspan></text>
 <text class="SVGTextShape" transform="rotate(-44.9 16613 15386)"><tspan class="TextParagraph" font-family="Calibri, sans-serif" font-size="423px" font-weight="400"><tspan class="TextPosition" x="16613" y="15386"><tspan fill="rgb(89,89,89)" stroke="none">2101-2200</tspan></tspan></tspan></text>
 <text class="SVGTextShape" transform="rotate(-44.9 17347 15386)"><tspan class="TextParagraph" font-family="Calibri, sans-serif" font-size="423px" font-weight="400"><tspan class="TextPosition" x="17347" y="15386"><tspan fill="rgb(89,89,89)" stroke="none">2201-2300</tspan></tspan></tspan></text>
 <text class="SVGTextShape" transform="rotate(-44.9 18079 15386)"><tspan class="TextParagraph" font-family="Calibri, sans-serif" font-size="423px" font-weight="400"><tspan class="TextPosition" x="18079" y="15386"><tspan fill="rgb(89,89,89)" stroke="none">2301-2400</tspan></tspan></tspan></text>
 <text class="SVGTextShape" transform="rotate(-44.9 18812 15386)"><tspan class="TextParagraph" font-family="Calibri, sans-serif" font-size="423px" font-weight="400"><tspan class="TextPosition" x="18812" y="15386"><tspan fill="rgb(89,89,89)" stroke="none">2401-2500</tspan></tspan></tspan></text>
 <text class="SVGTextShape" transform="rotate(-44.9 19544 15386)"><tspan class="TextParagraph" font-family="Calibri, sans-serif" font-size="423px" font-weight="400"><tspan class="TextPosition" x="19544" y="15386"><tspan fill="rgb(89,89,89)" stroke="none">2501-2600</tspan></tspan></tspan></text>
 <text class="SVGTextShape" transform="rotate(-44.9 20277 15386)"><tspan class="TextParagraph" font-family="Calibri, sans-serif" font-size="423px" font-weight="400"><tspan class="TextPosition" x="20277" y="15386"><tspan fill="rgb(89,89,89)" stroke="none">2601-2700</tspan></tspan></tspan></text>
 <text class="SVGTextShape" transform="rotate(-44.9 21009 15386)"><tspan class="TextParagraph" font-family="Calibri, sans-serif" font-size="423px" font-weight="400"><tspan class="TextPosition" x="21009" y="15386"><tspan fill="rgb(89,89,89)" stroke="none">2701-2800</tspan></tspan></tspan></text>
 <text class="SVGTextShape" transform="rotate(-44.9 21741 15386)"><tspan class="TextParagraph" font-family="Calibri, sans-serif" font-size="423px" font-weight="400"><tspan class="TextPosition" x="21741" y="15386"><tspan fill="rgb(89,89,89)" stroke="none">2801-2900</tspan></tspan></tspan></text>
 <text class="SVGTextShape" transform="rotate(-44.9 22474 15386)"><tspan class="TextParagraph" font-family="Calibri, sans-serif" font-size="423px" font-weight="400"><tspan class="TextPosition" x="22474" y="15386"><tspan fill="rgb(89,89,89)" stroke="none">2901-3000</tspan></tspan></tspan></text>
 <text class="SVGTextShape" transform="rotate(-44.9 23206 15386)"><tspan class="TextParagraph" font-family="Calibri, sans-serif" font-size="423px" font-weight="400"><tspan class="TextPosition" x="23206" y="15386"><tspan fill="rgb(89,89,89)" stroke="none">3001-3100</tspan></tspan></tspan></text>
 <text class="SVGTextShape" transform="rotate(-44.9 23939 15386)"><tspan class="TextParagraph" font-family="Calibri, sans-serif" font-size="423px" font-weight="400"><tspan class="TextPosition" x="23939" y="15386"><tspan fill="rgb(89,89,89)" stroke="none">3101-3200</tspan></tspan></tspan></text>
 <text class="SVGTextShape" transform="rotate(-44.9 24671 15386)"><tspan class="TextParagraph" font-family="Calibri, sans-serif" font-size="423px" font-weight="400"><tspan class="TextPosition" x="24671" y="15386"><tspan fill="rgb(89,89,89)" stroke="none">3201-3300</tspan></tspan></tspan></text>
 <text class="SVGTextShape" transform="rotate(-44.9 25404 15386)"><tspan class="TextParagraph" font-family="Calibri, sans-serif" font-size="423px" font-weight="400"><tspan class="TextPosition" x="25404" y="15386"><tspan fill="rgb(89,89,89)" stroke="none">3301-3400</tspan></tspan></tspan></text>
 <text class="SVGTextShape" transform="rotate(-44.9 26136 15386)"><tspan class="TextParagraph" font-family="Calibri, sans-serif" font-size="423px" font-weight="400"><tspan class="TextPosition" x="26136" y="15386"><tspan fill="rgb(89,89,89)" stroke="none">3401-3500</tspan></tspan></tspan></text>
 <text class="SVGTextShape" transform="rotate(-44.9 26869 15386)"><tspan class="TextParagraph" font-family="Calibri, sans-serif" font-size="423px" font-weight="400"><tspan class="TextPosition" x="26869" y="15386"><tspan fill="rgb(89,89,89)" stroke="none">3501-3600</tspan></tspan></tspan></text>
 <text class="SVGTextShape" transform="rotate(-44.9 27601 15386)"><tspan class="TextParagraph" font-family="Calibri, sans-serif" font-size="423px" font-weight="400"><tspan class="TextPosition" x="27601" y="15386"><tspan fill="rgb(89,89,89)" stroke="none">3601-3700</tspan></tspan></tspan></text>
 <text class="SVGTextShape" transform="rotate(-44.9 28334 15386)"><tspan class="TextParagraph" font-family="Calibri, sans-serif" font-size="423px" font-weight="400"><tspan class="TextPosition" x="28334" y="15386"><tspan fill="rgb(89,89,89)" stroke="none">3701-3800</tspan></tspan></tspan></text>
 <text class="SVGTextShape" transform="rotate(-44.9 29067 15386)"><tspan class="TextParagraph" font-family="Calibri, sans-serif" font-size="423px" font-weight="400"><tspan class="TextPosition" x="29067" y="15386"><tspan fill="rgb(89,89,89)" stroke="none">3801-3900</tspan></tspan></tspan></text>
 <text class="SVGTextShape" transform="rotate(-44.9 29799 15386)"><tspan class="TextParagraph" font-family="Calibri, sans-serif" font-size="423px" font-weight="400"><tspan class="TextPosition" x="29799" y="15386"><tspan fill="rgb(89,89,89)" stroke="none">3901-4000</tspan></tspan></tspan></text>
 <text class="SVGTextShape" transform="rotate(-44.9 30532 15386)"><tspan class="TextParagraph" font-family="Calibri, sans-serif" font-size="423px" font-weight="400"><tspan class="TextPosition" x="30532" y="15386"><tspan fill="rgb(89,89,89)" stroke="none">4001-4100</tspan></tspan></tspan></text>
 <text class="SVGTextShape" transform="rotate(-44.9 31264 15386)"><tspan class="TextParagraph" font-family="Calibri, sans-serif" font-size="423px" font-weight="400"><tspan class="TextPosition" x="31264" y="15386"><tspan fill="rgb(89,89,89)" stroke="none">4101-4200</tspan></tspan></tspan></text>
 <text class="SVGTextShape" transform="rotate(-44.9 31997 15386)"><tspan class="TextParagraph" font-family="Calibri, sans-serif" font-size="423px" font-weight="400"><tspan class="TextPosition" x="31997" y="15386"><tspan fill="rgb(89,89,89)" stroke="none">4201-4300</tspan></tspan></tspan></text>
 <text class="SVGTextShape" transform="rotate(-44.9 32729 15386)"><tspan class="TextParagraph" font-family="Calibri, sans-serif" font-size="423px" font-weight="400"><tspan class="TextPosition" x="32729" y="15386"><tspan fill="rgb(89,89,89)" stroke="none">4301-4400</tspan></tspan></tspan></text>
 <text class="SVGTextShape"><tspan class="TextParagraph" font-family="Calibri, sans-serif" font-size="634px" font-weight="400"><tspan class="TextPosition" x="1665" y="13932"><tspan fill="rgb(89,89,89)" stroke="none">0</tspan></tspan></tspan></text>
 <text class="SVGTextShape"><tspan class="TextParagraph" font-family="Calibri, sans-serif" font-size="634px" font-weight="400"><tspan class="TextPosition" x="1030" y="12759"><tspan fill="rgb(89,89,89)" stroke="none">200</tspan></tspan></tspan></text>
 <text class="SVGTextShape"><tspan class="TextParagraph" font-family="Calibri, sans-serif" font-size="634px" font-weight="400"><tspan class="TextPosition" x="1030" y="11588"><tspan fill="rgb(89,89,89)" stroke="none">400</tspan></tspan></tspan></text>
 <text class="SVGTextShape"><tspan class="TextParagraph" font-family="Calibri, sans-serif" font-size="634px" font-weight="400"><tspan class="TextPosition" x="1030" y="10417"><tspan fill="rgb(89,89,89)" stroke="none">600</tspan></tspan></tspan></text>
 <text class="SVGTextShape"><tspan class="TextParagraph" font-family="Calibri, sans-serif" font-size="634px" font-weight="400"><tspan class="TextPosition" x="1030" y="9245"><tspan fill="rgb(89,89,89)" stroke="none">800</tspan></tspan></tspan></text>
 <text class="SVGTextShape"><tspan class="TextParagraph" font-family="Calibri, sans-serif" font-size="634px" font-weight="400"><tspan class="TextPosition" x="713" y="8074"><tspan fill="rgb(89,89,89)" stroke="none">1000</tspan></tspan></tspan></text>
 <text class="SVGTextShape"><tspan class="TextParagraph" font-family="Calibri, sans-serif" font-size="634px" font-weight="400"><tspan class="TextPosition" x="713" y="6903"><tspan fill="rgb(89,89,89)" stroke="none">1200</tspan></tspan></tspan></text>
 <text class="SVGTextShape"><tspan class="TextParagraph" font-family="Calibri, sans-serif" font-size="634px" font-weight="400"><tspan class="TextPosition" x="713" y="5731"><tspan fill="rgb(89,89,89)" stroke="none">1400</tspan></tspan></tspan></text>
 <text class="SVGTextShape"><tspan class="TextParagraph" font-family="Calibri, sans-serif" font-size="634px" font-weight="400"><tspan class="TextPosition" x="713" y="4559"><tspan fill="rgb(89,89,89)" stroke="none">1600</tspan></tspan></tspan></text>
 <text class="SVGTextShape"><tspan class="TextParagraph" font-family="Calibri, sans-serif" font-size="634px" font-weight="400"><tspan class="TextPosition" x="713" y="3388"><tspan fill="rgb(89,89,89)" stroke="none">1800</tspan></tspan></tspan></text>
 <text class="SVGTextShape"><tspan class="TextParagraph" font-family="Calibri, sans-serif" font-size="634px" font-weight="400"><tspan class="TextPosition" x="713" y="2217"><tspan fill="rgb(89,89,89)" stroke="none">2000</tspan></tspan></tspan></text>
 <text class="SVGTextShape"><tspan class="TextParagraph" font-family="Calibri, sans-serif" font-size="761px" font-weight="400"><tspan class="TextPosition" x="15834" y="1302"><tspan fill="rgb(89,89,89)" stroke="none">Population</tspan></tspan></tspan></text>
 <path fill="none" stroke="rgb(237,125,49)" stroke-width="79" stroke-linejoin="round" stroke-linecap="round" d="M 13436,16751 L 14235,16751"/>
 <path fill="none" stroke="rgb(255,192,0)" stroke-width="79" stroke-linejoin="round" stroke-linecap="round" d="M 16857,16751 L 17656,16751"/>
 <path fill="none" stroke="rgb(68,114,196)" stroke-width="79" stroke-linejoin="round" stroke-linecap="round" d="M 19247,16751 L 20047,16751"/>
 <text class="SVGTextShape"><tspan class="TextParagraph" font-family="Calibri, sans-serif" font-size="634px" font-weight="400"><tspan class="TextPosition" x="14374" y="16909"><tspan fill="rgb(89,89,89)" stroke="none">Chicken</tspan></tspan></tspan></text>
 <text class="SVGTextShape"><tspan class="TextParagraph" font-family="Calibri, sans-serif" font-size="634px" font-weight="400"><tspan class="TextPosition" x="17795" y="16909"><tspan fill="rgb(89,89,89)" stroke="none">Dog</tspan></tspan></tspan></text>
 <text class="SVGTextShape"><tspan class="TextParagraph" font-family="Calibri, sans-serif" font-size="634px" font-weight="400"><tspan class="TextPosition" x="20185" y="16909"><tspan fill="rgb(89,89,89)" stroke="none">Grain</tspan></tspan></tspan></text>
</svg>