<?xml version="1.0" encoding="UTF-8"?>
<!DOCTYPE svg PUBLIC "-//W3C//DTD SVG 1.1//EN" "http://www.w3.org/Graphics/SVG/1.1/DTD/svg11.dtd">
<svg width="350mm" height="172mm" viewBox="0 0 35000 17200" version="1.1" xmlns="http://www.w3.org/2000/svg" xmlns:xlink="http://www.w3.org/1999/xlink" stroke-width="28.222" stroke-linejoin="round" xml:space="preserve">
 <path fill="rgb(255,255,255)" stroke="none" d="M 17513,17198 L 13,17198 13,13 35012,13 35012,17198 17513,17198 Z"/>
 <path fill="none" stroke="rgb(255,255,255)" stroke-width="26" stroke-linejoin="round" d="M 17513,17198 L 13,17198 13,13 35012,13 35012,17198 17513,17198 Z"/>
 <path fill="none" stroke="rgb(217,217,217)" stroke-width="26" stroke-linejoin="round" d="M 34313,12990 L 2400,12990"/>
 <path fill="none" stroke="rgb(217,217,217)" stroke-width="26" stroke-linejoin="round" d="M 34313,11427 L 2400,11427"/>
 <path fill="none" stroke="rgb(217,217,217)" stroke-width="26" stroke-linejoin="round" d="M 34313,9866 L 2400,9866"/>
 <path fill="none" stroke="rgb(217,217,217)" stroke-width="26" stroke-linejoin="round" d="M 34313,8304 L 2400,8304"/>
 <path fill="none" stroke="rgb(217,217,217)" stroke-width="26" stroke-linejoin="round" d="M 34313,6742 L 2400,6742"/>
 <path fill="none" stroke="rgb(217,217,217)" stroke-width="26" stroke-linejoin="round" d="M 34313,5181 L 2400,5181"/>
 <path fill="none" stroke="rgb(217,217,217)" stroke-width="26" stroke-linejoin="round" d="M 34313,3619 L 2400,3619"/>
 <path fill="none" stroke="rgb(217,217,217)" stroke-width="26" stroke-linejoin="round" d="M 34313,2058 L 2400,2058"/>
 <path fill="none" stroke="rgb(217,217,217)" stroke-width="26" stroke-linejoin="round" d="M 2400,12990 L 34313,12990"/>
 <path fill="none" stroke="rgb(91,155,213)" stroke-width="79" stroke-linejoin="round" stroke-linecap="round" d="M 2780,12990 L 3539,12990 4300,12990 5059,12990 5819,12987 6579,12976 7338,12965 8099,12939 8858,12912 9618,12885 10378,12853 11137,12831 11898,12816 12657,12804 13417,12794 14177,12786 14936,12779 15697,12769 16456,12758 17216,12751 17976,12740 18736,12728 19496,12714 20255,12700 21015,12686 21775,12674 22535,12664 23295,12656 24054,12646 24814,12634 25574,12617 26334,12605 27094,12598 27854,12594 28613,12589 29373,12584 30133,12581 30893,12577 31653,12573 32412,12569 33172,12568 33932,12568"/>
 <path fill="none" stroke="rgb(237,125,49)" stroke-width="79" stroke-linejoin="round" stroke-linecap="round" d="M 2780,12990 L 3539,12990 4300,12990 5059,12990 5819,12989 6579,12986 7338,12982 8099,12972 8858,12942 9618,12885 10378,12783 11137,12636 11898,12426 12657,12176 13417,11886 14177,11573 14936,11220 15697,10826 16456,10433 17216,10022 17976,9601 18736,9175 19496,8730 20255,8310 21015,7849 21775,7435 22535,6985 23295,6508 24054,6109 24814,5707 25574,5342 26334,5036 27094,4756 27854,4515 28613,4332 29373,4180 30133,4056 30893,3966 31653,3915 32412,3876 33172,3854 33932,3848"/>
 <path fill="none" stroke="rgb(165,165,165)" stroke-width="79" stroke-linejoin="round" stroke-linecap="round" d="M 2780,12990 L 3539,12990 4300,12990 5059,12990 5819,12990 6579,12989 7338,12946 8099,12904 8858,12892 9618,12864 10378,12831 11137,12788 11898,12754 12657,12719 13417,12692 14177,12667 14936,12650 15697,12637 16456,12623 17216,12613 17976,12606 18736,12600 19496,12594 20255,12589 21015,12584 21775,12575 22535,12571 23295,12564 24054,12555 24814,12549 25574,12542 26334,12537 27094,12533 27854,12529 28613,12526 29373,12521 30133,12518 30893,12516 31653,12515 32412,12514 33172,12514 33932,12514"/>
 <path fill="none" stroke="rgb(255,192,0)" stroke-width="79" stroke-linejoin="round" stroke-linecap="round" d="M 2780,12988 L 3539,12981 4300,12973 5059,12967 5819,12964 6579,12960 7338,12953 8099,12949 8858,12941 9618,12932 10378,12920 11137,12914 11898,12910 12657,12903 13417,12894 14177,12880 14936,12866 15697,12852 16456,12841 17216,12827 17976,12809 18736,12794 19496,12781 20255,12762 21015,12739 21775,12713 22535,12684 23295,12652 24054,12620 24814,12588 25574,12557 26334,12526 27094,12495 27854,12462 28613,12429 29373,12401 30133,12370 30893,12339 31653,12313 32412,12289 33172,12263 33932,12246"/>
 <text class="SVGTextShape" transform="rotate(-44.9 1863 14454)"><tspan class="TextParagraph" font-family="Calibri, sans-serif" font-size="634px" font-weight="400"><tspan class="TextPosition" x="1863" y="14454"><tspan fill="rgb(0,0,0)" stroke="none">1-100</tspan></tspan></tspan></text>
 <text class="SVGTextShape" transform="rotate(-44.9 2934 14901)"><tspan class="TextParagraph" font-family="Calibri, sans-serif" font-size="634px" font-weight="400"><tspan class="TextPosition" x="2934" y="14901"><tspan fill="rgb(0,0,0)" stroke="none">201-300</tspan></tspan></tspan></text>
 <text class="SVGTextShape" transform="rotate(-44.9 4453 14901)"><tspan class="TextParagraph" font-family="Calibri, sans-serif" font-size="634px" font-weight="400"><tspan class="TextPosition" x="4453" y="14901"><tspan fill="rgb(0,0,0)" stroke="none">401-500</tspan></tspan></tspan></text>
 <text class="SVGTextShape" transform="rotate(-44.9 5972 14901)"><tspan class="TextParagraph" font-family="Calibri, sans-serif" font-size="634px" font-weight="400"><tspan class="TextPosition" x="5972" y="14901"><tspan fill="rgb(0,0,0)" stroke="none">601-700</tspan></tspan></tspan></text>
 <text class="SVGTextShape" transform="rotate(-44.9 7492 14901)"><tspan class="TextParagraph" font-family="Calibri, sans-serif" font-size="634px" font-weight="400"><tspan class="TextPosition" x="7492" y="14901"><tspan fill="rgb(0,0,0)" stroke="none">801-900</tspan></tspan></tspan></text>
 <text class="SVGTextShape" transform="rotate(-44.9 8562 15350)"><tspan class="TextParagraph" font-family="Calibri, sans-serif" font-size="634px" font-weight="400"><tspan class="TextPosition" x="8562" y="15350"><tspan fill="rgb(0,0,0)" stroke="none">1001-1100</tspan></tspan></tspan></text>
 <text class="SVGTextShape" transform="rotate(-44.9 10082 15350)"><tspan class="TextParagraph" font-family="Calibri, sans-serif" font-size="634px" font-weight="400"><tspan class="TextPosition" x="10082" y="15350"><tspan fill="rgb(0,0,0)" stroke="none">1201-1300</tspan></tspan></tspan></text>
 <text class="SVGTextShape" transform="rotate(-44.9 11601 15350)"><tspan class="TextParagraph" font-family="Calibri, sans-serif" font-size="634px" font-weight="400"><tspan class="TextPosition" x="11601" y="15350"><tspan fill="rgb(0,0,0)" stroke="none">1401-1500</tspan></tspan></tspan></text>
 <text class="SVGTextShape" transform="rotate(-44.9 13121 15350)"><tspan class="TextParagraph" font-family="Calibri, sans-serif" font-size="634px" font-weight="400"><tspan class="TextPosition" x="13121" y="15350"><tspan fill="rgb(0,0,0)" stroke="none">1601-1700</tspan></tspan></tspan></text>
 <text class="SVGTextShape" transform="rotate(-44.9 14641 15350)"><tspan class="TextParagraph" font-family="Calibri, sans-serif" font-size="634px" font-weight="400"><tspan class="TextPosition" x="14641" y="15350"><tspan fill="rgb(0,0,0)" stroke="none">1801-1900</tspan></tspan></tspan></text>
 <text class="SVGTextShape" transform="rotate(-44.9 16160 15350)"><tspan class="TextParagraph" font-family="Calibri, sans-serif" font-size="634px" font-weight="400"><tspan class="TextPosition" x="16160" y="15350"><tspan fill="rgb(0,0,0)" stroke="none">2001-2100</tspan></tspan></tspan></text>
 <text class="SVGTextShape" transform="rotate(-44.9 17680 15350)"><tspan class="TextParagraph" font-family="Calibri, sans-serif" font-size="634px" font-weight="400"><tspan class="TextPosition" x="17680" y="15350"><tspan fill="rgb(0,0,0)" stroke="none">2201-2300</tspan></tspan></tspan></text>
 <text class="SVGTextShape" transform="rotate(-44.9 19199 15350)"><tspan class="TextParagraph" font-family="Calibri, sans-serif" font-size="634px" font-weight="400"><tspan class="TextPosition" x="19199" y="15350"><tspan fill="rgb(0,0,0)" stroke="none">2401-2500</tspan></tspan></tspan></text>
 <text class="SVGTextShape" transform="rotate(-44.9 20719 15350)"><tspan class="TextParagraph" font-family="Calibri, sans-serif" font-size="634px" font-weight="400"><tspan class="TextPosition" x="20719" y="15350"><tspan fill="rgb(0,0,0)" stroke="none">2601-2700</tspan></tspan></tspan></text>
 <text class="SVGTextShape" transform="rotate(-44.9 22239 15350)"><tspan class="TextParagraph" font-family="Calibri, sans-serif" font-size="634px" font-weight="400"><tspan class="TextPosition" x="22239" y="15350"><tspan fill="rgb(0,0,0)" stroke="none">2801-2900</tspan></tspan></tspan></text>
 <text class="SVGTextShape" transform="rotate(-44.9 23759 15350)"><tspan class="TextParagraph" font-family="Calibri, sans-serif" font-size="634px" font-weight="400"><tspan class="TextPosition" x="23759" y="15350"><tspan fill="rgb(0,0,0)" stroke="none">3001-3100</tspan></tspan></tspan></text>
 <text class="SVGTextShape" transform="rotate(-44.9 25278 15350)"><tspan class="TextParagraph" font-family="Calibri, sans-serif" font-size="634px" font-weight="400"><tspan class="TextPosition" x="25278" y="15350"><tspan fill="rgb(0,0,0)" stroke="none">3201-3300</tspan></tspan></tspan></text>
 <text class="SVGTextShape" transform="rotate(-44.9 26797 15350)"><tspan class="TextParagraph" font-family="Calibri, sans-serif" font-size="634px" font-weight="400"><tspan class="TextPosition" x="26797" y="15350"><tspan fill="rgb(0,0,0)" stroke="none">3401-3500</tspan></tspan></tspan></text>
 <text class="SVGTextShape" transform="rotate(-44.9 28317 15350)"><tspan class="TextParagraph" font-family="Calibri, sans-serif" font-size="634px" font-weight="400"><tspan class="TextPosition" x="28317" y="15350"><tspan fill="rgb(0,0,0)" stroke="none">3601-3700</tspan></tspan></tspan></text>
 <text class="SVGTextShape" transform="rotate(-44.9 29837 15350)"><tspan class="TextParagraph" font-family="Calibri, sans-serif" font-size="634px" font-weight="400"><tspan class="TextPosition" x="29837" y="15350"><tspan fill="rgb(0,0,0)" stroke="none">3801-3900</tspan></tspan></tspan></text>
 <text class="SVGTextShape" transform="rotate(-44.9 31357 15350)"><tspan class="TextParagraph" font-family="Calibri, sans-serif" font-size="634px" font-weight="400"><tspan class="TextPosition" x="31357" y="15350"><tspan fill="rgb(0,0,0)" stroke="none">4001-4100</tspan></tspan></tspan></text>
 <text class="SVGTextShape"><tspan class="TextParagraph" font-family="Calibri, sans-serif" font-size="634px" font-weight="400"><tspan class="TextPosition" x="1982" y="13149"><tspan fill="rgb(0,0,0)" stroke="none">0</tspan></tspan></tspan></text>
 <text class="SVGTextShape"><tspan class="TextParagraph" font-family="Calibri, sans-serif" font-size="634px" font-weight="400"><tspan class="TextPosition" x="1031" y="11586"><tspan fill="rgb(0,0,0)" stroke="none">2000</tspan></tspan></tspan></text>
 <text class="SVGTextShape"><tspan class="TextParagraph" font-family="Calibri, sans-serif" font-size="634px" font-weight="400"><tspan class="TextPosition" x="1031" y="10025"><tspan fill="rgb(0,0,0)" stroke="none">4000</tspan></tspan></tspan></text>
 <text class="SVGTextShape"><tspan class="TextParagraph" font-family="Calibri, sans-serif" font-size="634px" font-weight="400"><tspan class="TextPosition" x="1031" y="8463"><tspan fill="rgb(0,0,0)" stroke="none">6000</tspan></tspan></tspan></text>
 <text class="SVGTextShape"><tspan class="TextParagraph" font-family="Calibri, sans-serif" font-size="634px" font-weight="400"><tspan class="TextPosition" x="1031" y="6902"><tspan fill="rgb(0,0,0)" stroke="none">8000</tspan></tspan></tspan></text>
 <text class="SVGTextShape"><tspan class="TextParagraph" font-family="Calibri, sans-serif" font-size="634px" font-weight="400"><tspan class="TextPosition" x="713" y="5340"><tspan fill="rgb(0,0,0)" stroke="none">10000</tspan></tspan></tspan></text>
 <text class="SVGTextShape"><tspan class="TextParagraph" font-family="Calibri, sans-serif" font-size="634px" font-weight="400"><tspan class="TextPosition" x="713" y="3779"><tspan fill="rgb(0,0,0)" stroke="none">12000</tspan></tspan></tspan></text>
 <text class="SVGTextShape"><tspan class="TextParagraph" font-family="Calibri, sans-serif" font-size="634px" font-weight="400"><tspan class="TextPosition" x="713" y="2217"><tspan fill="rgb(0,0,0)" stroke="none">14000</tspan></tspan></tspan></text>
 <text class="SVGTextShape"><tspan class="TextParagraph" font-family="Calibri, sans-serif" font-size="761px" font-weight="400"><tspan class="TextPosition" x="13944" y="1302"><tspan fill="rgb(0,0,0)" stroke="none">Chicken cause of death</tspan></tspan></tspan></text>
 <path fill="none" stroke="rgb(91,155,213)" stroke-width="79" stroke-linejoin="round" stroke-linecap="round" d="M 11699,16752 L 12498,16752"/>
 <path fill="none" stroke="rgb(237,125,49)" stroke-width="79" stroke-linejoin="round" stroke-linecap="round" d="M 14539,16752 L 15338,16752"/>
 <path fill="none" stroke="rgb(165,165,165)" stroke-width="79" stroke-linejoin="round" stroke-linecap="round" d="M 17801,16752 L 18601,16752"/>
 <path fill="none" stroke="rgb(255,192,0)" stroke-width="79" stroke-linejoin="round" stroke-linecap="round" d="M 20138,16752 L 20938,16752"/>
 <text class="SVGTextShape"><tspan class="TextParagraph" font-family="Calibri, sans-serif" font-size="634px" font-weight="400"><tspan class="TextPosition" x="12637" y="16910"><tspan fill="rgb(0,0,0)" stroke="none">Thirst</tspan></tspan></tspan></text>
 <text class="SVGTextShape"><tspan class="TextParagraph" font-family="Calibri, sans-serif" font-size="634px" font-weight="400"><tspan class="TextPosition" x="15477" y="16910"><tspan fill="rgb(0,0,0)" stroke="none">Hunger</tspan></tspan></tspan></text>
 <text class="SVGTextShape"><tspan class="TextParagraph" font-family="Calibri, sans-serif" font-size="634px" font-weight="400"><tspan class="TextPosition" x="18740" y="16910"><tspan fill="rgb(0,0,0)" stroke="none">Age</tspan></tspan></tspan></text>
 <text class="SVGTextShape"><tspan class="TextParagraph" font-family="Calibri, sans-serif" font-size="634px" font-weight="400"><tspan class="TextPosition" x="21077" y="16910"><tspan fill="rgb(0,0,0)" stroke="none">Predator</tspan></tspan></tspan></text>
</svg>